<svg width="175" height="175" viewBox="0 0 175 175" fill="none" xmlns="http://www.w3.org/2000/svg">
<path d="M121.482 40.0602L31.4102 49.5431L43.4966 164.346L133.568 154.863L121.482 40.0602Z" fill="#E0E0E0"/>
<path d="M124.918 42.5161L35.7449 55.8909L51.4921 160.882L140.665 147.507L124.918 42.5161Z" fill="#EBEBEB"/>
<path d="M159.992 51.996C159.992 51.996 156.45 49.6615 152.159 58.1C147.868 66.5385 146.226 71.4 146.226 71.4C146.226 71.4 145.089 73.15 143.874 72.0125C142.66 70.875 140.994 67.5745 138.929 68.1625C136.787 68.775 136.08 71.1655 136.479 74.6795C136.878 78.1935 137.501 85.9215 137.553 86.6215C137.606 87.3215 137.203 88.319 136.258 87.6715C135.313 87.024 129.815 80.906 127.071 83.685C124.327 86.464 127.071 96.061 127.354 97.118C127.638 98.175 127.428 98.623 126.924 98.868C126.42 99.113 124.771 96.901 123.14 95.228C121.509 93.555 119.322 91.8995 117.873 93.632C116.424 95.3645 115.962 102.571 122.815 114.282L126.35 119.507L132.65 119.157C146.118 117.586 151.592 112.878 152.103 110.673C152.614 108.468 149.978 107.726 147.658 107.429C145.337 107.131 142.565 107.159 142.471 106.603C142.376 106.046 142.614 105.609 143.626 105.203C144.637 104.797 153.954 101.202 154.518 97.3385C155.081 93.4745 146.898 92.7885 145.799 92.407C144.7 92.0255 145.274 91.119 145.852 90.7445C146.429 90.37 152.981 86.1945 156.033 84.4095C159.085 82.6245 160.566 80.619 159.768 78.54C158.994 76.5345 155.372 77.182 153.716 76.909C152.061 76.636 152.789 74.662 152.789 74.662C152.789 74.662 155.697 70.427 159.845 61.908C163.992 53.389 159.897 51.9575 159.897 51.9575" fill="#E0E0E0"/>
<path d="M156.128 59.549C156.128 59.549 156.104 59.612 156.048 59.731L155.803 60.2595L154.837 62.3C153.997 64.05 152.761 66.5875 151.225 69.7095C148.152 75.95 143.85 84.5285 139.041 93.9995C134.232 103.47 129.906 112.059 126.791 118.286L123.123 125.667L122.15 127.673L121.884 128.194C121.825 128.31 121.79 128.366 121.79 128.366C121.79 128.366 121.814 128.303 121.867 128.184L122.115 127.656L123.081 125.636C123.921 123.886 125.153 121.348 126.69 118.226C129.763 111.982 134.078 103.39 138.877 93.912C143.675 84.434 148.008 75.859 151.127 69.629C152.67 66.5175 153.927 64.001 154.791 62.2475C155.222 61.383 155.558 60.7075 155.792 60.242L156.055 59.724C156.1 59.6085 156.128 59.549 156.128 59.549Z" fill="#EBEBEB"/>
<path d="M141.071 72.8665C141.141 73.0019 141.195 73.1453 141.232 73.2935C141.323 73.57 141.442 73.9935 141.582 74.48C141.869 75.488 142.226 76.888 142.593 78.4385C142.961 79.989 143.272 81.3575 143.521 82.418C143.636 82.894 143.731 83.2965 143.808 83.622C143.853 83.7669 143.883 83.9157 143.899 84.0665C143.828 83.9309 143.773 83.7876 143.734 83.6395C143.643 83.363 143.524 82.957 143.384 82.453C143.108 81.4415 142.768 80.038 142.401 78.484C142.033 76.93 141.701 75.572 141.445 74.515C141.33 74.039 141.232 73.6365 141.151 73.3145C141.111 73.1679 141.084 73.018 141.071 72.8665Z" fill="#EBEBEB"/>
<path d="M144.48 84.1785C144.48 84.126 147.318 83.2615 150.853 82.243C154.388 81.2245 157.269 80.4475 157.283 80.493C157.297 80.5385 154.444 81.4135 150.909 82.4285C147.374 83.4435 144.494 84.231 144.48 84.1785Z" fill="#EBEBEB"/>
<path d="M136.455 98.3955C136.608 98.371 136.765 98.364 136.92 98.3745H138.184C139.251 98.3745 140.725 98.3745 142.349 98.3115C143.973 98.2485 145.446 98.147 146.507 98.063L147.767 97.965C147.921 97.9458 148.078 97.9458 148.232 97.965C148.083 98.0081 147.931 98.0374 147.777 98.0525C147.48 98.098 147.053 98.154 146.521 98.2135C145.471 98.336 143.987 98.462 142.356 98.5215C140.725 98.581 139.251 98.567 138.18 98.5215C137.648 98.5005 137.218 98.4795 136.917 98.455C136.761 98.4516 136.606 98.4316 136.455 98.3955Z" fill="#EBEBEB"/>
<path d="M131.124 88.8405C131.219 88.9474 131.301 89.0649 131.369 89.1905C131.534 89.46 131.737 89.796 131.978 90.188C132.486 91.035 132.899 92.4875 133.924 93.513C134.673 94.8185 135.345 96.005 135.821 96.8695C136.038 97.272 136.224 97.6185 136.378 97.895C136.454 98.0174 136.514 98.1492 136.556 98.287C136.461 98.1801 136.379 98.0626 136.311 97.937C136.143 97.6687 135.94 97.3362 135.702 96.9395C135.195 96.096 134.505 94.92 133.756 93.6145C133.007 92.309 132.335 91.1225 131.859 90.2615L131.303 89.25C131.225 89.1221 131.165 88.9844 131.124 88.8405Z" fill="#EBEBEB"/>
<path d="M122.444 100.492C122.562 100.633 122.666 100.786 122.755 100.947L123.539 102.221C124.197 103.302 125.09 104.804 126.07 106.466C127.05 108.129 127.921 109.641 128.548 110.736C128.842 111.265 129.09 111.702 129.279 112.045C129.375 112.201 129.457 112.365 129.524 112.535C129.407 112.395 129.303 112.244 129.213 112.084L128.429 110.806C127.771 109.728 126.878 108.227 125.902 106.564C124.925 104.902 124.047 103.39 123.42 102.291C123.126 101.766 122.881 101.325 122.689 100.985C122.593 100.828 122.511 100.663 122.444 100.492Z" fill="#EBEBEB"/>
<path d="M129.437 112.2C129.632 112.17 129.828 112.156 130.025 112.158L131.628 112.109C132.979 112.06 134.848 111.99 136.906 111.857C138.964 111.724 140.83 111.556 142.177 111.423L143.773 111.269C143.968 111.24 144.164 111.228 144.361 111.234C144.171 111.283 143.978 111.319 143.784 111.342C143.409 111.401 142.863 111.478 142.191 111.559C140.847 111.727 138.985 111.909 136.92 112.049C134.855 112.189 132.986 112.235 131.628 112.245C130.953 112.245 130.403 112.245 130.025 112.245C129.828 112.249 129.631 112.234 129.437 112.2Z" fill="#EBEBEB"/>
<path d="M24.8219 109.578C25.4454 109.261 26.1264 109.074 26.8241 109.027C27.5218 108.98 28.2217 109.075 28.8819 109.305C30.2043 109.773 31.4017 110.538 32.3819 111.542C34.3209 113.418 35.5319 116.277 36.2319 118.892C33.2919 119.48 30.2504 117.793 28.7629 116.841C26.4074 115.336 23.0649 111.188 24.8254 109.585" fill="#B0BEC5"/>
<path d="M41.3385 119.5C40.6404 119.153 40.0464 118.628 39.6162 117.978C39.186 117.328 38.935 116.576 38.8885 115.798C38.8542 115.017 38.9755 114.238 39.2453 113.505C39.5151 112.772 39.928 112.099 40.46 111.527C40.943 110.992 41.5835 110.502 42.301 110.537C42.6369 110.574 42.9568 110.7 43.228 110.902C43.4992 111.104 43.712 111.374 43.8445 111.685C44.0996 112.313 44.183 112.998 44.086 113.669C43.8655 115.969 43.232 118.153 41.356 119.5" fill="#B0BEC5"/>
<path d="M46.0879 126.812C45.9467 126.692 45.8177 126.558 45.7029 126.413L44.6879 125.29C43.8549 124.331 42.6369 122.99 41.8529 121.17C41.1585 119.629 40.8855 117.93 41.0619 116.249C41.1186 115.744 41.2361 115.248 41.4119 114.772C41.4601 114.642 41.515 114.515 41.5764 114.39C41.6149 114.306 41.6394 114.261 41.6464 114.265C41.4265 114.915 41.2729 115.585 41.1879 116.267C41.0567 117.923 41.3481 119.586 42.0349 121.1C42.7979 122.885 43.9844 124.229 44.7929 125.209C45.2024 125.699 45.5384 126.095 45.7589 126.375C45.8822 126.51 45.9923 126.656 46.0879 126.812Z" fill="#263238"/>
<path d="M27.6499 112.511C27.7236 112.547 27.7939 112.589 27.8599 112.637L28.4304 113.026C28.9274 113.376 29.6379 113.869 30.5094 114.496C32.2594 115.752 34.6429 117.52 37.2329 119.532C39.8229 121.545 42.1329 123.421 43.7814 124.8C44.6039 125.5 45.2654 126.053 45.7204 126.448L46.2384 126.907C46.3574 127.015 46.4169 127.071 46.4099 127.078C46.3403 127.038 46.2747 126.991 46.2139 126.938L45.6714 126.508L43.6939 124.908C41.9999 123.55 39.6969 121.699 37.0999 119.7C34.5029 117.702 32.1369 115.906 30.4149 114.622L28.3744 113.103L27.8214 112.683C27.7578 112.632 27.7003 112.575 27.6499 112.511Z" fill="#263238"/>
<path d="M40.25 123.596C38.7952 122.821 37.1768 122.403 35.5287 122.377C33.8806 122.352 32.2501 122.719 30.772 123.449C30.0265 123.827 29.239 124.464 29.3055 125.297C29.372 126.13 30.2575 126.637 31.0555 126.875C32.7435 127.337 34.5306 127.289 36.1913 126.736C37.852 126.184 39.3118 125.152 40.3864 123.771" fill="#B0BEC5"/>
<path d="M33.012 124.712C33.1554 124.612 33.3091 124.527 33.4705 124.46C33.6516 124.363 33.8386 124.278 34.0305 124.205C34.2793 124.097 34.534 124.003 34.7935 123.925C35.1045 123.818 35.4211 123.73 35.742 123.659C36.1104 123.573 36.4831 123.506 36.8585 123.459C37.7214 123.362 38.5925 123.362 39.4555 123.459C40.3176 123.566 41.1644 123.773 41.979 124.075C42.3376 124.209 42.6882 124.363 43.029 124.537C43.3242 124.685 43.6116 124.849 43.89 125.027C44.1525 125.178 44.359 125.356 44.555 125.493C44.7215 125.612 44.8805 125.742 45.031 125.881C45.1677 125.986 45.2942 126.103 45.409 126.231C45.3775 126.266 44.835 125.752 43.8165 125.132C43.539 124.963 43.2528 124.809 42.959 124.67C42.6244 124.504 42.2809 124.357 41.93 124.229C41.127 123.942 40.2948 123.745 39.4485 123.641C38.5992 123.55 37.7427 123.55 36.8935 123.641C36.5231 123.683 36.1551 123.743 35.791 123.823C35.441 123.883 35.133 123.981 34.846 124.058C33.691 124.401 33.0295 124.751 33.012 124.712Z" fill="#263238"/>
<path d="M131.11 137.323C128.66 135.748 127.778 133.728 127.393 130.841C127.211 129.392 127.341 127.921 127.775 126.527C128.209 125.133 128.937 123.848 129.909 122.759C131.54 120.96 133.829 119.732 135.016 117.611C136.276 115.35 136.115 112.361 137.914 110.488C139.153 109.211 141.018 108.812 142.544 107.902C143.794 107.16 144.802 106.085 145.932 105.179C147.063 104.272 148.421 103.502 149.87 103.555C152.057 103.635 153.839 105.711 154.024 107.891C154.21 110.072 153.076 112.207 151.462 113.687C150.293 114.758 148.834 115.602 148.095 117.009C146.695 119.644 148.4 123.172 146.898 125.759C145.803 127.638 143.192 128.618 142.908 130.778C142.803 131.572 143.059 132.367 143.083 133.168C143.16 135.671 140.899 137.774 138.453 138.313C136.006 138.852 133.465 138.177 131.103 137.333" fill="#455A64"/>
<path d="M145.484 112.529C145.414 112.634 145.333 112.733 145.243 112.823L144.504 113.617C144.179 113.967 143.78 114.377 143.349 114.888C142.919 115.398 142.387 115.938 141.876 116.617C141.365 117.296 140.763 117.985 140.196 118.797C139.912 119.203 139.594 119.602 139.307 120.046L138.414 121.404C137.127 123.444 135.995 125.576 135.026 127.785C134.084 130.005 133.318 132.295 132.734 134.635C132.485 135.72 132.244 136.735 132.104 137.729C131.964 138.723 131.824 139.615 131.729 140.452C131.635 141.288 131.603 142.048 131.547 142.716C131.491 143.385 131.488 143.958 131.481 144.431C131.474 144.903 131.463 145.236 131.456 145.516C131.459 145.643 131.449 145.769 131.425 145.894C131.401 145.769 131.392 145.643 131.397 145.516C131.397 145.236 131.379 144.875 131.365 144.427C131.351 143.979 131.341 143.377 131.365 142.709C131.39 142.04 131.4 141.271 131.502 140.431C131.603 139.591 131.666 138.681 131.852 137.687C132.037 136.693 132.202 135.663 132.457 134.571C133.034 132.212 133.801 129.902 134.75 127.666C135.725 125.442 136.873 123.298 138.183 121.254L139.09 119.896C139.384 119.455 139.706 119.052 139.996 118.65C140.577 117.841 141.176 117.134 141.715 116.483C142.254 115.832 142.765 115.276 143.223 114.775C143.682 114.275 144.081 113.866 144.42 113.537C144.76 113.208 144.998 112.973 145.201 112.781C145.287 112.687 145.382 112.603 145.484 112.529Z" fill="#263238"/>
<path d="M133.294 48.7025H43.1235V154.868H133.294V48.7025Z" fill="#FAFAFA"/>
<path d="M133.298 154.868C133.298 154.168 133.263 111.961 133.214 48.7025L133.298 48.783H43.134L43.225 48.692C43.225 87.892 43.225 124.401 43.225 154.858L43.148 154.78L133.322 154.858L43.148 154.934H43.05V154.858C43.05 124.408 43.05 87.8885 43.05 48.692V48.601H43.1515H133.315H133.396V48.685C133.329 111.961 133.298 154.164 133.298 154.868Z" fill="#263238"/>
<path d="M93.2998 66.052H91.5498L91.1718 66.8955H90.8218L92.2638 63.7455H92.5928L94.0348 66.8955H93.6848L93.2998 66.052ZM93.1808 65.7825L92.4213 64.0885L91.6653 65.8L93.1808 65.7825Z" fill="black"/>
<path d="M96.6282 63.5495V66.8955H96.3202V66.4265C96.2252 66.582 96.0905 66.7093 95.9299 66.7954C95.7693 66.8815 95.5887 66.9233 95.4067 66.9165C95.0981 66.8999 94.8077 66.7656 94.5951 66.5413C94.3826 66.317 94.2642 66.0197 94.2642 65.7107C94.2642 65.4017 94.3826 65.1045 94.5951 64.8802C94.8077 64.6559 95.0981 64.5216 95.4067 64.505C95.584 64.5008 95.7595 64.5417 95.9168 64.6237C96.0741 64.7057 96.2081 64.8262 96.3062 64.974V63.5495H96.6282ZM96.3097 65.709C96.3014 65.5364 96.2427 65.3701 96.1408 65.2306C96.0389 65.0911 95.8982 64.9846 95.7363 64.9244C95.5744 64.8641 95.3983 64.8528 95.23 64.8917C95.0617 64.9306 94.9085 65.0181 94.7895 65.1433C94.6704 65.2685 94.5908 65.4259 94.5604 65.5959C94.53 65.766 94.5503 65.9413 94.6186 66.0999C94.687 66.2586 94.8004 66.3937 94.9449 66.4885C95.0893 66.5832 95.2584 66.6335 95.4312 66.633C95.5509 66.6347 95.6697 66.6116 95.7801 66.5652C95.8905 66.5187 95.99 66.45 96.0725 66.3632C96.1551 66.2764 96.2187 66.1735 96.2595 66.0609C96.3003 65.9483 96.3174 65.8285 96.3097 65.709Z" fill="black"/>
<path d="M99.6834 63.5495V66.8955H99.3754V66.4265C99.2803 66.582 99.1456 66.7093 98.9851 66.7954C98.8245 66.8815 98.6439 66.9233 98.4619 66.9165C98.1533 66.8999 97.8629 66.7656 97.6503 66.5413C97.4378 66.317 97.3193 66.0197 97.3193 65.7107C97.3193 65.4017 97.4378 65.1045 97.6503 64.8802C97.8629 64.6559 98.1533 64.5216 98.4619 64.505C98.6392 64.5008 98.8147 64.5417 98.972 64.6237C99.1293 64.7057 99.2633 64.8262 99.3614 64.974V63.5495H99.6834ZM99.3649 65.709C99.3566 65.5364 99.2979 65.3701 99.196 65.2306C99.094 65.0911 98.9534 64.9846 98.7915 64.9244C98.6296 64.8641 98.4535 64.8528 98.2852 64.8917C98.1169 64.9306 97.9637 65.0181 97.8446 65.1433C97.7256 65.2685 97.646 65.4259 97.6156 65.5959C97.5852 65.766 97.6055 65.9413 97.6738 66.0999C97.7422 66.2586 97.8556 66.3937 98 66.4885C98.1445 66.5832 98.3136 66.6335 98.4864 66.633C98.6061 66.6347 98.7249 66.6116 98.8353 66.5652C98.9456 66.5187 99.0452 66.45 99.1277 66.3632C99.2102 66.2764 99.2739 66.1735 99.3147 66.0609C99.3555 65.9483 99.3726 65.8285 99.3649 65.709Z" fill="black"/>
<path d="M103.89 64.5225V66.8955H103.6V66.4615C103.513 66.6075 103.388 66.727 103.238 66.8072C103.088 66.8874 102.919 66.9252 102.749 66.9165C102.613 66.93 102.475 66.9127 102.347 66.866C102.218 66.8193 102.101 66.7444 102.005 66.6467C101.909 66.549 101.836 66.431 101.792 66.3015C101.747 66.1719 101.733 66.034 101.748 65.898V64.5225H102.07V65.8665C102.07 66.3705 102.329 66.6295 102.77 66.6295C102.883 66.6353 102.995 66.6166 103.099 66.5746C103.203 66.5327 103.297 66.4685 103.374 66.3865C103.451 66.3046 103.509 66.2068 103.545 66.1001C103.58 65.9933 103.592 65.8802 103.579 65.7685V64.5225H103.89Z" fill="black"/>
<path d="M104.458 66.626L104.601 66.3705C104.847 66.5464 105.142 66.6396 105.445 66.6365C105.896 66.6365 106.082 66.486 106.082 66.2515C106.082 65.632 104.542 66.1185 104.542 65.2015C104.542 64.813 104.892 64.5225 105.48 64.5225C105.774 64.5189 106.065 64.5951 106.32 64.743L106.18 65.002C105.972 64.8647 105.728 64.7938 105.48 64.799C105.053 64.799 104.864 64.967 104.864 65.191C104.864 65.8315 106.4 65.3485 106.4 66.241C106.4 66.6505 106.05 66.9165 105.424 66.9165C105.079 66.9264 104.74 66.8245 104.458 66.626Z" fill="black"/>
<path d="M109.057 65.8H107.072C107.079 65.9156 107.108 66.0287 107.159 66.1328C107.21 66.2369 107.281 66.3299 107.368 66.4064C107.455 66.4829 107.556 66.5414 107.666 66.5785C107.775 66.6156 107.891 66.6306 108.007 66.6225C108.143 66.627 108.278 66.6014 108.404 66.5476C108.529 66.4937 108.641 66.413 108.731 66.311L108.91 66.521C108.795 66.6488 108.654 66.7496 108.496 66.8161C108.338 66.8827 108.167 66.9134 107.996 66.906C107.833 66.9158 107.67 66.8916 107.518 66.8348C107.365 66.7781 107.225 66.6901 107.108 66.5765C106.992 66.4628 106.9 66.3261 106.839 66.1749C106.777 66.0237 106.749 65.8615 106.754 65.6985C106.745 65.5417 106.768 65.3848 106.823 65.2374C106.877 65.0899 106.96 64.9551 107.068 64.841C107.176 64.727 107.306 64.6361 107.45 64.574C107.595 64.512 107.75 64.4799 107.907 64.4799C108.064 64.4799 108.219 64.512 108.364 64.574C108.508 64.6361 108.638 64.727 108.746 64.841C108.854 64.9551 108.937 65.0899 108.991 65.2374C109.045 65.3848 109.069 65.5417 109.06 65.6985C109.06 65.737 109.057 65.772 109.057 65.8ZM107.072 65.5585H108.752C108.733 65.3489 108.636 65.1541 108.481 65.0123C108.325 64.8704 108.123 64.7918 107.912 64.7918C107.702 64.7918 107.499 64.8704 107.344 65.0123C107.188 65.1541 107.091 65.3489 107.072 65.5585Z" fill="black"/>
<path d="M110.908 64.505V64.8165H110.831C110.718 64.8107 110.605 64.83 110.5 64.873C110.395 64.9161 110.302 64.9818 110.225 65.0655C110.149 65.1491 110.092 65.2487 110.059 65.3569C110.026 65.4652 110.017 65.5794 110.033 65.6915V66.899H109.711V64.526H110.019V64.9915C110.101 64.8305 110.23 64.6979 110.388 64.6111C110.547 64.5243 110.728 64.4874 110.908 64.505Z" fill="black"/>
<path d="M86.7406 97.7515C86.7406 97.7515 86.7406 97.6815 86.7406 97.5555C86.7406 97.4295 86.7406 97.2335 86.7406 96.9885C86.7406 96.4845 86.7406 95.7495 86.7406 94.7975C86.7406 92.89 86.7196 90.118 86.7056 86.632L86.7651 86.688L51.3836 86.723L51.4746 86.632C51.4746 90.482 51.4746 94.227 51.4746 97.7515L51.3871 97.664L76.6746 97.7025L84.0806 97.727H86.0721H86.5901H86.7686H86.6006H86.0651H84.0946L76.7096 97.755L51.3591 97.7935H51.2681V86.541H51.3591L86.7406 86.5725H86.8001V86.632C86.8001 90.132 86.7756 92.932 86.7686 94.8325C86.7686 95.7775 86.7686 96.509 86.7686 97.0095C86.7686 97.251 86.7686 97.4365 86.7686 97.566C86.7686 97.6955 86.7406 97.7515 86.7406 97.7515Z" fill="#263238"/>
<path d="M125.906 112.812C125.906 112.812 125.906 112.564 125.906 112.081C125.906 111.598 125.906 110.883 125.906 109.942C125.906 108.062 125.906 105.287 125.881 101.692L125.927 101.738L51.3766 101.783L51.4676 101.692V112.812L51.3766 112.725L104.416 112.763L120.166 112.787H124.425H125.531H125.913C125.913 112.787 125.79 112.787 125.545 112.787H124.45H120.211L104.461 112.815L51.3591 112.854H51.2681V101.602H51.3626L125.913 101.647H125.958V101.692C125.958 105.301 125.937 108.084 125.93 109.97C125.93 110.903 125.93 111.613 125.93 112.098C125.913 112.574 125.906 112.812 125.906 112.812Z" fill="#263238"/>
<path d="M125.906 127.771C125.906 127.771 125.906 127.519 125.906 127.039C125.906 126.56 125.906 125.839 125.906 124.901C125.906 123.018 125.906 120.246 125.881 116.651L125.927 116.693L51.3766 116.742L51.4676 116.651V127.771L51.3766 127.68L104.416 127.718L120.166 127.746H124.425H125.531H125.913H125.545H124.45H120.211L104.461 127.771L51.3591 127.813H51.2681V116.55H51.3626L125.913 116.599H125.958V116.644C125.958 120.249 125.937 123.032 125.93 124.918C125.93 125.852 125.93 126.561 125.93 127.046C125.913 127.533 125.906 127.771 125.906 127.771Z" fill="#263238"/>
<path d="M125.906 97.7515C125.906 97.7515 125.906 97.6815 125.906 97.5555C125.906 97.4295 125.906 97.2335 125.906 96.9885C125.906 96.4845 125.906 95.7495 125.906 94.7975C125.906 92.89 125.906 90.118 125.874 86.632L125.934 86.688L90.5521 86.723L90.6431 86.632V97.7515L90.5521 97.664L115.843 97.7025L123.249 97.727H125.241H125.759H125.937H125.769H125.23H123.26L115.875 97.755L90.5206 97.7935H90.4331V97.706C90.4331 94.1815 90.4331 90.44 90.4331 86.5865V86.4955H90.5276L125.909 86.527H125.969V86.5865C125.969 90.0865 125.944 92.8865 125.934 94.787C125.934 95.732 125.934 96.4635 125.934 96.964C125.934 97.2055 125.934 97.391 125.934 97.5205C125.934 97.65 125.906 97.7515 125.906 97.7515Z" fill="#263238"/>
<path d="M58.7686 93.8C58.6792 93.8118 58.5892 93.8177 58.4991 93.8175L57.7011 93.842C57.0011 93.863 56.0001 93.891 54.7961 93.905H54.6841L54.7191 93.8C54.8208 93.4439 55.0138 93.1205 55.2791 92.862C55.5782 92.5928 55.9514 92.4196 56.3501 92.365L56.3291 92.5365C56.1049 92.4384 55.9118 92.2809 55.7705 92.081C55.6293 91.8812 55.5453 91.6466 55.5276 91.4025C55.5034 91.1283 55.5622 90.8532 55.6964 90.6129C55.8306 90.3726 56.034 90.1782 56.2801 90.055C56.515 89.9474 56.7784 89.9189 57.0309 89.9738C57.2833 90.0287 57.5111 90.1641 57.6801 90.3595C57.8302 90.532 57.9358 90.7385 57.9877 90.9612C58.0396 91.1839 58.0361 91.416 57.9776 91.637C57.9296 91.8292 57.838 92.0077 57.7099 92.1588C57.5819 92.31 57.4208 92.4296 57.2391 92.5085V92.386C57.5511 92.4319 57.8475 92.5519 58.1036 92.736C58.2915 92.8771 58.4508 93.053 58.5726 93.254C58.6824 93.421 58.7552 93.6095 58.7861 93.807C58.7861 93.807 58.7581 93.7545 58.7196 93.6705C58.6607 93.5393 58.5917 93.4129 58.5131 93.2925C58.3673 93.076 58.1758 92.8942 57.952 92.76C57.7282 92.6257 57.4777 92.5422 57.2181 92.5155L56.9836 92.4875L57.2041 92.393C57.3639 92.3184 57.5046 92.2084 57.6155 92.0714C57.7265 91.9343 57.8048 91.7738 57.8446 91.602C57.8941 91.4061 57.8952 91.2011 57.8476 91.0047C57.8 90.8083 57.7053 90.6265 57.5716 90.475C57.4236 90.3119 57.228 90.1994 57.0126 90.1536C56.7971 90.1077 56.5727 90.1308 56.3711 90.2195C56.1592 90.3276 55.9846 90.4968 55.8698 90.7052C55.755 90.9136 55.7053 91.1516 55.7271 91.3885C55.7422 91.6013 55.8155 91.8059 55.939 91.98C56.0624 92.154 56.2312 92.2908 56.4271 92.3755L56.7246 92.4945L56.4061 92.547C56.0412 92.5948 55.6995 92.7522 55.4261 92.9985C55.1788 93.2339 54.9968 93.5293 54.8976 93.856L54.8206 93.7545C55.9861 93.7545 56.9661 93.7545 57.6696 93.779H58.4886C58.5823 93.7798 58.6758 93.7868 58.7686 93.8Z" fill="#B0BEC5"/>
<path d="M100.247 93.8C100.159 93.812 100.07 93.8179 99.981 93.8175L99.1795 93.842C98.4795 93.863 97.482 93.891 96.2745 93.905H96.166L96.1975 93.8C96.2992 93.4439 96.4923 93.1205 96.7575 92.862C97.0558 92.5903 97.429 92.4146 97.8285 92.358L97.8075 92.5295C97.5838 92.4312 97.3911 92.2736 97.2505 92.0737C97.1098 91.8738 97.0265 91.6393 97.0095 91.3955C96.9835 91.1215 97.0412 90.8461 97.1749 90.6055C97.3086 90.365 97.5121 90.1706 97.7585 90.048C97.9935 89.941 98.2568 89.9128 98.5091 89.9677C98.7614 90.0225 98.9892 90.1575 99.1585 90.3525C99.308 90.5253 99.413 90.732 99.4643 90.9547C99.5155 91.1774 99.5115 91.4092 99.4525 91.63C99.4045 91.8222 99.3129 92.0007 99.1849 92.1518C99.0568 92.303 98.8957 92.4226 98.714 92.5015V92.379C99.026 92.4249 99.3224 92.545 99.5785 92.729C99.7674 92.8691 99.9268 93.0452 100.048 93.247C100.157 93.414 100.23 93.6025 100.261 93.8C100.261 93.8 100.233 93.7475 100.195 93.6635C100.138 93.5309 100.069 93.4043 99.988 93.2855C99.843 93.0691 99.6521 92.8873 99.4289 92.7531C99.2056 92.6188 98.9556 92.5353 98.6965 92.5085L98.462 92.4805L98.679 92.386C98.8389 92.311 98.9797 92.2009 99.0912 92.064C99.2027 91.927 99.2819 91.7667 99.323 91.595C99.3718 91.3988 99.3721 91.1937 99.324 90.9973C99.2758 90.801 99.1806 90.6193 99.0465 90.468C98.901 90.3024 98.7059 90.1881 98.4903 90.1421C98.2747 90.0961 98.05 90.1208 97.8495 90.2125C97.6367 90.3198 97.461 90.4887 97.3455 90.6972C97.23 90.9057 97.18 91.1441 97.202 91.3815C97.2172 91.5943 97.2905 91.7989 97.4139 91.973C97.5373 92.147 97.7062 92.2838 97.902 92.3685L98.1995 92.4875L97.881 92.54C97.5162 92.5878 97.1744 92.7452 96.901 92.9915C96.6548 93.2271 96.4739 93.5226 96.376 93.849L96.299 93.7475C97.4645 93.7475 98.4445 93.7475 99.1445 93.772H99.967C100.061 93.7749 100.154 93.7843 100.247 93.8Z" fill="#B0BEC5"/>
<path d="M62.9161 91.35V92.288H64.1481V92.505H62.9161V93.5165H62.6501V91.133H64.2846V91.35H62.9161Z" fill="#263238"/>
<path d="M64.6765 91.1575C64.6774 91.1117 64.6963 91.0681 64.729 91.036C64.7617 91.0039 64.8057 90.986 64.8515 90.986C64.8743 90.985 64.8971 90.9887 64.9185 90.9967C64.9399 91.0046 64.9595 91.0168 64.9761 91.0325C64.9927 91.0481 65.006 91.0669 65.0153 91.0878C65.0246 91.1087 65.0296 91.1312 65.03 91.154C65.0352 91.1799 65.0346 91.2066 65.0282 91.2323C65.0219 91.2579 65.0099 91.2818 64.9931 91.3023C64.9764 91.3227 64.9553 91.3392 64.9314 91.3505C64.9075 91.3618 64.8814 91.3677 64.855 91.3677C64.8286 91.3677 64.8025 91.3618 64.7786 91.3505C64.7547 91.3392 64.7337 91.3227 64.7169 91.3023C64.7002 91.2818 64.6882 91.2579 64.6818 91.2323C64.6754 91.2066 64.6748 91.1799 64.68 91.154L64.6765 91.1575ZM64.729 91.721H64.9705V93.513H64.729V91.721Z" fill="#263238"/>
<path d="M66.5455 91.7V91.938H66.5C66.4149 91.9335 66.3298 91.948 66.2509 91.9803C66.172 92.0126 66.1012 92.062 66.0437 92.1249C65.9861 92.1878 65.9432 92.2627 65.918 92.3441C65.8928 92.4256 65.886 92.5116 65.898 92.596V93.5095H65.6565V91.7175H65.8875V92.0675C65.9479 91.9475 66.0428 91.8483 66.1601 91.7828C66.2774 91.7173 66.4116 91.6885 66.5455 91.7Z" fill="#263238"/>
<path d="M66.7451 93.3065L66.8536 93.1175C67.0397 93.2493 67.2626 93.3191 67.4906 93.317C67.8406 93.317 67.9701 93.2015 67.9701 93.0265C67.9701 92.5575 66.8116 92.925 66.8116 92.218C66.8116 91.9275 67.0636 91.707 67.5116 91.707C67.7341 91.7044 67.9531 91.7625 68.1451 91.875L68.0401 92.071C67.8843 91.9659 67.6995 91.9121 67.5116 91.917C67.1896 91.917 67.0461 92.043 67.0461 92.211C67.0461 92.694 68.2046 92.33 68.2046 93.0195C68.2046 93.3275 67.9351 93.527 67.4661 93.527C67.2083 93.5328 66.9555 93.4555 66.7451 93.3065Z" fill="#263238"/>
<path d="M69.6011 93.401C69.4942 93.4868 69.3601 93.5315 69.2231 93.527C69.1528 93.5353 69.0815 93.5276 69.0146 93.5046C68.9476 93.4816 68.8867 93.4438 68.8363 93.3941C68.7859 93.3443 68.7473 93.2839 68.7234 93.2173C68.6995 93.1506 68.6908 93.0794 68.6981 93.009V91.9275H68.3796V91.721H68.6981V91.35H68.9501V91.7385H69.4926V91.945H68.9501V93.0125C68.9442 93.0551 68.948 93.0985 68.9611 93.1395C68.9742 93.1805 68.9964 93.218 69.0259 93.2492C69.0555 93.2805 69.0917 93.3047 69.1319 93.3201C69.1721 93.3354 69.2153 93.3416 69.2581 93.338C69.3549 93.3406 69.4493 93.3083 69.5241 93.247L69.6011 93.401Z" fill="#263238"/>
<path d="M72.5725 92.4735V93.5235H72.331V92.5085C72.3424 92.434 72.3368 92.3579 72.3145 92.2858C72.2921 92.2138 72.2537 92.1479 72.2021 92.0929C72.1505 92.0379 72.0871 91.9954 72.0167 91.9686C71.9462 91.9417 71.8706 91.9313 71.7955 91.938C71.71 91.9314 71.6241 91.9436 71.5439 91.9739C71.4637 92.0042 71.3911 92.0517 71.3313 92.1132C71.2715 92.1746 71.226 92.2485 71.1979 92.3295C71.1699 92.4105 71.16 92.4967 71.169 92.582V93.5235H70.9275V91.7315H71.1585V92.05C71.2301 91.9356 71.3314 91.8426 71.4515 91.781C71.5717 91.7194 71.7062 91.6914 71.841 91.7C71.9421 91.6949 72.043 91.7117 72.1369 91.7494C72.2309 91.787 72.3155 91.8446 72.385 91.9181C72.4546 91.9917 72.5073 92.0794 72.5397 92.1753C72.5721 92.2711 72.5832 92.3729 72.5725 92.4735Z" fill="#263238"/>
<path d="M74.5781 92.4V93.5095H74.3471V93.2295C74.28 93.3291 74.1875 93.4088 74.0792 93.4605C73.9709 93.5122 73.8507 93.534 73.7311 93.5235C73.3286 93.5235 73.0801 93.3135 73.0801 93.0055C73.0801 92.6975 73.2551 92.498 73.7801 92.498H74.3471V92.4C74.3471 92.092 74.1756 91.9275 73.8431 91.9275C73.6259 91.9237 73.4147 91.9982 73.2481 92.1375L73.1361 91.959C73.3375 91.7937 73.5895 91.7023 73.8501 91.7C73.9466 91.6855 74.0451 91.6933 74.1381 91.7229C74.2311 91.7525 74.3161 91.8031 74.3865 91.8707C74.4568 91.9384 74.5107 92.0213 74.5439 92.1131C74.5771 92.2048 74.5888 92.303 74.5781 92.4ZM74.3366 92.9705V92.6765H73.7766C73.4266 92.6765 73.3181 92.813 73.3181 92.9985C73.3181 93.184 73.4826 93.3485 73.7696 93.3485C73.8918 93.3551 74.0128 93.3223 74.1149 93.2549C74.217 93.1874 74.2947 93.089 74.3366 92.974V92.9705Z" fill="#263238"/>
<path d="M78.1865 92.4735V93.5235H77.945V92.5085C77.945 92.1305 77.756 91.938 77.4305 91.938C77.3468 91.9338 77.2632 91.9479 77.1856 91.9795C77.108 92.011 77.0382 92.0591 76.9812 92.1205C76.9241 92.1819 76.8812 92.255 76.8554 92.3347C76.8297 92.4144 76.8217 92.4988 76.832 92.582V93.5235H76.5905V92.5085C76.5905 92.1305 76.4015 91.938 76.076 91.938C75.9923 91.9338 75.9087 91.9479 75.8311 91.9795C75.7535 92.011 75.6837 92.0591 75.6267 92.1205C75.5696 92.1819 75.5267 92.255 75.5009 92.3347C75.4752 92.4144 75.4672 92.4988 75.4775 92.582V93.5235H75.25V91.7315H75.481V92.05C75.5478 91.9375 75.6441 91.8455 75.7595 91.7838C75.8748 91.7221 76.0049 91.6931 76.1355 91.7C76.2678 91.6893 76.4001 91.7199 76.5142 91.7876C76.6283 91.8553 76.7186 91.9568 76.7725 92.078C76.8446 91.958 76.9476 91.8596 77.0707 91.7931C77.1939 91.7266 77.3327 91.6944 77.4725 91.7C77.5733 91.6931 77.6743 91.709 77.7681 91.7463C77.862 91.7836 77.9462 91.8415 78.0147 91.9158C78.0832 91.99 78.1342 92.0786 78.164 92.1751C78.1937 92.2716 78.2014 92.3736 78.1865 92.4735Z" fill="#263238"/>
<path d="M80.4055 92.6905H78.911C78.9159 92.7774 78.938 92.8625 78.9758 92.9409C79.0137 93.0193 79.0666 93.0894 79.1317 93.1473C79.1967 93.2052 79.2725 93.2497 79.3548 93.2782C79.437 93.3067 79.5241 93.3187 79.611 93.3135C79.7137 93.3168 79.8158 93.2976 79.9101 93.2571C80.0045 93.2165 80.0888 93.1557 80.157 93.079L80.2935 93.2365C80.1651 93.3708 79.9999 93.4643 79.8186 93.5053C79.6373 93.5462 79.4479 93.5328 79.2742 93.4667C79.1005 93.4006 78.9502 93.2847 78.842 93.1336C78.7338 92.9824 78.6726 92.8027 78.666 92.617C78.666 92.3849 78.7582 92.1624 78.9223 91.9983C79.0864 91.8342 79.309 91.742 79.541 91.742C79.7731 91.742 79.9956 91.8342 80.1597 91.9983C80.3238 92.1624 80.416 92.3849 80.416 92.617C80.409 92.638 80.4055 92.666 80.4055 92.6905ZM78.911 92.512H80.178C80.1707 92.3492 80.1 92.1958 79.9809 92.0845C79.8618 91.9733 79.7039 91.9132 79.541 91.917C79.3788 91.9132 79.2217 91.9736 79.1037 92.085C78.9857 92.1964 78.9165 92.3498 78.911 92.512Z" fill="#263238"/>
<path d="M64.6905 108.85V109.067H63V106.687H64.6345V106.904H63.2345V107.751H64.4665V107.964H63.2345V108.85H64.6905Z" fill="#263238"/>
<path d="M68.18 108.041V109.091H67.9385V108.076C67.9385 107.698 67.7495 107.506 67.424 107.506C67.34 107.502 67.2561 107.516 67.1781 107.548C67.1002 107.579 67.0303 107.628 66.9732 107.69C66.9161 107.751 66.8732 107.825 66.8477 107.905C66.8222 107.985 66.8146 108.07 66.8255 108.153V109.091H66.584V108.076C66.584 107.698 66.395 107.506 66.0695 107.506C65.9856 107.502 65.902 107.517 65.8244 107.549C65.7468 107.581 65.6771 107.629 65.6201 107.691C65.5631 107.753 65.5203 107.826 65.4945 107.906C65.4688 107.986 65.4607 108.07 65.471 108.153V109.091H65.2295V107.303H65.45V107.628C65.5174 107.517 65.6138 107.425 65.729 107.363C65.8442 107.302 65.974 107.272 66.1045 107.278C66.2367 107.268 66.3691 107.298 66.4832 107.366C66.5973 107.434 66.6875 107.535 66.7415 107.656C66.8136 107.537 66.9166 107.438 67.0397 107.372C67.1629 107.305 67.3016 107.273 67.4415 107.278C67.5434 107.267 67.6464 107.28 67.7428 107.314C67.8392 107.349 67.9263 107.406 67.9976 107.479C68.0689 107.553 68.1224 107.642 68.154 107.739C68.1856 107.837 68.1945 107.94 68.18 108.041Z" fill="#263238"/>
<path d="M70.1856 107.971V109.081H69.9546V108.801C69.8879 108.901 69.7956 108.982 69.6873 109.034C69.5789 109.086 69.4585 109.109 69.3386 109.098C68.9326 109.098 68.6841 108.889 68.6841 108.577C68.6841 108.266 68.8626 108.069 69.3841 108.069H69.9511V107.961C69.9511 107.656 69.7761 107.488 69.4436 107.488C69.2266 107.485 69.0155 107.56 68.8486 107.698L68.7401 107.52C68.9469 107.357 69.2046 107.271 69.4681 107.279C69.5631 107.266 69.6598 107.275 69.7509 107.305C69.842 107.335 69.9251 107.385 69.9941 107.452C70.0631 107.518 70.1161 107.6 70.1493 107.69C70.1824 107.78 70.1948 107.876 70.1856 107.971ZM69.9441 108.542V108.252H69.3841C69.0341 108.252 68.9221 108.388 68.9221 108.57C68.9221 108.752 69.0901 108.92 69.3771 108.92C69.4996 108.926 69.6207 108.892 69.7227 108.824C69.8248 108.756 69.9023 108.657 69.9441 108.542Z" fill="#263238"/>
<path d="M70.7874 106.725C70.7956 106.685 70.8174 106.649 70.8493 106.623C70.8812 106.596 70.9212 106.582 70.9624 106.582C71.0037 106.582 71.0436 106.596 71.0755 106.623C71.1074 106.649 71.1293 106.685 71.1374 106.725C71.1426 106.751 71.142 106.778 71.1357 106.804C71.1293 106.829 71.1173 106.853 71.1005 106.874C71.0838 106.894 71.0627 106.911 71.0388 106.922C71.015 106.933 70.9889 106.939 70.9624 106.939C70.936 106.939 70.9099 106.933 70.886 106.922C70.8622 106.911 70.8411 106.894 70.8243 106.874C70.8076 106.853 70.7956 106.829 70.7892 106.804C70.7828 106.778 70.7822 106.751 70.7874 106.725ZM70.8399 107.292H71.0814V109.081H70.8399V107.292Z" fill="#263238"/>
<path d="M71.75 106.557H71.9915V109.081H71.75V106.557Z" fill="#263238"/>
<path d="M63.7 122.406C63.7 122.913 63.35 123.217 62.727 123.217H62.0865V123.97H61.8345V121.59H62.727C63.3255 121.59 63.7 121.895 63.7 122.406ZM63.448 122.406C63.448 122.024 63.196 121.807 62.72 121.807H62.0865V122.997H62.72C63.189 122.997 63.441 122.78 63.441 122.406H63.448Z" fill="#263238"/>
<path d="M65.5201 122.85V123.959H65.2856V123.679C65.2197 123.78 65.1281 123.86 65.0203 123.913C64.9125 123.965 64.7925 123.987 64.6731 123.977C64.2671 123.977 64.0186 123.767 64.0186 123.455C64.0186 123.144 64.1936 122.948 64.7186 122.948H65.2891V122.85C65.2891 122.545 65.1141 122.377 64.7816 122.377C64.564 122.375 64.3528 122.451 64.1866 122.591L64.0781 122.409C64.2849 122.246 64.5426 122.16 64.8061 122.167C64.8999 122.156 64.9952 122.165 65.085 122.195C65.1748 122.224 65.2568 122.274 65.3252 122.339C65.3936 122.404 65.4465 122.484 65.4802 122.573C65.5139 122.661 65.5275 122.756 65.5201 122.85ZM65.2786 123.424V123.13H64.7151C64.3651 123.13 64.2566 123.266 64.2566 123.448C64.2566 123.63 64.4246 123.798 64.7081 123.798C64.8294 123.806 64.9498 123.774 65.0522 123.709C65.1546 123.643 65.2338 123.547 65.2786 123.434V123.424Z" fill="#263238"/>
<path d="M65.926 123.767L66.0345 123.575C66.2203 123.707 66.4432 123.778 66.6715 123.777C67.0215 123.777 67.151 123.662 67.151 123.483C67.151 123.018 65.989 123.386 65.989 122.679C65.989 122.385 66.241 122.167 66.689 122.167C66.9118 122.163 67.1314 122.221 67.3225 122.335L67.2175 122.528C67.0611 122.424 66.8767 122.37 66.689 122.374C66.367 122.374 66.2235 122.5 66.2235 122.671C66.2235 123.154 67.3855 122.791 67.3855 123.477C67.3855 123.788 67.1125 123.987 66.647 123.987C66.3892 123.994 66.1362 123.916 65.926 123.767Z" fill="#263238"/>
<path d="M67.5886 123.767L67.6971 123.575C67.8829 123.707 68.1058 123.778 68.3341 123.778C68.6841 123.778 68.8136 123.662 68.8136 123.484C68.8136 123.018 67.6516 123.386 67.6516 122.679C67.6516 122.385 67.9036 122.167 68.3516 122.167C68.5743 122.163 68.7938 122.221 68.9851 122.336L68.8801 122.528C68.7237 122.424 68.5393 122.37 68.3516 122.374C68.0296 122.374 67.8861 122.5 67.8861 122.671C67.8861 123.154 69.0481 122.791 69.0481 123.477C69.0481 123.788 68.7751 123.988 68.3096 123.988C68.0518 123.994 67.7988 123.916 67.5886 123.767Z" fill="#263238"/>
<path d="M72.1001 122.181L71.4001 123.97H71.1726L70.6196 122.5L70.0561 123.966H69.8286L69.1531 122.178H69.3876L69.9476 123.697L70.5216 122.178H70.7316L71.3021 123.697L71.8691 122.178L72.1001 122.181Z" fill="#263238"/>
<path d="M72.2226 123.074C72.2233 122.894 72.2773 122.719 72.3777 122.569C72.4781 122.42 72.6205 122.304 72.7868 122.236C72.9532 122.167 73.136 122.15 73.3123 122.185C73.4886 122.221 73.6504 122.308 73.7773 122.435C73.9043 122.563 73.9906 122.725 74.0254 122.901C74.0602 123.078 74.042 123.26 73.973 123.427C73.9041 123.593 73.7874 123.735 73.6378 123.834C73.4883 123.934 73.3125 123.987 73.1326 123.987C73.0116 123.992 72.891 123.971 72.7784 123.927C72.6657 123.883 72.5635 123.815 72.478 123.73C72.3926 123.644 72.3258 123.541 72.2818 123.428C72.2379 123.316 72.2177 123.195 72.2226 123.074ZM73.7976 123.074C73.7908 122.944 73.7461 122.819 73.669 122.715C73.5919 122.61 73.4858 122.53 73.3638 122.485C73.2419 122.44 73.1094 122.432 72.9828 122.461C72.8562 122.491 72.741 122.557 72.6514 122.651C72.5619 122.745 72.502 122.864 72.479 122.992C72.4561 123.12 72.4711 123.251 72.5223 123.371C72.5735 123.49 72.6586 123.592 72.7671 123.664C72.8756 123.736 73.0026 123.774 73.1326 123.774C73.2234 123.776 73.3136 123.758 73.3974 123.723C73.4811 123.688 73.5567 123.636 73.6192 123.57C73.6818 123.505 73.73 123.426 73.7607 123.341C73.7914 123.256 73.804 123.165 73.7976 123.074Z" fill="#263238"/>
<path d="M75.4355 122.167V122.402H75.376C75.2906 122.397 75.2051 122.412 75.1259 122.444C75.0468 122.477 74.9758 122.527 74.9182 122.59C74.8606 122.653 74.8177 122.729 74.7928 122.811C74.7679 122.892 74.7615 122.979 74.774 123.063V123.973H74.55V122.185H74.7811V122.535C74.8416 122.416 74.9361 122.317 75.0526 122.252C75.1691 122.187 75.3023 122.157 75.4355 122.167Z" fill="#263238"/>
<path d="M77.4831 121.45V123.973H77.2521V123.623C77.18 123.743 77.0768 123.841 76.9535 123.906C76.8302 123.971 76.6914 124.002 76.5521 123.994C76.3107 123.994 76.0793 123.899 75.9086 123.728C75.738 123.557 75.6421 123.326 75.6421 123.085C75.6421 122.843 75.738 122.612 75.9086 122.441C76.0793 122.27 76.3107 122.174 76.5521 122.174C76.6859 122.169 76.8188 122.198 76.9378 122.26C77.0568 122.321 77.1579 122.412 77.2311 122.524V121.45H77.4831ZM77.2451 123.077C77.2382 122.948 77.1934 122.822 77.1161 122.718C77.0389 122.613 76.9326 122.533 76.8104 122.488C76.6883 122.443 76.5556 122.435 76.4289 122.465C76.3022 122.495 76.1871 122.561 76.0977 122.656C76.0083 122.75 75.9486 122.869 75.9261 122.997C75.9035 123.125 75.9191 123.257 75.9708 123.377C76.0225 123.496 76.1082 123.598 76.2171 123.669C76.326 123.74 76.4534 123.778 76.5836 123.777C76.6744 123.779 76.7645 123.761 76.8481 123.726C76.9317 123.69 77.007 123.638 77.0692 123.571C77.1315 123.505 77.1792 123.427 77.2095 123.341C77.2398 123.256 77.2519 123.165 77.2451 123.074V123.077Z" fill="#263238"/>
<path d="M102.9 91.4655H103.148V93.632H104.485V93.849H102.9V91.4655Z" fill="#263238"/>
<path d="M106.19 92.75V93.8595H105.959V93.5795C105.892 93.6797 105.8 93.7602 105.692 93.8125C105.583 93.8648 105.463 93.8871 105.343 93.877C104.937 93.877 104.688 93.6635 104.688 93.3555C104.688 93.0475 104.867 92.848 105.388 92.848H105.955V92.7395C105.955 92.435 105.78 92.267 105.448 92.267C105.231 92.2638 105.02 92.3383 104.853 92.477L104.744 92.2985C104.951 92.1351 105.209 92.0496 105.472 92.057C105.568 92.0444 105.664 92.0535 105.755 92.0835C105.846 92.1135 105.93 92.1637 105.998 92.2303C106.067 92.2969 106.121 92.3783 106.154 92.4683C106.187 92.5582 106.199 92.6545 106.19 92.75ZM105.948 93.3205V93.03H105.388C105.038 93.03 104.926 93.1665 104.926 93.3485C104.926 93.5305 105.094 93.6985 105.381 93.6985C105.505 93.7036 105.627 93.6685 105.73 93.5985C105.832 93.5285 105.909 93.4273 105.948 93.31V93.3205Z" fill="#263238"/>
<path d="M106.596 93.646L106.705 93.4535C106.891 93.5853 107.114 93.6551 107.342 93.653C107.692 93.653 107.821 93.5375 107.821 93.3625C107.821 92.897 106.663 93.2645 106.663 92.554C106.663 92.2635 106.911 92.0465 107.363 92.0465C107.584 92.0422 107.802 92.0992 107.993 92.211L107.888 92.407C107.733 92.3032 107.549 92.2495 107.363 92.253C107.037 92.253 106.897 92.379 106.897 92.5505C106.897 93.0335 108.056 92.666 108.056 93.3555C108.056 93.6635 107.783 93.8665 107.317 93.8665C107.06 93.8706 106.807 93.7935 106.596 93.646Z" fill="#263238"/>
<path d="M109.449 93.7405C109.341 93.8257 109.207 93.8704 109.071 93.8665C109 93.8743 108.929 93.8661 108.862 93.8426C108.795 93.8192 108.735 93.781 108.685 93.7309C108.635 93.6809 108.596 93.6202 108.573 93.5534C108.549 93.4866 108.541 93.4154 108.549 93.345V92.2635H108.227V92.05H108.549V91.658H108.791V92.05H109.333V92.253H108.791V93.3205C108.785 93.3631 108.788 93.4065 108.801 93.4475C108.815 93.4885 108.837 93.526 108.866 93.5572C108.896 93.5885 108.932 93.6127 108.972 93.6281C109.013 93.6434 109.056 93.6495 109.099 93.646C109.195 93.6493 109.29 93.6169 109.365 93.555L109.449 93.7405Z" fill="#263238"/>
<path d="M112.423 92.8095V93.8595H112.182V92.8445C112.193 92.7697 112.188 92.6932 112.165 92.6209C112.143 92.5486 112.104 92.4824 112.052 92.4274C112 92.3723 111.936 92.3299 111.865 92.3033C111.794 92.2767 111.718 92.2667 111.643 92.274C111.557 92.2678 111.471 92.2805 111.391 92.3113C111.311 92.342 111.239 92.3899 111.18 92.4517C111.12 92.5135 111.075 92.5876 111.047 92.6688C111.02 92.75 111.01 92.8363 111.02 92.9215V93.8595H110.778V92.05H111.009V92.4C111.081 92.2864 111.182 92.194 111.301 92.1324C111.42 92.0709 111.554 92.0424 111.688 92.05C111.788 92.0446 111.888 92.0608 111.982 92.0974C112.075 92.134 112.159 92.1902 112.229 92.2622C112.299 92.3342 112.352 92.4203 112.386 92.5147C112.419 92.6092 112.432 92.7097 112.423 92.8095Z" fill="#263238"/>
<path d="M114.429 92.75V93.8595H114.198V93.5795C114.132 93.68 114.04 93.7606 113.931 93.813C113.823 93.8654 113.702 93.8875 113.582 93.877C113.176 93.877 112.928 93.6635 112.928 93.3555C112.928 93.0475 113.106 92.848 113.628 92.848H114.195V92.7395C114.195 92.435 114.02 92.267 113.687 92.267C113.47 92.2638 113.259 92.3383 113.092 92.477L112.984 92.2985C113.191 92.1356 113.448 92.0502 113.712 92.057C113.807 92.0444 113.903 92.0535 113.995 92.0835C114.086 92.1135 114.169 92.1637 114.238 92.2303C114.307 92.2969 114.36 92.3783 114.393 92.4683C114.426 92.5582 114.438 92.6545 114.429 92.75ZM114.188 93.3205V93.03H113.628C113.278 93.03 113.166 93.1665 113.166 93.3485C113.166 93.5305 113.334 93.6985 113.621 93.6985C113.745 93.7036 113.867 93.6685 113.969 93.5985C114.071 93.5285 114.148 93.4273 114.188 93.31V93.3205Z" fill="#263238"/>
<path d="M118.037 92.8095V93.8595H117.796V92.8445C117.796 92.4665 117.607 92.274 117.281 92.274C117.197 92.2697 117.114 92.2839 117.036 92.3157C116.958 92.3474 116.888 92.3959 116.831 92.4576C116.774 92.5194 116.731 92.593 116.705 92.6731C116.68 92.7533 116.672 92.8381 116.683 92.9215V93.8595H116.441V92.8445C116.441 92.4665 116.252 92.274 115.923 92.274C115.84 92.2703 115.756 92.285 115.678 92.3169C115.601 92.3488 115.531 92.3973 115.474 92.4589C115.417 92.5206 115.374 92.5939 115.349 92.6738C115.323 92.7537 115.315 92.8382 115.325 92.9215V93.8595H115.083V92.05H115.314V92.4C115.382 92.2875 115.479 92.1955 115.595 92.1339C115.711 92.0723 115.841 92.0433 115.972 92.05C116.105 92.0398 116.237 92.0706 116.351 92.1383C116.465 92.2059 116.555 92.3071 116.61 92.428C116.681 92.3075 116.784 92.2087 116.907 92.1421C117.03 92.0755 117.17 92.0437 117.31 92.05C117.41 92.0413 117.511 92.0553 117.606 92.0909C117.7 92.1264 117.785 92.1827 117.855 92.2556C117.925 92.3284 117.978 92.416 118.009 92.5119C118.041 92.6077 118.05 92.7094 118.037 92.8095Z" fill="#263238"/>
<path d="M120.256 93.03H118.758C118.77 93.2046 118.85 93.3675 118.981 93.4835C119.112 93.5995 119.284 93.6591 119.458 93.6495C119.562 93.6534 119.664 93.6344 119.759 93.5938C119.854 93.5533 119.939 93.4922 120.008 93.415L120.144 93.5725C120.016 93.708 119.851 93.8026 119.669 93.8442C119.487 93.8859 119.297 93.8727 119.122 93.8065C118.948 93.7402 118.797 93.6238 118.689 93.4719C118.58 93.3201 118.519 93.1395 118.513 92.953C118.507 92.835 118.525 92.7169 118.567 92.6062C118.608 92.4955 118.672 92.3944 118.754 92.3094C118.836 92.2244 118.935 92.1571 119.044 92.1119C119.153 92.0667 119.27 92.0444 119.388 92.0465C119.506 92.0443 119.623 92.0666 119.732 92.1119C119.841 92.1572 119.939 92.2246 120.021 92.3097C120.102 92.3949 120.165 92.496 120.206 92.6067C120.247 92.7174 120.264 92.8353 120.256 92.953C120.26 92.974 120.256 93.002 120.256 93.03ZM118.758 92.848H120.029C120.017 92.6877 119.945 92.5378 119.827 92.4284C119.709 92.319 119.554 92.2582 119.394 92.2582C119.233 92.2582 119.078 92.319 118.96 92.4284C118.842 92.5378 118.77 92.6877 118.758 92.848Z" fill="#263238"/>
<path d="M58.1 121.247C58.0833 121.172 58.0727 121.096 58.0685 121.019C58.0706 120.835 58.0274 120.652 57.9425 120.487C57.8757 120.37 57.7831 120.269 57.6715 120.193C57.5599 120.116 57.4323 120.066 57.2985 120.046C57.1369 120.025 56.9725 120.05 56.8244 120.118C56.6763 120.186 56.5507 120.295 56.462 120.431C56.3848 120.549 56.339 120.684 56.329 120.823C56.329 120.97 56.329 121.11 56.329 121.25L56.245 121.163C56.869 121.16 57.4928 121.188 58.114 121.247C57.4934 121.315 56.8692 121.345 56.245 121.335H56.1575V121.247C56.1575 121.107 56.1575 120.971 56.1575 120.81C56.167 120.64 56.2213 120.475 56.315 120.333C56.4216 120.167 56.5746 120.036 56.7549 119.956C56.9353 119.876 57.1352 119.85 57.33 119.882C57.4869 119.907 57.6353 119.97 57.7626 120.065C57.89 120.16 57.9925 120.285 58.0615 120.428C58.1515 120.619 58.1797 120.833 58.142 121.04C58.128 121.191 58.1 121.258 58.1 121.247Z" fill="#B0BEC5"/>
<path d="M57.4945 123.522C57.4288 123.39 57.3727 123.253 57.3265 123.113V123.074L57.365 123.046C57.4207 123.002 57.4586 122.94 57.4715 122.87C57.4843 122.801 57.4714 122.729 57.435 122.668C57.4167 122.63 57.3898 122.597 57.3563 122.571C57.3229 122.545 57.2839 122.528 57.2424 122.52C57.201 122.512 57.1583 122.514 57.1178 122.526C57.0772 122.537 57.04 122.558 57.009 122.587C56.9781 122.616 56.9543 122.651 56.9396 122.691C56.9249 122.73 56.9196 122.773 56.9243 122.815C56.929 122.857 56.9434 122.897 56.9664 122.932C56.9895 122.967 57.0205 122.997 57.057 123.018L57.113 123.05L57.0955 123.109L56.9905 123.525L56.924 123.442C57.1189 123.451 57.313 123.473 57.505 123.508C57.3162 123.562 57.1201 123.585 56.924 123.578H56.84V123.487C56.868 123.347 56.8925 123.207 56.917 123.063L56.9555 123.155C56.8998 123.121 56.8523 123.075 56.8165 123.02C56.7807 122.966 56.7574 122.904 56.7484 122.839C56.7394 122.775 56.7448 122.709 56.7642 122.646C56.7837 122.584 56.8168 122.527 56.861 122.479C56.9095 122.425 56.9709 122.384 57.0395 122.36C57.108 122.337 57.1814 122.33 57.253 122.342C57.3187 122.353 57.3812 122.378 57.4358 122.417C57.4903 122.455 57.5355 122.505 57.568 122.563C57.6208 122.658 57.6346 122.77 57.6065 122.875C57.5784 122.98 57.5107 123.07 57.4175 123.127L57.4455 123.06C57.4905 123.21 57.5071 123.366 57.4945 123.522Z" fill="#B0BEC5"/>
<path d="M58.3627 121.25C58.4135 121.24 58.4658 121.24 58.5167 121.25C58.6437 121.289 58.7572 121.363 58.8439 121.463C58.9307 121.563 58.9871 121.686 59.0067 121.817C59.0067 121.94 59.0067 122.059 59.0067 122.195C59.0067 122.472 59.0067 122.776 59.0067 123.112C59.0067 123.284 59.0067 123.462 59.0067 123.644C59.02 123.844 59.0129 124.045 58.9857 124.243C58.955 124.354 58.8989 124.457 58.8217 124.542C58.7446 124.628 58.6485 124.694 58.5412 124.736C58.4301 124.781 58.3105 124.8 58.1912 124.792H57.8412H56.4412H56.0702C55.9626 124.798 55.8552 124.78 55.755 124.741C55.6548 124.701 55.5642 124.641 55.489 124.564C55.4139 124.487 55.356 124.395 55.3192 124.293C55.2824 124.192 55.2676 124.084 55.2757 123.977C55.2757 123.438 55.2757 122.927 55.2757 122.402V122.027C55.2648 121.894 55.2815 121.759 55.3247 121.632C55.372 121.506 55.4521 121.395 55.5568 121.311C55.6614 121.227 55.7867 121.172 55.9197 121.152L55.8497 121.233C55.8497 121.065 55.8497 120.914 55.8497 120.743C55.8659 120.579 55.9146 120.419 55.9932 120.274C56.1582 119.995 56.4237 119.79 56.7352 119.7C56.9699 119.615 57.2248 119.603 57.4665 119.666C57.7082 119.728 57.9254 119.862 58.0897 120.05C58.1961 120.168 58.2779 120.305 58.3302 120.455C58.3825 120.605 58.4042 120.763 58.3942 120.921C58.3909 121.032 58.3804 121.142 58.3627 121.25C58.3454 121.143 58.3383 121.034 58.3417 120.925C58.34 120.624 58.2236 120.335 58.0162 120.116C57.8924 119.986 57.7394 119.887 57.5698 119.828C57.4002 119.768 57.2189 119.75 57.0408 119.774C56.8627 119.798 56.6929 119.864 56.5454 119.967C56.398 120.07 56.2771 120.206 56.1927 120.365C56.1252 120.493 56.0836 120.634 56.0702 120.778C56.0702 120.921 56.0702 121.096 56.0702 121.257V121.327H56.0002C55.8975 121.344 55.8009 121.387 55.7203 121.453C55.6398 121.519 55.5781 121.605 55.5417 121.702C55.5076 121.815 55.4957 121.934 55.5067 122.052V122.426C55.5067 122.934 55.5067 123.476 55.5067 124.001C55.4969 124.114 55.5197 124.227 55.5725 124.327C55.6252 124.427 55.7057 124.51 55.8042 124.565C55.9012 124.616 56.0096 124.641 56.1192 124.638H57.8972C58.1054 124.658 58.3154 124.646 58.5202 124.603C58.6047 124.57 58.6803 124.518 58.741 124.451C58.8018 124.383 58.846 124.302 58.8702 124.215C58.8957 124.031 58.9051 123.844 58.8982 123.658C58.8982 123.476 58.8982 123.308 58.8982 123.126C58.8982 122.776 58.8982 122.486 58.8982 122.209C58.8982 122.076 58.8982 121.943 58.8982 121.838C58.8892 121.74 58.8568 121.645 58.8037 121.562C58.6977 121.41 58.5417 121.299 58.3627 121.25Z" fill="#B0BEC5"/>
<path d="M59.892 109.61C59.8817 109.52 59.8759 109.43 59.8746 109.34C59.8746 109.151 59.8746 108.906 59.8501 108.609C59.8326 107.965 59.8115 107.079 59.7835 106.012L59.8571 106.085L54.523 106.155L54.6001 106.05V106.519C54.6001 106.677 54.6001 106.834 54.6001 106.992C54.6001 107.303 54.6001 107.611 54.6001 107.912C54.6001 108.511 54.6001 109.092 54.6001 109.638L54.516 109.557C56.07 109.557 57.393 109.557 58.3345 109.557H59.4406C59.5773 109.554 59.7141 109.559 59.8501 109.575C59.7271 109.591 59.6031 109.598 59.4791 109.596L58.3906 109.631C57.4526 109.655 56.1085 109.687 54.516 109.708H54.4355V109.624C54.4355 109.074 54.4356 108.497 54.4146 107.895C54.4146 107.594 54.4146 107.286 54.4146 106.974C54.4146 106.82 54.4146 106.663 54.4146 106.505V106.033L54.5055 105.938L59.8396 105.903H59.913V105.977C59.913 107.062 59.913 107.961 59.913 108.619C59.913 108.91 59.913 109.148 59.913 109.319C59.9192 109.416 59.9121 109.514 59.892 109.61Z" fill="#B0BEC5"/>
<path d="M59.8499 106.012C59.6261 106.242 59.3786 106.449 59.1114 106.627C58.6424 106.977 57.9879 107.478 57.2564 108.006H57.1339L57.0989 107.982L57.0289 107.933L56.8924 107.838L56.6264 107.653L56.1259 107.303L55.2824 106.694C55.0143 106.517 54.7636 106.316 54.5334 106.092C54.8229 106.231 55.0983 106.397 55.3559 106.589L56.2204 107.167L56.7279 107.517L56.9975 107.702L57.1339 107.796L57.2004 107.842L57.2354 107.867H57.2529H57.1549C57.8864 107.338 58.5549 106.865 59.0449 106.529C59.2971 106.333 59.5665 106.16 59.8499 106.012Z" fill="#B0BEC5"/>
<path d="M54.6631 109.659C54.883 109.231 55.1571 108.833 55.4786 108.476C55.7532 108.079 56.0766 107.718 56.4411 107.401C56.2211 107.831 55.9457 108.229 55.6221 108.588C55.3486 108.983 55.0264 109.343 54.6631 109.659Z" fill="#B0BEC5"/>
<path d="M58.1807 107.401C58.5338 107.71 58.8456 108.062 59.1082 108.451C59.419 108.803 59.6826 109.193 59.8922 109.613C59.5387 109.305 59.2269 108.952 58.9647 108.563C58.6532 108.212 58.3896 107.821 58.1807 107.401Z" fill="#B0BEC5"/>
<path d="M124.975 133.521H52.2901C51.7759 133.521 51.3591 133.938 51.3591 134.452V143.955C51.3591 144.469 51.7759 144.886 52.2901 144.886H124.975C125.489 144.886 125.906 144.469 125.906 143.955V134.452C125.906 133.938 125.489 133.521 124.975 133.521Z" fill="#B0BEC5"/>
<g opacity="0.3">
<path d="M124.975 133.521H52.2901C51.7759 133.521 51.3591 133.938 51.3591 134.452V143.955C51.3591 144.469 51.7759 144.886 52.2901 144.886H124.975C125.489 144.886 125.906 144.469 125.906 143.955V134.452C125.906 133.938 125.489 133.521 124.975 133.521Z" fill="black"/>
</g>
<path d="M124.975 131.939H52.2901C51.7759 131.939 51.3591 132.356 51.3591 132.871V142.373C51.3591 142.887 51.7759 143.304 52.2901 143.304H124.975C125.489 143.304 125.906 142.887 125.906 142.373V132.871C125.906 132.356 125.489 131.939 124.975 131.939Z" fill="#B0BEC5"/>
<path d="M82.3375 137.865C82.3354 137.701 82.3669 137.538 82.43 137.387C82.4932 137.235 82.5866 137.098 82.7046 136.984C82.8226 136.87 82.9627 136.781 83.1162 136.723C83.2698 136.665 83.4336 136.639 83.5975 136.647C83.7664 136.64 83.9347 136.67 84.0911 136.734C84.2475 136.798 84.3883 136.895 84.504 137.018L84.2835 137.231C84.157 137.097 83.9931 137.004 83.8132 136.965C83.6332 136.925 83.4454 136.94 83.2741 137.008C83.1028 137.076 82.9559 137.194 82.8524 137.346C82.7489 137.499 82.6935 137.679 82.6935 137.863C82.6935 138.048 82.7489 138.228 82.8524 138.38C82.9559 138.533 83.1028 138.651 83.2741 138.719C83.4454 138.787 83.6332 138.802 83.8132 138.762C83.9931 138.722 84.157 138.629 84.2835 138.495L84.504 138.708C84.3881 138.833 84.2468 138.93 84.0898 138.995C83.9328 139.059 83.7637 139.09 83.594 139.083C83.4303 139.09 83.2669 139.064 83.1138 139.006C82.9607 138.947 82.821 138.859 82.7034 138.745C82.5858 138.631 82.4927 138.494 82.4297 138.343C82.3668 138.191 82.3354 138.029 82.3375 137.865Z" fill="white"/>
<path d="M86.5796 139.055L86.0651 138.323H85.9181H85.3266V139.048H84.9766V136.668H85.9076C86.5236 136.668 86.8981 136.979 86.8981 137.497C86.906 137.663 86.8592 137.826 86.7649 137.962C86.6706 138.098 86.5341 138.199 86.3766 138.25L86.9401 139.048L86.5796 139.055ZM86.5796 137.504C86.5796 137.154 86.3521 136.972 85.9181 136.972H85.3371V138.043H85.9181C86.3416 138.043 86.5691 137.844 86.5691 137.504H86.5796Z" fill="white"/>
<path d="M89.187 138.761V139.055H87.458V136.675H89.138V136.972H87.7975V137.704H88.9945V137.991H87.7975V138.761H89.187Z" fill="white"/>
<path d="M91.2555 138.46H89.9885L89.726 139.055H89.376L90.454 136.675H90.804L91.8855 139.055H91.5355L91.2555 138.46ZM91.1365 138.19L90.622 137.021L90.1075 138.19H91.1365Z" fill="white"/>
<path d="M92.5787 136.972H91.7632V136.675H93.7337V136.972H92.9147V139.055H92.5647L92.5787 136.972Z" fill="white"/>
<path d="M95.8301 138.761V139.055H94.1011V136.675H95.7811V136.972H94.4406V137.704H95.6341V137.991H94.4406V138.761H95.8301Z" fill="white"/>
<path d="M77.9414 66.6895C87.5571 57.0738 87.5571 41.4837 77.9414 31.868C68.3258 22.2524 52.7357 22.2524 43.12 31.868C33.5043 41.4837 33.5043 57.0738 43.12 66.6895C52.7357 76.3052 68.3258 76.3052 77.9414 66.6895Z" fill="#E0E0E0"/>
<path d="M74.6376 15.9985C74.207 16.5388 73.9443 17.1935 73.8821 17.8815C73.8199 18.5696 73.9609 19.2608 74.2876 19.8695C74.5956 20.4225 75.0646 20.9195 75.1346 21.546C75.2501 22.5645 74.2631 23.4815 74.4346 24.4965C74.5431 25.1965 75.1346 25.676 75.4566 26.2955C75.6556 26.6984 75.7359 27.1496 75.6882 27.5964C75.6404 28.0432 75.4667 28.4672 75.1871 28.819C74.7391 29.365 74.0356 29.7115 73.7451 30.359C73.5281 30.835 73.5806 31.409 73.3951 31.8885C73.2298 32.2639 72.9701 32.5902 72.6414 32.8355C72.3127 33.0808 71.926 33.2369 71.5191 33.2885C70.7007 33.3868 69.8715 33.3406 69.0691 33.152L69.2476 32.2665C69.0958 32.5016 68.889 32.6963 68.645 32.8335C68.4011 32.9707 68.1274 33.0464 67.8476 33.054C67.2871 33.0652 66.7287 32.9823 66.1956 32.809C65.8631 31.3075 65.5376 29.722 66.0066 28.259C66.4336 26.943 67.4416 25.914 68.2816 24.815C69.2142 23.5948 69.9608 22.2431 70.4971 20.804C70.8821 19.7715 71.1586 18.704 71.6976 17.724C72.2366 16.744 73.0976 15.897 74.1756 15.6905" fill="#263238"/>
<path d="M90.65 36.68L85.778 37.03L85.729 35.777C85.664 35.1561 85.8121 34.5316 86.149 34.006C86.2028 33.9135 86.2418 33.8131 86.2645 33.7085C86.2995 33.3375 85.7535 31.4755 85.5645 30.793C85.3265 29.974 85.792 29.54 85.974 29.876C86.303 30.4885 87.1745 33.117 87.4475 33.376C87.7205 33.635 87.563 32.2595 87.563 32.2595C87.136 29.365 86.9505 28.945 87.465 28.8365C88.0565 28.7105 88.7075 33.019 88.7075 33.019C88.7075 33.019 88.62 32.417 89.082 32.2945C89.544 32.172 89.7575 32.7635 89.7575 32.7635C89.698 32.459 90.1355 32.4135 90.1355 32.4135C91.2275 32.564 90.6605 36.7185 90.6605 36.7185L85.7885 37.0685L83.454 53.361L80.962 49.5425L74.459 54.1835L80.3215 61.1835C80.8307 61.7895 81.4715 62.2713 82.1951 62.5921C82.9187 62.913 83.706 63.0645 84.497 63.035C85.7902 62.988 87.0192 62.4594 87.9426 61.5528C88.866 60.6462 89.4172 59.4271 89.488 58.135L90.65 36.68Z" fill="#EB996E"/>
<path d="M86.8383 36.7255C86.8173 36.701 87.0763 36.4735 87.4228 36.0465C87.624 35.7966 87.8065 35.5322 87.9688 35.2555C88.0659 35.0921 88.1547 34.9238 88.2348 34.7515C88.3332 34.5904 88.3909 34.4078 88.4028 34.2195C88.4015 34.1758 88.3875 34.1334 88.3627 34.0974C88.3379 34.0614 88.3032 34.0333 88.2628 34.0165C88.167 34.0004 88.0686 34.0164 87.9828 34.062C87.7915 34.152 87.6098 34.2611 87.4403 34.3875C87.1665 34.5946 86.9298 34.8466 86.7403 35.133L86.6843 35.2135L86.6423 35.1295C86.5421 34.949 86.4119 34.7869 86.2573 34.65C86.2573 34.65 86.5233 34.713 86.7508 35.091H86.6528C86.8321 34.7781 87.0697 34.5024 87.3528 34.279C87.5296 34.1418 87.7209 34.0244 87.9233 33.929C88.0479 33.8631 88.1916 33.8433 88.3293 33.873C88.4032 33.8991 88.468 33.946 88.5158 34.0081C88.5637 34.0702 88.5925 34.1449 88.5988 34.223C88.5925 34.4482 88.5273 34.6678 88.4098 34.86C88.3246 35.0342 88.23 35.2036 88.1263 35.3675C87.9534 35.6485 87.7555 35.9132 87.5348 36.1585C87.3351 36.3841 87.0998 36.5757 86.8383 36.7255Z" fill="#D1734A"/>
<path d="M88.7671 33.25C88.7967 33.5479 88.7967 33.8481 88.7671 34.146C88.7671 34.44 88.7356 34.7655 88.7146 35.112C88.7007 35.2961 88.7007 35.4809 88.7146 35.665C88.7146 35.8365 88.8791 35.9835 89.0016 35.9135C89.1241 35.8435 89.1941 35.6335 89.2466 35.448C89.2991 35.2625 89.3411 35.077 89.3796 34.8985C89.4566 34.5485 89.5126 34.2195 89.5651 33.95C89.5996 33.6524 89.6689 33.3599 89.7716 33.0785C89.7711 33.3778 89.7442 33.6764 89.6911 33.971C89.6561 34.244 89.6141 34.5695 89.5441 34.9335C89.5126 35.112 89.4706 35.301 89.4181 35.497C89.4014 35.6123 89.3618 35.723 89.3017 35.8228C89.2416 35.9226 89.1622 36.0093 89.0681 36.078C89.0041 36.1072 88.9329 36.1165 88.8636 36.1046C88.7943 36.0928 88.7302 36.0603 88.6796 36.0115C88.5902 35.9269 88.5353 35.8122 88.5256 35.6895C88.5145 35.4933 88.5215 35.2964 88.5466 35.1015C88.5816 34.7562 88.6131 34.4342 88.6411 34.1355C88.6523 33.8368 88.6945 33.54 88.7671 33.25Z" fill="#D1734A"/>
<path d="M89.6002 34.4925C89.6282 34.4925 89.5582 34.6955 89.5792 35.0105C89.5855 35.1842 89.6374 35.3532 89.7297 35.5005C89.7892 35.56 89.8312 35.5635 89.8872 35.5005C89.9502 35.4054 90.0041 35.3046 90.0482 35.1995C90.2703 34.6472 90.4448 34.077 90.5697 33.495C90.6243 34.11 90.503 34.7279 90.2197 35.2765C90.1694 35.3989 90.1073 35.5161 90.0342 35.6265C90.0085 35.6597 89.9756 35.6867 89.9381 35.7055C89.9005 35.7243 89.8592 35.7343 89.8172 35.735C89.7772 35.7335 89.7381 35.7233 89.7024 35.7052C89.6668 35.687 89.6355 35.6614 89.6107 35.63C89.5408 35.5368 89.4962 35.4271 89.4812 35.3115C89.4631 35.2193 89.4549 35.1254 89.4567 35.0315C89.4462 34.6675 89.5687 34.482 89.6002 34.4925Z" fill="#D1734A"/>
<path d="M69.0831 65.121L69.5381 72.205C55.6816 77.5145 45.3881 68.705 45.3881 68.705L47.4601 62.3665L47.8101 51.2995L45.1501 54.25L43.8936 53.2L37.5551 47.922L36.1936 46.7845L42.7841 39.83C51.1176 30.8595 57.6031 33.6 57.6031 33.6L67.3471 34.5135C67.3471 34.5135 74.0881 35.469 77.3501 41.377C80.0066 46.186 82.8976 51.2785 82.8976 51.2785L74.5466 57.2285L71.8901 52.3495L69.0831 65.121Z" fill="#455A64"/>
<path d="M35.9102 49.1855C35.9102 49.602 35.9102 50.015 35.9347 50.435C35.9921 52.0784 36.2149 53.7118 36.5997 55.3105V55.356C36.6487 55.5555 36.7047 55.7515 36.7607 55.9475C36.9777 56.7175 37.2647 57.3965 37.5377 58.142C37.5727 58.2365 37.6077 58.3275 37.6462 58.422C38.5282 58.191 40.8697 55.972 43.7292 53.0775L37.3837 47.7855C36.5682 48.6745 36.1832 49.0805 35.9102 49.1855Z" fill="#EB996E"/>
<path d="M66.4616 35.434C66.8116 33.019 67.2071 30.485 67.2071 30.485C67.2071 30.485 70.3886 30.3975 71.5926 26.4285C72.7406 22.6415 73.3426 13.615 73.3426 13.615C71.2573 12.4236 68.8576 11.8985 66.4653 12.1099C64.073 12.3214 61.8026 13.2593 59.9586 14.798L57.5086 34.4505C57.2251 36.729 58.9611 38.7905 61.4076 39.0775C63.8751 39.3645 66.1501 37.7335 66.4616 35.434Z" fill="#EB996E"/>
<path d="M71.2214 20.4365C71.2039 20.5724 71.1342 20.6962 71.0271 20.7818C70.92 20.8673 70.7839 20.9079 70.6474 20.895C70.5802 20.891 70.5145 20.8737 70.4542 20.8439C70.3938 20.8141 70.34 20.7726 70.296 20.7217C70.2519 20.6708 70.2185 20.6116 70.1978 20.5476C70.177 20.4836 70.1692 20.4161 70.1749 20.349C70.1933 20.2137 70.2633 20.0908 70.3703 20.0059C70.4773 19.9211 70.613 19.881 70.7489 19.894C70.8158 19.898 70.8812 19.9153 70.9413 19.9448C71.0014 19.9744 71.055 20.0156 71.099 20.0661C71.143 20.1166 71.1765 20.1754 71.1975 20.239C71.2185 20.3026 71.2267 20.3697 71.2214 20.4365Z" fill="#263238"/>
<path d="M72.1456 19.971C72.0721 20.0305 71.7186 19.684 71.1586 19.621C70.5986 19.558 70.1471 19.7715 70.1086 19.6945C70.0701 19.6175 70.1646 19.544 70.3606 19.439C70.6264 19.3052 70.927 19.2563 71.2216 19.299C71.5135 19.3389 71.7854 19.47 71.9986 19.6735C72.1421 19.8135 72.1806 19.95 72.1456 19.971Z" fill="#263238"/>
<path d="M65.4746 19.747C65.4571 19.8827 65.3873 20.0061 65.28 20.0911C65.1728 20.1761 65.0367 20.2159 64.9006 20.202C64.8336 20.1985 64.7679 20.1815 64.7076 20.1521C64.6472 20.1227 64.5934 20.0815 64.5494 20.0309C64.5053 19.9803 64.4718 19.9213 64.451 19.8575C64.4302 19.7937 64.4224 19.7264 64.4281 19.6595C64.4456 19.5236 64.5153 19.3998 64.6224 19.3142C64.7295 19.2287 64.8656 19.1881 65.0021 19.201C65.0691 19.2054 65.1346 19.2231 65.1947 19.253C65.2548 19.2829 65.3084 19.3245 65.3524 19.3753C65.3963 19.4261 65.4298 19.4851 65.4508 19.5489C65.4717 19.6127 65.4798 19.68 65.4746 19.747Z" fill="#263238"/>
<path d="M66.2725 19.369C66.199 19.4285 65.8455 19.082 65.2855 19.019C64.7255 18.956 64.274 19.166 64.2355 19.089C64.197 19.012 64.2915 18.942 64.4875 18.837C64.7535 18.7034 65.0539 18.6546 65.3485 18.697C65.6413 18.7343 65.9139 18.8658 66.1255 19.0715C66.2655 19.2115 66.3075 19.3445 66.2725 19.369Z" fill="#263238"/>
<path d="M67.7319 23.8C68.0406 23.7482 68.3545 23.7352 68.6664 23.7615C68.8099 23.7615 68.9499 23.7615 68.9884 23.6635C69.0185 23.517 69.0052 23.365 68.9499 23.226C68.8624 22.876 68.7714 22.477 68.6769 22.078C68.3024 20.447 68.0539 19.1135 68.1204 19.096C68.1869 19.0785 68.5439 20.3945 68.9149 22.0255C69.0059 22.428 69.0899 22.8095 69.1704 23.177C69.237 23.3613 69.237 23.5632 69.1704 23.7475C69.1428 23.795 69.1049 23.8357 69.0595 23.8666C69.014 23.8974 68.9622 23.9178 68.9079 23.926C68.8254 23.9366 68.7419 23.9366 68.6594 23.926C68.3463 23.9222 68.0348 23.8799 67.7319 23.8Z" fill="#263238"/>
<path d="M67.2 30.485C65.2799 30.2537 63.4621 29.4927 61.95 28.287C61.95 28.287 62.8845 31.255 66.997 31.437L67.2 30.485Z" fill="#D1734A"/>
<path d="M69.1354 12.362C69.3979 13.0025 68.9849 13.762 68.4004 14.112C67.7839 14.4316 67.1086 14.6221 66.4159 14.672C65.7223 14.7265 65.059 14.9792 64.5049 15.4C63.5529 16.2645 63.8049 17.5 62.8424 18.6235C62.6185 18.9392 62.3107 19.1859 61.9537 19.3356C61.5968 19.4853 61.2051 19.532 60.8229 19.4705C60.0529 19.362 59.0554 19.5405 58.6669 20.4295C58.2784 21.3185 58.7474 21.973 59.1779 22.7885C59.6084 23.604 59.4929 24.4405 59.2479 25.333C59.0729 25.977 58.5199 26.481 58.3974 27.139C58.2014 28.189 59.0974 29.358 58.4919 30.219C57.8864 31.08 56.3499 30.6985 55.6744 31.5C55.4294 31.7835 55.2894 32.2 54.9289 32.312C54.7048 32.3435 54.4764 32.3018 54.2779 32.193L51.1279 30.8595C51.2084 30.534 51.2924 30.205 51.3764 29.8795C51.1436 30.1183 50.8573 30.2982 50.5411 30.4044C50.225 30.5105 49.8881 30.5398 49.5583 30.4899C49.2286 30.4399 48.9154 30.3122 48.6449 30.1172C48.3743 29.9222 48.1541 29.6655 48.0024 29.3685C48.6624 28.9852 49.2736 28.5233 49.8224 27.993C50.3643 27.4532 50.6936 26.7363 50.7499 25.9735C50.7814 25.0495 50.2809 24.115 50.5609 23.2365C50.9634 21.98 52.6609 21.665 53.4099 20.587C54.1099 19.579 53.8754 18.116 54.5999 17.1185C55.4434 15.9635 57.2249 15.911 58.1909 14.854C58.8454 14.154 58.9959 13.104 59.4719 12.2535C60.0884 11.2537 61.0516 10.5161 62.1774 10.1815C63.2959 9.85513 64.4613 9.71907 65.6249 9.77899C66.4984 9.73789 67.3686 9.91217 68.1589 10.2865C68.9184 10.71 69.4924 11.578 69.3139 12.432" fill="#263238"/>
<path d="M60.8231 19.481C60.4017 19.3278 59.946 19.295 59.5071 19.3865C59.2877 19.4317 59.0795 19.5199 58.8945 19.646C58.7095 19.7722 58.5513 19.9338 58.4291 20.1215C58.2051 20.5139 58.1376 20.9764 58.2401 21.4165C58.3452 21.853 58.546 22.2607 58.8281 22.61C59.0088 22.8719 59.2486 23.0878 59.5281 23.24C59.67 23.3166 59.8288 23.3567 59.9901 23.3567C60.1514 23.3567 60.3101 23.3166 60.4521 23.24" fill="#EB996E"/>
<path d="M60.2211 22.078C60.2701 22.1025 60.0426 22.3405 59.6611 22.176C59.462 22.0782 59.308 21.9078 59.2306 21.7C59.1426 21.4593 59.1033 21.2035 59.1151 20.9475C59.1198 20.675 59.2215 20.4131 59.4021 20.209C59.4784 20.1221 59.5736 20.0539 59.6804 20.0097C59.7872 19.9654 59.9027 19.9461 60.0181 19.9535C60.4276 19.999 60.5151 20.3035 60.4696 20.3035C60.4241 20.3035 60.2946 20.167 60.0181 20.1915C59.8467 20.2326 59.6955 20.3333 59.5916 20.4757C59.4877 20.618 59.4379 20.7927 59.4511 20.9685C59.4511 21.4235 59.5526 21.854 59.7766 21.9905C60.0006 22.127 60.2001 22.05 60.2211 22.078Z" fill="#D1734A"/>
<path d="M69.1495 12.6C68.9901 13.0377 68.9866 13.517 69.1396 13.957C69.2927 14.397 69.5929 14.7707 69.9895 15.015C70.4445 15.2775 71.0045 15.365 71.3895 15.715C71.7478 16.1039 71.9563 16.6076 71.9775 17.136C71.9956 17.6588 72.0936 18.1758 72.268 18.669C72.3639 18.9123 72.5353 19.1185 72.7571 19.2571C72.9789 19.3957 73.2393 19.4595 73.5 19.439L74.3785 16.8455C74.7005 15.8935 75.026 14.875 74.795 13.8915C74.466 12.4915 73.08 11.5745 71.694 11.193C71.0591 10.9674 70.3648 10.9736 69.734 11.2105C69.132 11.494 68.7225 12.2605 69.034 12.8555" fill="#263238"/>
<path d="M52.2551 31.2795C52.2551 31.2795 52.3391 31.2165 52.4616 31.059C52.6281 30.8241 52.7274 30.5482 52.7486 30.261C52.764 29.8023 52.7383 29.3431 52.6716 28.889C52.6417 28.5946 52.6702 28.2973 52.7556 28.014C52.8558 27.6967 53.0242 27.4052 53.2491 27.16C53.7076 26.6385 54.3481 26.2325 54.9011 25.676C55.1938 25.4001 55.4117 25.0545 55.5346 24.6715C55.6378 24.2578 55.6497 23.8267 55.5696 23.408C55.5031 22.967 55.3911 22.519 55.3351 22.0465C55.2649 21.5558 55.3129 21.0554 55.4751 20.587C55.6507 20.0955 55.9484 19.6568 56.3403 19.3121C56.7321 18.9673 57.2053 18.728 57.7151 18.6165C58.7441 18.389 59.8151 18.529 60.6551 18.095C61.0639 17.8736 61.3877 17.5227 61.5756 17.0975C61.756 16.68 61.9046 16.2494 62.0201 15.8095C62.134 15.3782 62.3072 14.9648 62.5346 14.581C62.7697 14.2192 63.1089 13.9373 63.5076 13.7725C64.2211 13.5322 64.9787 13.4521 65.7266 13.538C66.3304 13.5972 66.9398 13.5617 67.5326 13.433C67.9755 13.328 68.384 13.1111 68.7191 12.803C68.9089 12.5863 69.0306 12.3185 69.0691 12.033C69.1041 11.8405 69.1041 11.732 69.1146 11.7355C69.1255 11.8367 69.1255 11.9388 69.1146 12.04C69.085 12.3404 68.9626 12.6242 68.7646 12.852C68.4268 13.1815 68.0078 13.4158 67.5501 13.531C66.9486 13.6728 66.3283 13.7177 65.7126 13.664C64.9844 13.5879 64.2484 13.6727 63.5566 13.9125C63.1882 14.0678 62.8757 14.3314 62.6606 14.6685C62.4435 15.0408 62.2786 15.4412 62.1706 15.8585C62.0544 16.3077 61.9047 16.7476 61.7226 17.1745C61.6197 17.3978 61.4853 17.6052 61.3236 17.7905C61.1534 17.9776 60.9521 18.1339 60.7286 18.2525C59.7976 18.718 58.7301 18.571 57.7431 18.795C57.2666 18.9037 56.8251 19.1306 56.4594 19.4548C56.0936 19.779 55.8153 20.19 55.6501 20.65C55.4955 21.0922 55.4487 21.565 55.5136 22.029C55.5661 22.4875 55.6746 22.9355 55.7411 23.387C55.8244 23.8294 55.8088 24.2848 55.6956 24.7205C55.5606 25.1217 55.3271 25.4827 55.0166 25.7705C54.4391 26.341 53.7986 26.7365 53.3506 27.2335C53.1444 27.4501 52.9867 27.7084 52.8884 27.9908C52.79 28.2733 52.7531 28.5736 52.7801 28.8715C52.8413 29.3355 52.8565 29.8045 52.8256 30.2715C52.7957 30.5685 52.6829 30.851 52.5001 31.087C52.4314 31.1661 52.3482 31.2314 52.2551 31.2795Z" fill="#455A64"/>
<path d="M71.0151 33.3165C71.0737 33.2581 71.1286 33.1961 71.1796 33.131C71.3089 32.9326 71.3816 32.7027 71.3896 32.466C71.4176 32.158 71.3371 31.766 71.3581 31.325C71.4195 30.8074 71.634 30.3199 71.9741 29.925C72.2996 29.4735 72.7336 29.0045 72.8491 28.3745C72.9646 27.7445 72.6951 27.069 72.5621 26.334C72.4847 25.9474 72.5003 25.5479 72.6076 25.1685C72.7378 24.7902 72.9204 24.432 73.1501 24.1045C73.3741 23.7545 73.6226 23.4395 73.8151 23.0825C74.0249 22.7321 74.1451 22.3354 74.1651 21.9275C74.1485 21.5198 74.0135 21.1257 73.7766 20.7935C73.537 20.4514 73.3428 20.0796 73.1991 19.6875C72.9611 18.872 73.1466 18.074 73.1991 17.3495C73.2373 17 73.2303 16.6471 73.1781 16.2995C73.1268 15.9735 72.9971 15.6648 72.8001 15.4C72.405 14.9468 71.9199 14.5809 71.3756 14.3255C70.9173 14.1069 70.4812 13.8443 70.0736 13.5415C69.7601 13.3112 69.4969 13.0195 69.3001 12.684C69.1785 12.4696 69.1078 12.2301 69.0936 11.984C69.0871 11.8996 69.093 11.8147 69.1111 11.732C69.1111 11.732 69.1111 11.8195 69.1321 11.9805C69.1592 12.2165 69.2381 12.4435 69.3631 12.6455C69.5626 12.9629 69.8217 13.2387 70.1261 13.4575C70.5348 13.7479 70.9695 13.9998 71.4246 14.21C71.9929 14.4649 72.5001 14.8385 72.9121 15.3055C73.1295 15.5844 73.275 15.9126 73.3356 16.261C73.3935 16.6244 73.4041 16.9938 73.3671 17.36C73.3181 18.0985 73.1466 18.8825 73.3671 19.6315C73.508 20.0041 73.6962 20.357 73.9271 20.6815C74.1841 21.041 74.329 21.4684 74.3436 21.91C74.3237 22.3488 74.195 22.7758 73.9691 23.1525C73.7661 23.5235 73.5176 23.8525 73.2971 24.2025C73.0715 24.5183 72.8924 24.8648 72.7651 25.2315C72.6617 25.5839 72.6449 25.9562 72.7161 26.3165C72.8351 27.0165 73.1186 27.7165 72.9856 28.4165C72.9178 28.7372 72.7857 29.0408 72.5971 29.309C72.4221 29.568 72.2471 29.7955 72.0686 30.009C71.7384 30.3793 71.5231 30.8378 71.4491 31.3285C71.4176 31.7625 71.4876 32.151 71.4491 32.4695C71.4324 32.7154 71.3449 32.9512 71.1971 33.1485C71.1505 33.218 71.0882 33.2756 71.0151 33.3165Z" fill="#455A64"/>
<path d="M48.6816 29.638C48.6816 29.638 48.7971 29.638 49.0141 29.6625C49.3313 29.6692 49.6463 29.6084 49.9381 29.484C50.4057 29.2932 50.8089 28.9726 51.1001 28.56C51.4713 28.0089 51.6877 27.3683 51.7266 26.705C51.8106 25.97 51.6251 25.172 51.6041 24.2795C51.5798 23.8117 51.6826 23.346 51.9016 22.932C52.1925 22.5323 52.5708 22.2043 53.0076 21.973C53.443 21.7464 53.7976 21.3907 54.0226 20.9545C54.1832 20.4634 54.259 19.9485 54.2466 19.432C54.2523 18.8749 54.359 18.3235 54.5616 17.8045C54.6717 17.5352 54.832 17.2893 55.0341 17.08C55.2605 16.8797 55.5402 16.7496 55.8391 16.7055C56.4201 16.604 56.9836 16.6635 57.5261 16.604C58.0526 16.5661 58.5486 16.3429 58.9261 15.974C59.2884 15.6062 59.5866 15.1803 59.8081 14.714C60.0426 14.259 60.2246 13.79 60.4486 13.342C60.6562 12.9008 60.921 12.489 61.2361 12.117C61.5361 11.7561 61.9315 11.4869 62.3771 11.34C62.7992 11.2191 63.2466 11.2191 63.6686 11.34C64.0469 11.4471 64.4156 11.5852 64.7711 11.753C65.3573 12.0681 65.9971 12.271 66.6576 12.3515C67.1591 12.376 67.6604 12.2986 68.1311 12.124C68.5331 11.9734 68.9097 11.7622 69.2476 11.4975C69.1732 11.5809 69.0898 11.656 68.9991 11.7215C68.741 11.916 68.4571 12.0739 68.1556 12.1905C67.6787 12.3809 67.1674 12.4703 66.6541 12.453C65.9794 12.3822 65.324 12.1851 64.7221 11.872C64.3717 11.7084 64.0074 11.576 63.6336 11.4765C63.238 11.3627 62.8183 11.3627 62.4226 11.4765C62.0053 11.6192 61.6358 11.8748 61.3551 12.215C61.0528 12.5799 60.7987 12.9822 60.5991 13.412C60.1756 14.28 59.8466 15.316 59.0486 16.0965C58.8439 16.2935 58.6072 16.4545 58.3486 16.5725C58.0872 16.6845 57.8095 16.7542 57.5261 16.779C56.9626 16.8385 56.3956 16.779 55.8531 16.877C55.5932 16.9176 55.3503 17.0318 55.1531 17.206C54.9687 17.399 54.8216 17.6245 54.7191 17.871C54.5283 18.3709 54.4264 18.9004 54.4181 19.4355C54.429 19.9728 54.3473 20.5079 54.1766 21.0175C53.9368 21.4842 53.5576 21.8646 53.0916 22.106C52.6789 22.3238 52.3202 22.6311 52.0416 23.0055C51.8349 23.3946 51.737 23.8323 51.7581 24.2725C51.7581 25.1335 51.9506 25.956 51.8596 26.7225C51.8096 27.4047 51.5775 28.061 51.1876 28.623C50.882 29.042 50.4631 29.365 49.9801 29.554C49.6782 29.6754 49.3528 29.7268 49.0281 29.7045C48.9103 29.6974 48.7938 29.6751 48.6816 29.638Z" fill="#455A64"/>
<path d="M74.403 16.296C74.3742 15.944 74.2754 15.6013 74.1125 15.288C73.9206 14.9584 73.6676 14.6686 73.367 14.434C72.9917 14.1527 72.584 13.9177 72.1525 13.734C71.694 13.5205 71.2425 13.3315 70.854 13.1145C70.5034 12.9251 70.1797 12.6897 69.8915 12.4145C69.6976 12.2287 69.5356 12.0123 69.412 11.774C69.357 11.6913 69.3233 11.5963 69.314 11.4975C69.4973 11.8006 69.721 12.0773 69.979 12.32C70.271 12.5676 70.5918 12.7791 70.9345 12.95C71.316 13.153 71.764 13.335 72.2295 13.5485C72.6742 13.7442 73.0927 13.9947 73.4755 14.294C73.787 14.5462 74.0422 14.861 74.2245 15.218C74.35 15.4587 74.4216 15.7238 74.4345 15.995C74.446 16.0964 74.4353 16.1992 74.403 16.296Z" fill="#455A64"/>
<path d="M66.5 17.976C66.465 18.018 66.3425 17.976 66.15 17.9165C65.8917 17.8569 65.6276 17.8264 65.3625 17.8255C65.0965 17.8226 64.831 17.8508 64.5715 17.9095C64.372 17.955 64.2495 18.0075 64.2215 17.969C64.1935 17.9305 64.267 17.794 64.4805 17.6715C64.7558 17.5311 65.0605 17.4579 65.3695 17.4579C65.6786 17.4579 65.9832 17.5311 66.2585 17.6715C66.4405 17.8045 66.5175 17.9445 66.5 17.976Z" fill="#263238"/>
<path d="M71.596 18.6655C71.5785 18.7635 71.2145 18.795 70.777 18.732C70.3395 18.669 70 18.55 70 18.4345C70 18.319 70.3815 18.3085 70.819 18.3715C71.2565 18.4345 71.61 18.5675 71.596 18.6655Z" fill="#263238"/>
<path d="M59.3459 23.128C59.3459 23.128 59.3809 23.1525 59.4334 23.2155C59.5088 23.3075 59.5723 23.4086 59.6224 23.5165C59.8035 23.9177 59.8573 24.3648 59.7764 24.7975C59.6628 25.4273 59.4514 26.0355 59.1499 26.6C58.9827 26.923 58.9285 27.2926 58.9959 27.65C59.1193 28.0252 59.2886 28.3838 59.4999 28.7175C59.7116 29.068 59.8042 29.4777 59.7639 29.8852C59.7235 30.2928 59.5523 30.6763 59.2759 30.9785C59.0401 31.2479 58.7274 31.4384 58.3799 31.5245C58.0862 31.5854 57.7874 31.6182 57.4874 31.6225C57.0663 31.611 56.6505 31.7177 56.2869 31.9305C56.1622 32.0215 56.0524 32.1313 55.9614 32.256C55.9614 32.256 55.9614 32.2105 56.0069 32.1405C56.0678 32.0369 56.1487 31.9464 56.2449 31.8745C56.6051 31.6295 57.0308 31.499 57.4664 31.5C57.7575 31.4873 58.0468 31.4486 58.3309 31.3845C58.6499 31.3004 58.9357 31.1209 59.1499 30.87C59.3847 30.5966 59.5354 30.2611 59.5839 29.904C59.6222 29.5186 59.5364 29.1311 59.3389 28.798C59.1227 28.449 58.9522 28.0738 58.8314 27.6815C58.762 27.2923 58.8236 26.891 59.0064 26.5405C59.1569 26.1905 59.3214 25.914 59.4229 25.6165C59.5271 25.3441 59.6067 25.063 59.6609 24.7765C59.7479 24.3652 59.7151 23.9377 59.5664 23.5445C59.4439 23.268 59.3319 23.1385 59.3459 23.128Z" fill="#263238"/>
<path d="M75.6 32.55C75.5299 32.5822 75.4529 32.5966 75.376 32.592C75.2645 32.5851 75.1557 32.5559 75.0558 32.506C74.956 32.4561 74.8673 32.3865 74.795 32.3015C74.6747 32.1707 74.5862 32.0139 74.5364 31.8433C74.4867 31.6727 74.4769 31.4929 74.508 31.318C74.6171 30.8661 74.8526 30.4545 75.187 30.1315C75.5867 29.7672 75.9394 29.3545 76.237 28.903C76.3794 28.6466 76.4484 28.356 76.4365 28.063C76.4159 27.7507 76.3426 27.4442 76.2195 27.1565C75.905 26.534 75.6246 25.8949 75.3794 25.242C75.2708 24.8718 75.2708 24.4782 75.3794 24.108C75.5178 23.7504 75.6926 23.4079 75.901 23.086C76.1003 22.7851 76.1802 22.4207 76.125 22.064C76.0305 21.7247 75.8439 21.4182 75.586 21.1785C75.3445 20.9195 75.0784 20.678 74.8544 20.4015C74.6288 20.1302 74.4663 19.8122 74.3784 19.4705C74.2419 18.842 74.2515 18.1906 74.4064 17.5665C74.5289 16.9855 74.697 16.4605 74.802 15.974C75.0225 15.2082 74.9831 14.391 74.6899 13.65C74.5679 13.3903 74.4022 13.1535 74.2 12.95C74.2 12.95 74.2 12.95 74.249 12.9815C74.2943 13.0136 74.3364 13.0499 74.375 13.09C74.5345 13.2516 74.6627 13.4415 74.753 13.65C74.9034 13.9631 74.9947 14.3012 75.0225 14.6475C75.054 15.104 75.0186 15.5627 74.9175 16.009C74.816 16.5025 74.6584 17.031 74.5429 17.605C74.4045 18.2073 74.4045 18.8332 74.5429 19.4355C74.6213 19.7531 74.7709 20.0487 74.9804 20.3C75.1939 20.5625 75.4565 20.797 75.7085 21.063C75.9888 21.3218 76.1932 21.6522 76.3 22.0185C76.3611 22.4166 76.2752 22.8235 76.0585 23.163C75.853 23.4737 75.6794 23.8044 75.5405 24.15C75.4397 24.4927 75.4397 24.8572 75.5405 25.2C75.7801 25.8462 76.0535 26.4794 76.3595 27.097C76.4888 27.4036 76.5634 27.7306 76.58 28.063C76.5907 28.3834 76.5132 28.7006 76.356 28.98C76.047 29.4384 75.6813 29.8559 75.2675 30.2225C74.9431 30.5242 74.7102 30.9111 74.5955 31.339C74.561 31.5001 74.5648 31.667 74.6068 31.8263C74.6487 31.9856 74.7276 32.1328 74.837 32.256C74.9671 32.422 75.1565 32.5312 75.3655 32.5605C75.523 32.55 75.6 32.529 75.6 32.55Z" fill="#263238"/>
<path d="M89.3338 37.268C89.106 36.9725 88.8518 36.6984 88.5743 36.449C88.2615 36.2473 87.9325 36.0717 87.5908 35.924C87.7896 35.9119 87.9888 35.9395 88.1768 36.005C88.3649 36.0704 88.538 36.1726 88.6863 36.3055C88.8539 36.4136 88.9977 36.5547 89.109 36.7202C89.2203 36.8856 89.2968 37.072 89.3338 37.268Z" fill="#D1734A"/>
<path d="M84.1153 56.448C83.8638 55.9495 83.6925 55.4144 83.6078 54.8625C83.4668 54.3203 83.4159 53.7587 83.4573 53.2C83.5969 53.7348 83.7068 54.277 83.7863 54.824C83.9282 55.3583 84.0381 55.9006 84.1153 56.448Z" fill="#D1734A"/>
<path d="M61.796 52.5245C62.4098 52.3199 62.9503 51.9401 63.3508 51.432C63.7514 50.9238 63.9944 50.3096 64.05 49.665C64.239 47.8415 63 46.221 61.3235 46.0425C59.647 45.864 58.1035 47.2045 57.9145 49.028C57.8367 49.676 57.952 50.3326 58.2459 50.9154C58.5398 51.4982 58.9992 51.9813 59.5665 52.304C56.9415 52.4405 55.671 54.054 55.0515 55.496C56.0221 56.8625 57.4521 57.834 59.08 58.233L60.97 58.429C62.6682 58.3706 64.2864 57.6934 65.52 56.525C65.2085 54.9885 64.295 53.165 61.796 52.5245Z" fill="white"/>
<g opacity="0.3">
<path d="M47.8381 51.2995L49.3921 49.6965C49.3921 49.6965 48.7201 61.2815 48.2616 62.6745C47.8031 64.0675 45.4021 68.705 45.4021 68.705L47.4741 62.3665L47.8381 51.2995Z" fill="black"/>
</g>
<path d="M51.2786 47.733C51.3136 47.768 49.9486 49.2485 48.2266 51.0405C46.5046 52.8325 45.0766 54.2605 45.0381 54.2255C44.9996 54.1905 46.3716 52.71 48.0936 50.9145C49.8156 49.119 51.2436 47.698 51.2786 47.733Z" fill="#263238"/>
<path d="M73.0031 46.8265C73.0095 46.9435 73.0036 47.0608 72.9856 47.1765C72.9646 47.4075 72.9261 47.7435 72.8701 48.16C72.7581 48.986 72.5691 50.127 72.3101 51.373C72.0511 52.619 71.7676 53.7425 71.5401 54.5475C71.4246 54.95 71.3266 55.272 71.2531 55.496C71.2257 55.6184 71.1809 55.7363 71.1201 55.846C71.1292 55.7275 71.1503 55.6102 71.1831 55.496C71.2496 55.23 71.3231 54.9115 71.4141 54.537C71.6101 53.725 71.8726 52.605 72.1316 51.359C72.3906 50.113 72.5971 48.9825 72.7441 48.16C72.8106 47.782 72.8666 47.46 72.9156 47.187C72.9277 47.0633 72.9571 46.9419 73.0031 46.8265Z" fill="#263238"/>
<path d="M65.9574 24.745C66.0364 24.6778 66.1285 24.6279 66.2279 24.5983C66.3272 24.5687 66.4317 24.5602 66.5345 24.5733C66.6374 24.5864 66.7364 24.6208 66.8252 24.6743C66.914 24.7278 66.9906 24.7992 67.0503 24.884C67.1099 24.9688 67.1512 25.0652 67.1715 25.1668C67.1918 25.2685 67.1907 25.3733 67.1682 25.4745C67.1457 25.5757 67.1024 25.6711 67.041 25.7546C66.9795 25.8381 66.9014 25.9079 66.8114 25.9595C66.7198 26.0085 66.619 26.0381 66.5153 26.0462C66.4117 26.0544 66.3075 26.0409 66.2093 26.0068C66.1111 25.9727 66.0211 25.9186 65.9448 25.8479C65.8686 25.7773 65.8078 25.6916 65.7663 25.5963C65.7249 25.5009 65.7036 25.3981 65.7039 25.2941C65.7041 25.1902 65.7259 25.0874 65.7679 24.9923C65.8098 24.8972 65.871 24.8118 65.9476 24.7415C66.0242 24.6713 66.1146 24.6176 66.2129 24.584" fill="#B0BEC5"/>
<path d="M66.0309 23.9645C66.1219 23.9645 66.0309 24.5805 66.4999 25.081C66.9689 25.5815 67.6199 25.6095 67.6129 25.6935C67.6059 25.7775 67.4519 25.7915 67.1754 25.76C66.8184 25.7171 66.4883 25.5483 66.2444 25.284C66.0114 25.0308 65.886 24.697 65.8944 24.353C65.9014 24.094 65.9889 23.954 66.0309 23.9645Z" fill="#263238"/>
<path d="M58.2645 14.8995C58.6651 14.4041 58.9229 13.8087 59.01 13.1775C59.0124 12.726 58.8502 12.289 58.554 11.9483C58.2577 11.6076 57.8475 11.3864 57.4 11.326C56.948 11.2942 56.499 11.4198 56.129 11.6813C55.759 11.9429 55.4908 12.3243 55.37 12.761C55.2749 13.2042 55.3257 13.6664 55.515 14.0783C55.7042 14.4903 56.0217 14.8299 56.42 15.0465C56.8267 15.2464 57.2848 15.317 57.7328 15.2488C58.1808 15.1806 58.5972 14.9769 58.926 14.665" fill="#263238"/>
<path d="M59.066 13.083C59.1137 13.5398 58.9888 13.998 58.716 14.3675C58.4914 14.7689 58.1241 15.0712 57.687 15.2145C58.0102 14.9289 58.3034 14.6111 58.562 14.266C58.7701 13.8899 58.939 13.4935 59.066 13.083Z" fill="#455A64"/>
<path d="M57.9879 15.05C58.0019 14.3937 57.9241 13.7388 57.7569 13.104C57.5341 12.4802 57.2242 11.8911 56.8364 11.354C56.8364 11.354 57.0324 11.4765 57.2634 11.7635C57.5636 12.1403 57.7903 12.5701 57.9319 13.0305C58.0766 13.4895 58.1359 13.9711 58.1069 14.4515C58.1118 14.6573 58.0711 14.8617 57.9879 15.05Z" fill="#455A64"/>
<path d="M70.3289 79.0685C75.2368 79.0685 79.2154 75.0899 79.2154 70.182C79.2154 65.2741 75.2368 61.2955 70.3289 61.2955C65.421 61.2955 61.4424 65.2741 61.4424 70.182C61.4424 75.0899 65.421 79.0685 70.3289 79.0685Z" fill="#B0BEC5"/>
<g opacity="0.3">
<path d="M70.3289 79.0685C75.2368 79.0685 79.2154 75.0899 79.2154 70.182C79.2154 65.2741 75.2368 61.2955 70.3289 61.2955C65.421 61.2955 61.4424 65.2741 61.4424 70.182C61.4424 75.0899 65.421 79.0685 70.3289 79.0685Z" fill="black"/>
</g>
<path d="M70.3289 77.42C75.2368 77.42 79.2154 73.4414 79.2154 68.5335C79.2154 63.6256 75.2368 59.647 70.3289 59.647C65.421 59.647 61.4424 63.6256 61.4424 68.5335C61.4424 73.4414 65.421 77.42 70.3289 77.42Z" fill="#B0BEC5"/>
<path d="M70.3289 73.7905C70.0769 73.7905 69.8704 71.435 69.8704 68.5405C69.8704 65.646 70.0769 63.2905 70.3289 63.2905C70.5809 63.2905 70.7839 65.646 70.7839 68.5405C70.7839 71.435 70.5774 73.7905 70.3289 73.7905Z" fill="white"/>
<path d="M75.5999 68.5335C75.5999 68.7855 73.2479 68.9885 70.3499 68.9885C67.4519 68.9885 65.0999 68.7855 65.0999 68.5335C65.0999 68.2815 67.4519 68.0785 70.3499 68.0785C73.2479 68.0785 75.5999 68.2815 75.5999 68.5335Z" fill="white"/>
</svg>
