<svg width="24" height="24" viewBox="0 0 24 24" fill="none" xmlns="http://www.w3.org/2000/svg">
<path d="M11.25 1.5V12H12.75V1.5H11.25Z" fill="#E20000"/>
<path d="M4.50005 13.218C4.49969 11.8784 4.85817 10.5632 5.53823 9.40915C6.21828 8.25507 7.19508 7.30422 8.36705 6.65548L7.63955 5.34448C5.90034 6.30758 4.52897 7.81945 3.73952 9.64405C2.95007 11.4687 2.78697 13.5033 3.2757 15.4304C3.76443 17.3574 4.87746 19.0684 6.44105 20.2963C8.00464 21.5241 9.93078 22.1997 11.9188 22.2175C13.9068 22.2354 15.8447 21.5945 17.4301 20.3949C19.0154 19.1953 20.159 17.5045 20.6822 15.5865C21.2055 13.6686 21.0789 11.6313 20.3223 9.79284C19.5657 7.95436 18.2217 6.41814 16.5001 5.42398L15.7486 6.72148C16.8889 7.37951 17.8359 8.32613 18.4945 9.46618C19.153 10.6062 19.4998 11.8996 19.5001 13.2161C19.5003 14.5327 19.154 15.8262 18.4959 16.9665C17.8378 18.1068 16.8911 19.0537 15.751 19.7122C14.6109 20.3706 13.3176 20.7174 12.001 20.7175C10.6844 20.7177 9.39097 20.3713 8.25072 19.7131C7.11046 19.0549 6.16355 18.1082 5.50516 16.9681C4.84678 15.8279 4.50013 14.5346 4.50005 13.218Z" fill="#E20000"/>
</svg>
