<svg width="252" height="41" viewBox="0 0 252 41" fill="none" xmlns="http://www.w3.org/2000/svg">
<path d="M13.5 8.13928C13.5 11.9193 10.638 14.5833 7.074 14.5833C3.528 14.5833 0.63 11.9193 0.63 8.13928C0.63 4.37728 3.528 1.71328 7.074 1.71328C10.656 1.71328 13.5 4.37728 13.5 8.13928ZM3.222 8.13928C3.222 10.6953 4.788 12.3333 7.074 12.3333C9.342 12.3333 10.908 10.6953 10.908 8.13928C10.908 5.58327 9.342 3.98128 7.074 3.98128C4.788 3.98128 3.222 5.58327 3.222 8.13928ZM22.5388 14.4573V8.94927C22.5388 7.34728 21.6568 6.48328 20.3248 6.48328C18.9568 6.48328 18.0748 7.34728 18.0748 8.94927V14.4573H15.5548V4.48528H18.0748V5.72728C18.7228 4.88128 19.8028 4.34127 21.0808 4.34127C23.4028 4.34127 25.0588 5.85328 25.0588 8.60728V14.4573H22.5388ZM27.6352 14.4573V1.13728H30.1552V14.4573H27.6352ZM32.825 14.4573V4.48528H35.345V14.4573H32.825ZM34.103 3.29728C33.203 3.29728 32.555 2.64928 32.555 1.82127C32.555 0.993275 33.203 0.345275 34.103 0.345275C34.985 0.345275 35.651 0.993275 35.651 1.82127C35.651 2.64928 34.985 3.29728 34.103 3.29728ZM44.9987 14.4573V8.94927C44.9987 7.34728 44.1167 6.48328 42.7847 6.48328C41.4167 6.48328 40.5347 7.34728 40.5347 8.94927V14.4573H38.0147V4.48528H40.5347V5.72728C41.1827 4.88128 42.2627 4.34127 43.5407 4.34127C45.8627 4.34127 47.5187 5.85328 47.5187 8.60728V14.4573H44.9987ZM54.3791 6.39328C53.1731 6.39328 52.2191 7.16727 52.0211 8.53527H56.7551C56.7191 7.22128 55.6751 6.39328 54.3791 6.39328ZM59.1131 11.3253C58.5731 13.1613 56.9171 14.6193 54.4511 14.6193C51.5531 14.6193 49.4471 12.6033 49.4471 9.47128C49.4471 6.32127 51.4991 4.32327 54.4511 4.32327C57.3311 4.32327 59.3651 6.28527 59.3651 9.25528C59.3651 9.57927 59.3471 9.90328 59.2931 10.2273H52.0031C52.1291 11.7033 53.1371 12.5313 54.3971 12.5313C55.4771 12.5313 56.0711 11.9913 56.3951 11.3253H59.1131ZM73.1436 1.87527V3.92727H68.3736V7.07727H72.6036V9.07527H68.3736V12.4053H73.1436V14.4573H65.8536V1.87527H73.1436ZM89.5636 14.4573V8.94927C89.5636 7.36527 88.6816 6.53727 87.3496 6.53727C85.9996 6.53727 85.1176 7.36527 85.1176 8.94927V14.4573H82.5976V8.94927C82.5976 7.36527 81.7156 6.53727 80.3836 6.53727C79.0156 6.53727 78.1336 7.36527 78.1336 8.94927V14.4573H75.6136V4.48528H78.1336V5.69128C78.7636 4.86327 79.8256 4.34127 81.0676 4.34127C82.6156 4.34127 83.8936 5.00727 84.5776 6.24927C85.2256 5.11527 86.5396 4.34127 87.9976 4.34127C90.3916 4.34127 92.0836 5.85328 92.0836 8.60728V14.4573H89.5636ZM97.175 5.92527C97.769 5.07927 98.921 4.32327 100.469 4.32327C103.025 4.32327 105.023 6.32127 105.023 9.43528C105.023 12.5493 103.025 14.6193 100.469 14.6193C98.903 14.6193 97.787 13.8453 97.175 13.0353V19.2093H94.655V4.48528H97.175V5.92527ZM102.449 9.43528C102.449 7.54528 101.171 6.53727 99.803 6.53727C98.453 6.53727 97.175 7.58127 97.175 9.47128C97.175 11.3613 98.453 12.4053 99.803 12.4053C101.171 12.4053 102.449 11.3253 102.449 9.43528ZM107.034 14.4573V1.13728H109.554V14.4573H107.034ZM121.854 9.47128C121.854 12.6033 119.55 14.6193 116.652 14.6193C113.772 14.6193 111.594 12.6033 111.594 9.47128C111.594 6.32127 113.844 4.32327 116.724 4.32327C119.604 4.32327 121.854 6.32127 121.854 9.47128ZM114.15 9.47128C114.15 11.4513 115.302 12.4233 116.652 12.4233C117.984 12.4233 119.262 11.4513 119.262 9.47128C119.262 7.47328 118.02 6.51928 116.688 6.51928C115.356 6.51928 114.15 7.47328 114.15 9.47128ZM128.13 11.4513L130.74 4.48528H133.422L127.248 19.1733H124.566L126.726 14.2053L122.73 4.48528H125.556L128.13 11.4513ZM139.245 6.39328C138.039 6.39328 137.085 7.16727 136.887 8.53527H141.621C141.585 7.22128 140.541 6.39328 139.245 6.39328ZM143.979 11.3253C143.439 13.1613 141.783 14.6193 139.317 14.6193C136.419 14.6193 134.313 12.6033 134.313 9.47128C134.313 6.32127 136.365 4.32327 139.317 4.32327C142.197 4.32327 144.231 6.28527 144.231 9.25528C144.231 9.57927 144.213 9.90328 144.159 10.2273H136.869C136.995 11.7033 138.003 12.5313 139.263 12.5313C140.343 12.5313 140.937 11.9913 141.261 11.3253H143.979ZM150.534 6.39328C149.328 6.39328 148.374 7.16727 148.176 8.53527H152.91C152.874 7.22128 151.83 6.39328 150.534 6.39328ZM155.268 11.3253C154.728 13.1613 153.072 14.6193 150.606 14.6193C147.708 14.6193 145.602 12.6033 145.602 9.47128C145.602 6.32127 147.654 4.32327 150.606 4.32327C153.486 4.32327 155.52 6.28527 155.52 9.25528C155.52 9.57927 155.502 9.90328 155.448 10.2273H148.158C148.284 11.7033 149.292 12.5313 150.552 12.5313C151.632 12.5313 152.226 11.9913 152.55 11.3253H155.268ZM164.529 7.59928H166.527C167.949 7.59928 168.579 6.89728 168.579 5.78127C168.579 4.62928 167.949 3.94527 166.527 3.94527H164.529V7.59928ZM171.171 5.78127C171.171 7.68928 169.875 9.63328 166.635 9.63328H164.529V14.4573H162.009V1.89328H166.635C169.659 1.89328 171.171 3.60327 171.171 5.78127ZM173.14 14.4573V1.13728H175.66V14.4573H173.14ZM177.682 9.43528C177.682 6.32127 179.698 4.32327 182.236 4.32327C183.838 4.32327 184.936 5.07927 185.53 5.90727V4.48528H188.068V14.4573H185.53V12.9993C184.936 13.8633 183.802 14.6193 182.218 14.6193C179.698 14.6193 177.682 12.5493 177.682 9.43528ZM185.53 9.47128C185.53 7.58127 184.27 6.53727 182.884 6.53727C181.534 6.53727 180.256 7.54528 180.256 9.43528C180.256 11.3253 181.534 12.4053 182.884 12.4053C184.27 12.4053 185.53 11.3613 185.53 9.47128ZM191.105 11.3613V6.55528H189.917V4.48528H191.105V2.01927H193.643V4.48528H195.875V6.55528H193.643V11.3793C193.643 12.0453 193.913 12.3333 194.705 12.3333H195.875V14.4573H194.291C192.383 14.4573 191.105 13.6473 191.105 11.3613ZM198.137 14.4573V6.55528H197.003V4.48528H198.137V3.98128C198.137 1.53327 199.523 0.399275 202.331 0.471275V2.59527C201.107 2.55928 200.693 2.95527 200.693 4.07127V4.48528H202.439V6.55528H200.693V14.4573H198.137ZM213.882 9.47128C213.882 12.6033 211.578 14.6193 208.68 14.6193C205.8 14.6193 203.622 12.6033 203.622 9.47128C203.622 6.32127 205.872 4.32327 208.752 4.32327C211.632 4.32327 213.882 6.32127 213.882 9.47128ZM206.178 9.47128C206.178 11.4513 207.33 12.4233 208.68 12.4233C210.012 12.4233 211.29 11.4513 211.29 9.47128C211.29 7.47328 210.048 6.51928 208.716 6.51928C207.384 6.51928 206.178 7.47328 206.178 9.47128ZM218.431 9.48927V14.4573H215.911V4.48528H218.431V6.03327C219.061 5.00727 220.105 4.34127 221.491 4.34127V6.98728H220.825C219.331 6.98728 218.431 7.56328 218.431 9.48927ZM237.318 14.4573V8.94927C237.318 7.36527 236.436 6.53727 235.104 6.53727C233.754 6.53727 232.872 7.36527 232.872 8.94927V14.4573H230.352V8.94927C230.352 7.36527 229.47 6.53727 228.138 6.53727C226.77 6.53727 225.888 7.36527 225.888 8.94927V14.4573H223.368V4.48528H225.888V5.69128C226.518 4.86327 227.58 4.34127 228.822 4.34127C230.37 4.34127 231.648 5.00727 232.332 6.24927C232.98 5.11527 234.294 4.34127 235.752 4.34127C238.146 4.34127 239.838 5.85328 239.838 8.60728V14.4573H237.318ZM7.28 36.4573L2.688 31.3693V36.4573H1.232V25.3053H2.688V30.4733L7.296 25.3053H9.136L4.08 30.8893L9.184 36.4573H7.28ZM14.6981 28.7773C13.2741 28.7773 12.0901 29.7213 11.9301 31.4333H17.4661C17.4821 29.7213 16.2021 28.7773 14.6981 28.7773ZM18.7941 33.7533C18.3461 35.3533 16.9381 36.6013 14.7621 36.6013C12.2661 36.6013 10.4261 34.8413 10.4261 32.0573C10.4261 29.2893 12.2021 27.5453 14.7621 27.5453C17.3061 27.5453 18.9701 29.3373 18.9701 31.7373C18.9701 32.0573 18.9541 32.3133 18.9221 32.6173H11.9141C12.0261 34.3933 13.2741 35.3693 14.7621 35.3693C16.0741 35.3693 16.9061 34.6973 17.2261 33.7533H18.7941ZM27.468 36.4573V31.4973C27.468 29.7053 26.492 28.7933 25.02 28.7933C23.532 28.7933 22.508 29.7213 22.508 31.6093V36.4573H21.052V27.6893H22.508V28.9373C23.084 28.0253 24.14 27.5293 25.324 27.5293C27.356 27.5293 28.908 28.7773 28.908 31.2893V36.4573H27.468ZM30.9024 32.0413C30.9024 29.3053 32.7104 27.5453 35.0784 27.5453C36.4544 27.5453 37.7184 28.2493 38.3264 29.2573V24.6173H39.7984V36.4573H38.3264V34.8093C37.7984 35.7853 36.6624 36.6013 35.0624 36.6013C32.7104 36.6013 30.9024 34.7613 30.9024 32.0413ZM38.3264 32.0573C38.3264 30.0253 36.9504 28.8093 35.3504 28.8093C33.7504 28.8093 32.3904 29.9773 32.3904 32.0413C32.3904 34.1053 33.7504 35.3213 35.3504 35.3213C36.9504 35.3213 38.3264 34.1213 38.3264 32.0573ZM43.8749 31.6893V36.4573H42.4189V27.6893H43.8749V29.1133C44.3709 28.1373 45.3149 27.5293 46.7069 27.5293V29.0333H46.3229C44.9309 29.0333 43.8749 29.6573 43.8749 31.6893ZM48.5476 36.4573V27.6893H50.0036V36.4573H48.5476ZM49.2996 26.2653C48.7396 26.2653 48.3076 25.8333 48.3076 25.2733C48.3076 24.7133 48.7396 24.2813 49.2996 24.2813C49.8276 24.2813 50.2596 24.7133 50.2596 25.2733C50.2596 25.8333 49.8276 26.2653 49.2996 26.2653ZM55.9731 34.7933L58.6931 27.6893H60.1971L54.9171 40.5853H53.4131L55.1411 36.3613L51.6051 27.6893H53.2211L55.9731 34.7933ZM61.2767 32.0413C61.2767 29.3053 63.0847 27.5453 65.4367 27.5453C67.0687 27.5453 68.1887 28.3773 68.7007 29.2893V27.6893H70.1727V36.4573H68.7007V34.8253C68.1727 35.7693 67.0367 36.6013 65.4207 36.6013C63.0847 36.6013 61.2767 34.7613 61.2767 32.0413ZM68.7007 32.0573C68.7007 30.0253 67.3247 28.8093 65.7247 28.8093C64.1247 28.8093 62.7647 29.9773 62.7647 32.0413C62.7647 34.1053 64.1247 35.3213 65.7247 35.3213C67.3247 35.3213 68.7007 34.1213 68.7007 32.0573ZM81.3949 34.9213L84.8989 25.3053H86.4349L82.2269 36.4573H80.5469L76.3389 25.3053H77.8909L81.3949 34.9213ZM88.1914 36.4573V27.6893H89.6474V36.4573H88.1914ZM88.9434 26.2653C88.3834 26.2653 87.9514 25.8333 87.9514 25.2733C87.9514 24.7133 88.3834 24.2813 88.9434 24.2813C89.4714 24.2813 89.9034 24.7133 89.9034 25.2733C89.9034 25.8333 89.4714 26.2653 88.9434 26.2653ZM91.7449 32.0413C91.7449 29.3053 93.5529 27.5453 95.9209 27.5453C97.2969 27.5453 98.5609 28.2493 99.1689 29.2573V24.6173H100.641V36.4573H99.1689V34.8093C98.6409 35.7853 97.5049 36.6013 95.9049 36.6013C93.5529 36.6013 91.7449 34.7613 91.7449 32.0413ZM99.1689 32.0573C99.1689 30.0253 97.7929 28.8093 96.1929 28.8093C94.5929 28.8093 93.2329 29.9773 93.2329 32.0413C93.2329 34.1053 94.5929 35.3213 96.1929 35.3213C97.7929 35.3213 99.1689 34.1213 99.1689 32.0573ZM106.589 34.7933L109.309 27.6893H110.813L105.533 40.5853H104.029L105.757 36.3613L102.221 27.6893H103.837L106.589 34.7933ZM111.893 32.0413C111.893 29.3053 113.701 27.5453 116.053 27.5453C117.685 27.5453 118.805 28.3773 119.317 29.2893V27.6893H120.789V36.4573H119.317V34.8253C118.789 35.7693 117.653 36.6013 116.037 36.6013C113.701 36.6013 111.893 34.7613 111.893 32.0413ZM119.317 32.0573C119.317 30.0253 117.941 28.8093 116.341 28.8093C114.741 28.8093 113.381 29.9773 113.381 32.0413C113.381 34.1053 114.741 35.3213 116.341 35.3213C117.941 35.3213 119.317 34.1213 119.317 32.0573ZM123.409 36.4573V24.6173H124.865V36.4573H123.409ZM126.963 32.0413C126.963 29.3053 128.771 27.5453 131.123 27.5453C132.755 27.5453 133.875 28.3773 134.387 29.2893V27.6893H135.859V36.4573H134.387V34.8253C133.859 35.7693 132.723 36.6013 131.107 36.6013C128.771 36.6013 126.963 34.7613 126.963 32.0413ZM134.387 32.0573C134.387 30.0253 133.011 28.8093 131.411 28.8093C129.811 28.8093 128.451 29.9773 128.451 32.0413C128.451 34.1053 129.811 35.3213 131.411 35.3213C133.011 35.3213 134.387 34.1213 134.387 32.0573ZM141.807 34.7933L144.527 27.6893H146.031L140.751 40.5853H139.247L140.975 36.3613L137.439 27.6893H139.055L141.807 34.7933ZM147.111 32.0413C147.111 29.3053 148.919 27.5453 151.271 27.5453C152.903 27.5453 154.023 28.3773 154.535 29.2893V27.6893H156.007V36.4573H154.535V34.8253C154.007 35.7693 152.871 36.6013 151.255 36.6013C148.919 36.6013 147.111 34.7613 147.111 32.0413ZM154.535 32.0573C154.535 30.0253 153.159 28.8093 151.559 28.8093C149.959 28.8093 148.599 29.9773 148.599 32.0413C148.599 34.1053 149.959 35.3213 151.559 35.3213C153.159 35.3213 154.535 34.1213 154.535 32.0573ZM170.301 33.4173C170.301 35.0013 169.005 36.5693 166.589 36.5693C164.349 36.5693 162.765 35.3213 162.733 33.4813H164.285C164.381 34.4093 165.037 35.3373 166.589 35.3373C167.997 35.3373 168.829 34.5373 168.829 33.4813C168.829 30.4733 162.797 32.3933 162.797 28.2493C162.797 26.4093 164.285 25.1613 166.493 25.1613C168.621 25.1613 170.013 26.3293 170.189 28.0253H168.589C168.493 27.2733 167.789 26.4253 166.429 26.4093C165.229 26.3773 164.285 27.0013 164.285 28.2013C164.285 31.0813 170.301 29.2893 170.301 33.4173ZM172.06 32.0413C172.06 29.3053 173.868 27.5453 176.22 27.5453C177.852 27.5453 178.972 28.3773 179.484 29.2893V27.6893H180.956V36.4573H179.484V34.8253C178.956 35.7693 177.82 36.6013 176.204 36.6013C173.868 36.6013 172.06 34.7613 172.06 32.0413ZM179.484 32.0573C179.484 30.0253 178.108 28.8093 176.508 28.8093C174.908 28.8093 173.548 29.9773 173.548 32.0413C173.548 34.1053 174.908 35.3213 176.508 35.3213C178.108 35.3213 179.484 34.1213 179.484 32.0573ZM189.992 36.4573V31.4973C189.992 29.7053 189.016 28.7933 187.544 28.7933C186.056 28.7933 185.032 29.7213 185.032 31.6093V36.4573H183.576V27.6893H185.032V28.9373C185.608 28.0253 186.664 27.5293 187.848 27.5293C189.88 27.5293 191.432 28.7773 191.432 31.2893V36.4573H189.992ZM193.427 32.0413C193.427 29.3053 195.235 27.5453 197.587 27.5453C199.187 27.5453 200.339 28.3453 200.851 29.2893V27.6893H202.323V36.6493C202.323 39.0653 200.707 40.7773 198.131 40.7773C195.827 40.7773 194.179 39.6093 193.891 37.7373H195.331C195.651 38.7933 196.691 39.5133 198.131 39.5133C199.683 39.5133 200.851 38.5213 200.851 36.6493V34.8093C200.323 35.7533 199.187 36.6013 197.587 36.6013C195.235 36.6013 193.427 34.7613 193.427 32.0413ZM200.851 32.0573C200.851 30.0253 199.475 28.8093 197.875 28.8093C196.275 28.8093 194.915 29.9773 194.915 32.0413C194.915 34.1053 196.275 35.3213 197.875 35.3213C199.475 35.3213 200.851 34.1213 200.851 32.0573ZM204.399 32.0413C204.399 29.3053 206.207 27.5453 208.559 27.5453C210.191 27.5453 211.311 28.3773 211.823 29.2893V27.6893H213.295V36.4573H211.823V34.8253C211.295 35.7693 210.159 36.6013 208.543 36.6013C206.207 36.6013 204.399 34.7613 204.399 32.0413ZM211.823 32.0573C211.823 30.0253 210.447 28.8093 208.847 28.8093C207.247 28.8093 205.887 29.9773 205.887 32.0413C205.887 34.1053 207.247 35.3213 208.847 35.3213C210.447 35.3213 211.823 34.1213 211.823 32.0573ZM216.236 34.0573V28.8893H215.1V27.6893H216.236V25.4813H217.692V27.6893H219.98V28.8893H217.692V34.0573C217.692 34.9213 218.012 35.2253 218.908 35.2253H219.98V36.4573H218.668C217.116 36.4573 216.236 35.8173 216.236 34.0573ZM221.904 36.4573V24.6173H223.36V28.9533C223.936 28.0253 225.024 27.5293 226.256 27.5293C228.208 27.5293 229.76 28.7773 229.76 31.2893V36.4573H228.32V31.4973C228.32 29.7053 227.344 28.7933 225.872 28.7933C224.384 28.7933 223.36 29.7213 223.36 31.6093V36.4573H221.904ZM231.754 32.0413C231.754 29.3053 233.562 27.5453 235.914 27.5453C237.546 27.5453 238.666 28.3773 239.178 29.2893V27.6893H240.65V36.4573H239.178V34.8253C238.65 35.7693 237.514 36.6013 235.898 36.6013C233.562 36.6013 231.754 34.7613 231.754 32.0413ZM239.178 32.0573C239.178 30.0253 237.802 28.8093 236.202 28.8093C234.602 28.8093 233.242 29.9773 233.242 32.0413C233.242 34.1053 234.602 35.3213 236.202 35.3213C237.802 35.3213 239.178 34.1213 239.178 32.0573ZM249.687 36.4573V31.4973C249.687 29.7053 248.711 28.7933 247.239 28.7933C245.751 28.7933 244.727 29.7213 244.727 31.6093V36.4573H243.271V27.6893H244.727V28.9373C245.303 28.0253 246.359 27.5293 247.543 27.5293C249.575 27.5293 251.127 28.7773 251.127 31.2893V36.4573H249.687Z" fill="#474747"/>
</svg>
