<svg width="20" height="24" viewBox="0 0 20 24" fill="none" xmlns="http://www.w3.org/2000/svg">
<path d="M13.1163 24H6.4186C1.49581 24 0 22.5042 0 17.5814V6.4186C0 1.49581 1.49581 0 6.4186 0H13.1163C18.0391 0 19.5349 1.49581 19.5349 6.4186V17.5814C19.5349 22.5042 18.0391 24 13.1163 24ZM6.4186 1.67442C2.42233 1.67442 1.67442 2.43349 1.67442 6.4186V17.5814C1.67442 21.5665 2.42233 22.3256 6.4186 22.3256H13.1163C17.1126 22.3256 17.8605 21.5665 17.8605 17.5814V6.4186C17.8605 2.43349 17.1126 1.67442 13.1163 1.67442H6.4186Z" fill="white"/>
<path d="M12 5.5814H7.53487C7.0772 5.5814 6.69766 5.20187 6.69766 4.74419C6.69766 4.28652 7.0772 3.90698 7.53487 3.90698H12C12.4577 3.90698 12.8372 4.28652 12.8372 4.74419C12.8372 5.20187 12.4577 5.5814 12 5.5814Z" fill="white"/>
<path d="M9.76767 20.774C8.34999 20.774 7.20023 19.6242 7.20023 18.2065C7.20023 16.7888 8.34999 15.6391 9.76767 15.6391C11.1853 15.6391 12.3351 16.7888 12.3351 18.2065C12.3351 19.6242 11.1853 20.774 9.76767 20.774ZM9.76767 17.3023C9.27651 17.3023 8.87464 17.7042 8.87464 18.1953C8.87464 18.6865 9.27651 19.0884 9.76767 19.0884C10.2588 19.0884 10.6607 18.6865 10.6607 18.1953C10.6607 17.7042 10.2588 17.3023 9.76767 17.3023Z" fill="white"/>
</svg>
