<svg width="24" height="24" viewBox="0 0 24 24" fill="none" xmlns="http://www.w3.org/2000/svg">
<path d="M18.6977 10.6047C18.24 10.6047 17.8605 10.2251 17.8605 9.76744V7.53488C17.8605 4.0186 16.867 1.67442 12 1.67442C7.13303 1.67442 6.13954 4.0186 6.13954 7.53488V9.76744C6.13954 10.2251 5.76 10.6047 5.30233 10.6047C4.84465 10.6047 4.46512 10.2251 4.46512 9.76744V7.53488C4.46512 4.29767 5.24651 0 12 0C18.7535 0 19.5349 4.29767 19.5349 7.53488V9.76744C19.5349 10.2251 19.1553 10.6047 18.6977 10.6047Z" fill="white"/>
<path d="M17.5814 24H6.4186C1.49581 24 0 22.5042 0 17.5814V15.3488C0 10.4261 1.49581 8.93024 6.4186 8.93024H17.5814C22.5042 8.93024 24 10.4261 24 15.3488V17.5814C24 22.5042 22.5042 24 17.5814 24ZM6.4186 10.6047C2.42233 10.6047 1.67442 11.3637 1.67442 15.3488V17.5814C1.67442 21.5665 2.42233 22.3256 6.4186 22.3256H17.5814C21.5777 22.3256 22.3256 21.5665 22.3256 17.5814V15.3488C22.3256 11.3637 21.5777 10.6047 17.5814 10.6047H6.4186Z" fill="white"/>
<path d="M7.53489 17.5813C7.38977 17.5813 7.24466 17.5478 7.1107 17.492C6.96559 17.4362 6.85397 17.358 6.74234 17.2576C6.54141 17.0455 6.41861 16.7664 6.41861 16.465C6.41861 16.3199 6.45209 16.1748 6.5079 16.0408C6.56371 15.8957 6.64188 15.7841 6.74234 15.6724C6.85397 15.572 6.96559 15.4938 7.1107 15.438C7.51256 15.2594 8.01488 15.3599 8.32744 15.6724C8.4279 15.7841 8.50606 15.9069 8.56188 16.0408C8.61769 16.1748 8.65117 16.3199 8.65117 16.465C8.65117 16.7552 8.52837 17.0455 8.32744 17.2576C8.11534 17.4585 7.82512 17.5813 7.53489 17.5813Z" fill="white"/>
<path d="M12 17.5813C11.7098 17.5813 11.4195 17.4585 11.2074 17.2576C11.0065 17.0455 10.8837 16.7664 10.8837 16.465C10.8837 16.3199 10.9061 16.1748 10.973 16.0408C11.0288 15.9069 11.107 15.7841 11.2074 15.6725C11.4642 15.4157 11.8549 15.2929 12.2121 15.3711C12.2902 15.3822 12.3572 15.4045 12.4242 15.438C12.4912 15.4604 12.5581 15.4938 12.6251 15.5385C12.6809 15.572 12.7368 15.6278 12.7926 15.6725C12.893 15.7841 12.9712 15.9069 13.027 16.0408C13.0828 16.1748 13.1163 16.3199 13.1163 16.465C13.1163 16.7664 12.9935 17.0455 12.7926 17.2576C12.7368 17.3022 12.6809 17.3469 12.6251 17.3915C12.5581 17.4362 12.4912 17.4697 12.4242 17.492C12.3572 17.5255 12.2902 17.5478 12.2121 17.559C12.1451 17.5701 12.067 17.5813 12 17.5813Z" fill="white"/>
<path d="M16.4651 17.5813C16.1637 17.5813 15.8846 17.4585 15.6726 17.2576C15.5721 17.1459 15.4939 17.0231 15.4381 16.8892C15.3823 16.7552 15.3488 16.6101 15.3488 16.465C15.3488 16.1748 15.4716 15.8845 15.6726 15.6725C15.7284 15.6278 15.7842 15.5831 15.84 15.5385C15.907 15.4938 15.9739 15.4604 16.0409 15.438C16.1079 15.4045 16.1749 15.3822 16.2419 15.3711C16.6102 15.2929 16.9898 15.4157 17.2577 15.6725C17.4586 15.8845 17.5814 16.1636 17.5814 16.465C17.5814 16.6101 17.5479 16.7552 17.4921 16.8892C17.4363 17.0343 17.3581 17.1459 17.2577 17.2576C17.0456 17.4585 16.7553 17.5813 16.4651 17.5813Z" fill="white"/>
</svg>
