<?xml version="1.0" standalone="no"?>
<!DOCTYPE svg PUBLIC "-//W3C//DTD SVG 1.1//EN" "http://www.w3.org/Graphics/SVG/1.1/DTD/svg11.dtd" >
<svg xmlns="http://www.w3.org/2000/svg" xmlns:xlink="http://www.w3.org/1999/xlink" version="1.1">
<metadata>
Created by FontForge 20190801 at Tue Jul 25 10:45:25 2017
 By www-data
Copyright 2014-2017 Indian Type Foundry (info@indiantypefoundry.com)
</metadata>
<defs>
<font id="PoppinsRegular" horiz-adv-x="275" >
  <font-face 
    font-family="PoppinsRegular"
    font-weight="400"
    font-stretch="normal"
    units-per-em="1000"
    panose-1="0 0 5 0 0 0 0 0 0 0"
    ascent="800"
    descent="-200"
    x-height="549"
    cap-height="693"
    bbox="-535 -439 2606 1076"
    underline-thickness="50"
    underline-position="-100"
    unicode-range="U+000D-FB02"
  />
<missing-glyph horiz-adv-x="500" 
d="M500 700v-700h-500v700h500zM80 650l170 -255l170 255h-340zM220 350l-170 255v-510zM450 605l-170 -255l170 -255v510zM250 305l-170 -255h340z" />
    <glyph glyph-name="fi" unicode="fi" horiz-adv-x="571" 
d="M186 549h310v-549h-91v475h-219v-475h-92v475h-71v74h71v46q0 90 48 131t151 41v-74q-60 0 -83.5 -22.5t-23.5 -75.5v-46zM407.5 655q-17.5 18 -17.5 44t18 44t43 18q26 0 43.5 -18t17.5 -44t-17.5 -44t-43.5 -18t-43.5 18z" />
    <glyph glyph-name="fl" unicode="fl" horiz-adv-x="571" 
d="M301 475h-115v-475h-92v475h-71v74h71v46q0 90 48 131t151 41v-74q-60 0 -83.5 -22.5t-23.5 -75.5v-46h115v-74zM496 740v-740h-91v740h91z" />
    <glyph glyph-name=".notdef" horiz-adv-x="500" 
d="M500 700v-700h-500v700h500zM80 650l170 -255l170 255h-340zM220 350l-170 255v-510zM450 605l-170 -255l170 -255v510zM250 305l-170 -255h340z" />
    <glyph glyph-name=".null" horiz-adv-x="0" 
 />
    <glyph glyph-name="nonmarkingreturn" horiz-adv-x="333" 
 />
    <glyph glyph-name="NULL" horiz-adv-x="0" 
 />
    <glyph glyph-name="NULL" horiz-adv-x="0" 
 />
    <glyph glyph-name="CR" unicode="&#xd;" horiz-adv-x="300" 
 />
    <glyph glyph-name="space" unicode=" " horiz-adv-x="300" 
 />
    <glyph glyph-name="exclam" unicode="!" horiz-adv-x="410" 
d="M257 748l-10 -541h-74l-11 541h95zM171 100q17 17 41 17q25 0 42 -17t17 -42q0 -24 -17 -41t-42 -17q-24 0 -41 17t-17 41q0 25 17 42z" />
    <glyph glyph-name="quotedbl" unicode="&#x22;" horiz-adv-x="286" 
d="M119 796l-12 -199h-63l-12 199h87zM254 796l-12 -199h-63l-12 199h87z" />
    <glyph glyph-name="numbersign" unicode="#" horiz-adv-x="848" 
d="M634 462l-39 -182h137v-78h-154l-43 -202h-88l43 202h-209l-43 -202h-88l43 202h-156v78h173l39 182h-155v78h171l43 200h88l-43 -200h209l43 200h88l-43 -200h140v-78h-156zM546 462h-209l-39 -182h209z" />
    <glyph glyph-name="dollar" unicode="$" horiz-adv-x="652" 
d="M503 102q-24 -44 -70.5 -73.5t-112.5 -34.5v-81h-56v81q-90 7 -147 54.5t-57 124.5h97q3 -41 29.5 -69t77.5 -34v245q-65 15 -106 32.5t-69.5 55t-28.5 102.5q0 81 55 134t149 60v81h56v-81q84 -7 136 -52.5t61 -121.5h-100q-3 33 -28.5 60t-68.5 36v-240q65 -14 107 -31
t71 -54.5t29 -101.5q0 -48 -24 -92zM178.5 435.5q29.5 -24.5 85.5 -40.5v228q-52 -5 -83.5 -34t-31.5 -81q0 -48 29.5 -72.5zM406.5 109.5q31.5 32.5 31.5 79.5q0 48 -30.5 72.5t-87.5 39.5v-231q55 7 86.5 39.5z" />
    <glyph glyph-name="percent" unicode="%" horiz-adv-x="684" 
d="M296 663q41 -40 41 -108q0 -67 -41 -107.5t-105 -40.5q-63 0 -104 40.5t-41 107.5q0 68 40.5 108t104.5 40t105 -40zM590 693l-405 -693h-91l405 693h91zM140 486.5q18 -22.5 51 -22.5t51 22.5t18 68.5q0 91 -69 91t-69 -91q0 -46 18 -68.5zM597.5 245.5
q41.5 -40.5 41.5 -107.5q0 -68 -41 -108t-105 -40t-104.5 40t-40.5 108q0 67 41 107.5t104 40.5t104.5 -40.5zM442 69.5q18 -22.5 51 -22.5t51 22.5t18 68.5t-18 68.5t-51 22.5t-51 -22.5t-18 -68.5t18 -68.5z" />
    <glyph glyph-name="ampersand" unicode="&#x26;" horiz-adv-x="668" 
d="M542 0l-105 140q-18 -65 -71.5 -106.5t-123.5 -41.5q-56 0 -103 26t-74 72.5t-27 105.5t26.5 105.5t72 72t99.5 25.5q8 0 13.5 -2.5t12.5 -6.5l-40 30q-34 45 -51.5 82.5t-17.5 76.5q0 42 21.5 79t62 59.5t96.5 22.5q55 0 96 -22t62.5 -58t21.5 -77q0 -21 -7 -46h-92
q6 18 6 41q0 37 -24.5 62t-62.5 25q-39 0 -63.5 -25t-24.5 -62q0 -24 10 -47.5t36 -58.5l362 -472h-111zM303 83.5q28 17.5 44.5 47.5t16.5 66t-16.5 65.5t-44.5 47t-61 17.5q-50 0 -85 -37.5t-35 -92.5t35 -93t85 -38q33 0 61 17.5z" />
    <glyph glyph-name="quotesingle" unicode="'" horiz-adv-x="151" 
d="M119 796l-12 -199h-63l-12 199h87z" />
    <glyph glyph-name="parenleft" unicode="(" horiz-adv-x="561" 
d="M185 638.5q33 112.5 92.5 202.5t138.5 148h97v-9q-138 -108 -205.5 -259.5t-67.5 -317.5q0 -167 67.5 -319t205.5 -259v-9h-97q-79 58 -138.5 148t-92.5 203t-33 236t33 235.5z" />
    <glyph glyph-name="parenright" unicode=")" horiz-adv-x="562" 
d="M377 167q-33 -113 -92.5 -203t-138.5 -148h-97v9q137 107 205 259t68 319q0 166 -68 317.5t-205 259.5v9h97q79 -58 138.5 -148t92.5 -202.5t33 -235.5t-33 -236z" />
    <glyph glyph-name="asterisk" unicode="*" horiz-adv-x="492" 
d="M386 673l40 -72l-143 -54l143 -54l-40 -73l-120 91l20 -151h-82l18 151l-122 -93l-42 75l142 54l-142 54l42 73l122 -92l-18 152h82l-20 -152z" />
    <glyph glyph-name="plus" unicode="+" horiz-adv-x="741" 
d="M625 326h-212v-215h-85v215h-212v80h212v215h85v-215h212v-80z" />
    <glyph glyph-name="comma" unicode="," horiz-adv-x="186" 
d="M145 -30q0 -113 -103 -113v44q25 0 36.5 12t11.5 38v23h-51v93h93q13 -53 13 -97z" />
    <glyph glyph-name="hyphen" unicode="-" horiz-adv-x="587" 
d="M493 405v-78h-399v78h399z" />
    <glyph glyph-name="period" unicode="." horiz-adv-x="226" 
d="M72 100q17 17 41 17t41 -17t17 -42q0 -24 -17 -41t-41 -17t-41 17t-17 41q0 25 17 42z" />
    <glyph glyph-name="slash" unicode="/" horiz-adv-x="539" 
d="M445 942l-273 -1112h-90l273 1112h90z" />
    <glyph glyph-name="zero" unicode="0" horiz-adv-x="636" 
d="M121 98q55 -97 196 -97t196 97t55 268q0 172 -55 268.5t-196 96.5t-196 -97t-55 -268t55 -268zM468.5 219.5q-11.5 -60.5 -47 -99t-104.5 -38.5t-104.5 38.5t-46.5 98.5t-11 147t11 147.5t46.5 98.5t104.5 38t104.5 -38t47 -98.5t11.5 -147.5q0 -86 -11.5 -146.5z" />
    <glyph glyph-name="one" unicode="1" horiz-adv-x="321" 
d="M52 629v81h171v-710h-89v629h-82z" />
    <glyph glyph-name="two" unicode="2" horiz-adv-x="579" 
d="M128 137q101 87 159.5 143t97.5 117.5t39 120.5q0 63 -32.5 101t-103.5 38q-68 0 -105 -42.5t-40 -112.5h-87q4 112 67.5 172.5t163.5 60.5q103 0 164.5 -57.5t61.5 -156.5q0 -72 -39.5 -140.5t-94 -124t-135.5 -126.5q-54 -47 -49 -43h340v-77h-479v65q48 42 72 62z" />
    <glyph glyph-name="three" unicode="3" horiz-adv-x="589" 
d="M413.5 721.5q49.5 -24.5 75.5 -67t26 -96.5q0 -59 -33 -103.5t-85 -60.5v-5q61 -17 96 -66t35 -125q0 -57 -26.5 -103t-78.5 -72.5t-125 -26.5q-104 0 -172 54t-75 153h86q5 -57 47.5 -93.5t112.5 -36.5q71 0 108.5 37.5t37.5 96.5q0 79 -50 112t-153 33h-24v76h25
q188 2 188 121q0 55 -35.5 87t-102.5 32q-61 0 -98 -29.5t-45 -78.5h-88q8 87 72.5 136.5t161.5 49.5q70 0 119.5 -24.5z" />
    <glyph glyph-name="four" unicode="4" horiz-adv-x="634" 
d="M45 162v64l344 494h116v-480h97v-78h-97v-162h-88v162h-372zM420 636l-269 -396h269v396z" />
    <glyph glyph-name="five" unicode="5" horiz-adv-x="634" 
d="M523 652h-349v-229q22 33 67 55t97 22q83 0 135.5 -35.5t75 -91t22.5 -117.5q0 -113 -63 -184.5t-184 -71.5q-106 0 -170.5 53t-80.5 140h87q14 -54 57.5 -85t106.5 -31q80 0 120.5 48t40.5 128q0 82 -40.5 125.5t-120.5 43.5q-54 0 -93 -28t-58 -76h-83v413h433v-79z
" />
    <glyph glyph-name="six" unicode="6" horiz-adv-x="644" 
d="M426 645q-32 25 -91 25q-60 0 -98.5 -28t-58.5 -91.5t-22 -170.5q27 49 80 76.5t118 27.5q66 0 116.5 -29t79 -83t28.5 -129q0 -69 -26.5 -124t-79.5 -87t-130 -32q-105 0 -162.5 48t-78.5 131t-21 206q0 172 62 267t193 95q65 0 112 -24.5t73.5 -65t32.5 -89.5h-82
q-13 52 -45 77zM212 123q43 -46 126 -46q71 0 112.5 43.5t41.5 117.5q0 79 -39.5 123.5t-117.5 44.5q-43 0 -81 -17.5t-61.5 -53t-23.5 -88.5q0 -78 43 -124z" />
    <glyph glyph-name="seven" unicode="7" horiz-adv-x="560" 
d="M522 660l-286 -660h-100l299 651h-395v77h482v-68z" />
    <glyph glyph-name="eight" unicode="8" horiz-adv-x="635" 
d="M109 655.5q27 44.5 80 70.5t128 26q76 0 129 -26t79.5 -71t26.5 -100q0 -58 -30 -101.5t-78 -64.5q57 -19 92 -68.5t35 -118.5q0 -67 -32 -117.5t-89.5 -77.5t-132.5 -27t-132.5 27t-89.5 77.5t-32 117.5q0 69 35 118.5t93 68.5q-51 24 -80 66t-29 101q0 55 27 99.5z
M209.5 456.5q41.5 -35.5 107.5 -35.5t107.5 35.5t41.5 89.5q0 62 -39.5 95.5t-109.5 33.5q-69 0 -109 -33.5t-40 -95.5q0 -54 41.5 -89.5zM194.5 97q45.5 -40 122.5 -40t122 40.5t45 106.5q0 72 -46 108.5t-121 36.5q-74 0 -121 -36.5t-47 -108.5q0 -67 45.5 -107z" />
    <glyph glyph-name="nine" unicode="9" horiz-adv-x="635" 
d="M234.5 106q37.5 -28 99.5 -28q53 0 86.5 25.5t50.5 86.5t17 165q-26 -40 -72.5 -61t-100.5 -21q-64 0 -117 27.5t-84 80.5t-31 126q0 109 63 174.5t175 65.5q131 0 188 -89.5t57 -276.5q0 -130 -21.5 -213t-73.5 -125t-142 -42q-101 0 -158 53t-68 133h83
q11 -53 48.5 -81zM434.5 626.5q-40.5 43.5 -111.5 43.5t-112.5 -44t-41.5 -118q0 -69 40.5 -113t121.5 -44q68 0 106 42t38 112q0 78 -40.5 121.5z" />
    <glyph glyph-name="colon" unicode=":" horiz-adv-x="302" 
d="M102 526q17 17 41 17q25 0 42 -17t17 -41t-17 -41t-42 -17q-24 0 -41 17t-17 41t17 41zM102 100q17 17 41 17q25 0 42 -17t17 -42q0 -24 -17 -41t-42 -17q-24 0 -41 17t-17 41q0 25 17 42z" />
    <glyph glyph-name="semicolon" unicode=";" horiz-adv-x="276" 
d="M110 528q17 17 41 17t41 -17t17 -42q0 -24 -17 -41t-41 -17t-41 17t-17 41q0 25 17 42zM204 -30q0 -113 -103 -113v44q25 0 36.5 12t11.5 38v23h-51v93h93q13 -53 13 -97z" />
    <glyph glyph-name="less" unicode="&#x3c;" horiz-adv-x="636" 
d="M353 136l-242 230l242 229h115l-242 -229l242 -230h-115z" />
    <glyph glyph-name="equal" unicode="=" horiz-adv-x="771" 
d="M646 514v-80h-520v80h520zM646 297v-79h-520v79h520z" />
    <glyph glyph-name="greater" unicode="&#x3e;" horiz-adv-x="603" 
d="M132 595h114l242 -229l-242 -230h-114l242 230z" />
    <glyph glyph-name="question" unicode="?" horiz-adv-x="626" 
d="M475.5 687q59.5 -55 59.5 -150q0 -110 -59.5 -157.5t-179.5 -48.5v-132h-86v197h40q67 -1 109.5 10t66 41.5t23.5 88.5q0 61 -35 95t-97 34t-97.5 -32.5t-35.5 -92.5h-85q0 61 27 106.5t76.5 70.5t113.5 25q100 0 159.5 -55zM297 92q17 -17 17 -42q0 -24 -17 -41t-42 -17
q-24 0 -41 17t-17 41q0 25 17 42t41 17q25 0 42 -17z" />
    <glyph glyph-name="at" unicode="@" horiz-adv-x="1157" 
d="M885 732q103 -53 160 -149.5t57 -222.5q0 -103 -38.5 -187.5t-100.5 -133t-127 -48.5q-59 0 -86.5 35t-25.5 87q-35 -56 -86.5 -89t-120.5 -33q-61 0 -111 30t-78.5 84t-28.5 124q0 27 4 50q12 82 57.5 145.5t111.5 98t139 34.5q66 0 117 -29t78.5 -80.5t27.5 -115.5
q0 -26 -4 -47l-25 -161q-1 -5 -1 -14q0 -21 10.5 -31.5t29.5 -10.5q37 0 75 37.5t63.5 104.5t25.5 150q0 104 -44 183t-128.5 122.5t-201.5 43.5q-140 0 -250.5 -66.5t-172.5 -181.5t-62 -255q0 -121 51.5 -205.5t144 -128.5t215.5 -48l-19 -76q-141 4 -251 58t-172.5 156
t-62.5 244q0 161 76 293.5t211 209t304 76.5q136 0 239 -53zM740 312q0 73 -40.5 120t-102.5 47q-46 0 -89 -27t-73.5 -74t-38.5 -104q-3 -19 -3 -39q0 -48 18.5 -86t50.5 -59.5t73 -21.5q46 0 89.5 27t74 74.5t38.5 104.5q3 20 3 38z" />
    <glyph glyph-name="A" unicode="A" horiz-adv-x="691" 
d="M499 152h-308l-54 -152h-93l252 693h100l251 -693h-94zM473 224l-128 358l-128 -358h256z" />
    <glyph glyph-name="B" unicode="B" horiz-adv-x="612" 
d="M520 296q41 -49 41 -113q0 -51 -27.5 -93t-79 -66t-119.5 -24h-260v693h248q71 0 121 -24t75.5 -65.5t25.5 -94.5q0 -58 -35 -96.5t-98 -56.5q67 -11 108 -60zM166 392h153q63 0 98.5 30.5t35.5 82.5q0 53 -35.5 84t-98.5 31h-153v-228zM433.5 105q37.5 33 37.5 91
q0 57 -40.5 90t-107.5 33h-157v-247h164q66 0 103.5 33z" />
    <glyph glyph-name="C" unicode="C" horiz-adv-x="777" 
d="M584.5 649q84.5 -51 124.5 -147h-110q-30 57 -84 87t-123 30q-74 0 -133.5 -33.5t-93 -95.5t-33.5 -143t33.5 -143t93 -96t133.5 -34q69 0 123 30.5t84 87.5h110q-40 -96 -124.5 -147t-192.5 -51q-97 0 -178 45.5t-128 126t-47 181.5q0 102 47 182.5t128 125.5t178 45
q108 0 192.5 -51z" />
    <glyph glyph-name="D" unicode="D" horiz-adv-x="696" 
d="M612 158.5q-44 -77.5 -125.5 -118t-192.5 -40.5h-219v693h219q111 0 192.5 -42.5t125.5 -121t44 -186.5q0 -107 -44 -184.5zM494 142q69 72 69 201t-69 201t-200 72h-128v-546h128q131 0 200 72z" />
    <glyph glyph-name="E" unicode="E" horiz-adv-x="505" 
d="M166 621v-236h246v-71h-246v-242h276v-72h-367v693h367v-72h-276z" />
    <glyph glyph-name="F" unicode="F" horiz-adv-x="490" 
d="M465 693v-73h-299v-235h236v-72h-236v-313h-91v693h390z" />
    <glyph glyph-name="G" unicode="G" horiz-adv-x="777" 
d="M584.5 649q84.5 -51 124.5 -147h-110q-30 57 -84 87t-123 30q-74 0 -133.5 -33.5t-93 -95.5t-33.5 -143t33.5 -143t93 -96t133.5 -34q106 0 172.5 62t77.5 168h-286v72h382v-72q-9 -88 -56.5 -159t-123 -111t-166.5 -40q-97 0 -178 45.5t-128 126t-47 181.5
q0 102 47 182.5t128 125.5t178 45q108 0 192.5 -51z" />
    <glyph glyph-name="H" unicode="H" horiz-adv-x="682" 
d="M607 693v-693h-92v313h-349v-313h-91v693h91v-308h349v308h92z" />
    <glyph glyph-name="I" unicode="I" horiz-adv-x="241" 
d="M166 693v-693h-91v693h91z" />
    <glyph glyph-name="J" unicode="J" horiz-adv-x="552" 
d="M437 693v-512q0 -86 -53 -137t-140 -51t-140.5 51t-53.5 137h93q1 -48 25.5 -78t75.5 -30q52 0 77 30.5t25 77.5v512h91z" />
    <glyph glyph-name="K" unicode="K" horiz-adv-x="598" 
d="M246 342l324 -342h-121l-283 310v-310h-91v693h91v-321l285 321h119z" />
    <glyph glyph-name="L" unicode="L" horiz-adv-x="429" 
d="M166 70h243v-70h-334v693h91v-623z" />
    <glyph glyph-name="M" unicode="M" horiz-adv-x="857" 
d="M782 693v-693h-92v505l-232 -505h-59l-233 505v-505h-91v693h93l261 -568l260 568h93z" />
    <glyph glyph-name="N" unicode="N" horiz-adv-x="698" 
d="M623 0h-91l-366 550v-550h-91v693h91l366 -550v550h91v-693z" />
    <glyph glyph-name="O" unicode="O" horiz-adv-x="782" 
d="M569.5 655q80.5 -45 127.5 -125.5t47 -182.5q0 -101 -47 -182t-127.5 -126.5t-177.5 -45.5t-178 45.5t-128 126.5t-47 182q0 102 47 182.5t128 125.5t178 45t177.5 -45zM258.5 585.5q-59.5 -33.5 -93.5 -95.5t-34 -143t34 -143t93.5 -96t133.5 -34t133 34t92.5 96
t33.5 143t-33.5 143t-92.5 95.5t-133 33.5t-133.5 -33.5z" />
    <glyph glyph-name="P" unicode="P" horiz-adv-x="578" 
d="M166 286v-286h-91v693h225q78 0 132 -26.5t81 -73t27 -104.5q0 -88 -59.5 -145.5t-180.5 -57.5h-134zM411.5 392.5q36.5 34.5 36.5 96.5t-36 96.5t-112 34.5h-134v-262h134q75 0 111.5 34.5z" />
    <glyph glyph-name="Q" unicode="Q" horiz-adv-x="785" 
d="M636 -131l-140 139q-48 -15 -104 -15q-97 0 -178 45.5t-128 126.5t-47 182q0 102 47 182.5t128 125.5t178 45t177.5 -45t127.5 -125.5t47 -182.5q0 -99 -44 -178t-121 -125l177 -175h-120zM165 204q34 -62 93.5 -96t133.5 -34t133 34t92.5 96t33.5 143t-33.5 143
t-92.5 95.5t-133 33.5t-133.5 -33.5t-93.5 -95.5t-34 -143t34 -143z" />
    <glyph glyph-name="R" unicode="R" horiz-adv-x="617" 
d="M437 0l-182 286h-89v-286h-91v693h225q78 0 132 -26.5t81 -73t27 -104.5q0 -75 -45 -130t-135 -69l191 -290h-114zM166 358h134q75 0 111.5 34.5t36.5 96.5t-36 96.5t-112 34.5h-134v-262z" />
    <glyph glyph-name="S" unicode="S" horiz-adv-x="587" 
d="M500 96q-27 -46 -80 -74.5t-127 -28.5q-66 0 -119 21.5t-83.5 62t-30.5 96.5h97q4 -47 37.5 -76t98.5 -29q67 0 106 34t39 87q0 40 -22 63.5t-55 35.5t-88 24q-69 16 -111.5 33t-72 55t-29.5 105q0 58 28 102t80.5 68.5t122.5 24.5q95 0 154.5 -46.5t68.5 -128.5h-101
q-4 41 -38.5 70t-92.5 29q-59 0 -96 -29.5t-37 -86.5q0 -41 22 -65t54.5 -36t90.5 -25q68 -16 110 -32.5t71.5 -53.5t29.5 -102q0 -52 -27 -98z" />
    <glyph glyph-name="T" unicode="T" horiz-adv-x="546" 
d="M501 693v-73h-183v-620h-91v620h-183v73h457z" />
    <glyph glyph-name="U" unicode="U" horiz-adv-x="673" 
d="M166 693v-450q0 -86 45.5 -128.5t125.5 -42.5t126 42.5t46 128.5v450h91v-450q0 -82 -35 -138.5t-95 -84t-133 -27.5q-74 0 -133.5 27.5t-94.5 84t-35 138.5v450h92z" />
    <glyph glyph-name="V" unicode="V" horiz-adv-x="680" 
d="M121 693l218 -596l220 596h97l-267 -693h-98l-267 693h97z" />
    <glyph glyph-name="W" unicode="W" horiz-adv-x="980" 
d="M956 693l-210 -693h-102l-156 560l-167 -560l-101 -1l-196 694h96l154 -589l168 589h100l155 -587l163 587h96z" />
    <glyph glyph-name="X" unicode="X" horiz-adv-x="629" 
d="M366 346l213 -346h-100l-169 273l-159 -273h-101l214 347l-214 346h101l169 -274l159 274h101z" />
    <glyph glyph-name="Y" unicode="Y" horiz-adv-x="572" 
d="M557 693l-225 -431v-262h-91v262l-226 431h100l171 -347l170 347h101z" />
    <glyph glyph-name="Z" unicode="Z" horiz-adv-x="542" 
d="M155 72h337v-72h-442v72l338 548h-338v73h442v-73z" />
    <glyph glyph-name="bracketleft" unicode="[" horiz-adv-x="474" 
d="M330 942v-76h-86v-960h86v-77h-170v1113h170z" />
    <glyph glyph-name="backslash" unicode="\" horiz-adv-x="683" 
d="M469 -170l-313 1112h91l312 -1112h-90z" />
    <glyph glyph-name="bracketright" unicode="]" horiz-adv-x="474" 
d="M144 -171v77h86v960h-86v76h171v-1113h-171z" />
    <glyph glyph-name="asciicircum" unicode="^" horiz-adv-x="632" 
d="M134 170h-96l236 523h84l236 -523h-96l-182 409z" />
    <glyph glyph-name="underscore" unicode="_" horiz-adv-x="806" 
d="M675 -40v-82h-532v82h532z" />
    <glyph glyph-name="grave" unicode="`" horiz-adv-x="239" 
d="M223 657v-70l-213 112v84z" />
    <glyph glyph-name="a" unicode="a" horiz-adv-x="670" 
d="M423.5 525q52.5 -33 79.5 -86v110h92v-549h-92v112q-27 -54 -79.5 -87.5t-122.5 -33.5q-74 0 -133.5 36.5t-94 102t-34.5 148.5t34.5 146.5t94 98.5t133.5 35q70 0 122.5 -33zM225.5 455q-42.5 -24 -68 -69.5t-25.5 -107.5t25.5 -109.5t68 -73.5t91.5 -26q50 0 92.5 25
t68 71.5t25.5 108.5t-25.5 108.5t-68 71.5t-92.5 25q-49 0 -91.5 -24z" />
    <glyph glyph-name="b" unicode="b" horiz-adv-x="670" 
d="M502.5 523q59.5 -35 94 -98.5t34.5 -146.5t-34.5 -148.5t-94 -102t-133.5 -36.5q-70 0 -122.5 33.5t-80.5 87.5v-112h-91v740h91v-301q28 53 80.5 86t122.5 33q74 0 133.5 -35zM259.5 454q-42.5 -25 -68 -71.5t-25.5 -108.5t25.5 -108.5t68 -71.5t91.5 -25t92 25.5
t68.5 73.5t25.5 110t-25.5 107.5t-68 69.5t-92.5 24q-49 0 -91.5 -25z" />
    <glyph glyph-name="c" unicode="c" horiz-adv-x="600" 
d="M466.5 512q62.5 -46 87.5 -131h-98q-16 48 -55 75t-96 27q-78 0 -125.5 -54.5t-47.5 -154.5q0 -99 47.5 -153.5t125.5 -54.5q58 0 96 26t55 76h98q-25 -81 -88.5 -129t-160.5 -48q-77 0 -137.5 35t-94.5 99.5t-34 148.5q0 85 34 149.5t94 99.5t138 35q99 0 161.5 -46z
" />
    <glyph glyph-name="d" unicode="d" horiz-adv-x="670" 
d="M423.5 525q52.5 -33 79.5 -86v301h92v-740h-92v112q-27 -54 -79.5 -87.5t-122.5 -33.5q-74 0 -133.5 36.5t-94 102t-34.5 148.5t34.5 146.5t94 98.5t133.5 35q70 0 122.5 -33zM225.5 455q-42.5 -24 -68 -69.5t-25.5 -107.5t25.5 -109.5t68 -73.5t91.5 -26q50 0 92.5 25
t68 71.5t25.5 108.5t-25.5 108.5t-68 71.5t-92.5 25q-49 0 -91.5 -24z" />
    <glyph glyph-name="e" unicode="e" horiz-adv-x="611" 
d="M569 243h-437q4 -82 51.5 -129.5t121.5 -47.5q56 0 94.5 25t56.5 66h98q-26 -72 -89.5 -119t-159.5 -47q-77 0 -137.5 35t-94.5 99.5t-34 148.5q0 85 34 149.5t96 99.5t143 35q77 0 136 -34t92 -93t33 -134q0 -29 -4 -54zM478 309q0 53 -23 92.5t-62.5 60.5t-87.5 21
q-71 0 -119 -46.5t-53 -127.5h345z" />
    <glyph glyph-name="f" unicode="f" horiz-adv-x="330" 
d="M301 475h-115v-475h-92v475h-71v74h71v46q0 90 48 131t151 41v-74q-60 0 -83.5 -22.5t-23.5 -75.5v-46h115v-74z" />
    <glyph glyph-name="g" unicode="g" horiz-adv-x="670" 
d="M423.5 525q52.5 -33 79.5 -86v110h92v-563q0 -75 -33 -133t-93 -90.5t-139 -32.5q-69 0 -126 23.5t-93 66.5t-43 98h89q13 -47 61 -78t112 -31q78 0 125.5 46.5t47.5 130.5v126q-27 -54 -79.5 -87.5t-122.5 -33.5q-74 0 -133.5 36.5t-94 102t-34.5 148.5t34.5 146.5
t94 98.5t133.5 35q70 0 122.5 -33zM225.5 455q-42.5 -24 -68 -69.5t-25.5 -107.5t25.5 -109.5t68 -73.5t91.5 -26q50 0 92.5 25t68 71.5t25.5 108.5t-25.5 108.5t-68 71.5t-92.5 25q-49 0 -91.5 -24z" />
    <glyph glyph-name="h" unicode="h" horiz-adv-x="628" 
d="M452.5 531.5q48.5 -26.5 77 -79t28.5 -127.5v-325h-90v310q0 83 -40 126t-111 43q-70 0 -110.5 -43t-40.5 -126v-310h-91v740h91v-280q27 48 74 73t105 25q59 0 107.5 -26.5z" />
    <glyph glyph-name="i" unicode="i" horiz-adv-x="241" 
d="M78 743q18 18 43 18q26 0 44 -18t18 -44t-18 -44t-44 -18t-43.5 18t-17.5 44t18 44zM166 549v-549h-91v549h91z" />
    <glyph glyph-name="j" unicode="j" horiz-adv-x="241" 
d="M78 743q18 18 43 18q26 0 44 -18t18 -44t-18 -44t-44 -18t-43.5 18t-17.5 44t18 44zM166 -118q0 -142 -142 -142h-56v75h38q39 0 54 15t15 52v667h91v-667z" />
    <glyph glyph-name="k" unicode="k" horiz-adv-x="513" 
d="M245 276l259 -276h-123l-215 241v-241h-91v740h91v-434l210 243h128z" />
    <glyph glyph-name="l" unicode="l" horiz-adv-x="241" 
d="M166 740v-740h-91v740h91z" />
    <glyph glyph-name="m" unicode="m" horiz-adv-x="1020" 
d="M844 531.5q49 -26.5 77.5 -79t28.5 -127.5v-325h-90v310q0 83 -40.5 126t-110.5 43t-110.5 -43t-40.5 -126v-310h-90v310q0 83 -40 126t-111 43q-70 0 -110.5 -43t-40.5 -126v-310h-91v549h91v-89q27 48 74 73t105 25q63 0 114 -30.5t77 -88.5q30 56 81.5 87.5
t117.5 31.5q60 0 109 -26.5z" />
    <glyph glyph-name="n" unicode="n" horiz-adv-x="628" 
d="M452.5 531.5q48.5 -26.5 77 -79t28.5 -127.5v-325h-90v310q0 83 -40 126t-111 43q-70 0 -110.5 -43t-40.5 -126v-310h-91v549h91v-89q27 48 74 73t105 25q59 0 107.5 -26.5z" />
    <glyph glyph-name="o" unicode="o" horiz-adv-x="632" 
d="M457 523q63 -35 99.5 -100t36.5 -149q0 -83 -38 -147.5t-103 -100t-144 -35.5q-77 0 -138.5 35t-96 99.5t-34.5 148.5q0 85 36.5 149.5t99.5 99.5t141 35t141 -35zM222 459q-41 -24 -65.5 -71t-24.5 -114q0 -66 23.5 -113t63.5 -71t89 -24q50 0 93.5 24.5t70.5 71.5
t27 112q0 66 -25.5 113.5t-68 71.5t-92.5 24t-91 -24z" />
    <glyph glyph-name="p" unicode="p" horiz-adv-x="670" 
d="M502.5 523q59.5 -35 94 -98.5t34.5 -146.5t-34.5 -148.5t-94 -102t-133.5 -36.5q-70 0 -122.5 33.5t-80.5 87.5v-372h-91v809h91v-110q28 53 80.5 86t122.5 33q74 0 133.5 -35zM259.5 454q-42.5 -25 -68 -71.5t-25.5 -108.5t25.5 -108.5t68 -71.5t91.5 -25t92 25.5
t68.5 73.5t25.5 110t-25.5 107.5t-68 69.5t-92.5 24q-49 0 -91.5 -25z" />
    <glyph glyph-name="q" unicode="q" horiz-adv-x="670" 
d="M423.5 525q52.5 -33 79.5 -86v110h92v-809h-92v372q-27 -54 -79.5 -87.5t-122.5 -33.5q-74 0 -133.5 36.5t-94 102t-34.5 148.5t34.5 146.5t94 98.5t133.5 35q70 0 122.5 -33zM225.5 455q-42.5 -24 -68 -69.5t-25.5 -107.5t25.5 -109.5t68 -73.5t91.5 -26q50 0 92.5 25
t68 71.5t25.5 108.5t-25.5 108.5t-68 71.5t-92.5 25q-49 0 -91.5 -24z" />
    <glyph glyph-name="r" unicode="r" horiz-adv-x="368" 
d="M333 558v-95h-24q-70 0 -106.5 -36.5t-36.5 -126.5v-300h-91v549h91v-93q49 102 167 102z" />
    <glyph glyph-name="s" unicode="s" horiz-adv-x="526" 
d="M405 511.5q52 -46.5 57 -127.5h-94q-2 46 -31 74t-80 28q-52 0 -81.5 -24.5t-29.5 -61.5q0 -31 18.5 -49.5t46 -27.5t74.5 -19q60 -14 96.5 -27.5t62.5 -45t26 -85.5q0 -45 -26 -80.5t-73 -55t-108 -19.5q-92 0 -147.5 46t-60.5 127h94q2 -46 32.5 -73.5t81.5 -27.5
q56 0 86.5 23t30.5 61q0 31 -18.5 49.5t-46.5 28t-77 20.5q-59 13 -95.5 26.5t-62 42.5t-25.5 80q0 45 25.5 82.5t73 59.5t110.5 22q89 0 141 -46.5z" />
    <glyph glyph-name="t" unicode="t" horiz-adv-x="355" 
d="M330 74v-74h-92q-70 0 -106.5 34t-36.5 107v334h-71v74h71v136h92v-136h142v-74h-142v-334q0 -37 15 -52t53 -15h75z" />
    <glyph glyph-name="u" unicode="u" horiz-adv-x="628" 
d="M553 549v-549h-91v88q-27 -48 -74 -72.5t-105 -24.5q-59 0 -107.5 26.5t-77 78.5t-28.5 127v326h90v-311q0 -82 40.5 -125.5t110.5 -43.5t110.5 43.5t40.5 125.5v311h91z" />
    <glyph glyph-name="v" unicode="v" horiz-adv-x="556" 
d="M277 85l169 464h98l-215 -549h-103l-214 549h97z" />
    <glyph glyph-name="w" unicode="w" horiz-adv-x="808" 
d="M796 549l-173 -549h-94l-124 436l-124 -436h-95l-174 549h94l127 -458l129 458h94l122 -459l126 459h92z" />
    <glyph glyph-name="x" unicode="x" horiz-adv-x="478" 
d="M289 275l176 -275h-103l-130 204l-121 -204h-99l177 272l-177 277h103l131 -205l122 205h98z" />
    <glyph glyph-name="y" unicode="y" horiz-adv-x="557" 
d="M112 549l168 -444l171 444h94l-331 -806h-94l109 266l-217 540h100z" />
    <glyph glyph-name="z" unicode="z" horiz-adv-x="453" 
d="M145 74h265v-74h-368v74l265 401h-265v74h368v-74z" />
    <glyph glyph-name="braceleft" unicode="{" horiz-adv-x="550" 
d="M306.5 324.5q25.5 -35.5 25.5 -88.5q0 -24 -3 -49.5t-4 -33.5q-1 -5 -5 -37t-4 -72q0 -99 34 -161t94 -84v-16h-91q-30 13 -56 35.5t-47 73.5t-21 135q0 42 9 100q8 60 8 95q0 108 -101 129v42q101 20 101 129q0 35 -8 95q-9 58 -9 100q0 84 21 135t47 73.5t56 35.5h91
v-16q-60 -22 -94 -84t-34 -161q0 -40 4 -72t5 -37q1 -8 4 -33.5t3 -49.5q0 -52 -26 -88t-79 -47v-2q54 -11 79.5 -46.5z" />
    <glyph glyph-name="bar" unicode="|" horiz-adv-x="301" 
d="M196 -106h-91v901h91v-901z" />
    <glyph glyph-name="braceright" unicode="}" horiz-adv-x="547" 
d="M244.5 420q-25.5 36 -25.5 88q0 24 3 49.5t4 33.5q1 5 5 37t4 72q0 99 -34 160.5t-95 84.5v16h92q30 -13 56 -35.5t47 -73.5t21 -135q0 -42 -9 -100q-8 -60 -8 -95q0 -110 100 -129v-42q-100 -20 -100 -129q0 -35 8 -95q9 -58 9 -100q0 -84 -21 -135t-47 -73.5t-56 -35.5
h-92v16q61 23 95 84.5t34 160.5q0 40 -4 72t-5 37q-1 8 -4 33.5t-3 49.5q0 53 25 88.5t79 46.5v2q-53 11 -78.5 47z" />
    <glyph glyph-name="asciitilde" unicode="~" horiz-adv-x="520" 
d="M229.5 385.5q19.5 -8.5 46.5 -26.5q20 -14 35.5 -21.5t33.5 -7.5q26 0 46 16t24 45h68q-13 -72 -51.5 -107.5t-94.5 -35.5q-27 0 -47 9t-45 26q-22 15 -36.5 22t-33.5 7q-25 0 -45.5 -16.5t-24.5 -44.5h-67q13 72 51 107.5t94 35.5q27 0 46.5 -8.5z" />
    <glyph glyph-name="uni00A0" unicode="&#xa0;" horiz-adv-x="300" 
 />
    <glyph glyph-name="exclamdown" unicode="&#xa1;" horiz-adv-x="424" 
d="M254 541q17 -17 17 -41q0 -25 -17 -42t-42 -17q-24 0 -41 17t-17 42q0 24 17 41t41 17q25 0 42 -17zM173 351h74l10 -541h-95z" />
    <glyph glyph-name="cent" unicode="&#xa2;" horiz-adv-x="715" 
d="M476 167h85q-10 -66 -63.5 -113t-138.5 -54v-89h-60v89q-74 7 -125.5 43.5t-77 93t-25.5 123.5t25.5 124t77 94t125.5 44v88h60v-88q85 -8 138.5 -55t63.5 -113h-85q-30 92 -146 92q-79 0 -126.5 -49.5t-47.5 -135.5q0 -87 47.5 -136.5t126.5 -49.5q116 0 146 92z" />
    <glyph glyph-name="sterling" unicode="&#xa3;" horiz-adv-x="639" 
d="M545 75v-76h-443l-19 53q40 47 59.5 90t19.5 107q0 30 -8 59h-109v64h87q-11 30 -17 59t-6 66q0 63 28 111.5t77.5 75t112.5 26.5q104 0 157 -58.5t54 -148.5h-82q0 59 -31 94.5t-97 35.5q-59 0 -96.5 -34t-37.5 -107q0 -29 6.5 -57t18.5 -63h198v-64h-178q9 -36 9 -60
q0 -97 -68 -173h365z" />
    <glyph glyph-name="currency" unicode="&#xa4;" horiz-adv-x="537" 
d="M415 275l62 -60l-45 -45l-62 62q-45 -31 -106 -31q-58 0 -100 28l-59 -59l-45 45l59 59q-28 44 -28 103q0 60 30 104l-61 60l45 45l61 -61q45 28 102 28q59 0 102 -29l62 62l45 -45l-61 -61q29 -45 29 -103t-30 -102zM340.5 288.5q31.5 31.5 31.5 88.5t-30.5 89t-74.5 32
t-73.5 -32t-29.5 -89t28.5 -88.5t72.5 -31.5t75.5 31.5z" />
    <glyph glyph-name="yen" unicode="&#xa5;" horiz-adv-x="572" 
d="M395 383h137v-69l-174 -2l-26 -50v-53h200v-69h-200v-140h-91v140h-200v69h200v53l-26 50l-174 2v69h137l-163 310h100l171 -347l170 347h101z" />
    <glyph glyph-name="brokenbar" unicode="&#xa6;" horiz-adv-x="301" 
d="M105 795h91v-378h-91v378zM196 -106h-91v378h91v-378z" />
    <glyph glyph-name="section" unicode="&#xa7;" horiz-adv-x="574" 
d="M470 27.5q27 -29.5 27 -77.5q0 -44 -25 -79.5t-72.5 -56.5t-112.5 -21q-88 0 -144.5 41.5t-56.5 113.5h87q3 -41 31 -66t83 -25q58 0 89.5 22t31.5 65q0 24 -13.5 41t-47 32.5t-99.5 37.5q-105 34 -154 76.5t-49 112.5q0 58 36.5 101t101.5 62q-51 24 -78 53.5t-27 77.5
q0 44 25 79.5t72.5 56.5t112.5 21q87 0 144 -41.5t57 -113.5h-88q-3 41 -31 66t-82 25q-58 0 -89.5 -22t-31.5 -65q0 -24 13.5 -41t47 -32.5t98.5 -37.5q105 -34 154 -76.5t49 -112.5q0 -56 -35.5 -99t-101.5 -64q51 -24 78 -53.5zM155.5 187q18.5 -26 53 -41.5t80.5 -15.5
q68 0 108.5 33t40.5 81q0 49 -42.5 81.5t-110.5 32.5t-108 -33t-40 -81q0 -31 18.5 -57z" />
    <glyph glyph-name="dieresis" unicode="&#xa8;" horiz-adv-x="289" 
d="M26 712.5q16 15.5 38 15.5q23 0 38.5 -15.5t15.5 -38.5q0 -22 -15.5 -38t-38.5 -16q-22 0 -38 16t-16 38q0 23 16 38.5zM187 712.5q16 15.5 38 15.5q23 0 38.5 -15.5t15.5 -38.5q0 -22 -15.5 -38t-38.5 -16q-22 0 -38 16t-16 38q0 23 16 38.5z" />
    <glyph glyph-name="copyright" unicode="&#xa9;" horiz-adv-x="790" 
d="M214.5 655q-78.5 -45 -122.5 -125.5t-44 -183.5t44 -184t122.5 -126t180.5 -45t180.5 45t122 126t43.5 184t-43.5 183.5t-122 125.5t-180.5 45t-180.5 -45zM554.5 621q68.5 -39 105 -110t36.5 -165t-36.5 -165.5t-105 -110.5t-159.5 -39q-92 0 -160 39t-105 110.5
t-37 165.5t37 165t105 110t160 39q91 0 159.5 -39zM523.5 539.5q53.5 -38.5 73.5 -106.5h-87q-12 39 -42.5 58t-73.5 19q-59 0 -95.5 -41t-36.5 -122t36.5 -122.5t95.5 -41.5q88 0 116 77h87q-21 -64 -75 -104.5t-128 -40.5q-60 0 -110 29t-78.5 82t-28.5 121t28.5 120.5
t78.5 81.5t110 29q76 0 129.5 -38.5z" />
    <glyph glyph-name="ordfeminine" unicode="&#xaa;" horiz-adv-x="450" 
d="M280 689q34 -20 51 -52v66h73v-350h-73v66q-17 -32 -51 -52t-81 -20q-46 0 -84 24t-60 66t-22 93q0 52 22 92.5t60 63.5t84 23q47 0 81 -20zM142.5 617.5q-32.5 -32.5 -32.5 -87.5q0 -56 32.5 -90.5t77.5 -34.5q46 0 78.5 33.5t32.5 89.5t-32.5 89t-78.5 33
q-45 0 -77.5 -32.5z" />
    <glyph glyph-name="guillemotleft" unicode="&#xab;" horiz-adv-x="461" 
d="M141 120l-96 175l96 175h89l-99 -175l99 -175h-89zM321 120l-95 175l95 175h90l-99 -175l99 -175h-90z" />
    <glyph glyph-name="logicalnot" unicode="&#xac;" horiz-adv-x="738" 
d="M686 433v-213h-90v140h-551v73h641z" />
    <glyph glyph-name="uni00AD" unicode="&#xad;" horiz-adv-x="587" 
d="M493 405v-78h-399v78h399z" />
    <glyph glyph-name="registered" unicode="&#xae;" horiz-adv-x="790" 
d="M580.5 655q79.5 -45 123.5 -125.5t44 -183.5t-44 -184t-123.5 -126t-182.5 -45t-182.5 45t-123.5 126t-44 184t44 183.5t123.5 125.5t182.5 45t182.5 -45zM560 70q69 39 106 110.5t37 165.5t-37 165t-106 110t-162 39q-92 0 -161 -39t-106.5 -110t-37.5 -165t37.5 -165.5
t106.5 -110.5t161 -39q93 0 162 39zM538 363.5q-30 -36.5 -91 -46.5l127 -194h-75l-121 191h-62v-191h-60v463h150q79 0 120.5 -38t41.5 -98q0 -50 -30 -86.5zM316 362h90q51 0 75.5 23t24.5 65q0 89 -100 89h-90v-177z" />
    <glyph glyph-name="macron" unicode="&#xaf;" horiz-adv-x="372" 
d="M362 710v-73h-352v73h352z" />
    <glyph glyph-name="degree" unicode="&#xb0;" horiz-adv-x="412" 
d="M296.5 678q40.5 -22 63.5 -62t23 -93q0 -52 -24 -92t-65.5 -62t-92.5 -22q-76 0 -124 48t-48 128q0 53 23 93t63.5 62t90.5 22t90.5 -22zM131.5 613q-29.5 -32 -29.5 -90t28.5 -89t71.5 -31q44 0 75.5 31.5t31.5 88.5t-30.5 89.5t-74.5 32.5q-43 0 -72.5 -32z" />
    <glyph glyph-name="plusminus" unicode="&#xb1;" horiz-adv-x="744" 
d="M415 375v-165h212v-80h-510v80h212v165h-212v80h212v168h86v-168h212v-80h-212z" />
    <glyph glyph-name="twosuperior" unicode="&#xb2;" horiz-adv-x="322" 
d="M277 413v-61h-252v52l102 81q35 28 52.5 53.5t17.5 55.5q0 26 -15 42t-37 16q-20 0 -32.5 -11t-15.5 -30h-73q2 44 34 71.5t89 27.5t92 -34t35 -81q0 -36 -21 -66t-70 -66l-71 -50h165z" />
    <glyph glyph-name="threesuperior" unicode="&#xb3;" horiz-adv-x="329" 
d="M223 696.5q31 -13.5 49.5 -37.5t18.5 -52q0 -30 -17.5 -50.5t-45.5 -29.5v-2q28 -9 46 -29.5t18 -50.5q0 -41 -38.5 -69.5t-99.5 -28.5t-96 27.5t-39 76.5h71q4 -24 20.5 -36t42.5 -12q28 0 45 13.5t17 37.5q0 23 -17.5 36t-45.5 13h-42v50h41q28 0 45 12.5t17 35.5
t-16 37t-44 14q-46 0 -59 -36h-71q4 42 42 68t92 26q35 0 66 -13.5z" />
    <glyph glyph-name="acute" unicode="&#xb4;" horiz-adv-x="233" 
d="M223 699l-213 -112v70l213 126v-84z" />
    <glyph glyph-name="uni00B5" unicode="&#xb5;" horiz-adv-x="633" 
d="M558 549v-549h-91v88q-27 -48 -74 -72.5t-105 -24.5q-73 0 -123 42v-293h-90v809h90v-311q0 -82 40.5 -125.5t110.5 -43.5t110.5 43.5t40.5 125.5v311h91z" />
    <glyph glyph-name="paragraph" unicode="&#xb6;" horiz-adv-x="598" 
d="M523 0h-85v620h-68v-620h-85v286h-11q-118 0 -177.5 56t-59.5 147q0 90 60.5 147t176.5 57h249v-693z" />
    <glyph glyph-name="periodcentered" unicode="&#xb7;" horiz-adv-x="230" 
d="M74 385q17 17 41 17t41 -17t17 -42q0 -24 -17 -41t-41 -17t-41 17t-17 41q0 25 17 42z" />
    <glyph glyph-name="cedilla" unicode="&#xb8;" horiz-adv-x="266" 
d="M220 -80.5q36 -27.5 36 -74.5t-35.5 -76t-91.5 -29h-119v63h107q56 0 56 42q0 41 -56 41h-55v121h64v-60q58 0 94 -27.5z" />
    <glyph glyph-name="onesuperior" unicode="&#xb9;" horiz-adv-x="192" 
d="M20 649v55h124v-352h-73v297h-51z" />
    <glyph glyph-name="ordmasculine" unicode="&#xba;" horiz-adv-x="436" 
d="M312.5 686.5q41.5 -22.5 66 -64t24.5 -95.5q0 -53 -25.5 -94t-68.5 -63.5t-95 -22.5q-51 0 -92.5 22.5t-65 63.5t-23.5 94q0 54 24.5 95.5t67 64t94.5 22.5t93.5 -22.5zM140.5 620q-30.5 -33 -30.5 -93q0 -58 29.5 -90.5t74.5 -32.5q46 0 79.5 32.5t33.5 90.5
q0 60 -32 93t-78 33t-76.5 -33z" />
    <glyph glyph-name="guillemotright" unicode="&#xbb;" horiz-adv-x="461" 
d="M149 295l-99 175h89l96 -175l-96 -175h-89zM329 295l-98 175h89l96 -175l-96 -175h-89z" />
    <glyph glyph-name="onequarter" unicode="&#xbc;" horiz-adv-x="639" 
d="M32 649v55h124v-352h-73v297h-51zM518 693l-381 -693h-84l381 693h84zM597 69h-48v-69h-73v69h-181v42l157 243h97v-236h48v-49zM478 289l-108 -171h108v171z" />
    <glyph glyph-name="onehalf" unicode="&#xbd;" horiz-adv-x="652" 
d="M83 649h-51v55h124v-352h-73v297zM502 693l-365 -693h-84l365 693h84zM615 60v-61h-252v52l102 81q35 28 52.5 53.5t17.5 55.5q0 26 -15 42t-37 16q-20 0 -32.5 -11t-15.5 -30h-73q2 44 34 71.5t89 27.5t92 -34t35 -81q0 -36 -21 -66t-70 -66l-71 -50h165z" />
    <glyph glyph-name="threequarters" unicode="&#xbe;" horiz-adv-x="681" 
d="M230 696.5q31 -13.5 49.5 -37.5t18.5 -52q0 -30 -17.5 -50.5t-45.5 -29.5v-2q28 -9 46 -29.5t18 -50.5q0 -41 -38.5 -69.5t-99.5 -28.5t-96 27.5t-39 76.5h71q4 -24 20.5 -36t42.5 -12q28 0 45 13.5t17 37.5q0 23 -17.5 36t-45.5 13h-42v50h41q28 0 45 12.5t17 35.5
t-16 37t-44 14q-46 0 -59 -36h-71q4 42 42 68t92 26q35 0 66 -13.5zM605 693l-409 -693h-84l410 693h83zM653 69h-48v-69h-73v69h-181v42l157 243h97v-236h48v-49zM533 289l-108 -171h108v171z" />
    <glyph glyph-name="questiondown" unicode="&#xbf;" horiz-adv-x="626" 
d="M329 458q-17 17 -17 42q0 24 17 41t42 17q24 0 41 -17t17 -41q0 -25 -17 -42t-41 -17q-25 0 -42 17zM150.5 -137q-59.5 55 -59.5 150q0 110 59.5 157.5t179.5 48.5v132h86v-197h-40q-67 1 -109.5 -10t-66 -41.5t-23.5 -88.5q0 -61 35 -95t97 -34t97.5 32.5t35.5 92.5h85
q0 -61 -27 -106.5t-76.5 -70.5t-113.5 -25q-100 0 -159.5 55z" />
    <glyph glyph-name="Agrave" unicode="&#xc0;" horiz-adv-x="691" 
d="M499 152h-308l-54 -152h-93l252 693h100l251 -693h-94zM473 224l-128 358l-128 -358h256zM443 801v-70l-213 112v84z" />
    <glyph glyph-name="Aacute" unicode="&#xc1;" horiz-adv-x="691" 
d="M499 152h-308l-54 -152h-93l252 693h100l251 -693h-94zM473 224l-128 358l-128 -358h256zM443 843l-213 -112v70l213 126v-84z" />
    <glyph glyph-name="Acircumflex" unicode="&#xc2;" horiz-adv-x="691" 
d="M499 152h-308l-54 -152h-93l252 693h100l251 -693h-94zM473 224l-128 358l-128 -358h256zM346 827l-138 -86v77l138 83l139 -83v-77z" />
    <glyph glyph-name="Atilde" unicode="&#xc3;" horiz-adv-x="691" 
d="M499 152h-308l-54 -152h-93l252 693h100l251 -693h-94zM473 224l-128 358l-128 -358h256zM333.5 849q13.5 -6 30.5 -18q14 -10 24 -15t23 -5q17 0 28.5 10.5t13.5 31.5h57q-7 -50 -35 -77.5t-69 -27.5q-19 0 -32 6.5t-31 18.5q-16 10 -25.5 15t-22.5 5q-16 0 -28 -11
t-14 -31h-57q7 50 35 77t70 27q19 0 32.5 -6z" />
    <glyph glyph-name="Adieresis" unicode="&#xc4;" horiz-adv-x="691" 
d="M499 152h-308l-54 -152h-93l252 693h100l251 -693h-94zM473 224l-128 358l-128 -358h256zM227 856.5q16 15.5 38 15.5q23 0 38.5 -15.5t15.5 -38.5q0 -22 -15.5 -38t-38.5 -16q-22 0 -38 16t-16 38q0 23 16 38.5zM388 856.5q16 15.5 38 15.5q23 0 38.5 -15.5t15.5 -38.5
q0 -22 -15.5 -38t-38.5 -16q-22 0 -38 16t-16 38q0 23 16 38.5z" />
    <glyph glyph-name="Aring" unicode="&#xc5;" horiz-adv-x="691" 
d="M499 152h-308l-54 -152h-93l252 693h100l251 -693h-94zM473 224l-128 358l-128 -358h256zM421 932.5q30 -28.5 30 -76.5q0 -47 -30 -75.5t-75 -28.5q-44 0 -74 28.5t-30 75.5t30 76t74 29q45 0 75 -28.5zM309 894.5q-15 -14.5 -15 -37.5t15 -38t37 -15q23 0 38 15t15 38
t-15 37.5t-38 14.5q-22 0 -37 -14.5z" />
    <glyph glyph-name="AE" unicode="&#xc6;" horiz-adv-x="896" 
d="M557 621v-236h246v-71h-246v-242h276v-72h-367v152h-268l-86 -152h-99l395 693h425v-72h-276zM466 224v403l-228 -403h228z" />
    <glyph glyph-name="Ccedilla" unicode="&#xc7;" horiz-adv-x="777" 
d="M515 104.5q54 30.5 84 87.5h110q-38 -89 -113 -139.5t-173 -57.5v-48q58 0 94 -27.5t36 -74.5t-35.5 -76t-91.5 -29h-119v63h107q56 0 56 42q0 41 -56 41h-55v109q-90 8 -163 55t-115 124.5t-42 172.5q0 102 47 182.5t128 125.5t178 45q108 0 192.5 -51t124.5 -147h-110
q-30 57 -84 87t-123 30q-74 0 -133.5 -33.5t-93 -95.5t-33.5 -143t33.5 -143t93 -96t133.5 -34q69 0 123 30.5z" />
    <glyph glyph-name="Egrave" unicode="&#xc8;" horiz-adv-x="505" 
d="M166 621v-236h246v-71h-246v-242h276v-72h-367v693h367v-72h-276zM350 801v-70l-213 112v84z" />
    <glyph glyph-name="Eacute" unicode="&#xc9;" horiz-adv-x="505" 
d="M166 621v-236h246v-71h-246v-242h276v-72h-367v693h367v-72h-276zM350 843l-213 -112v70l213 126v-84z" />
    <glyph glyph-name="Ecircumflex" unicode="&#xca;" horiz-adv-x="505" 
d="M166 621v-236h246v-71h-246v-242h276v-72h-367v693h367v-72h-276zM252 827l-138 -86v77l138 83l139 -83v-77z" />
    <glyph glyph-name="Edieresis" unicode="&#xcb;" horiz-adv-x="505" 
d="M166 621v-236h246v-71h-246v-242h276v-72h-367v693h367v-72h-276zM134 856.5q16 15.5 38 15.5q23 0 38.5 -15.5t15.5 -38.5q0 -22 -15.5 -38t-38.5 -16q-22 0 -38 16t-16 38q0 23 16 38.5zM295 856.5q16 15.5 38 15.5q23 0 38.5 -15.5t15.5 -38.5q0 -22 -15.5 -38
t-38.5 -16q-22 0 -38 16t-16 38q0 23 16 38.5z" />
    <glyph glyph-name="Igrave" unicode="&#xcc;" horiz-adv-x="241" 
d="M166 693v-693h-91v693h91zM218 801v-70l-213 112v84z" />
    <glyph glyph-name="Iacute" unicode="&#xcd;" horiz-adv-x="241" 
d="M166 693v-693h-91v693h91zM218 843l-213 -112v70l213 126v-84z" />
    <glyph glyph-name="Icircumflex" unicode="&#xce;" horiz-adv-x="241" 
d="M166 693v-693h-91v693h91zM120 827l-138 -86v77l138 83l139 -83v-77z" />
    <glyph glyph-name="Idieresis" unicode="&#xcf;" horiz-adv-x="241" 
d="M166 693v-693h-91v693h91zM2 856.5q16 15.5 38 15.5q23 0 38.5 -15.5t15.5 -38.5q0 -22 -15.5 -38t-38.5 -16q-22 0 -38 16t-16 38q0 23 16 38.5zM163 856.5q16 15.5 38 15.5q23 0 38.5 -15.5t15.5 -38.5q0 -22 -15.5 -38t-38.5 -16q-22 0 -38 16t-16 38q0 23 16 38.5z
" />
    <glyph glyph-name="Eth" unicode="&#xd0;" horiz-adv-x="712" 
d="M502.5 650.5q81.5 -42.5 125.5 -121t44 -186.5q0 -107 -44 -184.5t-125.5 -118t-192.5 -40.5h-219v302h-87v82h87v309h219q111 0 192.5 -42.5zM509.5 142q69.5 72 69.5 201t-69.5 201t-199.5 72h-128v-232h192v-82h-192v-232h128q130 0 199.5 72z" />
    <glyph glyph-name="Ntilde" unicode="&#xd1;" horiz-adv-x="698" 
d="M623 0h-91l-366 550v-550h-91v693h91l366 -550v550h91v-693zM337.5 849q13.5 -6 30.5 -18q14 -10 24 -15t23 -5q17 0 28.5 10.5t13.5 31.5h57q-7 -50 -35 -77.5t-69 -27.5q-19 0 -32 6.5t-31 18.5q-16 10 -25.5 15t-22.5 5q-16 0 -28 -11t-14 -31h-57q7 50 35 77t70 27
q19 0 32.5 -6z" />
    <glyph glyph-name="Ograve" unicode="&#xd2;" horiz-adv-x="782" 
d="M569.5 655q80.5 -45 127.5 -125.5t47 -182.5q0 -101 -47 -182t-127.5 -126.5t-177.5 -45.5t-178 45.5t-128 126.5t-47 182q0 102 47 182.5t128 125.5t178 45t177.5 -45zM258.5 585.5q-59.5 -33.5 -93.5 -95.5t-34 -143t34 -143t93.5 -96t133.5 -34t133 34t92.5 96
t33.5 143t-33.5 143t-92.5 95.5t-133 33.5t-133.5 -33.5zM489 801v-70l-213 112v84z" />
    <glyph glyph-name="Oacute" unicode="&#xd3;" horiz-adv-x="782" 
d="M569.5 655q80.5 -45 127.5 -125.5t47 -182.5q0 -101 -47 -182t-127.5 -126.5t-177.5 -45.5t-178 45.5t-128 126.5t-47 182q0 102 47 182.5t128 125.5t178 45t177.5 -45zM258.5 585.5q-59.5 -33.5 -93.5 -95.5t-34 -143t34 -143t93.5 -96t133.5 -34t133 34t92.5 96
t33.5 143t-33.5 143t-92.5 95.5t-133 33.5t-133.5 -33.5zM489 843l-213 -112v70l213 126v-84z" />
    <glyph glyph-name="Ocircumflex" unicode="&#xd4;" horiz-adv-x="782" 
d="M569.5 655q80.5 -45 127.5 -125.5t47 -182.5q0 -101 -47 -182t-127.5 -126.5t-177.5 -45.5t-178 45.5t-128 126.5t-47 182q0 102 47 182.5t128 125.5t178 45t177.5 -45zM258.5 585.5q-59.5 -33.5 -93.5 -95.5t-34 -143t34 -143t93.5 -96t133.5 -34t133 34t92.5 96
t33.5 143t-33.5 143t-92.5 95.5t-133 33.5t-133.5 -33.5zM391 827l-138 -86v77l138 83l139 -83v-77z" />
    <glyph glyph-name="Otilde" unicode="&#xd5;" horiz-adv-x="782" 
d="M569.5 655q80.5 -45 127.5 -125.5t47 -182.5q0 -101 -47 -182t-127.5 -126.5t-177.5 -45.5t-178 45.5t-128 126.5t-47 182q0 102 47 182.5t128 125.5t178 45t177.5 -45zM258.5 585.5q-59.5 -33.5 -93.5 -95.5t-34 -143t34 -143t93.5 -96t133.5 -34t133 34t92.5 96
t33.5 143t-33.5 143t-92.5 95.5t-133 33.5t-133.5 -33.5zM379.5 849q13.5 -6 30.5 -18q14 -10 24 -15t23 -5q17 0 28.5 10.5t13.5 31.5h57q-7 -50 -35 -77.5t-69 -27.5q-19 0 -32 6.5t-31 18.5q-16 10 -25.5 15t-22.5 5q-16 0 -28 -11t-14 -31h-57q7 50 35 77t70 27
q19 0 32.5 -6z" />
    <glyph glyph-name="Odieresis" unicode="&#xd6;" horiz-adv-x="782" 
d="M569.5 655q80.5 -45 127.5 -125.5t47 -182.5q0 -101 -47 -182t-127.5 -126.5t-177.5 -45.5t-178 45.5t-128 126.5t-47 182q0 102 47 182.5t128 125.5t178 45t177.5 -45zM258.5 585.5q-59.5 -33.5 -93.5 -95.5t-34 -143t34 -143t93.5 -96t133.5 -34t133 34t92.5 96
t33.5 143t-33.5 143t-92.5 95.5t-133 33.5t-133.5 -33.5zM273 856.5q16 15.5 38 15.5q23 0 38.5 -15.5t15.5 -38.5q0 -22 -15.5 -38t-38.5 -16q-22 0 -38 16t-16 38q0 23 16 38.5zM434 856.5q16 15.5 38 15.5q23 0 38.5 -15.5t15.5 -38.5q0 -22 -15.5 -38t-38.5 -16
q-22 0 -38 16t-16 38q0 23 16 38.5z" />
    <glyph glyph-name="multiply" unicode="&#xd7;" horiz-adv-x="719" 
d="M418 366l157 -158l-57 -57l-157 158l-159 -158l-59 60l158 157l-155 156l57 57l155 -156l157 156l60 -59z" />
    <glyph glyph-name="Oslash" unicode="&#xd8;" horiz-adv-x="782" 
d="M657 586q41 -47 64 -108t23 -131q0 -101 -47 -182t-127.5 -126.5t-177.5 -45.5q-62 0 -117 18.5t-101 53.5l-60 -65h-86l100 107q-43 47 -66 108.5t-23 131.5q0 102 47 182.5t128 125.5t178 45q61 0 116.5 -18.5t101.5 -52.5l60 64h86zM186 171l367 396q-69 52 -161 52
q-74 0 -133.5 -33.5t-93.5 -95.5t-34 -143q0 -105 55 -176zM597 522l-366 -396q67 -52 161 -52q74 0 133 34t92.5 96t33.5 143q0 102 -54 175z" />
    <glyph glyph-name="Ugrave" unicode="&#xd9;" horiz-adv-x="673" 
d="M166 693v-450q0 -86 45.5 -128.5t125.5 -42.5t126 42.5t46 128.5v450h91v-450q0 -82 -35 -138.5t-95 -84t-133 -27.5q-74 0 -133.5 27.5t-94.5 84t-35 138.5v450h92zM434 801v-70l-213 112v84z" />
    <glyph glyph-name="Uacute" unicode="&#xda;" horiz-adv-x="673" 
d="M166 693v-450q0 -86 45.5 -128.5t125.5 -42.5t126 42.5t46 128.5v450h91v-450q0 -82 -35 -138.5t-95 -84t-133 -27.5q-74 0 -133.5 27.5t-94.5 84t-35 138.5v450h92zM434 843l-213 -112v70l213 126v-84z" />
    <glyph glyph-name="Ucircumflex" unicode="&#xdb;" horiz-adv-x="673" 
d="M166 693v-450q0 -86 45.5 -128.5t125.5 -42.5t126 42.5t46 128.5v450h91v-450q0 -82 -35 -138.5t-95 -84t-133 -27.5q-74 0 -133.5 27.5t-94.5 84t-35 138.5v450h92zM336 827l-138 -86v77l138 83l139 -83v-77z" />
    <glyph glyph-name="Udieresis" unicode="&#xdc;" horiz-adv-x="673" 
d="M166 693v-450q0 -86 45.5 -128.5t125.5 -42.5t126 42.5t46 128.5v450h91v-450q0 -82 -35 -138.5t-95 -84t-133 -27.5q-74 0 -133.5 27.5t-94.5 84t-35 138.5v450h92zM218 856.5q16 15.5 38 15.5q23 0 38.5 -15.5t15.5 -38.5q0 -22 -15.5 -38t-38.5 -16q-22 0 -38 16
t-16 38q0 23 16 38.5zM379 856.5q16 15.5 38 15.5q23 0 38.5 -15.5t15.5 -38.5q0 -22 -15.5 -38t-38.5 -16q-22 0 -38 16t-16 38q0 23 16 38.5z" />
    <glyph glyph-name="Yacute" unicode="&#xdd;" horiz-adv-x="572" 
d="M557 693l-225 -431v-262h-91v262l-226 431h100l171 -347l170 347h101zM384 843l-213 -112v70l213 126v-84z" />
    <glyph glyph-name="Thorn" unicode="&#xde;" horiz-adv-x="578" 
d="M166 144v-144h-91v693h90v-143h135q117 0 178.5 -56.5t61.5 -147.5q0 -87 -59.5 -144.5t-180.5 -57.5h-134zM411.5 250.5q36.5 34.5 36.5 95.5q0 63 -36 97.5t-112 34.5h-134v-262h134q75 0 111.5 34.5z" />
    <glyph glyph-name="germandbls" unicode="&#xdf;" horiz-adv-x="655" 
d="M595.5 284.5q30.5 -45.5 30.5 -109.5q0 -56 -28 -98t-73 -64t-95 -22q-49 0 -92 20t-69.5 59t-26.5 92h80q3 -42 30.5 -66.5t75.5 -24.5q50 0 77.5 30.5t27.5 73.5q0 35 -20 63.5t-65 56.5l-158 101v48l33 17q63 33 63 103q0 46 -30.5 77t-76.5 31q-48 0 -80.5 -32
t-32.5 -84v-556h-91v553q0 60 26.5 104.5t73 68.5t106.5 24q64 0 109 -24t67 -63t22 -83q0 -91 -91 -139l106 -67q71 -44 101.5 -89.5z" />
    <glyph glyph-name="agrave" unicode="&#xe0;" horiz-adv-x="670" 
d="M423.5 525q52.5 -33 79.5 -86v110h92v-549h-92v112q-27 -54 -79.5 -87.5t-122.5 -33.5q-74 0 -133.5 36.5t-94 102t-34.5 148.5t34.5 146.5t94 98.5t133.5 35q70 0 122.5 -33zM225.5 455q-42.5 -24 -68 -69.5t-25.5 -107.5t25.5 -109.5t68 -73.5t91.5 -26q50 0 92.5 25
t68 71.5t25.5 108.5t-25.5 108.5t-68 71.5t-92.5 25q-49 0 -91.5 -24zM432 657v-70l-213 112v84z" />
    <glyph glyph-name="aacute" unicode="&#xe1;" horiz-adv-x="670" 
d="M423.5 525q52.5 -33 79.5 -86v110h92v-549h-92v112q-27 -54 -79.5 -87.5t-122.5 -33.5q-74 0 -133.5 36.5t-94 102t-34.5 148.5t34.5 146.5t94 98.5t133.5 35q70 0 122.5 -33zM225.5 455q-42.5 -24 -68 -69.5t-25.5 -107.5t25.5 -109.5t68 -73.5t91.5 -26q50 0 92.5 25
t68 71.5t25.5 108.5t-25.5 108.5t-68 71.5t-92.5 25q-49 0 -91.5 -24zM432 699l-213 -112v70l213 126v-84z" />
    <glyph glyph-name="acircumflex" unicode="&#xe2;" horiz-adv-x="670" 
d="M423.5 525q52.5 -33 79.5 -86v110h92v-549h-92v112q-27 -54 -79.5 -87.5t-122.5 -33.5q-74 0 -133.5 36.5t-94 102t-34.5 148.5t34.5 146.5t94 98.5t133.5 35q70 0 122.5 -33zM225.5 455q-42.5 -24 -68 -69.5t-25.5 -107.5t25.5 -109.5t68 -73.5t91.5 -26q50 0 92.5 25
t68 71.5t25.5 108.5t-25.5 108.5t-68 71.5t-92.5 25q-49 0 -91.5 -24zM334 683l-138 -86v77l138 83l139 -83v-77z" />
    <glyph glyph-name="atilde" unicode="&#xe3;" horiz-adv-x="670" 
d="M423.5 525q52.5 -33 79.5 -86v110h92v-549h-92v112q-27 -54 -79.5 -87.5t-122.5 -33.5q-74 0 -133.5 36.5t-94 102t-34.5 148.5t34.5 146.5t94 98.5t133.5 35q70 0 122.5 -33zM225.5 455q-42.5 -24 -68 -69.5t-25.5 -107.5t25.5 -109.5t68 -73.5t91.5 -26q50 0 92.5 25
t68 71.5t25.5 108.5t-25.5 108.5t-68 71.5t-92.5 25q-49 0 -91.5 -24zM322.5 705q13.5 -6 30.5 -18q14 -10 24 -15t23 -5q17 0 28.5 10.5t13.5 31.5h57q-7 -50 -35 -77.5t-69 -27.5q-19 0 -32 6.5t-31 18.5q-16 10 -25.5 15t-22.5 5q-16 0 -28 -11t-14 -31h-57q7 50 35 77
t70 27q19 0 32.5 -6z" />
    <glyph glyph-name="adieresis" unicode="&#xe4;" horiz-adv-x="670" 
d="M423.5 525q52.5 -33 79.5 -86v110h92v-549h-92v112q-27 -54 -79.5 -87.5t-122.5 -33.5q-74 0 -133.5 36.5t-94 102t-34.5 148.5t34.5 146.5t94 98.5t133.5 35q70 0 122.5 -33zM225.5 455q-42.5 -24 -68 -69.5t-25.5 -107.5t25.5 -109.5t68 -73.5t91.5 -26q50 0 92.5 25
t68 71.5t25.5 108.5t-25.5 108.5t-68 71.5t-92.5 25q-49 0 -91.5 -24zM216 712.5q16 15.5 38 15.5q23 0 38.5 -15.5t15.5 -38.5q0 -22 -15.5 -38t-38.5 -16q-22 0 -38 16t-16 38q0 23 16 38.5zM377 712.5q16 15.5 38 15.5q23 0 38.5 -15.5t15.5 -38.5q0 -22 -15.5 -38
t-38.5 -16q-22 0 -38 16t-16 38q0 23 16 38.5z" />
    <glyph glyph-name="aring" unicode="&#xe5;" horiz-adv-x="670" 
d="M423.5 525q52.5 -33 79.5 -86v110h92v-549h-92v112q-27 -54 -79.5 -87.5t-122.5 -33.5q-74 0 -133.5 36.5t-94 102t-34.5 148.5t34.5 146.5t94 98.5t133.5 35q70 0 122.5 -33zM225.5 455q-42.5 -24 -68 -69.5t-25.5 -107.5t25.5 -109.5t68 -73.5t91.5 -26q50 0 92.5 25
t68 71.5t25.5 108.5t-25.5 108.5t-68 71.5t-92.5 25q-49 0 -91.5 -24zM409 788.5q30 -28.5 30 -76.5q0 -47 -30 -75.5t-75 -28.5q-44 0 -74 28.5t-30 75.5t30 76t74 29q45 0 75 -28.5zM297 750.5q-15 -14.5 -15 -37.5t15 -38t37 -15q23 0 38 15t15 38t-15 37.5t-38 14.5
q-22 0 -37 -14.5z" />
    <glyph glyph-name="ae" unicode="&#xe6;" horiz-adv-x="1084" 
d="M1042 243h-444q5 -54 31.5 -94t66 -61.5t84.5 -21.5q57 0 94.5 25t54.5 66h98q-26 -73 -87.5 -119.5t-154.5 -46.5q-61 0 -112 27.5t-81 74.5v-93h-91v94q-31 -47 -83.5 -75t-116.5 -28q-74 0 -133.5 36.5t-94 102t-34.5 148.5t34.5 147t96 98.5t139.5 34.5
q130 0 192 -98v89h91v-89q38 53 85.5 75.5t111.5 22.5q75 0 133.5 -34t91 -93.5t32.5 -133.5q0 -29 -4 -54zM952 309q-1 80 -48.5 127t-122.5 47q-46 0 -85.5 -21.5t-65.5 -61t-32 -91.5h354zM409.5 94q42.5 25 68 71.5t25.5 108.5t-25.5 108.5t-68 71.5t-92.5 25
q-49 0 -91.5 -24t-68 -69.5t-25.5 -107.5t25.5 -109.5t68 -73.5t91.5 -26q50 0 92.5 25z" />
    <glyph glyph-name="ccedilla" unicode="&#xe7;" horiz-adv-x="600" 
d="M401 92q38 26 55 76h98q-24 -75 -79 -122t-140 -54v-45q58 0 94 -27.5t36 -74.5t-35.5 -76t-91.5 -29h-119v63h107q56 0 56 42q0 41 -56 41h-55v107q-69 7 -121.5 44t-81.5 98t-29 139q0 85 34 149.5t94 99.5t138 35q99 0 161.5 -46t87.5 -131h-98q-16 48 -55 75t-96 27
q-78 0 -125.5 -54.5t-47.5 -154.5q0 -99 47.5 -153.5t125.5 -54.5q58 0 96 26z" />
    <glyph glyph-name="egrave" unicode="&#xe8;" horiz-adv-x="611" 
d="M569 243h-437q4 -82 51.5 -129.5t121.5 -47.5q56 0 94.5 25t56.5 66h98q-26 -72 -89.5 -119t-159.5 -47q-77 0 -137.5 35t-94.5 99.5t-34 148.5q0 85 34 149.5t96 99.5t143 35q77 0 136 -34t92 -93t33 -134q0 -29 -4 -54zM478 309q0 53 -23 92.5t-62.5 60.5t-87.5 21
q-71 0 -119 -46.5t-53 -127.5h345zM403 657v-70l-213 112v84z" />
    <glyph glyph-name="eacute" unicode="&#xe9;" horiz-adv-x="611" 
d="M569 243h-437q4 -82 51.5 -129.5t121.5 -47.5q56 0 94.5 25t56.5 66h98q-26 -72 -89.5 -119t-159.5 -47q-77 0 -137.5 35t-94.5 99.5t-34 148.5q0 85 34 149.5t96 99.5t143 35q77 0 136 -34t92 -93t33 -134q0 -29 -4 -54zM478 309q0 53 -23 92.5t-62.5 60.5t-87.5 21
q-71 0 -119 -46.5t-53 -127.5h345zM403 699l-213 -112v70l213 126v-84z" />
    <glyph glyph-name="ecircumflex" unicode="&#xea;" horiz-adv-x="611" 
d="M569 243h-437q4 -82 51.5 -129.5t121.5 -47.5q56 0 94.5 25t56.5 66h98q-26 -72 -89.5 -119t-159.5 -47q-77 0 -137.5 35t-94.5 99.5t-34 148.5q0 85 34 149.5t96 99.5t143 35q77 0 136 -34t92 -93t33 -134q0 -29 -4 -54zM478 309q0 53 -23 92.5t-62.5 60.5t-87.5 21
q-71 0 -119 -46.5t-53 -127.5h345zM305 683l-138 -86v77l138 83l139 -83v-77z" />
    <glyph glyph-name="edieresis" unicode="&#xeb;" horiz-adv-x="611" 
d="M569 243h-437q4 -82 51.5 -129.5t121.5 -47.5q56 0 94.5 25t56.5 66h98q-26 -72 -89.5 -119t-159.5 -47q-77 0 -137.5 35t-94.5 99.5t-34 148.5q0 85 34 149.5t96 99.5t143 35q77 0 136 -34t92 -93t33 -134q0 -29 -4 -54zM478 309q0 53 -23 92.5t-62.5 60.5t-87.5 21
q-71 0 -119 -46.5t-53 -127.5h345zM187 712.5q16 15.5 38 15.5q23 0 38.5 -15.5t15.5 -38.5q0 -22 -15.5 -38t-38.5 -16q-22 0 -38 16t-16 38q0 23 16 38.5zM348 712.5q16 15.5 38 15.5q23 0 38.5 -15.5t15.5 -38.5q0 -22 -15.5 -38t-38.5 -16q-22 0 -38 16t-16 38
q0 23 16 38.5z" />
    <glyph glyph-name="igrave" unicode="&#xec;" horiz-adv-x="241" 
d="M166 549v-549h-91v549h91zM218 657v-70l-213 112v84z" />
    <glyph glyph-name="iacute" unicode="&#xed;" horiz-adv-x="241" 
d="M166 549v-549h-91v549h91zM218 699l-213 -112v70l213 126v-84z" />
    <glyph glyph-name="icircumflex" unicode="&#xee;" horiz-adv-x="241" 
d="M166 549v-549h-91v549h91zM120 683l-138 -86v77l138 83l139 -83v-77z" />
    <glyph glyph-name="idieresis" unicode="&#xef;" horiz-adv-x="241" 
d="M166 549v-549h-91v549h91zM2 712.5q16 15.5 38 15.5q23 0 38.5 -15.5t15.5 -38.5q0 -22 -15.5 -38t-38.5 -16q-22 0 -38 16t-16 38q0 23 16 38.5zM163 712.5q16 15.5 38 15.5q23 0 38.5 -15.5t15.5 -38.5q0 -22 -15.5 -38t-38.5 -16q-22 0 -38 16t-16 38q0 23 16 38.5z
" />
    <glyph glyph-name="eth" unicode="&#xf0;" horiz-adv-x="630" 
d="M591 317q0 -106 -36 -179.5t-100 -110t-147 -36.5q-77 0 -138.5 35t-96 99.5t-34.5 148.5q0 85 36 149.5t98.5 99.5t139.5 35q52 0 92 -16.5t77 -51.5q-30 73 -92 141l-128 -43v59l84 28q-25 24 -75 65h100q27 -22 46 -41l136 46v-59l-93 -31q131 -149 131 -338z
M401.5 90.5q43.5 24.5 70 71.5t26.5 112q0 66 -25.5 113.5t-67.5 71.5t-92 24t-91.5 -24t-66 -71.5t-24.5 -113.5t23.5 -113t64 -71t89.5 -24q50 0 93.5 24.5z" />
    <glyph glyph-name="ntilde" unicode="&#xf1;" horiz-adv-x="628" 
d="M452.5 531.5q48.5 -26.5 77 -79t28.5 -127.5v-325h-90v310q0 83 -40 126t-111 43q-70 0 -110.5 -43t-40.5 -126v-310h-91v549h91v-89q27 48 74 73t105 25q59 0 107.5 -26.5zM307.5 705q13.5 -6 30.5 -18q14 -10 24 -15t23 -5q17 0 28.5 10.5t13.5 31.5h57
q-7 -50 -35 -77.5t-69 -27.5q-19 0 -32 6.5t-31 18.5q-16 10 -25.5 15t-22.5 5q-16 0 -28 -11t-14 -31h-57q7 50 35 77t70 27q19 0 32.5 -6z" />
    <glyph glyph-name="ograve" unicode="&#xf2;" horiz-adv-x="632" 
d="M457 523q63 -35 99.5 -100t36.5 -149q0 -83 -38 -147.5t-103 -100t-144 -35.5q-77 0 -138.5 35t-96 99.5t-34.5 148.5q0 85 36.5 149.5t99.5 99.5t141 35t141 -35zM222 459q-41 -24 -65.5 -71t-24.5 -114q0 -66 23.5 -113t63.5 -71t89 -24q50 0 93.5 24.5t70.5 71.5
t27 112q0 66 -25.5 113.5t-68 71.5t-92.5 24t-91 -24zM413 657v-70l-213 112v84z" />
    <glyph glyph-name="oacute" unicode="&#xf3;" horiz-adv-x="632" 
d="M457 523q63 -35 99.5 -100t36.5 -149q0 -83 -38 -147.5t-103 -100t-144 -35.5q-77 0 -138.5 35t-96 99.5t-34.5 148.5q0 85 36.5 149.5t99.5 99.5t141 35t141 -35zM222 459q-41 -24 -65.5 -71t-24.5 -114q0 -66 23.5 -113t63.5 -71t89 -24q50 0 93.5 24.5t70.5 71.5
t27 112q0 66 -25.5 113.5t-68 71.5t-92.5 24t-91 -24zM413 699l-213 -112v70l213 126v-84z" />
    <glyph glyph-name="ocircumflex" unicode="&#xf4;" horiz-adv-x="632" 
d="M457 523q63 -35 99.5 -100t36.5 -149q0 -83 -38 -147.5t-103 -100t-144 -35.5q-77 0 -138.5 35t-96 99.5t-34.5 148.5q0 85 36.5 149.5t99.5 99.5t141 35t141 -35zM222 459q-41 -24 -65.5 -71t-24.5 -114q0 -66 23.5 -113t63.5 -71t89 -24q50 0 93.5 24.5t70.5 71.5
t27 112q0 66 -25.5 113.5t-68 71.5t-92.5 24t-91 -24zM316 683l-138 -86v77l138 83l139 -83v-77z" />
    <glyph glyph-name="otilde" unicode="&#xf5;" horiz-adv-x="632" 
d="M457 523q63 -35 99.5 -100t36.5 -149q0 -83 -38 -147.5t-103 -100t-144 -35.5q-77 0 -138.5 35t-96 99.5t-34.5 148.5q0 85 36.5 149.5t99.5 99.5t141 35t141 -35zM222 459q-41 -24 -65.5 -71t-24.5 -114q0 -66 23.5 -113t63.5 -71t89 -24q50 0 93.5 24.5t70.5 71.5
t27 112q0 66 -25.5 113.5t-68 71.5t-92.5 24t-91 -24zM303.5 705q13.5 -6 30.5 -18q14 -10 24 -15t23 -5q17 0 28.5 10.5t13.5 31.5h57q-7 -50 -35 -77.5t-69 -27.5q-19 0 -32 6.5t-31 18.5q-16 10 -25.5 15t-22.5 5q-16 0 -28 -11t-14 -31h-57q7 50 35 77t70 27
q19 0 32.5 -6z" />
    <glyph glyph-name="odieresis" unicode="&#xf6;" horiz-adv-x="632" 
d="M457 523q63 -35 99.5 -100t36.5 -149q0 -83 -38 -147.5t-103 -100t-144 -35.5q-77 0 -138.5 35t-96 99.5t-34.5 148.5q0 85 36.5 149.5t99.5 99.5t141 35t141 -35zM222 459q-41 -24 -65.5 -71t-24.5 -114q0 -66 23.5 -113t63.5 -71t89 -24q50 0 93.5 24.5t70.5 71.5
t27 112q0 66 -25.5 113.5t-68 71.5t-92.5 24t-91 -24zM197 712.5q16 15.5 38 15.5q23 0 38.5 -15.5t15.5 -38.5q0 -22 -15.5 -38t-38.5 -16q-22 0 -38 16t-16 38q0 23 16 38.5zM358 712.5q16 15.5 38 15.5q23 0 38.5 -15.5t15.5 -38.5q0 -22 -15.5 -38t-38.5 -16
q-22 0 -38 16t-16 38q0 23 16 38.5z" />
    <glyph glyph-name="divide" unicode="&#xf7;" horiz-adv-x="708" 
d="M323 620q17 17 42 17q24 0 41 -17t17 -41q0 -25 -17 -42t-41 -17q-25 0 -42 17t-17 42q0 24 17 41zM619 406v-80h-509v80h509zM323 194q17 17 42 17q24 0 41 -17t17 -41t-17 -41t-41 -17q-25 0 -42 17t-17 41t17 41z" />
    <glyph glyph-name="oslash" unicode="&#xf8;" horiz-adv-x="632" 
d="M527 465q66 -77 66 -191q0 -83 -38 -147.5t-103 -100t-144 -35.5q-95 0 -165 53l-40 -44h-74l74 82q-31 37 -47.5 86t-16.5 106q0 85 36.5 149.5t99.5 99.5t141 35q97 0 171 -55l42 46h74zM163 147l268 294q-49 42 -118 42q-50 0 -91 -24t-65.5 -71t-24.5 -114
q0 -76 31 -127zM467 399l-269 -294q45 -39 110 -39q50 0 93.5 24.5t70.5 71.5t27 112q0 74 -32 125z" />
    <glyph glyph-name="ugrave" unicode="&#xf9;" horiz-adv-x="628" 
d="M553 549v-549h-91v88q-27 -48 -74 -72.5t-105 -24.5q-59 0 -107.5 26.5t-77 78.5t-28.5 127v326h90v-311q0 -82 40.5 -125.5t110.5 -43.5t110.5 43.5t40.5 125.5v311h91zM412 657v-70l-213 112v84z" />
    <glyph glyph-name="uacute" unicode="&#xfa;" horiz-adv-x="628" 
d="M553 549v-549h-91v88q-27 -48 -74 -72.5t-105 -24.5q-59 0 -107.5 26.5t-77 78.5t-28.5 127v326h90v-311q0 -82 40.5 -125.5t110.5 -43.5t110.5 43.5t40.5 125.5v311h91zM412 699l-213 -112v70l213 126v-84z" />
    <glyph glyph-name="ucircumflex" unicode="&#xfb;" horiz-adv-x="628" 
d="M553 549v-549h-91v88q-27 -48 -74 -72.5t-105 -24.5q-59 0 -107.5 26.5t-77 78.5t-28.5 127v326h90v-311q0 -82 40.5 -125.5t110.5 -43.5t110.5 43.5t40.5 125.5v311h91zM314 683l-138 -86v77l138 83l139 -83v-77z" />
    <glyph glyph-name="udieresis" unicode="&#xfc;" horiz-adv-x="628" 
d="M553 549v-549h-91v88q-27 -48 -74 -72.5t-105 -24.5q-59 0 -107.5 26.5t-77 78.5t-28.5 127v326h90v-311q0 -82 40.5 -125.5t110.5 -43.5t110.5 43.5t40.5 125.5v311h91zM196 712.5q16 15.5 38 15.5q23 0 38.5 -15.5t15.5 -38.5q0 -22 -15.5 -38t-38.5 -16q-22 0 -38 16
t-16 38q0 23 16 38.5zM357 712.5q16 15.5 38 15.5q23 0 38.5 -15.5t15.5 -38.5q0 -22 -15.5 -38t-38.5 -16q-22 0 -38 16t-16 38q0 23 16 38.5z" />
    <glyph glyph-name="yacute" unicode="&#xfd;" horiz-adv-x="557" 
d="M112 549l168 -444l171 444h94l-331 -806h-94l109 266l-217 540h100zM377 699l-213 -112v70l213 126v-84z" />
    <glyph glyph-name="thorn" unicode="&#xfe;" horiz-adv-x="670" 
d="M502.5 523q59.5 -35 94 -98.5t34.5 -146.5t-34.5 -148.5t-94 -102t-133.5 -36.5q-70 0 -122.5 33.5t-80.5 87.5v-372h-91v1000h91v-301q28 53 80.5 86t122.5 33q74 0 133.5 -35zM259.5 454q-42.5 -25 -68 -71.5t-25.5 -108.5t25.5 -108.5t68 -71.5t91.5 -25t92 25.5
t68.5 73.5t25.5 110t-25.5 107.5t-68 69.5t-92.5 24q-49 0 -91.5 -25z" />
    <glyph glyph-name="ydieresis" unicode="&#xff;" horiz-adv-x="557" 
d="M112 549l168 -444l171 444h94l-331 -806h-94l109 266l-217 540h100zM161 712.5q16 15.5 38 15.5q23 0 38.5 -15.5t15.5 -38.5q0 -22 -15.5 -38t-38.5 -16q-22 0 -38 16t-16 38q0 23 16 38.5zM322 712.5q16 15.5 38 15.5q23 0 38.5 -15.5t15.5 -38.5q0 -22 -15.5 -38
t-38.5 -16q-22 0 -38 16t-16 38q0 23 16 38.5z" />
    <glyph glyph-name="Amacron" unicode="&#x100;" horiz-adv-x="691" 
d="M499 152h-308l-54 -152h-93l252 693h100l251 -693h-94zM473 224l-128 358l-128 -358h256zM522 854v-73h-352v73h352z" />
    <glyph glyph-name="amacron" unicode="&#x101;" horiz-adv-x="670" 
d="M423.5 525q52.5 -33 79.5 -86v110h92v-549h-92v112q-27 -54 -79.5 -87.5t-122.5 -33.5q-74 0 -133.5 36.5t-94 102t-34.5 148.5t34.5 146.5t94 98.5t133.5 35q70 0 122.5 -33zM225.5 455q-42.5 -24 -68 -69.5t-25.5 -107.5t25.5 -109.5t68 -73.5t91.5 -26q50 0 92.5 25
t68 71.5t25.5 108.5t-25.5 108.5t-68 71.5t-92.5 25q-49 0 -91.5 -24zM510 710v-73h-352v73h352z" />
    <glyph glyph-name="Abreve" unicode="&#x102;" horiz-adv-x="691" 
d="M499 152h-308l-54 -152h-93l252 693h100l251 -693h-94zM473 224l-128 358l-128 -358h256zM241.5 790.5q-37.5 36.5 -37.5 93.5v18h57q0 -37 19 -55.5t66 -18.5t66 18.5t19 55.5h58v-19q0 -57 -38 -93t-105 -36t-104.5 36.5z" />
    <glyph glyph-name="abreve" unicode="&#x103;" horiz-adv-x="670" 
d="M423.5 525q52.5 -33 79.5 -86v110h92v-549h-92v112q-27 -54 -79.5 -87.5t-122.5 -33.5q-74 0 -133.5 36.5t-94 102t-34.5 148.5t34.5 146.5t94 98.5t133.5 35q70 0 122.5 -33zM225.5 455q-42.5 -24 -68 -69.5t-25.5 -107.5t25.5 -109.5t68 -73.5t91.5 -26q50 0 92.5 25
t68 71.5t25.5 108.5t-25.5 108.5t-68 71.5t-92.5 25q-49 0 -91.5 -24zM229.5 646.5q-37.5 36.5 -37.5 93.5v18h57q0 -37 19 -55.5t66 -18.5t66 18.5t19 55.5h58v-19q0 -57 -38 -93t-105 -36t-104.5 36.5z" />
    <glyph glyph-name="Aogonek" unicode="&#x104;" horiz-adv-x="691" 
d="M679 -139v-63h-91q-55 0 -90.5 29t-35.5 76q0 39 24 64t68 33l-55 152h-307l-55 -152h-93l252 693h100l251 -691v-58h-47q-56 0 -56 -41q0 -42 56 -42h79zM473 224l-128 357l-128 -357h256z" />
    <glyph glyph-name="aogonek" unicode="&#x105;" horiz-adv-x="670" 
d="M627 -139v-63h-91q-56 0 -91.5 28.5t-35.5 76.5q0 39 25.5 65t68.5 34v110q-27 -54 -79.5 -87.5t-122.5 -33.5q-74 0 -133.5 36.5t-94 102t-34.5 148.5t34.5 146.5t94 98.5t133.5 35q70 0 122.5 -33t79.5 -86v110h92v-605h-47q-56 0 -56 -41q0 -42 56 -42h79zM409.5 94
q42.5 25 68 71.5t25.5 108.5t-25.5 108.5t-68 71.5t-92.5 25q-49 0 -91.5 -24t-68 -69.5t-25.5 -107.5t25.5 -109.5t68 -73.5t91.5 -26q50 0 92.5 25z" />
    <glyph glyph-name="Cacute" unicode="&#x106;" horiz-adv-x="777" 
d="M584.5 649q84.5 -51 124.5 -147h-110q-30 57 -84 87t-123 30q-74 0 -133.5 -33.5t-93 -95.5t-33.5 -143t33.5 -143t93 -96t133.5 -34q69 0 123 30.5t84 87.5h110q-40 -96 -124.5 -147t-192.5 -51q-97 0 -178 45.5t-128 126t-47 181.5q0 102 47 182.5t128 125.5t178 45
q108 0 192.5 -51zM486 843l-213 -112v70l213 126v-84z" />
    <glyph glyph-name="cacute" unicode="&#x107;" horiz-adv-x="600" 
d="M466.5 512q62.5 -46 87.5 -131h-98q-16 48 -55 75t-96 27q-78 0 -125.5 -54.5t-47.5 -154.5q0 -99 47.5 -153.5t125.5 -54.5q58 0 96 26t55 76h98q-25 -81 -88.5 -129t-160.5 -48q-77 0 -137.5 35t-94.5 99.5t-34 148.5q0 85 34 149.5t94 99.5t138 35q99 0 161.5 -46z
M397 699l-213 -112v70l213 126v-84z" />
    <glyph glyph-name="Ccaron" unicode="&#x10c;" horiz-adv-x="777" 
d="M584.5 649q84.5 -51 124.5 -147h-110q-30 57 -84 87t-123 30q-74 0 -133.5 -33.5t-93 -95.5t-33.5 -143t33.5 -143t93 -96t133.5 -34q69 0 123 30.5t84 87.5h110q-40 -96 -124.5 -147t-192.5 -51q-97 0 -178 45.5t-128 126t-47 181.5q0 102 47 182.5t128 125.5t178 45
q108 0 192.5 -51zM527 824l-139 -83l-138 83v77l138 -86l139 86v-77z" />
    <glyph glyph-name="ccaron" unicode="&#x10d;" horiz-adv-x="600" 
d="M466.5 512q62.5 -46 87.5 -131h-98q-16 48 -55 75t-96 27q-78 0 -125.5 -54.5t-47.5 -154.5q0 -99 47.5 -153.5t125.5 -54.5q58 0 96 26t55 76h98q-25 -81 -88.5 -129t-160.5 -48q-77 0 -137.5 35t-94.5 99.5t-34 148.5q0 85 34 149.5t94 99.5t138 35q99 0 161.5 -46z
M439 680l-139 -83l-138 83v77l138 -86l139 86v-77z" />
    <glyph glyph-name="Dcaron" unicode="&#x10e;" horiz-adv-x="696" 
d="M612 158.5q-44 -77.5 -125.5 -118t-192.5 -40.5h-219v693h219q111 0 192.5 -42.5t125.5 -121t44 -186.5q0 -107 -44 -184.5zM494 142q69 72 69 201t-69 201t-200 72h-128v-546h128q131 0 200 72zM487 824l-139 -83l-138 83v77l138 -86l139 86v-77z" />
    <glyph glyph-name="dcaron" unicode="&#x10f;" horiz-adv-x="759" 
d="M423.5 525q52.5 -33 79.5 -86v301h92v-740h-92v112q-27 -54 -79.5 -87.5t-122.5 -33.5q-74 0 -133.5 36.5t-94 102t-34.5 148.5t34.5 146.5t94 98.5t133.5 35q70 0 122.5 -33zM749 648q0 -59 -25.5 -86t-75.5 -27v43q24 0 35.5 13t11.5 40v23h-49v86h92q11 -55 11 -92z
M225.5 455q-42.5 -24 -68 -69.5t-25.5 -107.5t25.5 -109.5t68 -73.5t91.5 -26q50 0 92.5 25t68 71.5t25.5 108.5t-25.5 108.5t-68 71.5t-92.5 25q-49 0 -91.5 -24z" />
    <glyph glyph-name="Dcroat" unicode="&#x110;" horiz-adv-x="712" 
d="M502.5 650.5q81.5 -42.5 125.5 -121t44 -186.5q0 -107 -44 -184.5t-125.5 -118t-192.5 -40.5h-219v302h-87v82h87v309h219q111 0 192.5 -42.5zM509.5 142q69.5 72 69.5 201t-69.5 201t-199.5 72h-128v-232h192v-82h-192v-232h128q130 0 199.5 72z" />
    <glyph glyph-name="dcroat" unicode="&#x111;" horiz-adv-x="670" 
d="M655 590h-60v-590h-92v112q-27 -54 -79.5 -87.5t-122.5 -33.5q-74 0 -133.5 36.5t-94 102t-34.5 148.5t34.5 146.5t94 98.5t133.5 35q70 0 122.5 -33t79.5 -86v151h-84v59h84v91h92v-91h60v-59zM409.5 94q42.5 25 68 71.5t25.5 108.5t-25.5 108.5t-68 71.5t-92.5 25
q-49 0 -91.5 -24t-68 -69.5t-25.5 -107.5t25.5 -109.5t68 -73.5t91.5 -26q50 0 92.5 25z" />
    <glyph glyph-name="Emacron" unicode="&#x112;" horiz-adv-x="505" 
d="M166 621v-236h246v-71h-246v-242h276v-72h-367v693h367v-72h-276zM429 854v-73h-352v73h352z" />
    <glyph glyph-name="emacron" unicode="&#x113;" horiz-adv-x="611" 
d="M569 243h-437q4 -82 51.5 -129.5t121.5 -47.5q56 0 94.5 25t56.5 66h98q-26 -72 -89.5 -119t-159.5 -47q-77 0 -137.5 35t-94.5 99.5t-34 148.5q0 85 34 149.5t96 99.5t143 35q77 0 136 -34t92 -93t33 -134q0 -29 -4 -54zM478 309q0 53 -23 92.5t-62.5 60.5t-87.5 21
q-71 0 -119 -46.5t-53 -127.5h345zM481 710v-73h-352v73h352z" />
    <glyph glyph-name="Edotaccent" unicode="&#x116;" horiz-adv-x="505" 
d="M166 621v-236h246v-71h-246v-242h276v-72h-367v693h367v-72h-276zM215 856.5q16 15.5 38 15.5q23 0 38.5 -15.5t15.5 -38.5q0 -22 -15.5 -38t-38.5 -16q-22 0 -38 16t-16 38q0 23 16 38.5z" />
    <glyph glyph-name="edotaccent" unicode="&#x117;" horiz-adv-x="611" 
d="M569 243h-437q4 -82 51.5 -129.5t121.5 -47.5q56 0 94.5 25t56.5 66h98q-26 -72 -89.5 -119t-159.5 -47q-77 0 -137.5 35t-94.5 99.5t-34 148.5q0 85 34 149.5t96 99.5t143 35q77 0 136 -34t92 -93t33 -134q0 -29 -4 -54zM478 309q0 53 -23 92.5t-62.5 60.5t-87.5 21
q-71 0 -119 -46.5t-53 -127.5h345zM267 712.5q16 15.5 38 15.5q23 0 38.5 -15.5t15.5 -38.5q0 -22 -15.5 -38t-38.5 -16q-22 0 -38 16t-16 38q0 23 16 38.5z" />
    <glyph glyph-name="Eogonek" unicode="&#x118;" horiz-adv-x="505" 
d="M474 -139v-63h-91q-56 0 -91.5 28.5t-35.5 76.5q0 37 22.5 62.5t62.5 34.5h-266v693h367v-72h-276v-236h246v-71h-246v-242h276v-128h-47q-56 0 -56 -41q0 -42 56 -42h79z" />
    <glyph glyph-name="eogonek" unicode="&#x119;" horiz-adv-x="611" 
d="M569 243h-437q4 -82 51.5 -129.5t121.5 -47.5q56 0 94.5 25t56.5 66h98q-18 -51 -56 -90t-90 -59q-25 -9 -35.5 -18t-10.5 -26q0 -42 56 -42h79v-63h-91q-56 0 -91.5 28.5t-35.5 76.5q0 11 4 27q-72 5 -127 41.5t-86 99t-31 142.5q0 85 34 149.5t96 99.5t143 35
q77 0 136 -34t92 -93t33 -134q0 -29 -4 -54zM478 309q0 53 -23 92.5t-62.5 60.5t-87.5 21q-71 0 -119 -46.5t-53 -127.5h345z" />
    <glyph glyph-name="Ecaron" unicode="&#x11a;" horiz-adv-x="505" 
d="M166 621v-236h246v-71h-246v-242h276v-72h-367v693h367v-72h-276zM391 824l-139 -83l-138 83v77l138 -86l139 86v-77z" />
    <glyph glyph-name="ecaron" unicode="&#x11b;" horiz-adv-x="611" 
d="M569 243h-437q4 -82 51.5 -129.5t121.5 -47.5q56 0 94.5 25t56.5 66h98q-26 -72 -89.5 -119t-159.5 -47q-77 0 -137.5 35t-94.5 99.5t-34 148.5q0 85 34 149.5t96 99.5t143 35q77 0 136 -34t92 -93t33 -134q0 -29 -4 -54zM478 309q0 53 -23 92.5t-62.5 60.5t-87.5 21
q-71 0 -119 -46.5t-53 -127.5h345zM444 680l-139 -83l-138 83v77l138 -86l139 86v-77z" />
    <glyph glyph-name="Gbreve" unicode="&#x11e;" horiz-adv-x="777" 
d="M584.5 649q84.5 -51 124.5 -147h-110q-30 57 -84 87t-123 30q-74 0 -133.5 -33.5t-93 -95.5t-33.5 -143t33.5 -143t93 -96t133.5 -34q106 0 172.5 62t77.5 168h-286v72h382v-72q-9 -88 -56.5 -159t-123 -111t-166.5 -40q-97 0 -178 45.5t-128 126t-47 181.5
q0 102 47 182.5t128 125.5t178 45q108 0 192.5 -51zM283.5 790.5q-37.5 36.5 -37.5 93.5v18h57q0 -37 19 -55.5t66 -18.5t66 18.5t19 55.5h58v-19q0 -57 -38 -93t-105 -36t-104.5 36.5z" />
    <glyph glyph-name="gbreve" unicode="&#x11f;" horiz-adv-x="670" 
d="M423.5 525q52.5 -33 79.5 -86v110h92v-563q0 -75 -33 -133t-93 -90.5t-139 -32.5q-69 0 -126 23.5t-93 66.5t-43 98h89q13 -47 61 -78t112 -31q78 0 125.5 46.5t47.5 130.5v126q-27 -54 -79.5 -87.5t-122.5 -33.5q-74 0 -133.5 36.5t-94 102t-34.5 148.5t34.5 146.5
t94 98.5t133.5 35q70 0 122.5 -33zM225.5 455q-42.5 -24 -68 -69.5t-25.5 -107.5t25.5 -109.5t68 -73.5t91.5 -26q50 0 92.5 25t68 71.5t25.5 108.5t-25.5 108.5t-68 71.5t-92.5 25q-49 0 -91.5 -24zM229.5 646.5q-37.5 36.5 -37.5 93.5v18h57q0 -37 19 -55.5t66 -18.5
t66 18.5t19 55.5h58v-19q0 -57 -38 -93t-105 -36t-104.5 36.5z" />
    <glyph glyph-name="uni0122" unicode="&#x122;" horiz-adv-x="777" 
d="M584.5 649q84.5 -51 124.5 -147h-110q-30 57 -84 87t-123 30q-74 0 -133.5 -33.5t-93 -95.5t-33.5 -143t33.5 -143t93 -96t133.5 -34q106 0 172.5 62t77.5 168h-286v72h382v-72q-9 -88 -56.5 -159t-123 -111t-166.5 -40q-97 0 -178 45.5t-128 126t-47 181.5
q0 102 47 182.5t128 125.5t178 45q108 0 192.5 -51zM442 -140q0 -59 -25 -86t-76 -27v44q24 0 35.5 12.5t11.5 39.5v23h-49v86h92q11 -55 11 -92z" />
    <glyph glyph-name="uni0123" unicode="&#x123;" horiz-adv-x="670" 
d="M281 688q0 114 101 114v-44q-24 0 -35.5 -13t-11.5 -40v-23h49v-86h-92q-11 55 -11 92zM423.5 525q52.5 -33 79.5 -86v110h92v-563q0 -75 -33 -133t-93 -90.5t-139 -32.5q-69 0 -126 23.5t-93 66.5t-43 98h89q13 -47 61 -78t112 -31q78 0 125.5 46.5t47.5 130.5v126
q-27 -54 -79.5 -87.5t-122.5 -33.5q-74 0 -133.5 36.5t-94 102t-34.5 148.5t34.5 146.5t94 98.5t133.5 35q70 0 122.5 -33zM225.5 455q-42.5 -24 -68 -69.5t-25.5 -107.5t25.5 -109.5t68 -73.5t91.5 -26q50 0 92.5 25t68 71.5t25.5 108.5t-25.5 108.5t-68 71.5t-92.5 25
q-49 0 -91.5 -24z" />
    <glyph glyph-name="Imacron" unicode="&#x12a;" horiz-adv-x="241" 
d="M166 693v-693h-91v693h91zM296 854v-73h-352v73h352z" />
    <glyph glyph-name="imacron" unicode="&#x12b;" horiz-adv-x="241" 
d="M166 549v-549h-91v549h91zM296 710v-73h-352v73h352z" />
    <glyph glyph-name="Iogonek" unicode="&#x12e;" horiz-adv-x="241" 
d="M199 -138v-63h-91q-56 0 -91.5 28.5t-35.5 76.5q0 39 25.5 65t68.5 34v690h91v-687h1v-61h-47q-56 0 -56 -41q0 -42 56 -42h79z" />
    <glyph glyph-name="iogonek" unicode="&#x12f;" horiz-adv-x="241" 
d="M77.5 655q-17.5 18 -17.5 44t18 44t43 18q26 0 44 -18t18 -44t-18 -44t-44 -18t-43.5 18zM199 -138v-63h-91q-56 0 -91.5 28.5t-35.5 76.5q0 39 25.5 65t68.5 34v546h91v-543h1v-61h-47q-56 0 -56 -41q0 -42 56 -42h79z" />
    <glyph glyph-name="Idotaccent" unicode="&#x130;" horiz-adv-x="241" 
d="M166 693v-693h-91v693h91zM82 856.5q16 15.5 38 15.5q23 0 38.5 -15.5t15.5 -38.5q0 -22 -15.5 -38t-38.5 -16q-22 0 -38 16t-16 38q0 23 16 38.5z" />
    <glyph glyph-name="dotlessi" unicode="&#x131;" horiz-adv-x="241" 
d="M166 549v-549h-91v549h91z" />
    <glyph glyph-name="uni0136" unicode="&#x136;" horiz-adv-x="598" 
d="M246 342l324 -342h-121l-283 310v-310h-91v693h91v-321l285 321h119zM342 -48q11 -55 11 -92q0 -59 -25.5 -86t-75.5 -27v44q24 0 35.5 12.5t11.5 39.5v23h-49v86h92z" />
    <glyph glyph-name="uni0137" unicode="&#x137;" horiz-adv-x="513" 
d="M245 276l259 -276h-123l-215 241v-241h-91v740h91v-434l210 243h128zM299 -48q11 -48 11 -92q0 -59 -25 -86t-76 -27v44q24 0 35.5 12.5t11.5 39.5v23h-48v86h91z" />
    <glyph glyph-name="Lacute" unicode="&#x139;" horiz-adv-x="429" 
d="M166 70h243v-70h-334v693h91v-623zM312 843l-213 -112v70l213 126v-84z" />
    <glyph glyph-name="lacute" unicode="&#x13a;" horiz-adv-x="241" 
d="M166 740v-740h-91v740h91zM218 890l-213 -112v70l213 126v-84z" />
    <glyph glyph-name="uni013B" unicode="&#x13b;" horiz-adv-x="429" 
d="M166 70h243v-70h-334v693h91v-623zM292 -140q0 -59 -25 -86t-76 -27v44q24 0 35.5 12.5t11.5 39.5v23h-49v86h92q11 -48 11 -92z" />
    <glyph glyph-name="uni013C" unicode="&#x13c;" horiz-adv-x="241" 
d="M166 740v-740h-91v740h91zM174 -140q0 -59 -25 -86t-76 -27v44q24 0 35.5 12.5t11.5 39.5v23h-48v86h91q11 -48 11 -92z" />
    <glyph glyph-name="Lcaron" unicode="&#x13d;" horiz-adv-x="438" 
d="M166 70h243v-70h-334v693h91v-623zM385 601q0 -114 -101 -114v44q24 0 35.5 13t11.5 40v23h-49v86h92q11 -55 11 -92z" />
    <glyph glyph-name="lcaron" unicode="&#x13e;" horiz-adv-x="389" 
d="M166 740v-740h-91v740h91zM347 648q0 -59 -25 -86t-76 -27v43q24 0 35.5 13t11.5 40v23h-49v86h92q11 -55 11 -92z" />
    <glyph glyph-name="Lslash" unicode="&#x141;" horiz-adv-x="429" 
d="M425 70v-70h-334v303l-87 -31v82l87 31v308h91v-275l104 38v-82l-104 -38v-266h243z" />
    <glyph glyph-name="lslash" unicode="&#x142;" horiz-adv-x="241" 
d="M237 358l-71 -28v-330h-91v295l-71 -28v82l71 28v363h91v-328l71 28v-82z" />
    <glyph glyph-name="Nacute" unicode="&#x143;" horiz-adv-x="698" 
d="M623 0h-91l-366 550v-550h-91v693h91l366 -550v550h91v-693zM447 843l-213 -112v70l213 126v-84z" />
    <glyph glyph-name="nacute" unicode="&#x144;" horiz-adv-x="628" 
d="M452.5 531.5q48.5 -26.5 77 -79t28.5 -127.5v-325h-90v310q0 83 -40 126t-111 43q-70 0 -110.5 -43t-40.5 -126v-310h-91v549h91v-89q27 48 74 73t105 25q59 0 107.5 -26.5zM417 699l-213 -112v70l213 126v-84z" />
    <glyph glyph-name="uni0145" unicode="&#x145;" horiz-adv-x="698" 
d="M623 0h-91l-366 550v-550h-91v693h91l366 -550v550h91v-693zM403 -140q0 -59 -25 -86t-76 -27v44q24 0 35.5 12.5t11.5 39.5v23h-49v86h92q11 -48 11 -92z" />
    <glyph glyph-name="uni0146" unicode="&#x146;" horiz-adv-x="628" 
d="M452.5 531.5q48.5 -26.5 77 -79t28.5 -127.5v-325h-90v310q0 83 -40 126t-111 43q-70 0 -110.5 -43t-40.5 -126v-310h-91v549h91v-89q27 48 74 73t105 25q59 0 107.5 -26.5zM357 -48q11 -48 11 -92q0 -59 -25 -86t-76 -27v44q24 0 35.5 12.5t11.5 39.5v23h-49v86h92z" />
    <glyph glyph-name="Ncaron" unicode="&#x147;" horiz-adv-x="698" 
d="M623 0h-91l-366 550v-550h-91v693h91l366 -550v550h91v-693zM488 824l-139 -83l-138 83v77l138 -86l139 86v-77z" />
    <glyph glyph-name="ncaron" unicode="&#x148;" horiz-adv-x="628" 
d="M452.5 531.5q48.5 -26.5 77 -79t28.5 -127.5v-325h-90v310q0 83 -40 126t-111 43q-70 0 -110.5 -43t-40.5 -126v-310h-91v549h91v-89q27 48 74 73t105 25q59 0 107.5 -26.5zM458 680l-139 -83l-138 83v77l138 -86l139 86v-77z" />
    <glyph glyph-name="Omacron" unicode="&#x14c;" horiz-adv-x="782" 
d="M569.5 655q80.5 -45 127.5 -125.5t47 -182.5q0 -101 -47 -182t-127.5 -126.5t-177.5 -45.5t-178 45.5t-128 126.5t-47 182q0 102 47 182.5t128 125.5t178 45t177.5 -45zM258.5 585.5q-59.5 -33.5 -93.5 -95.5t-34 -143t34 -143t93.5 -96t133.5 -34t133 34t92.5 96
t33.5 143t-33.5 143t-92.5 95.5t-133 33.5t-133.5 -33.5zM567 854v-73h-352v73h352z" />
    <glyph glyph-name="omacron" unicode="&#x14d;" horiz-adv-x="632" 
d="M457 523q63 -35 99.5 -100t36.5 -149q0 -83 -38 -147.5t-103 -100t-144 -35.5q-77 0 -138.5 35t-96 99.5t-34.5 148.5q0 85 36.5 149.5t99.5 99.5t141 35t141 -35zM222 459q-41 -24 -65.5 -71t-24.5 -114q0 -66 23.5 -113t63.5 -71t89 -24q50 0 93.5 24.5t70.5 71.5
t27 112q0 66 -25.5 113.5t-68 71.5t-92.5 24t-91 -24zM492 710v-73h-352v73h352z" />
    <glyph glyph-name="Ohungarumlaut" unicode="&#x150;" horiz-adv-x="782" 
d="M569.5 655q80.5 -45 127.5 -125.5t47 -182.5q0 -101 -47 -182t-127.5 -126.5t-177.5 -45.5t-178 45.5t-128 126.5t-47 182q0 102 47 182.5t128 125.5t178 45t177.5 -45zM258.5 585.5q-59.5 -33.5 -93.5 -95.5t-34 -143t34 -143t93.5 -96t133.5 -34t133 34t92.5 96
t33.5 143t-33.5 143t-92.5 95.5t-133 33.5t-133.5 -33.5zM339 745h-62l67 154h84zM489 745h-62l80 154h83z" />
    <glyph glyph-name="ohungarumlaut" unicode="&#x151;" horiz-adv-x="632" 
d="M457 523q63 -35 99.5 -100t36.5 -149q0 -83 -38 -147.5t-103 -100t-144 -35.5q-77 0 -138.5 35t-96 99.5t-34.5 148.5q0 85 36.5 149.5t99.5 99.5t141 35t141 -35zM222 459q-41 -24 -65.5 -71t-24.5 -114q0 -66 23.5 -113t63.5 -71t89 -24q50 0 93.5 24.5t70.5 71.5
t27 112q0 66 -25.5 113.5t-68 71.5t-92.5 24t-91 -24zM263 601h-62l67 154h84zM413 601h-62l80 154h83z" />
    <glyph glyph-name="OE" unicode="&#x152;" horiz-adv-x="1081" 
d="M742 385h245v-72h-245v-241h275v-72h-366v130q-45 -68 -111.5 -102.5t-147.5 -34.5q-97 0 -178 45.5t-128 126.5t-47 182q0 103 47.5 183t128 125t177.5 45q82 0 148 -34t111 -104v131h366v-73h-275v-235zM525 108q59 34 92.5 96t33.5 143t-33.5 143t-92.5 95.5
t-133 33.5t-133.5 -33.5t-93.5 -95.5t-34 -143t34 -143t93.5 -96t133.5 -34t133 34z" />
    <glyph glyph-name="oe" unicode="&#x153;" horiz-adv-x="1071" 
d="M1029 243h-436q4 -83 51.5 -130t120.5 -47q57 0 95.5 25t55.5 66h98q-26 -72 -89.5 -119t-159.5 -47q-73 0 -130.5 32.5t-91.5 92.5q-37 -59 -99 -92t-136 -33q-77 0 -138.5 35t-96 99.5t-34.5 148.5q0 85 36.5 149.5t99.5 99.5t141 35q72 0 132 -32.5t96 -91.5
q34 59 93 91.5t135 32.5q77 0 136 -34t92 -93t33 -134q0 -29 -4 -54zM401.5 90.5q43.5 24.5 70 71.5t26.5 112q0 66 -25.5 113.5t-67.5 71.5t-92 24t-91.5 -24t-66 -71.5t-24.5 -113.5t23.5 -113t64 -71t89.5 -24q50 0 93.5 24.5zM939 309q0 53 -23 92.5t-62.5 60.5
t-88.5 21q-71 0 -118.5 -46.5t-52.5 -127.5h345z" />
    <glyph glyph-name="Racute" unicode="&#x154;" horiz-adv-x="617" 
d="M437 0l-182 286h-89v-286h-91v693h225q78 0 132 -26.5t81 -73t27 -104.5q0 -75 -45 -130t-135 -69l191 -290h-114zM166 358h134q75 0 111.5 34.5t36.5 96.5t-36 96.5t-112 34.5h-134v-262zM406 843l-213 -112v70l213 126v-84z" />
    <glyph glyph-name="racute" unicode="&#x155;" horiz-adv-x="368" 
d="M333 558v-95h-24q-70 0 -106.5 -36.5t-36.5 -126.5v-300h-91v549h91v-93q49 102 167 102zM326 699l-213 -112v70l213 126v-84z" />
    <glyph glyph-name="uni0156" unicode="&#x156;" horiz-adv-x="617" 
d="M551 0h-114l-182 286h-89v-286h-91v693h225q78 0 132 -26.5t81 -73t27 -104.5q0 -75 -45 -130t-135 -69zM166 358h134q75 0 111.5 34.5t36.5 96.5t-36 96.5t-112 34.5h-134v-262zM351 -48q11 -48 11 -92q0 -59 -25 -86t-76 -27v44q24 0 35.5 12.5t11.5 39.5v23h-48v86h91
z" />
    <glyph glyph-name="uni0157" unicode="&#x157;" horiz-adv-x="368" 
d="M333 558v-95h-24q-70 0 -106.5 -36.5t-36.5 -126.5v-300h-91v549h91v-93q49 102 167 102zM164 -48q11 -48 11 -92q0 -59 -25 -86t-76 -27v44q24 0 35.5 12.5t11.5 39.5v23h-49v86h92z" />
    <glyph glyph-name="Rcaron" unicode="&#x158;" horiz-adv-x="617" 
d="M437 0l-182 286h-89v-286h-91v693h225q78 0 132 -26.5t81 -73t27 -104.5q0 -75 -45 -130t-135 -69l191 -290h-114zM166 358h134q75 0 111.5 34.5t36.5 96.5t-36 96.5t-112 34.5h-134v-262zM447 824l-139 -83l-138 83v77l138 -86l139 86v-77z" />
    <glyph glyph-name="rcaron" unicode="&#x159;" horiz-adv-x="368" 
d="M333 558v-95h-24q-70 0 -106.5 -36.5t-36.5 -126.5v-300h-91v549h91v-93q49 102 167 102zM367 680l-139 -83l-138 83v77l138 -86l139 86v-77z" />
    <glyph glyph-name="Sacute" unicode="&#x15a;" horiz-adv-x="587" 
d="M500 96q-27 -46 -80 -74.5t-127 -28.5q-66 0 -119 21.5t-83.5 62t-30.5 96.5h97q4 -47 37.5 -76t98.5 -29q67 0 106 34t39 87q0 40 -22 63.5t-55 35.5t-88 24q-69 16 -111.5 33t-72 55t-29.5 105q0 58 28 102t80.5 68.5t122.5 24.5q95 0 154.5 -46.5t68.5 -128.5h-101
q-4 41 -38.5 70t-92.5 29q-59 0 -96 -29.5t-37 -86.5q0 -41 22 -65t54.5 -36t90.5 -25q68 -16 110 -32.5t71.5 -53.5t29.5 -102q0 -52 -27 -98zM391 843l-213 -112v70l213 126v-84z" />
    <glyph glyph-name="sacute" unicode="&#x15b;" horiz-adv-x="526" 
d="M405 511.5q52 -46.5 57 -127.5h-94q-2 46 -31 74t-80 28q-52 0 -81.5 -24.5t-29.5 -61.5q0 -31 18.5 -49.5t46 -27.5t74.5 -19q60 -14 96.5 -27.5t62.5 -45t26 -85.5q0 -45 -26 -80.5t-73 -55t-108 -19.5q-92 0 -147.5 46t-60.5 127h94q2 -46 32.5 -73.5t81.5 -27.5
q56 0 86.5 23t30.5 61q0 31 -18.5 49.5t-46.5 28t-77 20.5q-59 13 -95.5 26.5t-62 42.5t-25.5 80q0 45 25.5 82.5t73 59.5t110.5 22q89 0 141 -46.5zM360 699l-213 -112v70l213 126v-84z" />
    <glyph glyph-name="uni015E" unicode="&#x15e;" horiz-adv-x="587" 
d="M504 104q-23 -43 -67.5 -72.5t-107.5 -36.5v-48q58 0 94 -27.5t36 -74.5t-35.5 -76t-91.5 -29h-119v63h107q56 0 56 42q0 41 -56 41h-55v108q-91 7 -148 54.5t-57 124.5h97q4 -47 37.5 -76t98.5 -29q67 0 106 34t39 87q0 40 -22 63.5t-55 35.5t-88 24q-69 16 -111.5 33
t-72 55t-29.5 105q0 58 28 102t80.5 68.5t122.5 24.5q95 0 154.5 -46.5t68.5 -128.5h-101q-4 41 -38.5 70t-92.5 29q-59 0 -96 -29.5t-37 -86.5q0 -41 22 -65t54.5 -36t90.5 -25q68 -16 110 -32.5t71.5 -53.5t29.5 -102q0 -47 -23 -90z" />
    <glyph glyph-name="uni015F" unicode="&#x15f;" horiz-adv-x="526" 
d="M423 43q-47 -42 -125 -50v-46q58 0 94 -27.5t36 -74.5t-35.5 -76t-91.5 -29h-119v63h107q56 0 56 42q0 41 -56 41h-55v106q-79 8 -127 53t-52 119h94q2 -46 32.5 -73.5t81.5 -27.5q56 0 86.5 23t30.5 61q0 31 -18.5 49.5t-46.5 28t-77 20.5q-59 13 -95.5 26.5t-62 42.5
t-25.5 80q0 45 25.5 82.5t73 59.5t110.5 22q89 0 141 -46.5t57 -127.5h-94q-2 46 -31 74t-80 28q-52 0 -81.5 -24.5t-29.5 -61.5q0 -31 18.5 -49.5t46 -27.5t74.5 -19q60 -14 96.5 -27.5t62.5 -45t26 -85.5q0 -61 -47 -103z" />
    <glyph glyph-name="Scaron" unicode="&#x160;" horiz-adv-x="587" 
d="M500 96q-27 -46 -80 -74.5t-127 -28.5q-66 0 -119 21.5t-83.5 62t-30.5 96.5h97q4 -47 37.5 -76t98.5 -29q67 0 106 34t39 87q0 40 -22 63.5t-55 35.5t-88 24q-69 16 -111.5 33t-72 55t-29.5 105q0 58 28 102t80.5 68.5t122.5 24.5q95 0 154.5 -46.5t68.5 -128.5h-101
q-4 41 -38.5 70t-92.5 29q-59 0 -96 -29.5t-37 -86.5q0 -41 22 -65t54.5 -36t90.5 -25q68 -16 110 -32.5t71.5 -53.5t29.5 -102q0 -52 -27 -98zM433 824l-139 -83l-138 83v77l138 -86l139 86v-77z" />
    <glyph glyph-name="scaron" unicode="&#x161;" horiz-adv-x="526" 
d="M405 511.5q52 -46.5 57 -127.5h-94q-2 46 -31 74t-80 28q-52 0 -81.5 -24.5t-29.5 -61.5q0 -31 18.5 -49.5t46 -27.5t74.5 -19q60 -14 96.5 -27.5t62.5 -45t26 -85.5q0 -45 -26 -80.5t-73 -55t-108 -19.5q-92 0 -147.5 46t-60.5 127h94q2 -46 32.5 -73.5t81.5 -27.5
q56 0 86.5 23t30.5 61q0 31 -18.5 49.5t-46.5 28t-77 20.5q-59 13 -95.5 26.5t-62 42.5t-25.5 80q0 45 25.5 82.5t73 59.5t110.5 22q89 0 141 -46.5zM402 680l-139 -83l-138 83v77l138 -86l139 86v-77z" />
    <glyph glyph-name="uni0162" unicode="&#x162;" horiz-adv-x="546" 
d="M318 620v-620q57 -2 90.5 -29.5t33.5 -73.5q0 -48 -35 -77t-92 -29h-149v63h139q26 0 40 11t14 32q0 42 -54 42h-78v681h-183v73h457v-73h-183z" />
    <glyph glyph-name="uni0163" unicode="&#x163;" horiz-adv-x="355" 
d="M306.5 -80.5q35.5 -27.5 35.5 -74.5t-35.5 -76t-90.5 -29h-119v63h107q56 0 56 42q0 41 -56 41h-55v134q-54 34 -54 121v334h-71v74h71v136h92v-136h142v-74h-142v-334q0 -37 15 -52t53 -15h75v-74h-92q-18 0 -26 1v-54q59 0 94.5 -27.5z" />
    <glyph glyph-name="Tcaron" unicode="&#x164;" horiz-adv-x="546" 
d="M501 693v-73h-183v-620h-91v620h-183v73h457zM412 824l-139 -83l-138 83v77l138 -86l139 86v-77z" />
    <glyph glyph-name="tcaron" unicode="&#x165;" horiz-adv-x="357" 
d="M371 679q0 -49 -25 -71t-76 -22v43q25 0 36 7t11 24v15h-49v86h92q11 -48 11 -82zM202 89q15 -15 53 -15h75v-74h-92q-70 0 -106.5 34t-36.5 107v334h-71v74h71v136h92v-136h142v-74h-142v-334q0 -37 15 -52z" />
    <glyph glyph-name="Umacron" unicode="&#x16a;" horiz-adv-x="673" 
d="M166 693v-450q0 -86 45.5 -128.5t125.5 -42.5t126 42.5t46 128.5v450h91v-450q0 -82 -35 -138.5t-95 -84t-133 -27.5q-74 0 -133.5 27.5t-94.5 84t-35 138.5v450h92zM512 854v-73h-352v73h352z" />
    <glyph glyph-name="umacron" unicode="&#x16b;" horiz-adv-x="628" 
d="M553 549v-549h-91v88q-27 -48 -74 -72.5t-105 -24.5q-59 0 -107.5 26.5t-77 78.5t-28.5 127v326h90v-311q0 -82 40.5 -125.5t110.5 -43.5t110.5 43.5t40.5 125.5v311h91zM490 710v-73h-352v73h352z" />
    <glyph glyph-name="Uring" unicode="&#x16e;" horiz-adv-x="673" 
d="M166 693v-450q0 -86 45.5 -128.5t125.5 -42.5t126 42.5t46 128.5v450h91v-450q0 -82 -35 -138.5t-95 -84t-133 -27.5q-74 0 -133.5 27.5t-94.5 84t-35 138.5v450h92zM411 932.5q30 -28.5 30 -76.5q0 -47 -30 -75.5t-75 -28.5q-44 0 -74 28.5t-30 75.5t30 76t74 29
q45 0 75 -28.5zM299 894.5q-15 -14.5 -15 -37.5t15 -38t37 -15q23 0 38 15t15 38t-15 37.5t-38 14.5q-22 0 -37 -14.5z" />
    <glyph glyph-name="uring" unicode="&#x16f;" horiz-adv-x="628" 
d="M553 549v-549h-91v88q-27 -48 -74 -72.5t-105 -24.5q-59 0 -107.5 26.5t-77 78.5t-28.5 127v326h90v-311q0 -82 40.5 -125.5t110.5 -43.5t110.5 43.5t40.5 125.5v311h91zM389 788.5q30 -28.5 30 -76.5q0 -47 -30 -75.5t-75 -28.5q-44 0 -74 28.5t-30 75.5t30 76t74 29
q45 0 75 -28.5zM277 750.5q-15 -14.5 -15 -37.5t15 -38t37 -15q23 0 38 15t15 38t-15 37.5t-38 14.5q-22 0 -37 -14.5z" />
    <glyph glyph-name="Uhungarumlaut" unicode="&#x170;" horiz-adv-x="673" 
d="M166 693v-450q0 -86 45.5 -128.5t125.5 -42.5t126 42.5t46 128.5v450h91v-450q0 -82 -35 -138.5t-95 -84t-133 -27.5q-74 0 -133.5 27.5t-94.5 84t-35 138.5v450h92zM284 745h-62l67 154h84zM434 745h-62l80 154h83z" />
    <glyph glyph-name="uhungarumlaut" unicode="&#x171;" horiz-adv-x="628" 
d="M553 549v-549h-91v88q-27 -48 -74 -72.5t-105 -24.5q-59 0 -107.5 26.5t-77 78.5t-28.5 127v326h90v-311q0 -82 40.5 -125.5t110.5 -43.5t110.5 43.5t40.5 125.5v311h91zM262 601h-62l67 154h84zM412 601h-62l80 154h83z" />
    <glyph glyph-name="Uogonek" unicode="&#x172;" horiz-adv-x="673" 
d="M166 693v-450q0 -86 45.5 -128.5t125.5 -42.5t126 42.5t46 128.5v450h91v-450q0 -103 -50 -160.5t-119 -76.5q-38 -11 -52 -20.5t-14 -27.5q0 -41 52 -41h83v-63h-91q-56 0 -91.5 28.5t-35.5 76.5q0 19 8 37q-97 13 -156.5 75.5t-59.5 171.5v450h92z" />
    <glyph glyph-name="uogonek" unicode="&#x173;" horiz-adv-x="628" 
d="M586 -139v-63h-91q-56 0 -91.5 28.5t-35.5 76.5q0 39 25.5 65t68.5 34v86q-27 -48 -74 -72.5t-105 -24.5q-59 0 -107.5 26.5t-77 78.5t-28.5 127v326h90v-311q0 -82 40.5 -125.5t110.5 -43.5t110.5 43.5t40.5 125.5v311h91v-544h1v-61h-47q-56 0 -56 -41q0 -42 56 -42h79
z" />
    <glyph glyph-name="Ydieresis" unicode="&#x178;" horiz-adv-x="572" 
d="M557 693l-225 -431v-262h-91v262l-226 431h100l171 -347l170 347h101zM168 856.5q16 15.5 38 15.5q23 0 38.5 -15.5t15.5 -38.5q0 -22 -15.5 -38t-38.5 -16q-22 0 -38 16t-16 38q0 23 16 38.5zM329 856.5q16 15.5 38 15.5q23 0 38.5 -15.5t15.5 -38.5q0 -22 -15.5 -38
t-38.5 -16q-22 0 -38 16t-16 38q0 23 16 38.5z" />
    <glyph glyph-name="Zacute" unicode="&#x179;" horiz-adv-x="542" 
d="M155 72h337v-72h-442v72l338 548h-338v73h442v-73zM369 843l-213 -112v70l213 126v-84z" />
    <glyph glyph-name="zacute" unicode="&#x17a;" horiz-adv-x="453" 
d="M145 74h265v-74h-368v74l265 401h-265v74h368v-74zM325 699l-213 -112v70l213 126v-84z" />
    <glyph glyph-name="Zdotaccent" unicode="&#x17b;" horiz-adv-x="542" 
d="M155 72h337v-72h-442v72l338 548h-338v73h442v-73zM233 856.5q16 15.5 38 15.5q23 0 38.5 -15.5t15.5 -38.5q0 -22 -15.5 -38t-38.5 -16q-22 0 -38 16t-16 38q0 23 16 38.5z" />
    <glyph glyph-name="zdotaccent" unicode="&#x17c;" horiz-adv-x="453" 
d="M145 74h265v-74h-368v74l265 401h-265v74h368v-74zM189 712.5q16 15.5 38 15.5q23 0 38.5 -15.5t15.5 -38.5q0 -22 -15.5 -38t-38.5 -16q-22 0 -38 16t-16 38q0 23 16 38.5z" />
    <glyph glyph-name="Zcaron" unicode="&#x17d;" horiz-adv-x="542" 
d="M155 72h337v-72h-442v72l338 548h-338v73h442v-73zM410 824l-139 -83l-138 83v77l138 -86l139 86v-77z" />
    <glyph glyph-name="zcaron" unicode="&#x17e;" horiz-adv-x="453" 
d="M145 74h265v-74h-368v74l265 401h-265v74h368v-74zM366 680l-139 -83l-138 83v77l138 -86l139 86v-77z" />
    <glyph glyph-name="florin" unicode="&#x192;" horiz-adv-x="330" 
d="M228.5 670.5q-26.5 -22.5 -31.5 -75.5l-5 -46h115l-7 -74h-116l-56 -532q-7 -74 -44 -107t-106 -33h-23l7 74h16q27 0 41 15t18 51l56 532h-70l6 74h72l5 46q9 90 61 131t155 41l-8 -74q-59 0 -85.5 -22.5z" />
    <glyph glyph-name="uni0218" unicode="&#x218;" horiz-adv-x="587" 
d="M500 96q-27 -46 -80 -74.5t-127 -28.5q-66 0 -119 21.5t-83.5 62t-30.5 96.5h97q4 -47 37.5 -76t98.5 -29q67 0 106 34t39 87q0 40 -22 63.5t-55 35.5t-88 24q-69 16 -111.5 33t-72 55t-29.5 105q0 58 28 102t80.5 68.5t122.5 24.5q95 0 154.5 -46.5t68.5 -128.5h-101
q-4 41 -38.5 70t-92.5 29q-59 0 -96 -29.5t-37 -86.5q0 -41 22 -65t54.5 -36t90.5 -25q68 -16 110 -32.5t71.5 -53.5t29.5 -102q0 -52 -27 -98zM348 -140q0 -59 -25.5 -86t-76.5 -27v44q25 0 36.5 12.5t11.5 39.5v23h-49v86h91q12 -53 12 -92z" />
    <glyph glyph-name="uni0219" unicode="&#x219;" horiz-adv-x="526" 
d="M405 511.5q52 -46.5 57 -127.5h-94q-2 46 -31 74t-80 28q-52 0 -81.5 -24.5t-29.5 -61.5q0 -31 18.5 -49.5t46 -27.5t74.5 -19q60 -14 96.5 -27.5t62.5 -45t26 -85.5q0 -45 -26 -80.5t-73 -55t-108 -19.5q-92 0 -147.5 46t-60.5 127h94q2 -46 32.5 -73.5t81.5 -27.5
q56 0 86.5 23t30.5 61q0 31 -18.5 49.5t-46.5 28t-77 20.5q-59 13 -95.5 26.5t-62 42.5t-25.5 80q0 45 25.5 82.5t73 59.5t110.5 22q89 0 141 -46.5zM317 -140q0 -59 -25.5 -86t-76.5 -27v44q25 0 36.5 12.5t11.5 39.5v23h-49v86h91q12 -53 12 -92z" />
    <glyph glyph-name="uni021A" unicode="&#x21a;" horiz-adv-x="546" 
d="M501 693v-73h-183v-620h-91v620h-183v73h457zM327 -140q0 -59 -25.5 -86t-75.5 -27v44q24 0 35.5 12.5t11.5 39.5v23h-49v86h92q11 -55 11 -92z" />
    <glyph glyph-name="uni021B" unicode="&#x21b;" horiz-adv-x="355" 
d="M330 74v-74h-92q-70 0 -106.5 34t-36.5 107v334h-71v74h71v136h92v-136h142v-74h-142v-334q0 -37 15 -52t53 -15h75zM220 -48q12 -53 12 -92q0 -59 -25.5 -86t-76.5 -27v44q25 0 36.5 12.5t11.5 39.5v23h-49v86h91z" />
    <glyph glyph-name="apostrophemod" unicode="&#x2bc;" horiz-adv-x="152" 
d="M128 691q0 -59 -25.5 -86t-75.5 -27v44q24 0 35.5 12.5t11.5 39.5v23h-49v86h91q12 -52 12 -92z" />
    <glyph glyph-name="circumflex" unicode="&#x2c6;" horiz-adv-x="297" 
d="M148 683l-138 -86v77l138 83l139 -83v-77z" />
    <glyph glyph-name="caron" unicode="&#x2c7;" horiz-adv-x="297" 
d="M287 680l-139 -83l-138 83v77l138 -86l139 86v-77z" />
    <glyph glyph-name="uni02C9" unicode="&#x2c9;" horiz-adv-x="372" 
d="M362 710v-73h-352v73h352z" />
    <glyph glyph-name="breve" unicode="&#x2d8;" horiz-adv-x="305" 
d="M47.5 646.5q-37.5 36.5 -37.5 93.5v18h57q0 -37 19 -55.5t66 -18.5t66 18.5t19 55.5h58v-19q0 -57 -38 -93t-105 -36t-104.5 36.5z" />
    <glyph glyph-name="dotaccent" unicode="&#x2d9;" horiz-adv-x="128" 
d="M26 712.5q16 15.5 38 15.5q23 0 38.5 -15.5t15.5 -38.5q0 -22 -15.5 -38t-38.5 -16q-22 0 -38 16t-16 38q0 23 16 38.5z" />
    <glyph glyph-name="ring" unicode="&#x2da;" horiz-adv-x="229" 
d="M189 788.5q30 -28.5 30 -76.5q0 -47 -30 -75.5t-75 -28.5q-44 0 -74 28.5t-30 75.5t30 76t74 29q45 0 75 -28.5zM77 750.5q-15 -14.5 -15 -37.5t15 -38t37 -15q23 0 38 15t15 38t-15 37.5t-38 14.5q-22 0 -37 -14.5z" />
    <glyph glyph-name="ogonek" unicode="&#x2db;" horiz-adv-x="254" 
d="M196 5v-61h-47q-56 0 -56 -41q0 -42 56 -42h79v-63h-91q-56 0 -91.5 28.5t-35.5 76.5q0 47 35.5 74.5t94.5 27.5h56z" />
    <glyph glyph-name="tilde" unicode="&#x2dc;" horiz-adv-x="334" 
d="M147.5 705q13.5 -6 30.5 -18q14 -10 24 -15t23 -5q17 0 28.5 10.5t13.5 31.5h57q-7 -50 -35 -77.5t-69 -27.5q-19 0 -32 6.5t-31 18.5q-16 10 -25.5 15t-22.5 5q-16 0 -28 -11t-14 -31h-57q7 50 35 77t70 27q19 0 32.5 -6z" />
    <glyph glyph-name="hungarumlaut" unicode="&#x2dd;" horiz-adv-x="333" 
d="M72 601h-62l67 154h84zM222 601h-62l80 154h83z" />
    <glyph glyph-name="pi" unicode="&#x3c0;" horiz-adv-x="706" 
d="M663 549v-73h-79v-476h-91v476h-288v-476h-91v476h-78v73h627z" />
    <glyph glyph-name="dvCandrabindu" unicode="&#x901;" horiz-adv-x="0" 
d="M-176.5 1061q15.5 15 37.5 15t37.5 -15t15.5 -37t-15.5 -37.5t-37.5 -15.5t-37.5 15.5t-15.5 37.5t15.5 37zM-283.5 867q-47.5 50 -47.5 128h75q0 -46 29.5 -78t87.5 -32t87.5 32t29.5 78h75q0 -79 -47.5 -128.5t-144.5 -49.5t-144.5 50z" />
    <glyph glyph-name="dvAnusvara" unicode="&#x902;" horiz-adv-x="0" 
d="M-179 940q17 17 42 17q24 0 41 -17t17 -41t-17 -41.5t-41 -17.5q-25 0 -42 17.5t-17 41.5t17 41z" />
    <glyph glyph-name="dvVisarga" unicode="&#x903;" horiz-adv-x="166" 
d="M44 537q16 16 39 16t39 -16t16 -39q0 -22 -16 -38t-39 -16t-39 16t-16 38q0 23 16 39zM44.5 237q16.5 16 38.5 16q23 0 39 -16t16 -39q0 -22 -16 -38.5t-39 -16.5q-22 0 -38.5 16.5t-16.5 38.5q0 23 16.5 39z" />
    <glyph glyph-name="dvA" unicode="&#x905;" horiz-adv-x="831" 
d="M867 740v-77h-131v-663h-86v326h-152q13 -34 13 -69q0 -93 -58 -148t-153 -55q-62 0 -110.5 24.5t-76 70.5t-27.5 108h81q0 -59 37 -94.5t97 -35.5t95 35.5t35 94.5t-36.5 89t-102.5 30h-37v77h32q57 0 94.5 28.5t37.5 81.5q0 52 -33.5 83t-88.5 31q-53 0 -87.5 -31.5
t-35.5 -82.5h-80q0 56 26.5 98.5t73 65.5t104.5 23t104 -22.5t72 -64.5t26 -97q0 -54 -27 -91.5t-78 -54.5v-5q20 -5 40 -17h215v342h217z" />
    <glyph glyph-name="dvAA" unicode="&#x906;" horiz-adv-x="1106" 
d="M1142 663h-130v-663h-86v663h-190v-663h-86v326h-152q13 -34 13 -69q0 -93 -58 -148t-153 -55q-62 0 -110.5 24.5t-76 70.5t-27.5 108h81q0 -59 37 -94.5t97 -35.5t95 35.5t35 94.5t-36.5 89t-102.5 30h-37v77h32q57 0 94.5 28.5t37.5 81.5q0 52 -33.5 83t-88.5 31
q-53 0 -87.5 -31.5t-35.5 -82.5h-80q0 56 26.5 98.5t73 65.5t104.5 23t104 -22.5t72 -64.5t26 -97q0 -54 -27 -91.5t-78 -54.5v-5q20 -5 40 -17h215v342h492v-77z" />
    <glyph glyph-name="dvI" unicode="&#x907;" horiz-adv-x="595" 
d="M230 465.5q-35 -16.5 -35 -63.5q0 -49 32.5 -65.5t95.5 -16.5q102 0 163.5 -33t61.5 -130q0 -74 -51.5 -121.5t-142.5 -47.5q-113 0 -163 68v-133h-84v274h84q4 -64 40 -99.5t106 -35.5q59 0 93 24.5t34 74.5q0 54 -36 70.5t-101 16.5q-101 0 -159.5 34t-58.5 123
q0 82 58 117t148 35h87v106h-438v77h667v-77h-143v-181h-162q-61 0 -96 -16.5z" />
    <glyph glyph-name="dvII" unicode="&#x908;" horiz-adv-x="595" 
d="M690 996q41 -46 41 -124h-74q-1 48 -20.5 73.5t-64.5 25.5q-47 0 -67.5 -33t-20.5 -101v-97h147v-77h-143v-181h-162q-61 0 -96 -16.5t-35 -63.5q0 -49 32.5 -65.5t95.5 -16.5q102 0 163.5 -33t61.5 -130q0 -74 -51.5 -121.5t-142.5 -47.5q-113 0 -163 68v-133h-84v274
h84q4 -64 40 -99.5t106 -35.5q59 0 93 24.5t34 74.5q0 54 -36 70.5t-101 16.5q-101 0 -159.5 34t-58.5 123q0 82 58 117t148 35h87v106h-438v77h442v97q0 98 39.5 151.5t127.5 53.5q76 0 117 -46z" />
    <glyph glyph-name="dvU" unicode="&#x909;" horiz-adv-x="581" 
d="M465 489q-19 -53 -77 -82v-5q57 -19 91.5 -66t34.5 -114q0 -100 -57.5 -157t-158.5 -57q-70 0 -122.5 28.5t-81 79.5t-28.5 118h80q0 -42 20 -77t55 -55t77 -20q62 0 99.5 38.5t37.5 100.5q0 70 -46.5 106.5t-116.5 36.5h-35v79h33q75 0 104 48t29 138v34h-440v77h654
v-77h-133v-32q0 -89 -19 -142z" />
    <glyph glyph-name="dvUU" unicode="&#x90a;" horiz-adv-x="855" 
d="M464 489q-19 -53 -77 -82v-6h191q230 0 230 -189q0 -99 -54 -143.5t-149 -44.5q-26 0 -53 3v69q28 -2 40 -2q65 0 98.5 26t33.5 91q0 66 -36.5 91t-109.5 25h-94q29 -47 29 -105q0 -100 -57.5 -157t-158.5 -57q-69 0 -121.5 28.5t-81 79.5t-28.5 118h79q0 -42 20 -77
t55 -55t77 -20q63 0 100 38t37 101q0 70 -46.5 106.5t-115.5 36.5h-36v79h34q74 0 103.5 48.5t29.5 137.5v34h-439v77h927v-77h-408v-32q0 -89 -19 -142z" />
    <glyph glyph-name="dvvR" unicode="&#x90b;" horiz-adv-x="980" 
d="M571 663v-193h179q37 0 48 14.5t11 54.5v35h82v-360h-29q-54 -1 -82 -28t-28 -75q0 -52 33.5 -77.5t84.5 -25.5q33 0 63 9v-70q-27 -10 -67 -10q-85 0 -140 44t-55 129q0 67 36.5 110.5t101.5 55.5v128q-24 -7 -59 -7h-179v-397h-86v269l-262 -269h-110v5l71 69
q253 245 295 287q-13 58 -54 92t-104 34q-79 0 -125.5 -49.5t-46.5 -132.5h-85q0 77 30 135.5t85 91t128 32.5q61 0 106 -23.5t72 -64.5v187h-521v77h1052v-77h-445z" />
    <glyph glyph-name="dvvL" unicode="&#x90c;" horiz-adv-x="907" 
d="M652.5 215q35.5 44 99.5 54q4 68 -23.5 116.5t-99.5 48.5q-75 0 -103.5 -56t-24.5 -152h-82q9 208 -128 208q-123 0 -123 -162q0 -82 42 -129t124 -47q14 0 21 1v-78q-11 -1 -32 -1q-74 0 -128.5 31t-83.5 88.5t-29 133.5q0 114 51 177.5t153 63.5q65 0 110.5 -31.5
t63.5 -89.5q14 48 48.5 77.5t84.5 36.5v158h-629v77h979v-77h-265v-155q74 -13 116 -71t42 -155q0 -34 -6 -73h-23q-54 0 -82 -27t-28 -76q0 -52 33.5 -77.5t84.5 -25.5q33 0 64 9v-71q-32 -8 -69 -8q-85 0 -139 43.5t-54 128.5q0 66 35.5 110z" />
    <glyph glyph-name="dvEcandra" unicode="&#x90d;" horiz-adv-x="629" 
d="M209 889.5q-34 44.5 -34 115.5h76q0 -64 15 -103t46 -39q34 0 47.5 38t13.5 104h76q0 -71 -34 -115.5t-103 -44.5t-103 44.5zM416.5 418.5q25.5 10.5 36.5 38.5t11 85v121h-296v-400q0 -83 37.5 -125t115.5 -42q73 0 110.5 37t37.5 110h85q0 -105 -61.5 -164.5
t-168.5 -59.5q-124 0 -183.5 67.5t-59.5 184.5v392h-146v77h733v-77h-118v-122q0 -80 -22 -127t-67.5 -67.5t-120.5 -19.5v79q51 2 76.5 12.5z" />
    <glyph glyph-name="dvE" unicode="&#x90f;" horiz-adv-x="661" 
d="M445.5 418.5q25.5 10.5 36.5 38.5t11 85v121h-296v-400q0 -83 37.5 -125t115.5 -42q73 0 110.5 37t37.5 110h85q0 -105 -61.5 -164.5t-168.5 -59.5q-124 0 -183.5 67.5t-59.5 184.5v392h-146v77h733v-77h-118v-122q0 -80 -22 -127t-67.5 -67.5t-120.5 -19.5v79
q51 2 76.5 12.5z" />
    <glyph glyph-name="dvAI" unicode="&#x910;" horiz-adv-x="661" 
d="M445.5 418.5q25.5 10.5 36.5 38.5t11 85v121h-296v-400q0 -83 37.5 -125t115.5 -42q73 0 110.5 37t37.5 110h85q0 -105 -61.5 -164.5t-168.5 -59.5q-124 0 -183.5 67.5t-59.5 184.5v392h-146v77h507q-57 83 -86 113.5t-63 40.5t-106 10h-36v74h31q87 0 134 -13t95 -62.5
t118 -162.5h139v-77h-118v-122q0 -80 -22 -127t-67.5 -67.5t-120.5 -19.5v79q51 2 76.5 12.5z" />
    <glyph glyph-name="dvOcandra" unicode="&#x911;" horiz-adv-x="1111" 
d="M711.5 866q-43.5 49 -43.5 129h76q0 -47 25.5 -78t82.5 -31q58 0 83 30.5t25 78.5h76q0 -80 -43.5 -129t-140.5 -49t-140.5 49zM1147 663h-130v-663h-86v663h-190v-663h-86v326h-152q13 -34 13 -69q0 -93 -58 -148t-153 -55q-62 0 -110.5 24.5t-76 70.5t-27.5 108h81
q0 -59 37 -94.5t97 -35.5t95 35.5t35 94.5t-36.5 89t-102.5 30h-37v77h32q57 0 94.5 28.5t37.5 81.5q0 52 -33.5 83t-88.5 31q-53 0 -87.5 -31.5t-35.5 -82.5h-80q0 56 26.5 98.5t73 65.5t104.5 23t104 -22.5t72 -64.5t26 -97q0 -54 -27 -91.5t-78 -54.5v-5q20 -5 40 -17
h215v342h492v-77z" />
    <glyph glyph-name="dvO" unicode="&#x913;" horiz-adv-x="1111" 
d="M1147 740v-77h-130v-663h-86v663h-190v-663h-86v326h-152q13 -34 13 -69q0 -93 -58 -148t-153 -55q-62 0 -110.5 24.5t-76 70.5t-27.5 108h81q0 -59 37 -94.5t97 -35.5t95 35.5t35 94.5t-36.5 89t-102.5 30h-37v77h32q57 0 94.5 28.5t37.5 81.5q0 52 -33.5 83t-88.5 31
q-53 0 -87.5 -31.5t-35.5 -82.5h-80q0 56 26.5 98.5t73 65.5t104.5 23t104 -22.5t72 -64.5t26 -97q0 -54 -27 -91.5t-78 -54.5v-5q20 -5 40 -17h215v342h277q-57 83 -86 113.5t-63 40.5t-106 10h-36v74h31q87 0 134 -13t95 -62.5t118 -162.5h128z" />
    <glyph glyph-name="dvAU" unicode="&#x914;" horiz-adv-x="1159" 
d="M1195 740v-77h-130v-663h-86v663h-190v-663h-86v326h-152q13 -34 13 -69q0 -93 -58 -148t-153 -55q-62 0 -110.5 24.5t-76 70.5t-27.5 108h81q0 -59 37 -94.5t97 -35.5t95 35.5t35 94.5t-36.5 89t-102.5 30h-37v77h32q57 0 94.5 28.5t37.5 81.5q0 52 -33.5 83t-88.5 31
q-53 0 -87.5 -31.5t-35.5 -82.5h-80q0 56 26.5 98.5t73 65.5t104.5 23t104 -22.5t72 -64.5t26 -97q0 -54 -27 -91.5t-78 -54.5v-5q20 -5 40 -17h215v342h271q-33 33 -64 47.5t-65 18t-102 3.5h-36v69h31q63 0 96.5 -3.5t65.5 -19t69 -50.5q-36 55 -66.5 82t-67.5 36.5
t-97 9.5h-37v69h32q84 0 130.5 -16t91.5 -70.5t109 -175.5h131z" />
    <glyph glyph-name="dvKA" unicode="&#x915;" horiz-adv-x="1011" 
d="M560 663v-179q23 38 63.5 59.5t96.5 21.5q67 0 117 -30t76.5 -83t26.5 -120q0 -69 -30 -119.5t-84 -77.5t-123 -27q-27 0 -41 2l-1 74q10 -1 29 -1q75 0 119.5 38.5t44.5 110.5q0 73 -39 114.5t-113 41.5q-70 0 -106 -45.5t-36 -127.5v-315h-84v183q-25 -38 -67.5 -59.5
t-100.5 -21.5q-66 0 -116.5 29.5t-78.5 81.5t-28 119t27.5 120t78 82.5t117.5 29.5q59 0 101 -22t67 -60v181h-512v77h1083v-77h-487zM437 219.5q39 41.5 39 112.5q0 73 -40.5 114t-111.5 41q-73 0 -113 -40.5t-40 -114.5q0 -73 40.5 -113.5t114.5 -40.5q72 0 111 41.5z" />
    <glyph glyph-name="dvKHA" unicode="&#x916;" horiz-adv-x="916" 
d="M952 740v-77h-131v-663h-84v203q-23 -30 -60 -47t-87 -17q-11 0 -31 2q-22 -69 -84 -106t-148 -37q-113 0 -179 64t-66 176v169h34q71 1 100.5 11.5t40 46t10.5 119.5v79h-303v77h988zM427.5 99.5q39.5 24.5 53.5 69.5q-43 27 -66.5 72t-23.5 103q0 59 25.5 105.5
t70.5 72.5t103 26q102 0 147 -60v175h-385v-80q0 -95 -16 -146t-55 -72.5t-113 -23.5v-105q0 -81 39 -121t120 -40q61 0 100.5 24.5zM701.5 248.5q35.5 35.5 35.5 95.5t-35 95t-95 35t-96.5 -35t-36.5 -95t36.5 -95.5t96.5 -35.5q59 0 94.5 35.5z" />
    <glyph glyph-name="dvGA" unicode="&#x917;" horiz-adv-x="714" 
d="M750 740v-77h-131v-663h-86v663h-202v-242q0 -100 -34.5 -149.5t-117.5 -49.5q-81 0 -119 51t-35 145h85q0 -59 13 -89t57 -30q31 0 45.5 15.5t18.5 40t4 65.5v243h-284v77h786z" />
    <glyph glyph-name="dvGHA" unicode="&#x918;" horiz-adv-x="695" 
d="M731 663h-131v-663h-86v202q-31 -46 -86.5 -70.5t-126.5 -24.5q-60 0 -111.5 20.5t-83 62t-31.5 99.5q0 54 28 92.5t74 57.5v6q-50 23 -67.5 66.5t-17.5 122.5v29h-128v77h767v-77zM514 663h-335v-29q0 -59 10.5 -92t38 -48.5t81.5 -15.5h36v-75h-36q-66 0 -107 -28
t-41 -83q0 -56 44.5 -82.5t110.5 -26.5q54 0 99.5 21t72 60.5t26.5 91.5v307z" />
    <glyph glyph-name="dvNGA" unicode="&#x919;" horiz-adv-x="660" 
d="M696 740v-77h-226v-181h-162q-61 0 -96 -16.5t-35 -63.5q0 -49 32.5 -65.5t95.5 -16.5q102 0 164 -33.5t62 -129.5q0 -49 -25.5 -87t-73.5 -60t-112 -22q-110 0 -176 55t-68 154h85q4 -64 42.5 -99.5t114.5 -35.5q60 0 94 24.5t34 74.5q0 54 -36 70.5t-101 16.5
q-102 0 -160.5 34t-58.5 123q0 82 58.5 117t148.5 35h87v106h-420v77h732zM613.5 418.5q16.5 -16.5 16.5 -40.5q0 -23 -16.5 -40t-39.5 -17q-24 0 -40.5 17t-16.5 40q0 24 16.5 40.5t40.5 16.5q23 0 39.5 -16.5z" />
    <glyph glyph-name="dvCA" unicode="&#x91a;" horiz-adv-x="727" 
d="M763 740v-77h-131v-663h-86v188q-24 -40 -68 -64.5t-111 -24.5q-62 0 -113.5 25.5t-82 72.5t-30.5 107q0 50 19.5 88.5t55.5 62.5h-167v72h364v-72h-29q-72 0 -115.5 -38t-43.5 -105q0 -64 43.5 -100.5t113.5 -36.5q47 0 84.5 23.5t58.5 63.5t21 88v313h-582v77h799z" />
    <glyph glyph-name="dvCHA" unicode="&#x91b;" horiz-adv-x="820" 
d="M641 663v-103q61 -18 94.5 -74.5t33.5 -141.5q0 -95 -43 -165.5t-124 -108.5t-192 -38q-141 0 -235.5 53t-94.5 162q0 60 30.5 102t83.5 62v6q-57 19 -76 67t-19 141v38h-135v77h892v-77h-215zM557 663h-372v-43q0 -65 10 -100.5t39.5 -52.5t87.5 -17h13v-75h-14
q-71 0 -113.5 -31.5t-42.5 -92.5q0 -76 70 -109.5t174 -33.5q131 0 207 60t76 182q0 74 -28.5 109.5t-76.5 35.5q-35 0 -58 -15.5t-36 -58t-12 -121.5h-77q-4 127 34.5 191t118.5 74v98z" />
    <glyph glyph-name="dvJA" unicode="&#x91c;" horiz-adv-x="827" 
d="M863 740v-77h-131v-663h-86v440h-181v-74q0 -125 -41.5 -193.5t-155.5 -68.5q-116 0 -158 69.5t-42 192.5v148h86v-125q0 -74 6 -115.5t30.5 -67t77.5 -25.5q52 0 76 25.5t30 66.5t6 116v125h266v149h-682v77h899z" />
    <glyph glyph-name="dvJHA" unicode="&#x91d;" horiz-adv-x="831" 
d="M867 663h-130v-663h-86v277h-175q19 -10 32.5 -33.5t13.5 -52.5q0 -44 -20.5 -81t-62.5 -59t-102 -22q-50 0 -91 19.5t-63 50.5v-135h-83v261h83q3 -56 41 -89.5t100 -33.5q57 0 86 24t29 70q0 36 -16 53.5t-40.5 22t-66.5 4.5q-67 0 -112.5 10t-74 42.5t-28.5 94.5
q0 83 56 113.5t151 30.5h87v96h-431v77h903v-77zM651 663h-170v-171h-162q-45 0 -71.5 -4t-43.5 -19.5t-17 -47.5q0 -46 28 -60.5t84 -14.5h352v317z" />
    <glyph glyph-name="dvNYA" unicode="&#x91e;" horiz-adv-x="815" 
d="M850 740v-77h-130v-663h-86v305h-117q-9 -91 -67.5 -147.5t-159.5 -56.5q-98 0 -155.5 49.5t-70.5 120.5h86q10 -39 45.5 -66t94.5 -27q72 0 108.5 43t36.5 119t-36.5 119.5t-108.5 43.5q-59 0 -94.5 -27t-45.5 -66h-86q13 71 70 120t156 49q100 0 157.5 -54.5
t69.5 -143.5h117v282h-670v77h886z" />
    <glyph glyph-name="dvTTA" unicode="&#x91f;" horiz-adv-x="660" 
d="M217.5 438q-59.5 -46 -59.5 -139q0 -82 51 -131t134 -49q85 0 133 49t48 134h85q0 -79 -33 -138t-93 -90.5t-140 -31.5q-78 0 -139.5 32t-96 90.5t-34.5 135.5q0 82 37 140t102 88.5t150 32.5v102h-398v77h732v-77h-249v-178h-68q-102 -1 -161.5 -47z" />
    <glyph glyph-name="dvTTHA" unicode="&#x920;" horiz-adv-x="669" 
d="M577.5 170q-34.5 -58 -96 -90t-138.5 -32t-138 32t-95.5 90t-34.5 134q0 68 28.5 122.5t79.5 88.5t117 42v106h-336v77h741v-77h-319v-106q66 -8 117 -41.5t80 -88t29 -123.5q0 -76 -34.5 -134zM210.5 173q50.5 -50 132.5 -50t132.5 50t50.5 131t-50.5 131t-132.5 50
t-132.5 -50t-50.5 -131t50.5 -131z" />
    <glyph glyph-name="dvDDA" unicode="&#x921;" horiz-adv-x="582" 
d="M212 465.5q-35 -16.5 -35 -63.5q0 -49 32.5 -65.5t95.5 -16.5q102 0 164 -33.5t62 -129.5q0 -49 -25.5 -87t-73.5 -60t-112 -22q-110 0 -176 55t-68 154h85q4 -64 42.5 -99.5t114.5 -35.5q60 0 94 24.5t34 74.5q0 54 -36 70.5t-101 16.5q-102 0 -160.5 34t-58.5 123
q0 82 58.5 117t148.5 35h87v106h-420v77h654v-77h-148v-181h-162q-61 0 -96 -16.5z" />
    <glyph glyph-name="dvDDHA" unicode="&#x922;" horiz-adv-x="635" 
d="M223 441.5q-66 -53.5 -66 -159.5q0 -94 59.5 -146t156.5 -52q69 0 105.5 31.5t36.5 85.5q0 42 -21.5 69t-68.5 27q-46 0 -67 -28.5t-21 -75.5h-79q-1 79 41 127.5t124 48.5q78 0 126.5 -45t48.5 -122q0 -90 -63 -142.5t-164 -52.5q-85 0 -153 33t-107 95.5t-39 147.5
q0 95 41.5 159t113 95.5t162.5 32.5v93h-425v77h707v-77h-196v-168h-73q-113 0 -179 -53.5z" />
    <glyph glyph-name="dvNNA" unicode="&#x923;" horiz-adv-x="859" 
d="M895 740v-77h-131v-663h-86v663h-177v-255q0 -240 -201 -240q-107 0 -154.5 62.5t-47.5 177.5v255h-134v77h931zM416 663h-233v-257q0 -80 25 -120.5t92 -40.5t91.5 40.5t24.5 120.5v257z" />
    <glyph glyph-name="dvTA" unicode="&#x924;" horiz-adv-x="673" 
d="M328 -2q-132 0 -198.5 66.5t-66.5 183.5q0 128 77 188.5t209 60.5h144v166h-529v77h745v-77h-130v-663h-86v421h-144q-92 0 -145.5 -41.5t-53.5 -131.5q0 -88 45 -132.5t146 -44.5v-73h-13z" />
    <glyph glyph-name="dvTHA" unicode="&#x925;" horiz-adv-x="759" 
d="M664 0h-86v198q-23 -42 -76.5 -72.5t-133.5 -30.5q-87 0 -149 37t-94.5 103.5t-32.5 152.5q0 34 4 62l95 -2q104 0 153.5 24.5t49.5 96.5q0 49 -26.5 76.5t-73.5 27.5q-52 0 -78.5 -33.5t-24.5 -90.5h-82q-3 90 48 145t138 55q81 0 132.5 -50t51.5 -133
q0 -108 -79.5 -148.5t-216.5 -37.5q-5 -94 45 -151.5t151 -57.5q54 0 98.5 24t71.5 67.5t29 99.5v378h217v-77h-131v-663z" />
    <glyph glyph-name="dvDA" unicode="&#x926;" horiz-adv-x="596" 
d="M436 146q-18 -24 -54.5 -38t-80.5 -14q-70 0 -124 27.5t-84.5 79.5t-30.5 122q0 122 79.5 180t216.5 58h40v102h-434v77h668v-77h-148v-180h-114q-107 0 -164 -35t-57 -127q0 -75 43.5 -113t120.5 -38q58 0 94.5 29.5t36.5 94.5h78v-294h-86v146z" />
    <glyph glyph-name="dvDHA" unicode="&#x927;" horiz-adv-x="719" 
d="M755 663h-130v-663h-86v195q-31 -44 -87.5 -68t-126.5 -24q-59 0 -110.5 20.5t-83 61t-31.5 97.5q0 53 28 89t77 54v6q-47 18 -77.5 58.5t-30.5 96.5q0 72 47.5 118t122.5 46q82 0 126.5 -51t39.5 -133h-76q2 49 -20 78t-68 29q-41 0 -65.5 -24t-24.5 -66q0 -61 43 -90.5
t113 -29.5h51v-74h-46q-68 0 -111 -24.5t-43 -78.5t45.5 -80.5t109.5 -26.5q54 0 99 21.5t72 61.5t27 93v385h216v-77z" />
    <glyph glyph-name="dvNA" unicode="&#x928;" horiz-adv-x="782" 
d="M395 413q30 -18 46.5 -52.5t16.5 -77.5q0 -53 -24 -94.5t-67.5 -65t-101.5 -23.5t-105 23.5t-74 67.5t-27 103q0 91 59 142t169 51h315v176h-638v77h854v-77h-130v-663h-86v413h-207zM176.5 206q35.5 -30 88.5 -30q48 0 81 31t33 87q0 53 -31.5 85t-86.5 32
q-51 0 -85.5 -31t-34.5 -86q0 -58 35.5 -88z" />
    <glyph glyph-name="dvPA" unicode="&#x92a;" horiz-adv-x="654" 
d="M689 740v-77h-130v-663h-86v284q-50 -84 -169 -84q-103 0 -158.5 69.5t-55.5 180.5v213h-126v77h725zM432 323q41 46 41 117v223h-297v-211q0 -175 149 -175q66 0 107 46z" />
    <glyph glyph-name="dvPHA" unicode="&#x92b;" horiz-adv-x="990" 
d="M544 663v-206q25 39 67.5 61t102.5 22q64 0 113 -28t75.5 -78.5t26.5 -115.5t-29 -114.5t-82 -76t-123 -26.5q-18 0 -28 1l-1 74q8 -1 23 -1q71 0 113 37.5t42 104.5q0 70 -38 108t-108 38q-72 0 -113 -47.5t-41 -122.5v-293h-86v312q-22 -36 -61.5 -57.5t-94.5 -21.5
q-101 0 -153.5 68.5t-52.5 180.5v181h-132v77h1062v-77h-482zM422 359q36 49 36 122v182h-276v-181q0 -85 32 -128.5t109 -43.5q63 0 99 49z" />
    <glyph glyph-name="dvBA" unicode="&#x92c;" horiz-adv-x="672" 
d="M708 740v-77h-131v-663h-84v177q-28 -43 -75.5 -67t-110.5 -24q-71 0 -128.5 31t-90 87t-32.5 127q0 72 32.5 128t90 87t128.5 31q62 0 110 -25t76 -68v179h-529v77h744zM202 468l276 -215q17 36 17 78q0 50 -22 89.5t-62 61.5t-90 22q-72 0 -119 -36zM188.5 204.5
q50.5 -46.5 132.5 -46.5q71 0 121 45l-281 220q-23 -40 -23 -92q0 -80 50.5 -126.5z" />
    <glyph glyph-name="dvBHA" unicode="&#x92d;" horiz-adv-x="802" 
d="M838 663h-130v-663h-86v378h-162v-59q0 -220 -181 -220q-52 0 -95 22.5t-68 63t-25 92.5q0 89 58.5 132t174.5 43h53v83q0 64 -19 99t-69 35t-68.5 -35.5t-18.5 -102.5h-84q-2 215 171 215q88 0 129.5 -55.5t41.5 -156.5v-82h162v288h216v-77zM377 378h-58
q-70 0 -107.5 -23t-37.5 -81q0 -44 29 -71.5t74 -27.5q57 0 78.5 35.5t21.5 107.5v60z" />
    <glyph glyph-name="dvMA" unicode="&#x92e;" horiz-adv-x="783" 
d="M819 663h-130v-663h-86v380h-183v-59q0 -220 -181 -220q-52 0 -95 22.5t-68 63.5t-25 92q0 90 59 132.5t175 42.5h52v209h-373v77h855v-77zM603 663h-183v-209h183v209zM337 380h-58q-70 0 -107.5 -22.5t-37.5 -80.5q0 -44 29.5 -72t74.5 -28q57 0 78 35.5t21 107.5v60z
" />
    <glyph glyph-name="dvYA" unicode="&#x92f;" horiz-adv-x="726" 
d="M762 740v-77h-130v-663h-86v216q-27 -50 -79 -80t-124 -30q-133 0 -204 83.5t-71 228.5l1 29q92 0 132 18t49.5 53.5t9.5 113.5v31h-296v77h798zM494.5 243.5q51.5 60.5 51.5 157.5v262h-201v-33q0 -85 -13 -134t-53 -77t-120 -33q-1 -92 50.5 -147.5t145.5 -55.5
q88 0 139.5 60.5z" />
    <glyph glyph-name="dvRA" unicode="&#x930;" horiz-adv-x="524" 
d="M424.5 438.5q-22.5 -57.5 -80 -79t-175.5 -22.5v-124q0 -64 26.5 -101t83.5 -37q56 0 82.5 36t26.5 99h86q0 -98 -51 -155t-144 -57q-95 0 -146 58t-51 156v198h39q121 0 165.5 10.5t59.5 50t15 145.5v47h-397v77h596v-77h-113v-50q0 -117 -22.5 -174.5z" />
    <glyph glyph-name="dvRxA" unicode="&#x931;" horiz-adv-x="524" 
d="M424.5 438.5q-22.5 -57.5 -80 -79t-175.5 -22.5v-124q0 -64 26.5 -101t83.5 -37q56 0 82.5 36t26.5 99h86q0 -98 -51 -155t-144 -57q-95 0 -146 58t-51 156v198h39q121 0 165.5 10.5t59.5 50t15 145.5v47h-397v77h596v-77h-113v-50q0 -117 -22.5 -174.5zM10 0.5
q17 17.5 41 17.5t41.5 -17.5t17.5 -41.5t-17.5 -41.5t-41.5 -17.5t-41 17.5t-17 41.5t17 41.5z" />
    <glyph glyph-name="dvLA" unicode="&#x932;" horiz-adv-x="907" 
d="M291 434q-123 0 -123 -162q0 -82 42 -129t124 -47q14 0 21 1v-78q-11 -1 -32 -1q-74 0 -128.5 31t-83.5 88.5t-29 133.5q0 114 51 177.5t153 63.5q65 0 110.5 -31.5t63.5 -89.5q14 48 48.5 77.5t84.5 36.5v158h-629v77h979v-77h-265v-155q79 -14 119 -76t40 -161
q0 -76 -29 -133.5t-83.5 -88.5t-128.5 -31q-21 0 -32 1v78q7 -1 21 -1q82 0 124 47t42 129q0 162 -122 162q-137 0 -128 -208h-82q9 208 -128 208z" />
    <glyph glyph-name="dvLLA" unicode="&#x933;" horiz-adv-x="939" 
d="M698 663v-147q61 -5 109 -35t75 -80t27 -113q0 -67 -30 -119t-83.5 -81t-119.5 -29q-65 0 -118 31.5t-79 88.5q-26 -58 -78.5 -89t-116.5 -31q-67 0 -120.5 29t-83.5 81t-30 119t30.5 119t84 81t119.5 29q65 0 117 -31t78 -90q19 44 54 72.5t80 40.5v154h-649v77h1011
v-77h-277zM396 179q40 42 40 109t-40 109t-108 42t-110.5 -41.5t-42.5 -109.5q0 -67 42.5 -109t110.5 -42t108 42zM781.5 397.5q-42.5 41.5 -110.5 41.5q-66 0 -107 -42t-41 -109t41 -109t107 -42q70 0 111.5 41.5t41.5 109.5t-42.5 109.5z" />
    <glyph glyph-name="dvVA" unicode="&#x935;" horiz-adv-x="648" 
d="M684 740v-77h-131v-663h-84v182q-27 -41 -73.5 -64.5t-109.5 -23.5q-67 0 -119.5 30.5t-82.5 84.5t-30 122t30 122.5t82.5 85t119.5 30.5q63 0 109.5 -23.5t73.5 -64.5v182h-505v77h720zM424 213.5q45 43.5 45 117.5v1q0 74 -45 117.5t-120 43.5t-120 -43.5t-45 -118.5
q0 -74 45 -117.5t120 -43.5t120 43.5z" />
    <glyph glyph-name="dvSHA" unicode="&#x936;" horiz-adv-x="812" 
d="M225.5 107.5q30.5 -32.5 86.5 -32.5q63 0 89.5 37.5t27.5 109.5h86q-2 -103 -50 -163.5t-152 -60.5q-94 0 -149.5 53.5t-55.5 150.5v202q31 -1 112 -1q71 0 118 10t75.5 42t28.5 93q0 59 -32 92t-89 33q-67 0 -98 -44t-29 -114h-85q-3 64 20 117.5t72 85t119 31.5
q62 0 109 -25.5t73 -71t26 -103.5q0 -119 -71.5 -168.5t-199.5 -51.5q-20 0 -62 2v-130q0 -61 30.5 -93.5zM717 0h-86v740h217v-77h-131v-663z" />
    <glyph glyph-name="dvSSA" unicode="&#x937;" horiz-adv-x="655" 
d="M691 740v-77h-131v-663h-86v279q-50 -83 -170 -83q-103 0 -158.5 68t-55.5 178v221h-126v77h727zM176 663v-5l297 -236q1 4 1 13v228h-298zM404.5 294.5q34.5 22.5 52.5 61.5l-281 224v-132q0 -83 36.5 -129.5t113.5 -46.5q44 0 78.5 22.5z" />
    <glyph glyph-name="dvSA" unicode="&#x938;" horiz-adv-x="799" 
d="M834 663h-130v-663h-86v352h-448v-141q0 -136 107 -136q59 0 83 38.5t24 113.5h85q2 -108 -46 -168.5t-145 -60.5q-95 0 -145 58t-50 156v208l48 -1q36 0 64 3l1 2h18q53 8 79 31t35 65.5t9 118.5v24h-373v77h870v-77zM618 663h-195v-25q0 -81 -11.5 -132.5t-38.5 -81.5
h245v239z" />
    <glyph glyph-name="dvHA" unicode="&#x939;" horiz-adv-x="610" 
d="M224.5 463.5q-32.5 -19.5 -32.5 -59.5q0 -28 17.5 -47t45.5 -30q28 7 65 7q62 0 111 -22t78 -59.5t32 -82.5h-85q-10 41 -43.5 64.5t-92.5 23.5q-66 0 -105 -37.5t-39 -98.5t39.5 -99.5t104.5 -38.5q59 0 92.5 23.5t43.5 64.5h85q-3 -45 -32 -82.5t-78 -59.5t-111 -22
q-68 0 -120.5 27t-81 75.5t-28.5 111.5q0 55 22 98.5t62 71.5q-33 20 -51 50t-18 67q0 72 52.5 110.5t144.5 38.5h96v105h-434v77h682v-77h-162v-180h-174q-53 0 -85.5 -19.5z" />
    <glyph glyph-name="dvNukta" unicode="&#x93c;" horiz-adv-x="0" 
d="M-397 -53.5q17 17.5 41 17.5t41.5 -17.5t17.5 -41.5t-17.5 -41.5t-41.5 -17.5t-41 17.5t-17 41.5t17 41.5z" />
    <glyph glyph-name="dvAvagraha" unicode="&#x93d;" horiz-adv-x="601" 
d="M439.5 84q-38.5 -23 -133.5 -23h-253v77h244q50 0 71 7t21 33q0 22 -19 54t-60 88q-55 75 -85 129t-30 101q0 64 46 93t121 29h185v-77h-145q-59 0 -89 -13t-30 -51q0 -23 19.5 -55t60.5 -89q56 -77 85.5 -129t29.5 -98q0 -53 -38.5 -76z" />
    <glyph glyph-name="dvmAA" unicode="&#x93e;" 
d="M181 0h-86v663h-131v77h347v-77h-130v-663z" />
    <glyph glyph-name="dvmI" unicode="&#x93f;" 
d="M760 946q107 -52 107 -190v-54h-85v44q0 76 -42 114.5t-105.5 50t-152.5 11.5t-152.5 -11.5t-105.5 -50t-42 -114.5v-6h129v-77h-130v-663h-86v663h-131v77h133v16q0 138 107 190t278 52t278 -52z" />
    <glyph glyph-name="dvmII" unicode="&#x940;" 
d="M311 740v-77h-130v-663h-86v663h-131v77h135v29q0 80 -21.5 116.5t-79.5 36.5t-79.5 -37t-21.5 -116v-67h-82v76q0 104 41.5 162t141.5 58q101 0 142 -58t41 -162v-38h130z" />
    <glyph glyph-name="dvmU" unicode="&#x941;" horiz-adv-x="0" 
d="M-92.5 -40.5q27.5 -21.5 27.5 -68.5t-29.5 -70.5t-85.5 -23.5q-69 0 -110 33t-42 104h-82q1 -95 61 -153t174 -58q93 0 144 45t51 125q0 76 -48 119.5t-144 41.5v-71q56 -2 83.5 -23.5z" />
    <glyph glyph-name="dvmUU" unicode="&#x942;" horiz-adv-x="0" 
d="M-142 -205q-42 0 -66 23t-24 66q0 45 31 70.5t81 25.5q170 0 167 -243h79q1 144 -59 229.5t-187 85.5q-50 0 -93.5 -18.5t-70.5 -56t-27 -93.5q0 -77 45.5 -119t120.5 -42q10 0 30 2v72q-18 -2 -27 -2z" />
    <glyph glyph-name="dvmvR" unicode="&#x943;" horiz-adv-x="0" 
d="M-113 0q-53 0 -80 -25.5t-27 -73.5q0 -45 25 -72t78 -27q37 0 65 13v-72q-13 -5 -33 -9t-38 -4q-84 0 -131 47.5t-47 121.5q0 79 48.5 124t136.5 45h19v-68h-16z" />
    <glyph glyph-name="dvmvRR" unicode="&#x944;" horiz-adv-x="0" 
d="M-265 -404.5q-51 34.5 -51 103.5q0 40 19.5 68t53.5 44q-34 16 -54.5 45.5t-20.5 68.5q0 71 54 105t131 34h31v-64h-25q-51 0 -80.5 -16t-29.5 -59t31 -59t86 -16h26v-70h-35q-50 0 -78.5 -17t-28.5 -59q0 -73 108 -73h34v-70h-38q-82 0 -133 34.5z" />
    <glyph glyph-name="dvmEcandra" unicode="&#x945;" horiz-adv-x="0" 
d="M-284 866.5q-47 49.5 -47 128.5h76q0 -46 29 -77.5t87 -31.5t87 31.5t29 77.5h76q0 -79 -47 -128.5t-145 -49.5t-145 49.5z" />
    <glyph glyph-name="dvmE" unicode="&#x947;" horiz-adv-x="0" 
d="M-272.5 851.5q-29.5 32.5 -64 42.5t-107.5 10h-36v74h31q88 0 135.5 -13.5t96 -64.5t120.5 -168h-87q-59 87 -88.5 119.5z" />
    <glyph glyph-name="dvmAI" unicode="&#x948;" horiz-adv-x="0" 
d="M-302 985.5q47 -16.5 93 -73t112 -183.5h-85q-36 39 -68 55.5t-67.5 20.5t-106.5 4h-36v69h31q63 0 96.5 -3.5t65.5 -19t69 -50.5q-36 55 -66.5 82t-67.5 36.5t-97 9.5h-37v69h32q85 0 132 -16.5z" />
    <glyph glyph-name="dvmOcandra" unicode="&#x949;" horiz-adv-x="269" 
d="M181 0h-86v663h-131v77h347v-77h-130v-663zM-10 866.5q-47 49.5 -47 128.5h76q0 -46 29 -77.5t87 -31.5t87 31.5t29 77.5h76q0 -79 -47 -128.5t-145 -49.5t-145 49.5z" />
    <glyph glyph-name="dvmO" unicode="&#x94b;" 
d="M311 740v-77h-130v-663h-86v663h-131v77h120q-57 83 -86 113.5t-63 40.5t-106 10h-36v74h31q87 0 134 -13t95 -62.5t118 -162.5h140z" />
    <glyph glyph-name="dvmAU" unicode="&#x94c;" horiz-adv-x="264" 
d="M311 740v-77h-130v-663h-86v663h-131v77h120q-33 33 -64 47.5t-65 18t-102 3.5h-36v69h31q63 0 96.5 -3.5t65.5 -19t69 -50.5q-36 55 -66.5 82t-67.5 36.5t-97 9.5h-37v69h32q84 0 130.5 -16t91.5 -70.5t109 -175.5h137z" />
    <glyph glyph-name="dvVirama" unicode="&#x94d;" horiz-adv-x="0" 
d="M-176 -60h84l115 -166h-94z" />
    <glyph glyph-name="dvOm" unicode="&#x950;" horiz-adv-x="1075" 
d="M528.5 913q-15.5 15 -15.5 37t15.5 37.5t37.5 15.5t37.5 -15.5t15.5 -37.5t-15.5 -37t-37.5 -15t-37.5 15zM421.5 794q-47.5 50 -47.5 128h75q0 -46 29.5 -78t87.5 -32t87.5 32t29.5 78h75q0 -79 -47.5 -128.5t-144.5 -49.5t-144.5 50zM935 628.5q45 -61.5 45 -184.5
v-112q0 -151 -60.5 -225t-204.5 -74q-44 0 -116 10v75q59 -8 101 -8q71 0 114 22t63 72t20 135v113q0 61 -9 96t-33 52t-68 17q-61 0 -85 -38.5t-24 -126.5q0 -87 -47.5 -118t-136.5 -31q18 -39 18 -82q0 -97 -57 -153t-153 -56q-63 0 -112.5 26.5t-77 74.5t-27.5 111h81
q0 -62 37.5 -100.5t99.5 -38.5t95.5 36t33.5 100q0 61 -38 96t-102 35h-37v77h32q57 0 95 32.5t38 86.5q0 56 -32.5 89t-90.5 33q-57 0 -90 -33t-34 -89h-80q0 59 26 103t72.5 68t106.5 24q91 0 147 -52.5t56 -139.5q0 -55 -27.5 -96.5t-78.5 -58.5v-5q21 -6 36 -16h55
q42 0 65.5 6t34.5 23t11 51q0 116 43.5 175.5t145.5 59.5q104 0 149 -61.5z" />
    <glyph glyph-name="dvKxA" unicode="&#x958;" horiz-adv-x="1011" 
d="M560 663v-179q23 38 63.5 59.5t96.5 21.5q67 0 117 -30t76.5 -83t26.5 -120q0 -69 -30 -119.5t-84 -77.5t-123 -27q-27 0 -41 2l-1 74q10 -1 29 -1q75 0 119.5 38.5t44.5 110.5q0 73 -39 114.5t-113 41.5q-70 0 -106 -45.5t-36 -127.5v-315h-84v183q-25 -38 -67.5 -59.5
t-100.5 -21.5q-66 0 -116.5 29.5t-78.5 81.5t-28 119t27.5 120t78 82.5t117.5 29.5q59 0 101 -22t67 -60v181h-512v77h1083v-77h-487zM437 219.5q39 41.5 39 112.5q0 73 -40.5 114t-111.5 41q-73 0 -113 -40.5t-40 -114.5q0 -73 40.5 -113.5t114.5 -40.5q72 0 111 41.5z
M291 19.5q17 17.5 41 17.5t41.5 -17.5t17.5 -41.5t-17.5 -41.5t-41.5 -17.5t-41 17.5t-17 41.5t17 41.5z" />
    <glyph glyph-name="dvKHxA" unicode="&#x959;" horiz-adv-x="916" 
d="M952 740v-77h-131v-663h-84v203q-23 -30 -60 -47t-87 -17q-11 0 -31 2q-22 -69 -84 -106t-148 -37q-113 0 -179 64t-66 176v169h34q71 1 100.5 11.5t40 46t10.5 119.5v79h-303v77h988zM427.5 99.5q39.5 24.5 53.5 69.5q-43 27 -66.5 72t-23.5 103q0 59 25.5 105.5
t70.5 72.5t103 26q102 0 147 -60v175h-385v-80q0 -95 -16 -146t-55 -72.5t-113 -23.5v-105q0 -81 39 -121t120 -40q61 0 100.5 24.5zM701.5 248.5q35.5 35.5 35.5 95.5t-35 95t-95 35t-96.5 -35t-36.5 -95t36.5 -95.5t96.5 -35.5q59 0 94.5 35.5zM283 -86.5q17 17.5 41 17.5
t41.5 -17.5t17.5 -41.5t-17.5 -41.5t-41.5 -17.5t-41 17.5t-17 41.5t17 41.5z" />
    <glyph glyph-name="dvGxA" unicode="&#x95a;" horiz-adv-x="714" 
d="M750 740v-77h-131v-663h-86v663h-202v-242q0 -100 -34.5 -149.5t-117.5 -49.5q-81 0 -119 51t-35 145h85q0 -59 13 -89t57 -30q31 0 45.5 15.5t18.5 40t4 65.5v243h-284v77h786zM144 86.5q17 17.5 41 17.5t41.5 -17.5t17.5 -41.5t-17.5 -41.5t-41.5 -17.5t-41 17.5
t-17 41.5t17 41.5z" />
    <glyph glyph-name="dvJxA" unicode="&#x95b;" horiz-adv-x="827" 
d="M863 740v-77h-131v-663h-86v440h-181v-74q0 -125 -41.5 -193.5t-155.5 -68.5q-116 0 -158 69.5t-42 192.5v148h86v-125q0 -74 6 -115.5t30.5 -67t77.5 -25.5q52 0 76 25.5t30 66.5t6 116v125h266v149h-682v77h899zM223 4.5q17 17.5 41 17.5t41.5 -17.5t17.5 -41.5
t-17.5 -41.5t-41.5 -17.5t-41 17.5t-17 41.5t17 41.5z" />
    <glyph glyph-name="dvDDxA" unicode="&#x95c;" horiz-adv-x="582" 
d="M212 465.5q-35 -16.5 -35 -63.5q0 -49 32.5 -65.5t95.5 -16.5q102 0 164 -33.5t62 -129.5q0 -49 -25.5 -87t-73.5 -60t-112 -22q-110 0 -176 55t-68 154h85q4 -64 42.5 -99.5t114.5 -35.5q60 0 94 24.5t34 74.5q0 54 -36 70.5t-101 16.5q-102 0 -160.5 34t-58.5 123
q0 82 58.5 117t148.5 35h87v106h-420v77h654v-77h-148v-181h-162q-61 0 -96 -16.5zM284 -83.5q17 17.5 41 17.5t41.5 -17.5t17.5 -41.5t-17.5 -41.5t-41.5 -17.5t-41 17.5t-17 41.5t17 41.5z" />
    <glyph glyph-name="dvDDHxA" unicode="&#x95d;" horiz-adv-x="635" 
d="M223 441.5q-66 -53.5 -66 -159.5q0 -94 59.5 -146t156.5 -52q69 0 105.5 31.5t36.5 85.5q0 42 -21.5 69t-68.5 27q-46 0 -67 -28.5t-21 -75.5h-79q-1 79 41 127.5t124 48.5q78 0 126.5 -45t48.5 -122q0 -90 -63 -142.5t-164 -52.5q-85 0 -153 33t-107 95.5t-39 147.5
q0 95 41.5 159t113 95.5t162.5 32.5v93h-425v77h707v-77h-196v-168h-73q-113 0 -179 -53.5zM340 -71.5q17 17.5 41 17.5t41.5 -17.5t17.5 -41.5t-17.5 -41.5t-41.5 -17.5t-41 17.5t-17 41.5t17 41.5z" />
    <glyph glyph-name="dvPHxA" unicode="&#x95e;" horiz-adv-x="990" 
d="M544 663v-206q25 39 67.5 61t102.5 22q64 0 113 -28t75.5 -78.5t26.5 -115.5t-29 -114.5t-82 -76t-123 -26.5q-18 0 -28 1l-1 74q8 -1 23 -1q71 0 113 37.5t42 104.5q0 70 -38 108t-108 38q-72 0 -113 -47.5t-41 -122.5v-293h-86v312q-22 -36 -61.5 -57.5t-94.5 -21.5
q-101 0 -153.5 68.5t-52.5 180.5v181h-132v77h1062v-77h-482zM422 359q36 49 36 122v182h-276v-181q0 -85 32 -128.5t109 -43.5q63 0 99 49zM226 99.5q17 17.5 41 17.5t41.5 -17.5t17.5 -41.5t-17.5 -41.5t-41.5 -17.5t-41 17.5t-17 41.5t17 41.5z" />
    <glyph glyph-name="dvvRR" unicode="&#x960;" horiz-adv-x="982" 
d="M571 663v-193h179q37 0 48 14.5t11 54.5v35h82v-365h-24q-52 0 -83 -14t-31 -56q0 -41 32 -54t85 -13h26v-70h-29q-50 0 -81.5 -19.5t-31.5 -63.5q0 -38 27.5 -57.5t75.5 -19.5q29 0 64 7v-68q-38 -8 -70 -8q-82 0 -129.5 38t-47.5 103q0 41 20 72t53 47q-33 13 -54 42
t-21 67q0 59 39.5 90t97.5 37v135q-24 -7 -59 -7h-179v-397h-86v269l-262 -269h-110v5q54 52 171 165.5t195 189.5q-13 59 -54 93t-104 34q-79 0 -125.5 -49.5t-46.5 -132.5h-85q0 77 30 135.5t85 91t128 32.5q61 0 106 -23.5t72 -64.5v187h-521v77h1052v-77h-445z" />
    <glyph glyph-name="dvvLL" unicode="&#x961;" horiz-adv-x="907" 
d="M815 211q-52 0 -83.5 -14t-31.5 -56q0 -41 32.5 -54t85.5 -13h26v-70h-29q-50 0 -81.5 -19.5t-31.5 -63.5q0 -38 28 -57.5t77 -19.5q29 0 61 8v-69q-32 -7 -69 -7q-82 0 -130 38t-48 102q0 41 20.5 72t53.5 47q-33 13 -54 42t-21 67q0 59 38 89.5t94 34.5q0 166 -123 166
q-75 0 -103.5 -56t-24.5 -152h-82q9 208 -128 208q-123 0 -123 -162q0 -82 42 -129t124 -47q14 0 21 1v-78q-11 -1 -32 -1q-74 0 -128.5 31t-83.5 88.5t-29 133.5q0 114 51 177.5t153 63.5q65 0 110.5 -31.5t63.5 -89.5q14 48 48.5 77.5t84.5 36.5v158h-629v77h979v-77h-265
v-155q75 -13 117 -72t42 -158q0 -32 -5 -67h-17z" />
    <glyph glyph-name="dvmvL" unicode="&#x962;" horiz-adv-x="0" 
d="M623 -20.5q33 -42.5 33 -111.5q0 -16 -4 -44h-7q-71 0 -71 -57q0 -53 71 -53q24 0 38 4v-61q-14 -5 -44 -5q-60 0 -98.5 28t-38.5 83q0 40 23.5 67t61.5 34l1 16q0 75 -67 75q-42 0 -58 -31.5t-14 -89.5h-73q2 57 -13.5 88.5t-57.5 31.5q-34 0 -51.5 -24t-17.5 -68
q0 -52 28.5 -77t83.5 -22v-66q-6 -1 -19 -1q-75 0 -121 46t-46 119q0 74 36 117.5t102 43.5q43 0 72 -21.5t41 -58.5q9 36 39 58t75 22q63 0 96 -42.5z" />
    <glyph glyph-name="dvmvLL" unicode="&#x963;" horiz-adv-x="0" 
d="M591.5 -180.5q-16.5 -5.5 -16.5 -24.5q0 -20 14.5 -24.5t52.5 -6.5h13v-46h-10q-36 0 -53 -6t-17 -26q0 -31 53 -31q21 0 44 7v-50q-23 -7 -50 -7q-51 0 -79.5 19t-28.5 57q0 44 40 62q-39 16 -39 58q0 30 22 46.5t53 18.5q3 37 -11.5 64t-57.5 27q-42 0 -58 -32.5
t-14 -90.5h-73q2 57 -13.5 88.5t-57.5 31.5q-34 0 -51.5 -24t-17.5 -68q0 -52 28.5 -77t83.5 -22v-66q-6 -1 -19 -1q-75 0 -121 46t-46 119q0 74 36 117.5t102 43.5q43 0 72 -21.5t41 -58.5q9 36 39 58t75 22q63 0 95.5 -42.5t32.5 -111.5q0 -23 -4 -43h-7q-36 0 -52.5 -5.5
z" />
    <glyph glyph-name="danda" unicode="&#x964;" horiz-adv-x="256" 
d="M234 0h-86v741h86v-741z" />
    <glyph glyph-name="doubledanda" unicode="&#x965;" horiz-adv-x="468" 
d="M234 0h-86v741h86v-741zM446 0h-86v741h86v-741z" />
    <glyph glyph-name="dvZero" unicode="&#x966;" horiz-adv-x="636" 
d="M121 98q55 -97 196 -97t196 97t55 268q0 172 -55 268.5t-196 96.5t-196 -97t-55 -268t55 -268zM468.5 219.5q-11.5 -60.5 -47 -99t-104.5 -38.5t-104.5 38.5t-46.5 98.5t-11 147t11 147.5t46.5 98.5t104.5 38t104.5 -38t47 -98.5t11.5 -147.5q0 -86 -11.5 -146.5z" />
    <glyph glyph-name="dvOne" unicode="&#x967;" horiz-adv-x="321" 
d="M52 629v81h171v-710h-89v629h-82z" />
    <glyph glyph-name="dvTwo" unicode="&#x968;" horiz-adv-x="579" 
d="M128 137q101 87 159.5 143t97.5 117.5t39 120.5q0 63 -32.5 101t-103.5 38q-68 0 -105 -42.5t-40 -112.5h-87q4 112 67.5 172.5t163.5 60.5q103 0 164.5 -57.5t61.5 -156.5q0 -72 -39.5 -140.5t-94 -124t-135.5 -126.5q-54 -47 -49 -43h340v-77h-479v65q48 42 72 62z" />
    <glyph glyph-name="dvThree" unicode="&#x969;" horiz-adv-x="589" 
d="M413.5 721.5q49.5 -24.5 75.5 -67t26 -96.5q0 -59 -33 -103.5t-85 -60.5v-5q61 -17 96 -66t35 -125q0 -57 -26.5 -103t-78.5 -72.5t-125 -26.5q-104 0 -172 54t-75 153h86q5 -57 47.5 -93.5t112.5 -36.5q71 0 108.5 37.5t37.5 96.5q0 79 -50 112t-153 33h-24v76h25
q188 2 188 121q0 55 -35.5 87t-102.5 32q-61 0 -98 -29.5t-45 -78.5h-88q8 87 72.5 136.5t161.5 49.5q70 0 119.5 -24.5z" />
    <glyph glyph-name="dvFour" unicode="&#x96a;" horiz-adv-x="634" 
d="M45 162v64l344 494h116v-480h97v-78h-97v-162h-88v162h-372zM420 636l-269 -396h269v396z" />
    <glyph glyph-name="dvFive" unicode="&#x96b;" horiz-adv-x="634" 
d="M523 652h-349v-229q22 33 67 55t97 22q83 0 135.5 -35.5t75 -91t22.5 -117.5q0 -113 -63 -184.5t-184 -71.5q-106 0 -170.5 53t-80.5 140h87q14 -54 57.5 -85t106.5 -31q80 0 120.5 48t40.5 128q0 82 -40.5 125.5t-120.5 43.5q-54 0 -93 -28t-58 -76h-83v413h433v-79z
" />
    <glyph glyph-name="dvSix" unicode="&#x96c;" horiz-adv-x="644" 
d="M426 645q-32 25 -91 25q-60 0 -98.5 -28t-58.5 -91.5t-22 -170.5q27 49 80 76.5t118 27.5q66 0 116.5 -29t79 -83t28.5 -129q0 -69 -26.5 -124t-79.5 -87t-130 -32q-105 0 -162.5 48t-78.5 131t-21 206q0 172 62 267t193 95q65 0 112 -24.5t73.5 -65t32.5 -89.5h-82
q-13 52 -45 77zM212 123q43 -46 126 -46q71 0 112.5 43.5t41.5 117.5q0 79 -39.5 123.5t-117.5 44.5q-43 0 -81 -17.5t-61.5 -53t-23.5 -88.5q0 -78 43 -124z" />
    <glyph glyph-name="dvSeven" unicode="&#x96d;" horiz-adv-x="560" 
d="M522 660l-286 -660h-100l299 651h-395v77h482v-68z" />
    <glyph glyph-name="dvEight" unicode="&#x96e;" horiz-adv-x="635" 
d="M109 655.5q27 44.5 80 70.5t128 26q76 0 129 -26t79.5 -71t26.5 -100q0 -58 -30 -101.5t-78 -64.5q57 -19 92 -68.5t35 -118.5q0 -67 -32 -117.5t-89.5 -77.5t-132.5 -27t-132.5 27t-89.5 77.5t-32 117.5q0 69 35 118.5t93 68.5q-51 24 -80 66t-29 101q0 55 27 99.5z
M209.5 456.5q41.5 -35.5 107.5 -35.5t107.5 35.5t41.5 89.5q0 62 -39.5 95.5t-109.5 33.5q-69 0 -109 -33.5t-40 -95.5q0 -54 41.5 -89.5zM194.5 97q45.5 -40 122.5 -40t122 40.5t45 106.5q0 72 -46 108.5t-121 36.5q-74 0 -121 -36.5t-47 -108.5q0 -67 45.5 -107z" />
    <glyph glyph-name="dvNine" unicode="&#x96f;" horiz-adv-x="635" 
d="M234.5 106q37.5 -28 99.5 -28q53 0 86.5 25.5t50.5 86.5t17 165q-26 -40 -72.5 -61t-100.5 -21q-64 0 -117 27.5t-84 80.5t-31 126q0 109 63 174.5t175 65.5q131 0 188 -89.5t57 -276.5q0 -130 -21.5 -213t-73.5 -125t-142 -42q-101 0 -158 53t-68 133h83
q11 -53 48.5 -81zM434.5 626.5q-40.5 43.5 -111.5 43.5t-112.5 -44t-41.5 -118q0 -69 40.5 -113t121.5 -44q68 0 106 42t38 112q0 78 -40.5 121.5z" />
    <glyph glyph-name="dvAbbreviationsign" unicode="&#x970;" horiz-adv-x="486" 
d="M394.5 170.5q-20.5 -34.5 -56 -54t-80.5 -19.5q-73 0 -118.5 45.5t-45.5 115.5q0 42 20.5 76.5t56.5 54.5t82 20q76 0 119 -44t43 -117q0 -43 -20.5 -77.5zM186 186.5q28 -26.5 73 -26.5q40 0 65.5 25.5t25.5 63.5q0 44 -25 70.5t-71 26.5q-41 0 -68.5 -25.5t-27.5 -63.5
q0 -44 28 -70.5z" />
    <glyph glyph-name="dvAcandra" unicode="&#x972;" horiz-adv-x="831" 
d="M867 740v-77h-131v-663h-86v326h-152q13 -34 13 -69q0 -93 -58 -148t-153 -55q-62 0 -110.5 24.5t-76 70.5t-27.5 108h81q0 -59 37 -94.5t97 -35.5t95 35.5t35 94.5t-36.5 89t-102.5 30h-37v77h32q57 0 94.5 28.5t37.5 81.5q0 52 -33.5 83t-88.5 31q-53 0 -87.5 -31.5
t-35.5 -82.5h-80q0 56 26.5 98.5t73 65.5t104.5 23t104 -22.5t72 -64.5t26 -97q0 -54 -27 -91.5t-78 -54.5v-5q20 -5 40 -17h215v342h217zM552 852.5q-47 49.5 -47 128.5h76q0 -46 29 -77.5t87 -31.5t87 31.5t29 77.5h76q0 -79 -47 -128.5t-145 -49.5t-145 49.5z" />
    <glyph glyph-name="zerowidthspace" unicode="&#x200b;" horiz-adv-x="0" 
 />
    <glyph glyph-name="zerowidthnonjoiner" unicode="&#x200c;" horiz-adv-x="0" 
d="M-23 811h47v-1041h-47v1041z" />
    <glyph glyph-name="zerowidthjoiner" unicode="&#x200d;" horiz-adv-x="0" 
d="M23 635v-865h-47v865l-69 -73l-33 33l93 93l-95 95l33 33l95 -95l96 95l32 -32l-96 -96l96 -95l-33 -33z" />
    <glyph glyph-name="endash" unicode="&#x2013;" horiz-adv-x="714" 
d="M620 405v-78h-526v78h526z" />
    <glyph glyph-name="emdash" unicode="&#x2014;" horiz-adv-x="921" 
d="M828 405v-78h-734v78h734z" />
    <glyph glyph-name="quoteleft" unicode="&#x2018;" horiz-adv-x="152" 
d="M24 670q0 59 25.5 86t75.5 27v-44q-24 0 -35.5 -12.5t-11.5 -39.5v-23h49v-86h-91q-12 53 -12 92z" />
    <glyph glyph-name="quoteright" unicode="&#x2019;" horiz-adv-x="152" 
d="M128 691q0 -59 -25.5 -86t-75.5 -27v44q24 0 35.5 12.5t11.5 39.5v23h-49v86h91q12 -52 12 -92z" />
    <glyph glyph-name="quotesinglbase" unicode="&#x201a;" horiz-adv-x="186" 
d="M145 -30q0 -113 -103 -113v44q25 0 36.5 12t11.5 38v23h-51v93h93q13 -53 13 -97z" />
    <glyph glyph-name="quotedblleft" unicode="&#x201c;" horiz-adv-x="287" 
d="M24 670q0 59 25.5 86t75.5 27v-44q-24 0 -35.5 -12.5t-11.5 -39.5v-23h49v-86h-91q-12 53 -12 92zM160 670q0 59 25 86t76 27v-44q-24 0 -35.5 -12.5t-11.5 -39.5v-23h49v-86h-92q-11 48 -11 92z" />
    <glyph glyph-name="quotedblright" unicode="&#x201d;" horiz-adv-x="287" 
d="M128 691q0 -59 -25.5 -86t-75.5 -27v44q24 0 35.5 12.5t11.5 39.5v23h-49v86h91q12 -52 12 -92zM263 691q0 -59 -25 -86t-76 -27v44q24 0 35.5 12.5t11.5 39.5v23h-49v86h92q11 -48 11 -92z" />
    <glyph glyph-name="quotedblbase" unicode="&#x201e;" horiz-adv-x="287" 
d="M128 -26q0 -59 -25.5 -86t-75.5 -27v44q24 0 35.5 12.5t11.5 39.5v23h-49v86h91q12 -52 12 -92zM263 -26q0 -59 -25 -86t-76 -27v44q24 0 35.5 12.5t11.5 39.5v23h-49v86h92q11 -48 11 -92z" />
    <glyph glyph-name="dagger" unicode="&#x2020;" horiz-adv-x="555" 
d="M506 476l-193 9l10 -745h-91l10 745l-193 -9v73l193 -10l-10 242h91l-10 -242l193 10v-73z" />
    <glyph glyph-name="daggerdbl" unicode="&#x2021;" horiz-adv-x="557" 
d="M314 485v-449l193 9v-72l-193 9l10 -242h-91l10 242l-193 -9v72l193 -9v449l-193 -9v73l193 -10l-10 242h91l-10 -242l193 10v-73z" />
    <glyph glyph-name="bullet" unicode="&#x2022;" horiz-adv-x="446" 
d="M135.5 420.5q35.5 35.5 86.5 35.5q52 0 88 -35.5t36 -87.5q0 -51 -36 -86.5t-88 -35.5q-51 0 -86.5 35.5t-35.5 86.5q0 52 35.5 87.5z" />
    <glyph glyph-name="ellipsis" unicode="&#x2026;" horiz-adv-x="601" 
d="M260 100q17 17 41 17t41 -17t17 -42q0 -24 -17 -41t-41 -17t-41 17t-17 41q0 25 17 42zM447 100q17 17 41 17t41 -17t17 -42q0 -24 -17 -41t-41 -17t-41 17t-17 41q0 25 17 42zM72 100q17 17 41 17t41 -17t17 -42q0 -24 -17 -41t-41 -17t-41 17t-17 41q0 25 17 42z" />
    <glyph glyph-name="perthousand" unicode="&#x2030;" horiz-adv-x="1014" 
d="M296 663q41 -40 41 -108q0 -67 -41 -107.5t-105 -40.5q-63 0 -104 40.5t-41 107.5q0 68 40.5 108t104.5 40t105 -40zM590 693l-405 -693h-91l405 693h91zM140 486.5q18 -22.5 51 -22.5t51 22.5t18 68.5q0 91 -69 91t-69 -91q0 -46 18 -68.5zM597.5 245.5
q41.5 -40.5 41.5 -107.5q0 -68 -41 -108t-105 -40t-104.5 40t-40.5 108q0 67 41 107.5t104 40.5t104.5 -40.5zM927 245.5q41 -40.5 41 -107.5q0 -68 -40.5 -108t-104.5 -40t-105 40t-41 108q0 67 41 107.5t105 40.5q63 0 104 -40.5zM442 69.5q18 -22.5 51 -22.5t51 22.5
t18 68.5t-18 68.5t-51 22.5t-51 -22.5t-18 -68.5t18 -68.5zM771.5 69.5q18.5 -22.5 50.5 -22.5q33 0 51 22.5t18 68.5t-18 68.5t-51 22.5q-32 0 -50.5 -22.5t-18.5 -68.5t18.5 -68.5z" />
    <glyph glyph-name="guilsinglleft" unicode="&#x2039;" horiz-adv-x="280" 
d="M141 120l-96 175l96 175h89l-99 -175l99 -175h-89z" />
    <glyph glyph-name="guilsinglright" unicode="&#x203a;" horiz-adv-x="280" 
d="M149 295l-99 175h89l96 -175l-96 -175h-89z" />
    <glyph glyph-name="fraction" unicode="&#x2044;" horiz-adv-x="594" 
d="M564 693l-405 -693h-91l405 693h91z" />
    <glyph glyph-name="rupee" unicode="&#x20a8;" horiz-adv-x="1122" 
d="M495 359q-45 -55 -135 -69l191 -290h-114l-182 286h-89v-286h-91v693h225q78 0 132 -26.5t81 -73t27 -104.5q0 -75 -45 -130zM166 358h134q75 0 111.5 34.5t36.5 96.5t-36 96.5t-112 34.5h-134v-262zM717.5 350.5q18.5 -18.5 46 -27.5t74.5 -19q60 -14 96.5 -27.5
t62.5 -45t26 -85.5q0 -45 -26 -80.5t-73 -55t-108 -19.5q-92 0 -147.5 46t-60.5 127h94q2 -46 32.5 -73.5t81.5 -27.5q56 0 86.5 23t30.5 61q0 31 -18.5 49.5t-46.5 28t-77 20.5q-59 13 -95.5 26.5t-62 42.5t-25.5 80q0 45 25.5 82.5t73 59.5t110.5 22q89 0 141 -46.5
t57 -127.5h-94q-2 46 -31 74t-80 28q-52 0 -81.5 -24.5t-29.5 -61.5q0 -31 18.5 -49.5z" />
    <glyph glyph-name="Euro" unicode="&#x20ac;" horiz-adv-x="798" 
d="M581 104.5q54 30.5 84 87.5h110q-40 -96 -124.5 -147t-192.5 -51q-77 0 -145 29t-117.5 82.5t-72.5 123.5h-95v68h80q-3 24 -3 50t3 51h-80v67h95q35 107 126.5 171t208.5 64q108 0 192.5 -51t124.5 -147h-110q-30 57 -84 87t-123 30q-83 0 -146 -40.5t-92 -113.5h238
v-67h-256q-4 -21 -4 -51q0 -29 4 -50h256v-68h-238q29 -73 92.5 -114t145.5 -41q69 0 123 30.5z" />
    <glyph glyph-name="indianrupee" unicode="&#x20b9;" horiz-adv-x="617" 
d="M459 558q0 -25 -1 -37h130v-69h-136q-11 -69 -41.5 -107.5t-86.5 -54.5t-149 -16v-77q0 -135 117 -135q61 0 89 33t28 96h83q-1 -100 -52.5 -150.5t-148.5 -50.5q-98 0 -150 56t-52 154v140q113 0 166.5 7t79.5 30t34 75h-325v69h330v40v63h-330v69h544v-69h-129v-66z
" />
    <glyph glyph-name="uni20BA" unicode="&#x20ba;" horiz-adv-x="858" 
d="M723 417q0 -220 -87.5 -327t-277.5 -107q-81 0 -170 22v236l-159 -40v70l159 39v97l-164 -40v67l164 41v224h93v-201l176 44v-69l-176 -43v-97l169 41v-68l-169 -42v-190q33 -7 78 -7q141 0 205.5 87.5t64.5 262.5h94z" />
    <glyph glyph-name="uni20BD" unicode="&#x20bd;" horiz-adv-x="618" 
d="M206 286v-91h217v-75h-217v-120h-91v120h-87v75h87v91h-86v72h86v335h225q78 0 132 -26.5t81 -73t27 -104.5q0 -88 -59.5 -145.5t-180.5 -57.5h-134zM206 358h134q75 0 111.5 34.5t36.5 96.5t-36 96.5t-112 34.5h-134v-262z" />
    <glyph glyph-name="uni2113" unicode="&#x2113;" horiz-adv-x="241" 
d="M166 740v-740h-91v740h91z" />
    <glyph glyph-name="trademark" unicode="&#x2122;" horiz-adv-x="783" 
d="M22 704h231v-55h-80l1 -297h-73v297h-79v55zM717 704v-352h-70v242l-107 -242h-51l-106 246v-246h-68v352h88l113 -265l115 265h86z" />
    <glyph glyph-name="uni2126" unicode="&#x2126;" horiz-adv-x="783" 
d="M705.5 185.5q-38.5 -73.5 -109.5 -113.5h135v-72h-274v75q87 22 141 93.5t54 175.5q0 83 -34 145.5t-93 96t-133 33.5q-75 0 -134 -34t-92.5 -96.5t-33.5 -144.5q0 -104 53.5 -175.5t141.5 -93.5v-75h-275v72h135q-70 40 -109 113.5t-39 161.5q0 102 47 182.5t128 125.5
t178 45t177.5 -45t127.5 -125.5t47 -182.5q0 -88 -38.5 -161.5z" />
    <glyph glyph-name="estimated" unicode="&#x212e;" horiz-adv-x="761" 
d="M212.5 32.5q-77.5 39.5 -121.5 116t-44 181.5t39 189t114.5 132.5t179.5 48.5q103 0 179 -45t115.5 -119.5t39.5 -159.5v-62h-532v-166q39 -48 88.5 -71.5t118.5 -23.5q72 0 131 31.5t125 96.5l41 -45q-135 -143 -297 -143q-99 0 -176.5 39.5zM570 555q-32 41 -81 63
t-109 22q-63 0 -113.5 -24t-84.5 -72v-165h388v176z" />
    <glyph glyph-name="partialdiff" unicode="&#x2202;" horiz-adv-x="571" 
d="M386.5 541q30.5 -17 52.5 -51q-5 88 -43 140.5t-107 52.5q-39 0 -79 -11v54q46 14 92 14q111 0 170.5 -86t59.5 -242q0 -126 -40.5 -222t-109.5 -147.5t-152 -51.5q-84 0 -137.5 59t-53.5 173q0 87 36.5 164t99.5 124t139 47q42 0 72.5 -17zM221 448.5
q-41 -34.5 -65 -94.5t-24 -131q0 -78 29.5 -117.5t81.5 -39.5q49 0 91.5 35.5t68 94.5t25.5 126q0 78 -31 119.5t-86 41.5q-49 0 -90 -34.5z" />
    <glyph glyph-name="uni2206" unicode="&#x2206;" horiz-adv-x="680" 
d="M378 693l282 -622v-71h-640v71l282 622h76zM113 71h454l-227 518z" />
    <glyph glyph-name="product" unicode="&#x220f;" horiz-adv-x="738" 
d="M703 693v-72h-79v-621h-91v621h-328v-621h-91v621h-78v72h667z" />
    <glyph glyph-name="summation" unicode="&#x2211;" horiz-adv-x="457" 
d="M417 622h-299l265 -270v-70l-265 -269h299v-71h-377v105l262 268l-262 273v105h377v-71z" />
    <glyph glyph-name="minus" unicode="&#x2212;" horiz-adv-x="587" 
d="M493 405v-78h-399v78h399z" />
    <glyph glyph-name="uni2215" unicode="&#x2215;" horiz-adv-x="539" 
d="M445 942l-273 -1112h-90l273 1112h90z" />
    <glyph glyph-name="uni2219" unicode="&#x2219;" horiz-adv-x="230" 
d="M74 385q17 17 41 17t41 -17t17 -42q0 -24 -17 -41t-41 -17t-41 17t-17 41q0 25 17 42z" />
    <glyph glyph-name="radical" unicode="&#x221a;" horiz-adv-x="788" 
d="M780 868l-494 -911h-48l-124 219l-65 -39l-27 48l140 84l112 -200l433 799h73z" />
    <glyph glyph-name="infinity" unicode="&#x221e;" horiz-adv-x="671" 
d="M569 478.5q34 -17.5 55 -51t21 -79.5q0 -68 -44 -108.5t-109 -40.5q-46 0 -83.5 25.5t-74.5 70.5q-25 -43 -66.5 -69.5t-91.5 -26.5q-63 0 -106.5 39.5t-43.5 108.5q0 68 44.5 108.5t109.5 40.5q46 0 82.5 -25.5t73.5 -71.5q26 43 67.5 70t91.5 27q40 0 74 -17.5z
M245 288.5q30 20.5 51 54.5q-35 42 -60 63t-53 21q-35 0 -57 -21.5t-22 -58.5t22 -58t57 -21q32 0 62 20.5zM545.5 289.5q21.5 21.5 21.5 58.5t-21.5 58t-56.5 21q-33 0 -63.5 -21t-50.5 -55q31 -40 57.5 -61.5t56.5 -21.5q35 0 56.5 21.5z" />
    <glyph glyph-name="integral" unicode="&#x222b;" horiz-adv-x="261" 
d="M179.5 885q36.5 33 105.5 33h23l-8 -74h-16q-27 0 -40.5 -15.5t-17.5 -51.5l-92 -834q-8 -74 -44.5 -107t-105.5 -33h-23l8 74h16q27 0 40.5 15.5t17.5 50.5l92 834q8 75 44.5 108z" />
    <glyph glyph-name="approxequal" unicode="&#x2248;" horiz-adv-x="520" 
d="M229.5 338.5q19.5 -8.5 46.5 -26.5q20 -14 35.5 -21.5t33.5 -7.5q26 0 46 16t24 45h68q-13 -72 -51.5 -107.5t-94.5 -35.5q-27 0 -47 9t-45 26q-22 15 -36.5 22t-33.5 7q-25 0 -45.5 -16.5t-24.5 -44.5h-67q13 72 51 107.5t94 35.5q27 0 46.5 -8.5zM229.5 549.5
q19.5 -8.5 46.5 -26.5q20 -14 35.5 -21.5t33.5 -7.5q26 0 46 16t24 45h68q-13 -72 -51.5 -107.5t-94.5 -35.5q-27 0 -47 9t-45 26q-22 15 -36.5 22t-33.5 7q-25 0 -45.5 -16.5t-24.5 -44.5h-67q13 72 51 107.5t94 35.5q27 0 46.5 -8.5z" />
    <glyph glyph-name="notequal" unicode="&#x2260;" horiz-adv-x="762" 
d="M559 514h87v-80h-159l-124 -137h283v-79h-355l-87 -96h-78l87 96h-87v79h158l124 137h-282v80h354l87 96h79z" />
    <glyph glyph-name="lessequal" unicode="&#x2264;" horiz-adv-x="550" 
d="M216 404l241 -193h-122l-242 192l242 192h122zM96 163h357v-68h-357v68z" />
    <glyph glyph-name="greaterequal" unicode="&#x2265;" horiz-adv-x="550" 
d="M93 211l241 193l-241 191h122l242 -192l-242 -192h-122zM97 163h357v-68h-357v68z" />
    <glyph glyph-name="lozenge" unicode="&#x25ca;" horiz-adv-x="554" 
d="M518 350l-241 -242l-241 242l241 241zM134 350l143 -144l143 144l-143 143z" />
    <glyph glyph-name="dottedcircle" unicode="&#x25cc;" horiz-adv-x="651" 
d="M270 467.5q-12 11.5 -12 30.5t12 30.5t31 11.5t31 -11.5t12 -30.5t-12 -30.5t-31 -11.5t-31 11.5zM391 452.5q-12 11.5 -12 30.5t12 30.5t31 11.5t31 -11.5t12 -30.5t-12 -30.5t-31 -11.5t-31 11.5zM153 425.5q-12 11.5 -12 30.5t12 30.5t31 11.5t31 -11.5t12 -30.5
t-12 -30.5t-31 -11.5t-31 11.5zM483 378.5q-12 11.5 -12 30.5t12 30.5t31 11.5t31 -11.5t12 -30.5t-12 -30.5t-31 -11.5t-31 11.5zM77 326.5q-12 11.5 -12 30.5t12 30.5t31 11.5t31 -11.5t12 -30.5t-12 -30.5t-31 -11.5t-31 11.5zM527 264.5q-12 11.5 -12 30.5t12 30.5
t31 11.5t31 -11.5t12 -30.5t-12 -30.5t-31 -11.5t-31 11.5zM62 205.5q-12 11.5 -12 30.5t12 30.5t31 11.5t31 -11.5t12 -30.5t-12 -30.5t-31 -11.5t-31 11.5zM517 144.5q-12 11.5 -12 30.5t12 30.5t31 11.5t31 -11.5t12 -30.5t-12 -30.5t-31 -11.5t-31 11.5zM107 92.5
q-12 11.5 -12 30.5t12 30.5t31 11.5t31 -11.5t12 -30.5t-12 -30.5t-31 -11.5t-31 11.5zM444 48.5q-12 11.5 -12 30.5t12 30.5t31 11.5t31 -11.5t12 -30.5t-12 -30.5t-31 -11.5t-31 11.5zM205 16.5q-12 11.5 -12 30.5t12 30.5t31 11.5t31 -11.5t12 -30.5t-12 -30.5t-31 -11.5
t-31 11.5zM329 2.5q-12 11.5 -12 30.5t12 30.5t31 11.5t31 -11.5t12 -30.5t-12 -30.5t-31 -11.5t-31 11.5z" />
    <glyph glyph-name="dvK_SSA" horiz-adv-x="786" 
d="M821 740v-77h-130v-663h-84v372h-280q-12 -6 -18 -10q-48 -25 -77 -44t-49.5 -46.5t-20.5 -63.5q0 -45 29.5 -73.5t81.5 -28.5q60 0 91 33t31 84h73v-259h-83v122q-16 -23 -49.5 -39.5t-81.5 -16.5q-80 0 -129 46t-49 120q0 69 45 115t119 85q-66 16 -104 62t-38 113
q0 55 26.5 95.5t71.5 62t99 21.5q59 0 102 -23t66 -61.5t23 -84.5q0 -40 -16 -75t-48 -62h185v296h214zM386 497q21 31 21 71q0 51 -30.5 78.5t-79.5 27.5q-52 0 -85 -27.5t-33 -82.5q0 -61 42.5 -90.5t107.5 -29.5q36 22 57 53z" />
    <glyph glyph-name="dvJ_NYA" horiz-adv-x="799" 
d="M833 740v-77h-134v-663h-86v453h-193q38 -23 60 -60.5t22 -88.5q0 -57 -23.5 -102t-67.5 -70t-103 -25q-55 0 -98 21t-63 52v-140h-85v292h81q5 -72 45.5 -110.5t105.5 -38.5q63 0 94.5 34.5t31.5 93.5q0 71 -48.5 106.5t-124.5 35.5h-9v72h375v138h-649v77h869z" />
    <glyph glyph-name="dvK" horiz-adv-x="764" 
d="M560 663v-179q23 38 63.5 59.5t96.5 21.5q67 0 116.5 -30t76 -82.5t26.5 -120.5h-85q0 73 -39 114.5t-113 41.5q-70 0 -106 -45.5t-36 -127.5v-315h-84v183q-25 -38 -67.5 -59.5t-100.5 -21.5q-66 0 -116.5 29.5t-78.5 81.5t-28 119t27.5 120t78 82.5t117.5 29.5
q59 0 101 -22t67 -60v181h-512v77h976v-77h-380zM437 219.5q39 41.5 39 112.5q0 73 -40.5 114t-111.5 41q-73 0 -113 -40.5t-40 -114.5q0 -73 40.5 -113.5t114.5 -40.5q72 0 111 41.5z" />
    <glyph glyph-name="dvKH" horiz-adv-x="652" 
d="M336 437q-16 -51 -55 -72.5t-113 -23.5v-105q0 -81 39 -121t120 -40q61 0 101.5 25t52.5 71q-43 26 -66.5 70t-23.5 103q0 95 60 149.5t157 54.5t156.5 -54.5t59.5 -149.5q0 -96 -59.5 -150.5t-156.5 -54.5q-28 0 -48 4q-21 -70 -83.5 -107.5t-149.5 -37.5
q-113 0 -179 64t-66 176v169h35q70 1 99.5 11.5t40 46t10.5 119.5v79h-305v77h862v-77h-472v-80q0 -95 -16 -146zM510.5 439q-36.5 -35 -36.5 -95t36.5 -95.5t96.5 -35.5q62 0 98.5 35.5t36.5 95.5t-36.5 95t-98.5 35q-60 0 -96.5 -35z" />
    <glyph glyph-name="dvG" horiz-adv-x="439" 
d="M487 663h-156v-242q0 -100 -34.5 -149.5t-117.5 -49.5q-81 0 -119 51t-35 145h85q0 -59 13 -89t57 -30q31 0 45.5 15.5t18.5 40t4 65.5v243h-284v77h523v-77z" />
    <glyph glyph-name="dvGH" horiz-adv-x="403" 
d="M179 663v-29q0 -59 10.5 -92t38 -48.5t81.5 -15.5h36v-75h-36q-66 0 -107 -28t-41 -83q0 -58 48 -83.5t120 -25.5q88 0 137 44.5t49 128.5h78q0 -125 -73 -187t-191 -62q-108 0 -181 46t-73 136q0 54 28 92.5t74 57.5v6q-50 23 -67.5 66.5t-17.5 122.5v29h-128v77h630
v-77h-415z" />
    <glyph glyph-name="dvNG" horiz-adv-x="687" 
d="M709 740v-77h-239v-181h-162q-61 0 -96 -16.5t-35 -63.5q0 -49 32.5 -65.5t95.5 -16.5q102 0 164 -33.5t62 -129.5q0 -49 -25.5 -87t-73.5 -60t-112 -22q-110 0 -176 55t-68 154h85q4 -64 42.5 -99.5t114.5 -35.5q60 0 94 24.5t34 74.5q0 54 -36 70.5t-101 16.5
q-102 0 -160.5 34t-58.5 123q0 82 58.5 117t148.5 35h87v106h-420v77h745zM628.5 408.5q16.5 -16.5 16.5 -40.5q0 -23 -16.5 -40t-40.5 -17q-23 0 -40 17t-17 40q0 24 17 40.5t40 16.5q24 0 40.5 -16.5zM358 -78l115 -166h-94l-104 166h83z" />
    <glyph glyph-name="dvC" horiz-adv-x="457" 
d="M628 740v-77h-664v77h664zM506 223.5q40 48.5 40 129.5h81q0 -116 -62 -185t-180 -69q-67 0 -122.5 25t-88 72t-32.5 111q0 51 20 88.5t56 59.5h-169v72h364v-72h-29q-72 0 -115.5 -38t-43.5 -105q0 -65 43.5 -101t115.5 -36q82 0 122 48.5z" />
    <glyph glyph-name="dvCH" horiz-adv-x="820" 
d="M185 663v-43q0 -65 10 -100.5t39.5 -52.5t87.5 -17h13v-75h-14q-71 0 -113.5 -31.5t-42.5 -92.5q0 -76 70 -109.5t174 -33.5q131 0 207 60t76 182q0 74 -28.5 109t-76.5 35q-34 0 -57.5 -15t-36.5 -58t-12 -121h-77q-4 137 42 201t140 66q86 0 134.5 -60.5t48.5 -162.5
q0 -95 -43 -165.5t-124 -108.5t-192 -38q-141 0 -235.5 53t-94.5 162q0 60 30.5 102t83.5 62v6q-57 19 -76 67t-19 141v38h-135v77h892v-77h-671z" />
    <glyph glyph-name="dvJ" horiz-adv-x="557" 
d="M721 740v-77h-757v77h757zM720 440h-255v-74q0 -125 -41.5 -193.5t-155.5 -68.5q-116 0 -158 69.5t-42 192.5v148h86v-125q0 -74 6 -115.5t30.5 -67t77.5 -25.5q52 0 76 25.5t30 66.5t6 116v125h340v-74z" />
    <glyph glyph-name="dvJH" horiz-adv-x="553" 
d="M247.5 488q-26.5 -4 -43.5 -19.5t-17 -47.5q0 -46 28 -60.5t84 -14.5h404v-69h-227q19 -11 32.5 -34.5t13.5 -51.5q0 -44 -20.5 -81t-62.5 -59t-102 -22q-50 0 -91 19.5t-63 50.5v-135h-83v261h83q3 -56 41 -89.5t100 -33.5q57 0 86 24t29 70q0 36 -16 53.5t-40.5 22
t-66.5 4.5q-67 0 -112.5 10t-74 42.5t-28.5 94.5q0 83 56 113.5t151 30.5h87v96h-431v77h739v-77h-222v-171h-162q-45 0 -71.5 -4z" />
    <glyph glyph-name="dvNY" horiz-adv-x="556" 
d="M689 740v-77h-725v77h725zM447.5 524.5q57.5 -54.5 69.5 -143.5h172v-76h-172q-9 -91 -67.5 -147.5t-159.5 -56.5q-98 0 -155.5 49.5t-70.5 120.5h86q10 -39 45.5 -66t94.5 -27q72 0 108.5 43t36.5 119t-36.5 119.5t-108.5 43.5q-59 0 -94.5 -27t-45.5 -66h-86
q13 71 70 120t156 49q100 0 157.5 -54.5z" />
    <glyph glyph-name="dvTT" horiz-adv-x="655" 
d="M214.5 438q-59.5 -46 -59.5 -139q0 -82 51 -131t134 -49q85 0 133.5 49t48.5 134h84q0 -79 -33 -138t-93 -90.5t-139 -31.5t-140.5 32t-96 90.5t-34.5 135.5q0 82 37 140t102 88.5t150 32.5v102h-398v77h732v-77h-248v-178h-69q-102 -1 -161.5 -47zM316 -34h84l115 -165
h-94z" />
    <glyph glyph-name="dvTTH" horiz-adv-x="669" 
d="M577.5 170q-34.5 -58 -96 -90t-138.5 -32t-138 32t-95.5 90t-34.5 134q0 68 28.5 122.5t79.5 88.5t117 42v106h-336v77h741v-77h-319v-106q66 -8 117 -41.5t80 -88t29 -123.5q0 -76 -34.5 -134zM210.5 173q50.5 -50 132.5 -50t132.5 50t50.5 131t-50.5 131t-132.5 50
t-132.5 -50t-50.5 -131t50.5 -131zM306 -31h84l115 -166h-94z" />
    <glyph glyph-name="dvDD" horiz-adv-x="582" 
d="M212 465.5q-35 -16.5 -35 -63.5q0 -49 32.5 -65.5t95.5 -16.5q102 0 164 -33.5t62 -129.5q0 -49 -25.5 -87t-73.5 -60t-112 -22q-110 0 -176 55t-68 154h85q4 -64 42.5 -99.5t114.5 -35.5q60 0 94 24.5t34 74.5q0 54 -36 70.5t-101 16.5q-102 0 -160.5 34t-58.5 123
q0 82 58.5 117t148.5 35h87v106h-420v77h654v-77h-148v-181h-162q-61 0 -96 -16.5zM362 -79l114 -165h-93l-105 165h84z" />
    <glyph glyph-name="dvDDH" horiz-adv-x="635" 
d="M223 441.5q-66 -53.5 -66 -159.5q0 -94 59.5 -146t156.5 -52q69 0 105.5 31.5t36.5 85.5q0 42 -21.5 69t-68.5 27q-46 0 -67 -28.5t-21 -75.5h-79q-1 79 41 127.5t124 48.5q78 0 126.5 -45t48.5 -122q0 -90 -63 -142.5t-164 -52.5q-85 0 -153 33t-107 95.5t-39 147.5
q0 95 41.5 159t113 95.5t162.5 32.5v93h-425v77h707v-77h-196v-168h-73q-113 0 -179 -53.5zM347 -63h84l115 -166h-94z" />
    <glyph glyph-name="dvNN" horiz-adv-x="589" 
d="M625 663h-124v-255q0 -240 -201 -240q-107 0 -154.5 62.5t-47.5 177.5v255h-134v77h661v-77zM416 663h-233v-257q0 -80 25 -120.5t92 -40.5t91.5 40.5t24.5 120.5v257z" />
    <glyph glyph-name="dvT" horiz-adv-x="356" 
d="M-36 740h555v-77h-555v77zM349 421q-92 0 -145.5 -41.5t-53.5 -131.5q0 -88 45 -132.5t146 -44.5v-73h-13q-132 0 -198.5 66.5t-66.5 183.5q0 128 77 188.5t209 60.5h170v-76h-170z" />
    <glyph glyph-name="dvTH" horiz-adv-x="478" 
d="M625.5 218q-33.5 -59 -95.5 -91t-146 -32q-92 0 -157.5 37t-100 103.5t-34.5 155.5q0 19 4 59l95 -2q104 0 153.5 24.5t49.5 96.5q0 49 -26.5 76.5t-73.5 27.5q-52 0 -78.5 -33.5t-24.5 -90.5h-82q-3 90 48 145t138 55q81 0 132.5 -50t51.5 -133q0 -108 -79.5 -148.5
t-216.5 -37.5q-5 -96 47.5 -152t153.5 -56q89 0 142 49t53 135h80q0 -79 -33.5 -138z" />
    <glyph glyph-name="dvD" horiz-adv-x="596" 
d="M436 146q-18 -24 -54.5 -38t-80.5 -14q-70 0 -124 27.5t-84.5 79.5t-30.5 122q0 122 79.5 180t216.5 58h40v102h-434v77h668v-77h-148v-180h-114q-107 0 -164 -35t-57 -127q0 -75 43.5 -113t120.5 -38q58 0 94.5 29.5t36.5 94.5h78v-294h-86v146zM443 -70h84l115 -166
h-94z" />
    <glyph glyph-name="dvDH" horiz-adv-x="420" 
d="M195.5 649q-24.5 -24 -24.5 -66q0 -61 43 -90.5t114 -29.5h50v-74h-46q-67 0 -110.5 -24.5t-43.5 -78.5t46.5 -80.5t112.5 -26.5q86 0 136 43t50 133h81q1 -128 -73.5 -189.5t-194.5 -61.5q-65 0 -120.5 19.5t-89.5 59.5t-34 100q0 53 28 88.5t77 53.5v6
q-47 18 -77.5 58.5t-30.5 96.5q0 72 47.5 118t122.5 46q82 0 126.5 -51t39.5 -133h-76q2 49 -20 78t-68 29q-41 0 -65.5 -24z" />
    <glyph glyph-name="dvN" horiz-adv-x="499" 
d="M-36 740h695v-77h-695v77zM395 413q30 -18 46.5 -52.5t16.5 -77.5q0 -53 -24 -94.5t-67.5 -65t-101.5 -23.5t-105 23.5t-74 67.5t-27 103q0 91 59 142t169 51h372v-74h-264zM176.5 206q35.5 -30 88.5 -30q48 0 81 31t33 87q0 53 -31.5 85t-86.5 32q-51 0 -85.5 -31
t-34.5 -86q0 -58 35.5 -88z" />
    <glyph glyph-name="dvP" horiz-adv-x="377" 
d="M494 264q-61 -64 -169 -64q-117 0 -176 67t-59 183v213h-126v77h593v-77h-381v-211q0 -175 149 -175q75 0 111.5 42.5t36.5 119.5h82q0 -111 -61 -175z" />
    <glyph glyph-name="dvPH" horiz-adv-x="751" 
d="M544 663v-206q25 39 67.5 61t102.5 22q64 0 112.5 -28t74.5 -78.5t26 -116.5h-82q0 70 -38.5 108t-108.5 38q-72 0 -113 -47.5t-41 -122.5v-293h-86v312q-22 -36 -61.5 -57.5t-94.5 -21.5q-101 0 -153.5 68.5t-52.5 180.5v181h-132v77h975v-77h-395zM422 359
q36 49 36 122v182h-276v-181q0 -85 32 -128.5t109 -43.5q63 0 99 49z" />
    <glyph glyph-name="dvB" horiz-adv-x="414" 
d="M586 663h-622v77h622v-77zM457.5 547q60.5 -30 95 -85.5t34.5 -130.5q0 -74 -34.5 -129.5t-95 -85.5t-136.5 -30q-75 0 -135.5 30t-95 85.5t-34.5 129.5q0 75 34.5 130.5t95 85.5t136.5 30q75 0 135.5 -30zM454 457.5q-51 46.5 -133 46.5q-72 0 -119 -36l284 -221
q19 38 19 84q0 80 -51 126.5zM188.5 204.5q50.5 -46.5 132.5 -46.5q77 0 127 41l-287 224q-23 -40 -23 -92q0 -80 50.5 -126.5z" />
    <glyph glyph-name="dvBH" horiz-adv-x="534" 
d="M689 378h-229v-59q0 -220 -181 -220q-52 0 -95 22.5t-68 63t-25 92.5q0 89 58.5 132t174.5 43h53v83q0 64 -19 99t-69 35t-68.5 -35.5t-18.5 -102.5h-84q-2 215 171 215q88 0 129.5 -55.5t41.5 -156.5v-82h229v-74zM377 378h-58q-70 0 -107.5 -23t-37.5 -81
q0 -44 29 -71.5t74 -27.5q57 0 78.5 35.5t21.5 107.5v60z" />
    <glyph glyph-name="dvM" horiz-adv-x="518" 
d="M420 663v-209h260v-74h-260v-59q0 -220 -181 -220q-52 0 -95 22.5t-68 63.5t-25 92q0 90 59 132.5t175 42.5h52v209h-373v77h716v-77h-260zM337 380h-58q-70 0 -107.5 -22.5t-37.5 -80.5q0 -44 29.5 -72t74.5 -28q57 0 78 35.5t21 107.5v60z" />
    <glyph glyph-name="dvY" horiz-adv-x="452" 
d="M332 496q-13 -49 -53 -77t-120 -33q-2 -92 49.5 -147.5t146.5 -55.5q94 0 142 57.5t48 160.5h82q0 -92 -32.5 -158.5t-94 -101.5t-145.5 -35q-141 0 -214 82.5t-73 229.5l1 29q92 0 132 18t49.5 53.5t9.5 113.5v31h-296v77h664v-77h-283v-33q0 -85 -13 -134z" />
    <glyph glyph-name="dvR" horiz-adv-x="524" 
d="M424.5 438.5q-22.5 -57.5 -80 -79t-175.5 -22.5v-124q0 -64 26.5 -101t83.5 -37q56 0 82.5 36t26.5 99h86q0 -98 -51 -155t-144 -57q-95 0 -146 58t-51 156v198h39q121 0 165.5 10.5t59.5 50t15 145.5v47h-397v77h596v-77h-113v-50q0 -117 -22.5 -174.5zM325 -73
l114 -162h-94l-102 162h82z" />
    <glyph glyph-name="dvL" horiz-adv-x="699" 
d="M-36 740h873v-77h-873v77zM629 434q-137 0 -128 -208h-82q9 208 -128 208q-123 0 -123 -162q0 -82 42 -129t124 -47q14 0 21 1v-78q-11 -1 -32 -1q-74 0 -128.5 31t-83.5 88.5t-29 133.5q0 114 51 177.5t153 63.5q65 0 110.5 -31.5t63.5 -89.5q17 56 61.5 88.5
t111.5 32.5q105 0 154.5 -66.5t49.5 -174.5h-86q0 163 -122 163z" />
    <glyph glyph-name="dvV" horiz-adv-x="378" 
d="M-36 740h590v-77h-590v77zM433 540q57 -29 89 -83t32 -126t-32 -125.5t-89 -82.5t-129 -29t-129 29t-89 82.5t-32 125.5t32 126t89 83t129 29t129 -29zM424 213.5q45 43.5 45 117.5q0 75 -45 118.5t-120 43.5t-120 -43.5t-45 -118.5q0 -74 45 -117.5t120 -43.5t120 43.5z
" />
    <glyph glyph-name="dvSH" horiz-adv-x="555" 
d="M429 723.5q47 -25.5 73 -71t26 -103.5q0 -119 -72 -168.5t-201 -51.5q-18 0 -60 2v-130q0 -61 30.5 -93.5t86.5 -32.5q63 0 89.5 37.5t27.5 109.5h86q-2 -103 -50 -163.5t-152 -60.5q-94 0 -149.5 53.5t-55.5 150.5v201h112q71 0 118 10t75.5 42t28.5 93q0 59 -32 92
t-89 33q-67 0 -98 -44t-29 -114h-85q-3 64 20 117.5t72 85t119 31.5q62 0 109 -25.5z" />
    <glyph glyph-name="dvSS" horiz-adv-x="386" 
d="M176 663v-4l357 -280q0 -51 -24.5 -92.5t-71 -66t-109.5 -24.5q-113 0 -175.5 67t-62.5 182v218h-126v77h570v-77h-358zM176 580v-132q0 -84 37 -130t115 -46q54 0 87 25t39 64z" />
    <glyph glyph-name="dvS" horiz-adv-x="518" 
d="M423 663q-2 -96 -12.5 -151.5t-36.5 -87.5h302v-72h-506v-141q0 -136 107 -136q59 0 83 38.5t24 113.5h85q2 -108 -46 -168.5t-145 -60.5q-95 0 -145 58t-50 156v208l52 -1q24 0 58 2l1 3h25q54 8 79 33t32 70t7 136h-373v77h712v-77h-253z" />
    <glyph glyph-name="dvH" horiz-adv-x="610" 
d="M224.5 463.5q-32.5 -19.5 -32.5 -59.5q0 -28 17.5 -47t45.5 -30q28 7 65 7q62 0 111 -22t78 -59.5t32 -82.5h-85q-10 41 -43.5 64.5t-92.5 23.5q-66 0 -105 -37.5t-39 -98.5t39.5 -99.5t104.5 -38.5q59 0 92.5 23.5t43.5 64.5h85q-3 -45 -32 -82.5t-78 -59.5t-111 -22
q-68 0 -120.5 27t-81 75.5t-28.5 111.5q0 55 22 98.5t62 71.5q-33 20 -51 50t-18 67q0 72 52.5 110.5t144.5 38.5h96v105h-434v77h682v-77h-162v-180h-174q-53 0 -85.5 -19.5zM294 -163h84l115 -166h-94z" />
    <glyph glyph-name="dvLL" horiz-adv-x="939" 
d="M-36 740h1011v-77h-1011v77zM795 488q53 -29 83.5 -81t30.5 -119t-30 -119t-83.5 -81t-119.5 -29q-65 0 -118 31.5t-79 88.5q-26 -58 -78.5 -89t-116.5 -31q-67 0 -120.5 29t-83.5 81t-30 119t30.5 119t84 81t119.5 29q65 0 117 -31t78 -90q25 59 78.5 90t118.5 31
q66 0 119 -29zM396 397q-40 42 -108 42t-110.5 -41.5t-42.5 -109.5q0 -67 42.5 -109t110.5 -42t108 42t40 109t-40 109zM564 179q41 -42 107 -42q70 0 111.5 41.5t41.5 109.5t-42.5 109.5t-110.5 41.5q-66 0 -107 -42t-41 -109t41 -109z" />
    <glyph glyph-name="dvK_SS" horiz-adv-x="535" 
d="M472 506q-16 -35 -48 -62h241v-72h-336q-12 -6 -18 -10q-48 -25 -77 -44t-49.5 -46.5t-20.5 -63.5q0 -45 29.5 -73.5t82.5 -28.5q60 0 90.5 33t30.5 84h74v-259h-84v123q-16 -23 -49 -40t-81 -17q-80 0 -129.5 46.5t-49.5 120.5q0 69 45.5 115t118.5 84q-66 16 -104 62
t-38 113q0 55 26.5 95.5t71.5 62t99 21.5q59 0 102 -23t66 -61.5t23 -84.5q0 -40 -16 -75zM223.5 473.5q42.5 -29.5 107.5 -29.5q36 21 57 52.5t21 71.5q0 51 -30.5 78.5t-79.5 27.5q-52 0 -85 -27.5t-33 -82.5q0 -61 42.5 -90.5z" />
    <glyph glyph-name="dvJ_NY" horiz-adv-x="568" 
d="M709 740v-77h-721v77h721zM281 526h428v-74h-290q43 -22 68 -63.5t25 -95.5q0 -56 -23.5 -103.5t-68.5 -75.5t-106 -28q-52 0 -91.5 17.5t-64.5 50.5v-173h-84v306h81q0 -35 19 -63t51 -44.5t69 -16.5q65 0 100.5 37.5t35.5 101.5q0 73 -41.5 111t-107.5 39v74z" />
    <glyph glyph-name="dvKx" horiz-adv-x="748" 
d="M555 663v-179q23 38 63.5 59.5t96.5 21.5q67 0 116.5 -30t76 -82.5t26.5 -120.5h-85q0 73 -39 114.5t-113 41.5q-70 0 -106 -45.5t-36 -127.5v-315h-84v183q-25 -38 -67.5 -59.5t-100.5 -21.5q-66 0 -116.5 29.5t-78.5 81.5t-28 119t27.5 120t78 82.5t117.5 29.5
q59 0 101 -22t67 -60v181h-512v77h976v-77h-380zM432 219.5q39 41.5 39 112.5q0 73 -40.5 114t-111.5 41q-73 0 -113 -40.5t-40 -114.5q0 -73 40.5 -113.5t114.5 -40.5q72 0 111 41.5zM284 4.5q17 17.5 41 17.5t41.5 -17.5t17.5 -41.5t-17.5 -41.5t-41.5 -17.5t-41 17.5
t-17 41.5t17 41.5z" />
    <glyph glyph-name="dvKHx" horiz-adv-x="636" 
d="M331 437q-16 -51 -55 -72.5t-113 -23.5v-105q0 -161 158 -161q62 0 102.5 25t52.5 71q-43 25 -66.5 69.5t-23.5 103.5q0 95 60 149.5t157 54.5t154.5 -54.5t57.5 -149.5q0 -96 -57.5 -150.5t-154.5 -54.5q-28 0 -48 4q-21 -70 -83.5 -107.5t-149.5 -37.5q-113 0 -179 64
t-66 176v169h35q70 1 99.5 11.5t40 46t10.5 119.5v79h-303v77h860v-77h-472v-80q0 -95 -16 -146zM505.5 439q-36.5 -35 -36.5 -95t36.5 -95.5t96.5 -35.5q61 0 98 35.5t37 95.5t-37 95t-98 35q-60 0 -96.5 -35zM365.5 -79.5q17.5 -17.5 17.5 -41.5t-17.5 -41.5t-41.5 -17.5
t-41.5 17.5t-17.5 41.5t17.5 41.5t41.5 17.5t41.5 -17.5z" />
    <glyph glyph-name="dvGx" horiz-adv-x="425" 
d="M487 663h-156v-242q0 -100 -34.5 -149.5t-117.5 -49.5q-81 0 -119 51t-35 145h85q0 -59 13 -89t57 -30q31 0 45.5 15.5t18.5 40t4 65.5v243h-284v77h523v-77zM143 99.5q17 17.5 41 17.5t41.5 -17.5t17.5 -41.5t-17.5 -41.5t-41.5 -17.5t-41 17.5t-17 41.5t17 41.5z" />
    <glyph glyph-name="dvJx" horiz-adv-x="545" 
d="M721 740v-77h-757v77h757zM720 440h-255v-74q0 -125 -41.5 -193.5t-155.5 -68.5q-116 0 -158 69.5t-42 192.5v148h86v-125q0 -74 6 -115.5t30.5 -67t77.5 -25.5q52 0 76 25.5t30 66.5t6 116v125h340v-74zM229 9.5q17 17.5 41 17.5t41.5 -17.5t17.5 -41.5t-17.5 -41.5
t-41.5 -17.5t-41 17.5t-17 41.5t17 41.5z" />
    <glyph glyph-name="dvPHx" horiz-adv-x="728" 
d="M542 663v-206q25 39 67.5 61t102.5 22q64 0 112.5 -28t74.5 -78.5t26 -116.5h-82q0 70 -38.5 108t-108.5 38q-72 0 -113 -47.5t-41 -122.5v-293h-86v312q-22 -36 -61.5 -57.5t-94.5 -21.5q-101 0 -153.5 68.5t-52.5 180.5v181h-132v77h975v-77h-395zM420 359
q36 49 36 122v182h-276v-181q0 -85 32 -128.5t109 -43.5q63 0 99 49zM228 108.5q17 17.5 41 17.5t41.5 -17.5t17.5 -41.5t-17.5 -41.5t-41.5 -17.5t-41 17.5t-17 41.5t17 41.5z" />
    <glyph glyph-name="dvReph" horiz-adv-x="0" 
d="M106 998q41 -46 41 -124h-73q-2 49 -21.5 74t-63.5 25q-48 0 -68.5 -33t-20.5 -101v-126h-77q-1 26 -1 126q0 98 39.5 151.5t127.5 53.5q76 0 117 -46z" />
    <glyph glyph-name="dvEyelash" horiz-adv-x="49" 
d="M-36 740h354v-77h-354v77zM226 378q-99 0 -168.5 48t-70.5 150h72q3 -69 51.5 -99t117.5 -30q31 0 69 6l21 -61q-39 -14 -92 -14z" />
    <glyph glyph-name="dvRashtrasign" horiz-adv-x="0" 
d="M-129 -106l-118 149l-122 -149h-96l169 185h100l163 -185h-96z" />
    <glyph glyph-name="dvK_RA" horiz-adv-x="1011" 
d="M560 663v-179q23 38 63.5 59.5t96.5 21.5q67 0 117 -30t76.5 -83t26.5 -120q0 -69 -30 -119.5t-84 -77.5t-123 -27q-27 0 -41 2l-1 74q10 -1 29 -1q75 0 119.5 38.5t44.5 110.5q0 73 -39 114.5t-113 41.5q-70 0 -106 -45.5t-36 -127.5v-315h-84v183l-189 -214h-101
l135 139h-10q-67 0 -118 28t-79.5 79t-28.5 117q0 67 27.5 120t78 82.5t117.5 29.5q59 0 101 -22t67 -60v181h-512v77h1083v-77h-487zM211.5 218.5q40.5 -40.5 114.5 -40.5q72 0 111 41.5t39 112.5q0 73 -40.5 114t-111.5 41q-73 0 -113 -40.5t-40 -114.5q0 -73 40.5 -113.5
z" />
    <glyph glyph-name="dvKH_RA" horiz-adv-x="916" 
d="M952 740v-77h-131v-663h-84v203q-23 -30 -60 -47t-87 -17q-26 0 -52 6l-226 -248h-96v4l130 132q-7 -1 -21 -1q-114 0 -178.5 59.5t-64.5 173.5v142h33q71 0 100.5 10.5t40.5 46.5t11 120v79h-303v77h988zM208 142.5q40 -37.5 123 -37.5q110 0 145 67q-40 26 -62.5 71
t-22.5 101q0 59 25.5 105.5t70.5 72.5t103 26q102 0 147 -60v175h-385v-80q0 -95 -16 -146t-55 -72.5t-113 -23.5v-79q0 -82 40 -119.5zM701.5 248.5q35.5 35.5 35.5 95.5t-35 95t-95 35t-96.5 -35t-36.5 -95t36.5 -95.5t96.5 -35.5q59 0 94.5 35.5z" />
    <glyph glyph-name="dvG_RA" horiz-adv-x="714" 
d="M750 740v-77h-131v-663h-86v272l-242 -273h-103l345 370v294h-202v-242q0 -100 -34.5 -149.5t-117.5 -49.5q-81 0 -119 51t-35 145h85q0 -59 13 -89t57 -30q31 0 45.5 15.5t18.5 40t4 65.5v243h-284v77h786z" />
    <glyph glyph-name="dvGH_RA" horiz-adv-x="695" 
d="M731 663h-131v-663h-86v203l-208 -237h-103l145 151q-22 -3 -47 -3q-96 0 -161 44.5t-65 130.5q0 54 28 92.5t74 57.5v6q-50 23 -67.5 66.5t-17.5 122.5v29h-128v77h767v-77zM514 663h-335v-29q0 -59 10.5 -92t38 -48.5t81.5 -15.5h36v-75h-36q-66 0 -107 -28t-41 -83
q0 -57 44.5 -83t111.5 -26q54 0 99 21t71.5 60.5t26.5 91.5v307z" />
    <glyph glyph-name="dvNG_RA" horiz-adv-x="660" 
d="M696 740v-77h-226v-181h-162q-61 0 -96 -16.5t-35 -63.5q0 -49 32.5 -65.5t95.5 -16.5q102 0 164 -33.5t62 -129.5q0 -57 -34.5 -99t-95.5 -59l137 -156h-96l-114 145h-7l-119 -145h-96l139 153q-78 17 -123 69t-46 132h85q4 -64 42.5 -99.5t114.5 -35.5q60 0 94 24.5
t34 74.5q0 54 -36 70.5t-101 16.5q-102 0 -160.5 34t-58.5 123q0 82 58.5 117t148.5 35h87v106h-420v77h732zM613.5 418.5q16.5 -16.5 16.5 -40.5q0 -23 -16.5 -40t-39.5 -17q-24 0 -40.5 17t-16.5 40q0 24 16.5 40.5t40.5 16.5q23 0 39.5 -16.5z" />
    <glyph glyph-name="dvC_RA" horiz-adv-x="727" 
d="M763 740v-77h-131v-663h-86v190l-198 -235h-103l142 150q-7 -1 -20 -1q-63 0 -114.5 24.5t-81.5 70t-30 105.5q0 50 19.5 88.5t55.5 62.5h-167v72h364v-72h-29q-72 0 -115.5 -38t-43.5 -105q0 -64 43.5 -100.5t113.5 -36.5q47 0 84.5 23.5t58.5 63.5t21 88v313h-582v77
h799z" />
    <glyph glyph-name="dvCH_RA" horiz-adv-x="820" 
d="M641 663v-103q61 -18 94.5 -74.5t33.5 -141.5q0 -119 -66 -197.5t-185 -103.5l140 -159h-96l-118 149l-122 -149h-96l137 150q-124 8 -203.5 61t-79.5 152q0 60 30.5 102t83.5 62v6q-57 19 -76 67t-19 141v38h-135v77h892v-77h-215zM557 663h-372v-43q0 -65 10 -100.5
t39.5 -52.5t87.5 -17h13v-75h-14q-71 0 -113.5 -31.5t-42.5 -92.5q0 -76 70 -109.5t174 -33.5q131 0 207 60t76 182q0 74 -28.5 109.5t-76.5 35.5q-35 0 -58 -15.5t-36 -58t-12 -121.5h-77q-4 127 34.5 191t118.5 74v98z" />
    <glyph glyph-name="dvJ_RA" horiz-adv-x="827" 
d="M863 740v-77h-131v-663h-86v238l-222 -268h-104q40 45 141 158.5t185 209.5v102h-181v-40q0 -126 -41.5 -194.5t-155.5 -68.5q-116 0 -158 70t-42 193v114h86v-91q0 -75 6 -116.5t30.5 -67t77.5 -25.5q52 0 76 25.5t30 67t6 116.5v91h266v149h-682v77h899z" />
    <glyph glyph-name="dvJH_RA" horiz-adv-x="860" 
d="M896 663h-131v-663h-86v177l-162 -278h-95l244 378h-188q18 -10 29.5 -35.5t11.5 -55.5q0 -68 -44 -113.5t-131 -45.5q-50 0 -94.5 20.5t-66.5 51.5v-135h-83v261h83q3 -56 43.5 -90.5t102.5 -34.5q110 0 110 96q0 48 -27.5 63.5t-94.5 15.5q-100 0 -158 31t-58 117
q0 82 58.5 113t156.5 31h79v96h-431v77h932v-77zM679 663h-198v-144h-2l2 -3v-24h-157q-67 0 -102 -13t-35 -59q0 -45 32 -59.5t93 -14.5h367v317z" />
    <glyph glyph-name="dvNY_RA" horiz-adv-x="842" 
d="M878 740v-77h-130v-663h-86v200l-170 -215h-103q33 37 117.5 132.5t155.5 176.5v11h-145q-9 -91 -67.5 -147.5t-159.5 -56.5q-98 0 -155.5 49.5t-70.5 120.5h86q10 -39 45.5 -66t94.5 -27q72 0 108.5 43t36.5 119t-36.5 119.5t-108.5 43.5q-59 0 -94.5 -27t-45.5 -66h-86
q13 71 70 120t156 49q100 0 157.5 -54.5t69.5 -143.5h145v282h-698v77h914z" />
    <glyph glyph-name="dvTT_RA" horiz-adv-x="660" 
d="M217.5 438q-59.5 -46 -59.5 -139q0 -82 51 -131t134 -49q85 0 133 49t48 134h85q0 -95 -47 -159.5t-130 -88.5l142 -161h-96l-118 149l-122 -149h-96l141 154q-95 17 -152.5 85t-57.5 168q0 82 37 140t102 88.5t150 32.5v102h-398v77h732v-77h-249v-178h-68
q-102 -1 -161.5 -47z" />
    <glyph glyph-name="dvTTH_RA" horiz-adv-x="669" 
d="M386 663v-106q66 -8 117 -41.5t80 -88t29 -123.5q0 -93 -51.5 -158.5t-137.5 -87.5l140 -159h-96l-118 149l-122 -149h-96l143 156q-90 20 -144.5 86.5t-54.5 162.5q0 68 28.5 122.5t79.5 88.5t117 42v106h-336v77h741v-77h-319zM475.5 435q-50.5 50 -132.5 50
t-132.5 -50t-50.5 -131t50.5 -131t132.5 -50t132.5 50t50.5 131t-50.5 131z" />
    <glyph glyph-name="dvDD_RA" horiz-adv-x="582" 
d="M212 465.5q-35 -16.5 -35 -63.5q0 -49 32.5 -65.5t95.5 -16.5q102 0 164 -33.5t62 -129.5q0 -56 -33.5 -98t-93.5 -60l142 -161h-96l-118 149l-122 -149h-96l142 155q-82 15 -130 68t-50 136h85q4 -64 42.5 -99.5t114.5 -35.5q60 0 94 24.5t34 74.5q0 54 -36 70.5
t-101 16.5q-102 0 -160.5 34t-58.5 123q0 82 58.5 117t148.5 35h87v106h-420v77h654v-77h-148v-181h-162q-61 0 -96 -16.5z" />
    <glyph glyph-name="dvDDH_RA" horiz-adv-x="635" 
d="M223 441.5q-66 -53.5 -66 -159.5q0 -94 59.5 -146t156.5 -52q69 0 105.5 31.5t36.5 85.5q0 42 -21.5 69t-68.5 27q-46 0 -67 -28.5t-21 -75.5h-79q-1 79 41 127.5t124 48.5q78 0 126.5 -45t48.5 -122q0 -68 -37 -115.5t-101 -66.5l142 -161h-96l-117 148h-1l-122 -148
h-96l140 153q-107 17 -172.5 88.5t-65.5 182.5q0 95 41.5 159t113 95.5t162.5 32.5v93h-425v77h707v-77h-196v-168h-73q-113 0 -179 -53.5z" />
    <glyph glyph-name="dvNN_RA" horiz-adv-x="859" 
d="M895 740v-77h-131v-663h-86v271l-217 -271h-103l320 373v290h-177v-244q0 -115 -47.5 -177.5t-153.5 -62.5q-107 0 -154.5 62.5t-47.5 177.5v244h-134v77h931zM416 663h-233v-247q0 -79 25 -119.5t92 -40.5t91.5 40t24.5 120v247z" />
    <glyph glyph-name="dvT_RA" horiz-adv-x="666" 
d="M145 489q60 70 164 70q61 0 105.5 -25t70.5 -70v199h-505v77h722v-77h-131v-663h-86v254l-243 -255h-114v5q57 57 175 174.5t175 172.5q-12 60 -52 95.5t-102 35.5q-75 0 -114.5 -48.5t-44.5 -129.5h-85q5 115 65 185z" />
    <glyph glyph-name="dvTH_RA" horiz-adv-x="759" 
d="M795 740v-77h-131v-663h-86v198l-261 -249h-111v6q8 8 166 144h-4q-88 0 -150 36t-94 101t-32 151q0 34 4 63l95 -2q104 0 153.5 24.5t49.5 96.5q0 49 -26.5 76.5t-73.5 27.5q-52 0 -78.5 -33.5t-24.5 -90.5h-82q-3 90 48 145t138 55q81 0 132.5 -50t51.5 -133
q0 -108 -79.5 -148.5t-216.5 -37.5q-5 -94 45 -151.5t151 -57.5q55 0 100.5 25t72 70t26.5 102v372h217z" />
    <glyph glyph-name="dvD_RA" horiz-adv-x="596" 
d="M206 448q-57 -35 -57 -127q0 -75 43.5 -113t120.5 -38q58 0 94.5 29.5t36.5 94.5h78v-294h-86v150l-170 -215h-97l142 163h-10q-108 0 -173.5 59.5t-65.5 165.5q0 122 79.5 180t216.5 58h40v102h-434v77h668v-77h-148v-180h-114q-107 0 -164 -35z" />
    <glyph glyph-name="dvDH_RA" horiz-adv-x="719" 
d="M755 663h-130v-663h-86v198l-226 -251h-100l159 165q-21 -3 -45 -3q-61 0 -112.5 19t-83 58.5t-31.5 95.5q0 53 28 89t77 54v6q-47 18 -77.5 58.5t-30.5 96.5q0 72 47.5 118t122.5 46q82 0 126.5 -51t39.5 -133h-76q2 49 -20 78t-68 29q-41 0 -65.5 -24t-24.5 -66
q0 -61 43 -90.5t113 -29.5h51v-74h-46q-68 0 -111 -24.5t-43 -78.5t45.5 -80.5t109.5 -26.5q54 0 99 21.5t72 61.5t27 93v385h216v-77z" />
    <glyph glyph-name="dvN_RA" horiz-adv-x="787" 
d="M823 740v-77h-130v-663h-86v199l-173 -219h-99l272 314v137h-212q30 -18 46.5 -53t16.5 -77q0 -53 -24 -95t-67.5 -65.5t-101.5 -23.5t-105 24t-74 68t-27 103q0 91 59 142t169 51h320v158h-643v77h859zM346 224.5q33 31.5 33 86.5q0 54 -31.5 86t-86.5 32
q-51 0 -85.5 -31t-34.5 -87q0 -58 35.5 -88t88.5 -30q48 0 81 31.5z" />
    <glyph glyph-name="dvP_RA" horiz-adv-x="654" 
d="M689 740v-77h-130v-663h-86v281l-250 -287h-102l192 210h-9q-103 0 -158.5 67.5t-55.5 178.5v213h-126v77h725zM325 277q66 0 107 46t41 117v223h-297v-211q0 -175 149 -175z" />
    <glyph glyph-name="dvPH_RA" horiz-adv-x="990" 
d="M544 663v-206q25 39 67.5 61t102.5 22q64 0 113 -28t75.5 -78.5t26.5 -115.5t-29 -114.5t-82 -76t-123 -26.5q-18 0 -28 1l-1 74q8 -1 23 -1q71 0 113 37.5t42 104.5q0 70 -38 108t-108 38q-72 0 -113 -47.5t-41 -122.5v-293h-86v310l-243 -316h-99q21 25 80 96t123 149
q-5 -1 -17 -1q-102 0 -154 66.5t-52 177.5v181h-132v77h1062v-77h-482zM214 353.5q32 -43.5 109 -43.5q63 0 99 49t36 122v182h-276v-181q0 -85 32 -128.5z" />
    <glyph glyph-name="dvB_RA" horiz-adv-x="672" 
d="M708 740v-77h-131v-663h-84v171l-194 -226h-98v5l137 143q-20 -2 -31 -2q-71 0 -128.5 30t-90 84.5t-32.5 125.5q0 72 32.5 128t90 87t128.5 31q62 0 110 -25t76 -68v179h-529v77h744zM202 468l276 -215q17 36 17 78q0 51 -22.5 90.5t-62.5 61t-89 21.5q-72 0 -119 -36z
M188.5 204.5q50.5 -46.5 132.5 -46.5q73 0 121 45l-281 220q-23 -40 -23 -92q0 -80 50.5 -126.5z" />
    <glyph glyph-name="dvBH_RA" horiz-adv-x="808" 
d="M843 663h-135v-663h-86v202l-229 -263h-99q42 44 145 155t183 198v93h-164v-59q0 -220 -181 -220q-52 0 -95 22.5t-68 63t-25 92.5q0 89 58.5 131.5t174.5 42.5h53v77q0 64 -19 99t-69 35t-68.5 -35.5t-18.5 -102.5h-85q0 215 172 215q88 0 129.5 -55.5t41.5 -156.5v-76
h164v282h221v-77zM375 385h-58q-70 0 -107.5 -23t-37.5 -81q0 -44 29 -72t74 -28q57 0 78.5 36t21.5 107v61z" />
    <glyph glyph-name="dvM_RA" horiz-adv-x="783" 
d="M819 663h-130v-663h-86v213l-239 -271h-99l338 360v82h-185v-59q0 -219 -181 -219q-52 0 -95 22.5t-68 63t-25 92.5q0 89 58.5 131.5t174.5 42.5h53v205h-371v77h855v-77zM603 663h-185v-205h185v205zM335 384h-58q-70 0 -107.5 -22.5t-37.5 -80.5q0 -44 29 -72t74 -28
q57 0 78.5 36t21.5 107v60z" />
    <glyph glyph-name="dvY_RA" horiz-adv-x="726" 
d="M762 740v-77h-130v-663h-86v212l-234 -264h-100l158 164q-9 -1 -27 -1q-133 0 -204 82t-71 225l1 29q92 0 132 18t49.5 53.5t9.5 113.5v31h-296v77h798zM209.5 238.5q51.5 -55.5 145.5 -55.5q88 0 139.5 60.5t51.5 157.5v262h-201v-33q0 -85 -13 -134t-53 -77t-120 -33
q-1 -92 50.5 -147.5z" />
    <glyph glyph-name="dvL_RA" horiz-adv-x="907" 
d="M291 434q-123 0 -123 -162q0 -82 42 -129t124 -47q14 0 21 1v-78q-11 -1 -32 -1q-74 0 -128.5 31t-83.5 88.5t-29 133.5q0 114 51 177.5t153 63.5q65 0 110.5 -31.5t63.5 -89.5q14 48 48.5 77.5t84.5 36.5v158h-629v77h979v-77h-265v-155q79 -14 119 -76t40 -161
q0 -76 -29 -133.5t-83.5 -88.5t-128.5 -31q-21 0 -32 1v78q7 -1 21 -1q82 0 124 47t42 129q0 162 -122 162q-137 0 -128 -208h-82q9 208 -128 208zM774 -212l-118 149l-122 -149h-96l169 185h100l163 -185h-96z" />
    <glyph glyph-name="dvV_RA" horiz-adv-x="648" 
d="M684 740v-77h-131v-663h-84v183l-199 -231h-97v4l104 106l37 38q-9 -1 -28 -1q-67 0 -119.5 29.5t-82.5 82t-30 120.5t30 122.5t82.5 85t119.5 30.5q63 0 109.5 -23.5t73.5 -64.5v182h-505v77h720zM184 213.5q45 -43.5 120 -43.5t120 43.5t45 117.5v1q0 74 -45 117.5
t-120 43.5t-120 -43.5t-45 -118.5q0 -74 45 -117.5z" />
    <glyph glyph-name="dvSH_RA" horiz-adv-x="776" 
d="M811 740v-77h-130v-663h-84v206l-26 12l-214 -220h-101v4l247 250l-166 82l-49 -41q-7 -6 -42 -35.5t-75 -58.5h-112v6q33 24 160 125l50 40q-78 46 -116.5 94t-38.5 111q0 52 26 92.5t70 63t97 22.5q91 0 145 -49t54 -129q0 -57 -31 -103.5t-78 -88.5q81 -38 200 -92
v449h214zM230 486.5q33 -34.5 98 -69.5q44 36 70.5 72t26.5 79q0 51 -30 81t-85 30q-52 0 -82.5 -31.5t-30.5 -80.5q0 -46 33 -80.5z" />
    <glyph glyph-name="dvSS_RA" horiz-adv-x="655" 
d="M691 740v-77h-131v-663h-86v283l-263 -305h-99l209 229q-5 -1 -17 -1q-107 0 -160.5 63t-53.5 173v221h-126v77h727zM176 663v-5l297 -236q1 4 1 13v228h-298zM212.5 318.5q36.5 -46.5 113.5 -46.5q44 0 78.5 22.5t52.5 61.5l-281 224v-132q0 -83 36.5 -129.5z" />
    <glyph glyph-name="dvS_RA" horiz-adv-x="806" 
d="M842 663h-130v-663h-84v271l-97 -146h-90l181 227h-461v-131q0 -50 5 -80t23.5 -48.5t56.5 -18.5q42 0 59 29.5t17 92.5h80q-1 -97 -38 -147t-118 -50q-91 0 -130.5 58t-39.5 165v198l53 -1q22 0 58 2l1 3h25q55 8 80.5 33t33 70.5t8.5 135.5h-377v77h884v-77zM628 663
h-208q-1 -94 -12.5 -150.5t-39.5 -88.5h260v239z" />
    <glyph glyph-name="dvH_RA" horiz-adv-x="610" 
d="M484 510h-2l2 -3v-24h-174q-53 0 -85.5 -19.5t-32.5 -59.5q0 -28 17.5 -47t45.5 -30q28 7 65 7q80 0 136 -38t76 -102l-141 -129h-96l149 144q-34 53 -123 53q-68 0 -109 -40t-41 -102q0 -66 42 -105t112 -39q56 0 84.5 19t40.5 55h84q-11 -64 -65 -106t-144 -42
q-68 0 -122 28t-84.5 77.5t-30.5 112.5q0 56 22.5 100t63.5 72q-33 20 -51 50t-18 67q0 72 52.5 110.5t144.5 38.5h96v105h-434v77h682v-77h-162v-153z" />
    <glyph glyph-name="dvLL_RA" horiz-adv-x="939" 
d="M698 663v-147q61 -5 109 -35t75 -80t27 -113q0 -83 -46 -142t-121 -79l139 -157h-96l-118 149l-122 -149h-96l148 162q-39 14 -69.5 41.5t-48.5 65.5q-26 -58 -78.5 -89t-116.5 -31q-67 0 -120.5 29t-83.5 81t-30 119t30.5 119t84 81t119.5 29q65 0 117 -31t78 -90
q19 44 54 72.5t80 40.5v154h-649v77h1011v-77h-277zM396 179q40 42 40 109t-40 109t-108 42t-110.5 -41.5t-42.5 -109.5q0 -67 42.5 -109t110.5 -42t108 42zM781.5 397.5q-42.5 41.5 -110.5 41.5q-66 0 -107 -42t-41 -109t41 -109t107 -42q70 0 111.5 41.5t41.5 109.5
t-42.5 109.5z" />
    <glyph glyph-name="dvKx_RA" horiz-adv-x="1011" 
d="M560 663v-179q23 38 63.5 59.5t96.5 21.5q67 0 117 -30t76.5 -83t26.5 -120q0 -69 -30 -119.5t-84 -77.5t-123 -27q-27 0 -41 2l-1 74q10 -1 29 -1q75 0 119.5 38.5t44.5 110.5q0 73 -39 114.5t-113 41.5q-70 0 -106 -45.5t-36 -127.5v-315h-84v183l-189 -214h-101
l135 139h-10q-67 0 -118 28t-79.5 79t-28.5 117q0 67 27.5 120t78 82.5t117.5 29.5q59 0 101 -22t67 -60v181h-512v77h1083v-77h-487zM211.5 218.5q40.5 -40.5 114.5 -40.5q72 0 111 41.5t39 112.5q0 73 -40.5 114t-111.5 41q-73 0 -113 -40.5t-40 -114.5q0 -73 40.5 -113.5
zM147.5 90.5q16.5 -16.5 16.5 -39.5q0 -22 -16.5 -38.5t-39.5 -16.5q-22 0 -38.5 16.5t-16.5 38.5q0 23 16 39.5t39 16.5t39.5 -16.5z" />
    <glyph glyph-name="dvKHx_RA" horiz-adv-x="916" 
d="M952 740v-77h-131v-663h-84v203q-23 -30 -60 -47t-87 -17q-26 0 -52 6l-226 -248h-96v4l130 132q-7 -1 -21 -1q-114 0 -178.5 59.5t-64.5 173.5v142h33q71 0 100.5 10.5t40.5 46.5t11 120v79h-303v77h988zM208 142.5q40 -37.5 123 -37.5q110 0 145 67q-40 26 -62.5 71
t-22.5 101q0 59 25.5 105.5t70.5 72.5t103 26q102 0 147 -60v175h-385v-80q0 -95 -16 -146t-55 -72.5t-113 -23.5v-79q0 -82 40 -119.5zM701.5 248.5q35.5 35.5 35.5 95.5t-35 95t-95 35t-96.5 -35t-36.5 -95t36.5 -95.5t96.5 -35.5q59 0 94.5 35.5zM43 19.5
q17 17.5 41 17.5t41.5 -17.5t17.5 -41.5t-17.5 -41.5t-41.5 -17.5t-41 17.5t-17 41.5t17 41.5z" />
    <glyph glyph-name="dvGx_RA" horiz-adv-x="714" 
d="M36 151.5q17 17.5 41 17.5t41.5 -17.5t17.5 -41.5t-17.5 -41.5t-41.5 -17.5t-41 17.5t-17 41.5t17 41.5zM750 740v-77h-131v-663h-86v272l-242 -273h-103l345 370v294h-202v-242q0 -100 -34.5 -149.5t-117.5 -49.5q-81 0 -119 51t-35 145h85q0 -59 13 -89t57 -30
q31 0 45.5 15.5t18.5 40t4 65.5v243h-284v77h786z" />
    <glyph glyph-name="dvJx_RA" horiz-adv-x="827" 
d="M863 740v-77h-131v-663h-86v238l-222 -268h-104q40 45 141 158.5t185 209.5v102h-181v-40q0 -126 -41.5 -194.5t-155.5 -68.5q-116 0 -158 70t-42 193v114h86v-91q0 -75 6 -116.5t30.5 -67t77.5 -25.5q52 0 76 25.5t30 67t6 116.5v91h266v149h-682v77h899zM74 42.5
q17 17.5 41 17.5t41.5 -17.5t17.5 -41.5t-17.5 -41.5t-41.5 -17.5t-41 17.5t-17 41.5t17 41.5z" />
    <glyph glyph-name="dvPHx_RA" horiz-adv-x="990" 
d="M544 663v-206q25 39 67.5 61t102.5 22q64 0 113 -28t75.5 -78.5t26.5 -115.5t-29 -114.5t-82 -76t-123 -26.5q-18 0 -28 1l-1 74q8 -1 23 -1q71 0 113 37.5t42 104.5q0 70 -38 108t-108 38q-72 0 -113 -47.5t-41 -122.5v-293h-86v310l-243 -316h-99q21 25 80 96t123 149
q-5 -1 -17 -1q-102 0 -154 66.5t-52 177.5v181h-132v77h1062v-77h-482zM214 353.5q32 -43.5 109 -43.5q63 0 99 49t36 122v182h-276v-181q0 -85 32 -128.5zM136 128q-17 -17 -40 -17q-22 0 -38.5 17t-16.5 40t16.5 39.5t38.5 16.5q23 0 40 -16.5t17 -39.5t-17 -40z" />
    <glyph glyph-name="dvK_R" horiz-adv-x="764" 
d="M560 663v-179q23 38 63.5 59.5t96.5 21.5q67 0 116.5 -30t76 -82.5t26.5 -120.5h-85q0 73 -39 114.5t-113 41.5q-70 0 -106 -45.5t-36 -127.5v-315h-84v183l-192 -216h-101l138 141h-10q-67 0 -118 28t-79.5 79t-28.5 117q0 67 27.5 120t78 82.5t117.5 29.5q59 0 101 -22
t67 -60v181h-512v77h976v-77h-380zM211.5 218.5q40.5 -40.5 114.5 -40.5q72 0 111 41.5t39 112.5q0 73 -40.5 114t-111.5 41q-73 0 -113 -40.5t-40 -114.5q0 -73 40.5 -113.5z" />
    <glyph glyph-name="dvKH_R" horiz-adv-x="652" 
d="M764.5 493.5q59.5 -54.5 59.5 -149.5q0 -96 -59.5 -150.5t-156.5 -54.5q-33 0 -67 8l-208 -234h-101v5l122 115q-10 -1 -29 -1q-114 0 -178.5 59.5t-64.5 173.5v142h33q71 1 100.5 11.5t40.5 46t11 119.5v79h-305v77h861v-77h-471v-80q0 -95 -16 -146t-55 -72.5
t-113 -23.5v-79q0 -82 40 -119.5t123 -37.5q113 0 146 69q-41 26 -63.5 69t-22.5 101q0 95 60 149.5t157 54.5t156.5 -54.5zM705.5 248.5q36.5 35.5 36.5 95.5t-36.5 95t-98.5 35q-60 0 -96.5 -35t-36.5 -95t36.5 -95.5t96.5 -35.5q62 0 98.5 35.5z" />
    <glyph glyph-name="dvG_R" horiz-adv-x="439" 
d="M555 740v-77h-224v-242q0 -100 -34.5 -149.5t-117.5 -49.5q-81 0 -119 51t-35 145h85q0 -59 13 -89t57 -30q31 0 45.5 15.5t18.5 40t4 65.5v243h-284v77h591zM188 -1q57 61 183 196t184 198v-94l-264 -300h-103z" />
    <glyph glyph-name="dvGH_R" horiz-adv-x="401" 
d="M179 663v-29q0 -59 10.5 -92t38 -48.5t81.5 -15.5h36v-75h-36q-66 0 -107 -28t-41 -83q0 -58 48 -83.5t120 -25.5q88 0 137 44.5t49 128.5h76q0 -120 -72 -186l-210 -208h-101v4q20 18 67 60.5t90 82.5q-24 -2 -36 -2q-108 0 -181 46t-73 136q0 54 28 92.5t74 57.5v6
q-50 23 -67.5 66.5t-17.5 122.5v29h-128v77h630v-77h-415z" />
    <glyph glyph-name="dvNG_R" horiz-adv-x="660" 
d="M696 740v-77h-226v-181h-162q-61 0 -96 -16.5t-35 -63.5q0 -49 32.5 -65.5t95.5 -16.5q102 0 164 -33.5t62 -129.5q0 -57 -34.5 -99t-95.5 -59l137 -156h-96l-114 145h-7l-119 -145h-96l139 153q-78 17 -123 69t-46 132h85q4 -64 42.5 -99.5t114.5 -35.5q60 0 94 24.5
t34 74.5q0 54 -36 70.5t-101 16.5q-102 0 -160.5 34t-58.5 123q0 82 58.5 117t148.5 35h87v106h-420v77h732zM613.5 418.5q16.5 -16.5 16.5 -40.5q0 -23 -16.5 -40t-39.5 -17q-24 0 -40.5 17t-16.5 40q0 24 16.5 40.5t40.5 16.5q23 0 39.5 -16.5zM366 -170l115 -166h-94
l-105 166h84z" />
    <glyph glyph-name="dvC_R" horiz-adv-x="455" 
d="M628 740v-77h-664v77h664zM506 223.5q40 48.5 40 129.5h79q0 -60 -19 -110.5t-55 -84.5l-195 -197h-101v6l145 132h-15q-67 0 -122.5 25t-88 72t-32.5 111q0 51 20 88.5t56 59.5h-169v72h364v-72h-29q-72 0 -115.5 -38t-43.5 -105q0 -65 43.5 -101t115.5 -36
q82 0 122 48.5z" />
    <glyph glyph-name="dvCH_R" horiz-adv-x="820" 
d="M185 663v-43q0 -65 10 -100.5t39.5 -52.5t87.5 -17h13v-75h-14q-71 0 -113.5 -31.5t-42.5 -92.5q0 -76 70 -109.5t174 -33.5q131 0 207 60t76 182q0 74 -28.5 109t-76.5 35q-34 0 -57.5 -15t-36.5 -58t-12 -121h-77q-4 137 42 201t140 66q86 0 134.5 -60.5t48.5 -162.5
q0 -116 -63 -194.5t-178 -104.5l142 -161h-96l-118 149l-122 -149h-96l136 149q-128 7 -211 59.5t-83 154.5q0 60 30.5 102t83.5 62v6q-57 19 -76 67t-19 141v38h-135v77h892v-77h-671z" />
    <glyph glyph-name="dvJ_R" horiz-adv-x="557" 
d="M721 740v-77h-757v77h757zM704 440h-239v-50q0 -125 -41.5 -193.5t-155.5 -68.5q-116 0 -158 69.5t-42 192.5v124h86v-101q0 -75 6 -116.5t30.5 -67t77.5 -25.5q52 0 76 25.5t30 67t6 116.5v101h324v-74zM348 -13q55 62 177.5 199t178.5 201v-90l-254 -310h-102z" />
    <glyph glyph-name="dvJH_R" horiz-adv-x="573" 
d="M721 346v-151l-204 -296h-101l292 378h-233q19 -10 33 -34.5t14 -53.5q0 -69 -48 -114.5t-137 -45.5q-50 0 -91 19.5t-63 50.5v-135h-83v261h83q3 -56 41 -89.5t100 -33.5q57 0 86 24t29 70q0 36 -16 53.5t-40.5 22t-66.5 4.5q-67 0 -112.5 10t-74 42.5t-28.5 94.5
q0 83 56 113.5t151 30.5h87v96h-431v77h743v-77h-226v-171h-162q-45 0 -71.5 -4t-43.5 -19.5t-17 -47.5q0 -46 28 -60.5t84 -14.5h422z" />
    <glyph glyph-name="dvNY_R" horiz-adv-x="556" 
d="M689 663h-725v77h725v-77zM694 381v-141l-199 -255h-103l281 320h-156q-9 -91 -67.5 -147.5t-159.5 -56.5q-98 0 -155.5 49.5t-70.5 120.5h86q10 -39 45.5 -66t94.5 -27q72 0 108.5 43t36.5 119t-36.5 119.5t-108.5 43.5q-59 0 -94.5 -27t-45.5 -66h-86q13 71 70 120
t156 49q100 0 157.5 -54.5t69.5 -143.5h177z" />
    <glyph glyph-name="dvTT_R" horiz-adv-x="660" 
d="M217.5 438q-59.5 -46 -59.5 -139q0 -82 51 -131t134 -49q85 0 133 49t48 134h85q0 -94 -46.5 -159.5t-128.5 -88.5l140 -159h-96l-116 147h-3l-121 -147h-96l139 153q-94 18 -151 85t-57 167q0 82 37 140t102 88.5t150 32.5v102h-398v77h732v-77h-249v-178h-68
q-102 -1 -161.5 -47zM399 -102l115 -166h-94l-105 166h84z" />
    <glyph glyph-name="dvTTH_R" horiz-adv-x="669" 
d="M386 663v-106q66 -8 117 -41.5t80 -88t29 -123.5q0 -93 -52 -159t-138 -87l141 -160h-96l-118 149l-122 -149h-96l144 157q-91 20 -145.5 86.5t-54.5 162.5q0 68 28.5 122.5t79.5 88.5t117 42v106h-336v77h741v-77h-319zM475.5 435q-50.5 50 -132.5 50t-132.5 -50
t-50.5 -131t50.5 -131t132.5 -50t132.5 50t50.5 131t-50.5 131zM390 -94l115 -166h-94l-105 166h84z" />
    <glyph glyph-name="dvDD_R" horiz-adv-x="582" 
d="M212 465.5q-35 -16.5 -35 -63.5q0 -49 32.5 -65.5t95.5 -16.5q102 0 164 -33.5t62 -129.5q0 -56 -33.5 -98t-93.5 -60l142 -161h-96l-118 149l-122 -149h-96l142 155q-82 15 -130 68t-50 136h85q4 -64 42.5 -99.5t114.5 -35.5q60 0 94 24.5t34 74.5q0 54 -36 70.5
t-101 16.5q-102 0 -160.5 34t-58.5 123q0 82 58.5 117t148.5 35h87v106h-420v77h654v-77h-148v-181h-162q-61 0 -96 -16.5zM376 -156l115 -166h-94l-105 166h84z" />
    <glyph glyph-name="dvDDH_R" horiz-adv-x="635" 
d="M223 441.5q-66 -53.5 -66 -159.5q0 -94 59.5 -146t156.5 -52q69 0 105.5 31.5t36.5 85.5q0 42 -21.5 69t-68.5 27q-46 0 -67 -28.5t-21 -75.5h-79q-1 79 41 127.5t124 48.5q78 0 126.5 -45t48.5 -122q0 -68 -37 -115.5t-101 -66.5l142 -161h-96l-117 148h-1l-122 -148
h-96l140 153q-107 17 -172.5 88.5t-65.5 182.5q0 95 41.5 159t113 95.5t162.5 32.5v93h-425v77h707v-77h-196v-168h-73q-113 0 -179 -53.5zM432 -141l115 -166h-94l-105 166h84z" />
    <glyph glyph-name="dvNN_R" horiz-adv-x="589" 
d="M708 740v-77h-207v-244q0 -115 -47.5 -177.5t-153.5 -62.5q-107 0 -154.5 62.5t-47.5 177.5v244h-134v77h744zM416 663h-233v-247q0 -79 25 -119.5t92 -40.5t91.5 40t24.5 120v247zM358 0l350 408v-99l-247 -309h-103z" />
    <glyph glyph-name="dvT_R" horiz-adv-x="423" 
d="M-36 740h592v-77h-592v77zM428 445.5q-38 36.5 -101 36.5q-76 0 -116.5 -48.5t-45.5 -129.5h-85q5 114 66.5 184.5t165.5 70.5q102 0 164 -57t81 -166q-59 -69 -134 -148t-181 -189h-106v5l345 342q-15 63 -53 99.5z" />
    <glyph glyph-name="dvTH_R" horiz-adv-x="478" 
d="M640 257q-17 -46 -49 -80l-215 -212h-101v4l25 22l119 106q-22 -2 -35 -2q-92 0 -157.5 37t-100 103.5t-34.5 155.5q0 19 4 59l95 -2q104 0 153.5 24.5t49.5 96.5q0 49 -26.5 76.5t-73.5 27.5q-52 0 -78.5 -33.5t-24.5 -90.5h-82q-3 90 48 145t138 55q81 0 132.5 -50
t51.5 -133q0 -108 -79.5 -148.5t-216.5 -37.5q-5 -96 47.5 -152t153.5 -56q89 0 142 49t53 135h78q0 -53 -17 -99z" />
    <glyph glyph-name="dvD_R" horiz-adv-x="596" 
d="M206 448q-57 -35 -57 -127q0 -75 43.5 -113t120.5 -38q58 0 94.5 29.5t36.5 94.5h78v-294h-86v150l-170 -215h-97l142 163h-10q-108 0 -173.5 59.5t-65.5 165.5q0 122 79.5 180t216.5 58h40v102h-434v77h668v-77h-148v-180h-114q-107 0 -164 -35zM443 -64h84l115 -166
h-94z" />
    <glyph glyph-name="dvDH_R" horiz-adv-x="420" 
d="M543 181h1l-200 -212h-101v7q9 7 32.5 29t56.5 53q4 4 52 49q-24 -3 -48 -3q-65 0 -120.5 19.5t-89.5 59.5t-34 100q0 53 28 88.5t77 53.5v6q-47 18 -77.5 58.5t-30.5 96.5q0 72 47.5 118t122.5 46q82 0 126.5 -51t39.5 -133h-76q2 49 -20 78t-68 29q-41 0 -65.5 -24
t-24.5 -66q0 -61 43 -90.5t114 -29.5h50v-74h-46q-67 0 -110.5 -24.5t-43.5 -78.5t46.5 -80.5t112.5 -26.5q86 0 136 43t50 133h79q0 -110 -59 -174z" />
    <glyph glyph-name="dvN_R" horiz-adv-x="501" 
d="M-36 740h695v-77h-695v77zM395 431q30 -18 46.5 -53t16.5 -77q0 -53 -24 -95t-67.5 -65.5t-101.5 -23.5t-105 24t-74 68t-27 103q0 91 59 142t169 51h372v-74h-264zM176.5 223q35.5 -30 88.5 -30q48 0 81 31.5t33 86.5q0 54 -31.5 86t-86.5 32q-51 0 -85.5 -31t-34.5 -87
q0 -58 35.5 -88zM436 -20h-101q50 56 161.5 181t162.5 184v-90z" />
    <glyph glyph-name="dvP_R" horiz-adv-x="377" 
d="M176 663v-211q0 -175 149 -175q75 0 111.5 42.5t36.5 119.5h80q0 -57 -16.5 -102t-48.5 -76l-255 -267h-103v4l208 204h-13q-117 0 -176 66t-59 182v213h-126v77h593v-77h-381z" />
    <glyph glyph-name="dvPH_R" horiz-adv-x="751" 
d="M544 663v-206q25 39 67.5 61t102.5 22q64 0 112.5 -28t74.5 -78.5t26 -116.5h-82q0 70 -38.5 108t-108.5 38q-72 0 -113 -47.5t-41 -122.5v-293h-86v310l-243 -316h-101l203 244h-15q-101 0 -153.5 66.5t-52.5 177.5v181h-132v77h975v-77h-395zM214 353.5
q32 -43.5 109 -43.5q62 0 97.5 46.5t37.5 117.5v189h-276v-181q0 -85 32 -128.5z" />
    <glyph glyph-name="dvB_R" horiz-adv-x="414" 
d="M586 740v-77h-622v77h622zM454.5 547q59.5 -30 93.5 -86t34 -130q0 -49 -17.5 -91.5t-50.5 -74.5l-211 -220h-98v4l150 143q-22 -2 -34 -2q-75 0 -135.5 29t-95 83.5t-34.5 128.5q0 75 34.5 130.5t95 85.5t134.5 30q75 0 134.5 -30zM202 468l284 -221q19 38 19 84
q0 80 -51 126.5t-133 46.5q-72 0 -119 -36zM188.5 204.5q50.5 -46.5 132.5 -46.5q77 0 127 41l-287 224q-23 -40 -23 -92q0 -80 50.5 -126.5z" />
    <glyph glyph-name="dvBH_R" horiz-adv-x="534" 
d="M677 458v-74h-217v-59q0 -220 -181 -220q-52 0 -95 22.5t-68 63t-25 92.5q0 89 58.5 132t174.5 43h53v77q0 64 -19 99t-69 35t-68.5 -35.5t-18.5 -102.5h-84q-2 215 171 215q88 0 129.5 -55.5t41.5 -156.5v-76h217zM377 384h-58q-70 0 -107.5 -23t-37.5 -81
q0 -44 29 -71.5t74 -27.5q57 0 78.5 35.5t21.5 107.5v60zM352 -25q51 56 162.5 178.5t162.5 180.5v-88l-220 -271h-105z" />
    <glyph glyph-name="dvM_R" horiz-adv-x="518" 
d="M420 663v-203h242v-74h-242v-59q0 -219 -181 -219q-52 0 -95 22.5t-68 63t-25 91.5q0 90 59 132.5t175 42.5h52v203h-373v77h828v-77h-372zM337 386h-58q-70 0 -107.5 -22.5t-37.5 -80.5q0 -44 29.5 -72t74.5 -28q57 0 78 35.5t21 107.5v60zM324 -25q53 58 168.5 186.5
t169.5 188.5v-90l-233 -285h-105z" />
    <glyph glyph-name="dvY_R" horiz-adv-x="451" 
d="M332 496q-13 -49 -53 -77t-120 -33q-2 -92 49.5 -147.5t146.5 -55.5q94 0 142 57.5t48 160.5h79q1 -74 -20.5 -131t-63.5 -96l-207 -210h-101v5l157 142q-22 -2 -34 -2q-141 0 -214 81.5t-73 227.5l1 29q92 0 132 18t49.5 53.5t9.5 113.5v31h-296v77h661v-77h-280v-33
q0 -85 -13 -134z" />
    <glyph glyph-name="dvL_R" horiz-adv-x="907" 
d="M291 434q-123 0 -123 -162q0 -82 42 -129t124 -47q14 0 21 1v-78q-11 -1 -32 -1q-74 0 -128.5 31t-83.5 88.5t-29 133.5q0 114 51 177.5t153 63.5q65 0 110.5 -31.5t63.5 -89.5q14 48 48.5 77.5t84.5 36.5v158h-629v77h979v-77h-265v-155q79 -14 119 -76t40 -161
q0 -76 -29 -133.5t-83.5 -88.5t-128.5 -31q-21 0 -32 1v78q7 -1 21 -1q82 0 124 47t42 129q0 162 -122 162q-137 0 -128 -208h-82q9 208 -128 208zM774 -212l-118 149l-122 -149h-96l169 185h100l163 -185h-96zM617 -239h84l115 -166h-94z" />
    <glyph glyph-name="dvV_R" horiz-adv-x="378" 
d="M554 740v-77h-590v77h590zM430 540q56 -29 87.5 -83t31.5 -126q0 -50 -17 -92.5t-49 -73.5l-177 -190h-98v4l125 120q-10 -1 -29 -1q-73 0 -129.5 28t-88.5 80.5t-32 124.5t32 126t88.5 83t127.5 29q72 0 128 -29zM184 213.5q45 -43.5 120 -43.5t120 43.5t45 117.5
q0 75 -45 118.5t-120 43.5t-120 -43.5t-45 -118.5q0 -74 45 -117.5z" />
    <glyph glyph-name="dvSH_R" horiz-adv-x="414" 
d="M546 303v-85h-1l-211 -220h-101v4l247 248l-170 84l-49 -41q-7 -6 -42 -35.5t-75 -58.5h-112v6q67 50 210 165q-78 46 -116.5 94t-38.5 111q0 52 26 92.5t70 63t97 22.5q91 0 145 -49t54 -129q0 -57 -31 -103.5t-78 -88.5zM203 486.5q33 -34.5 98 -69.5q44 36 70.5 72
t26.5 79q0 51 -29.5 81t-84.5 30q-52 0 -83 -31.5t-31 -80.5q0 -46 33 -80.5z" />
    <glyph glyph-name="dvSS_R" horiz-adv-x="386" 
d="M176 663v-4l356 -280q0 -35 -13.5 -67t-38.5 -57l-243 -261h-101v4l204 200h-12q-113 0 -175.5 66t-62.5 181v218h-126v77h570v-77h-358zM176 580v-132q0 -84 37 -130t115 -46q54 0 87 25t39 64z" />
    <glyph glyph-name="dvS_R" horiz-adv-x="522" 
d="M420 663q-1 -93 -12.5 -150t-38.5 -89h307v-144l-175 -271h-82l250 343h-508v-131q0 -50 5 -80t23.5 -48.5t57.5 -18.5q37 0 56 17t25 48.5t5 85.5h81q2 -108 -36.5 -167t-130.5 -59q-91 0 -131 58t-40 165v198l53 -1q29 0 42 1l1 4h41q55 8 80.5 33.5t33 71t8.5 134.5
h-377v77h718v-77h-256z" />
    <glyph glyph-name="dvH_R" horiz-adv-x="610" 
d="M484 510h-2l2 -3v-24h-174q-53 0 -85.5 -19.5t-32.5 -59.5q0 -28 17.5 -47t45.5 -30q28 7 65 7q80 0 136 -38t76 -102l-141 -129h-96l149 144q-34 53 -123 53q-68 0 -109 -40t-41 -102q0 -66 42 -105t112 -39q56 0 84.5 19t40.5 55h84q-11 -64 -65 -106t-144 -42
q-68 0 -122 28t-84.5 77.5t-30.5 112.5q0 56 22.5 100t63.5 72q-33 20 -51 50t-18 67q0 72 52.5 110.5t144.5 38.5h96v105h-434v77h682v-77h-162v-153zM287 -167h84l115 -166h-94z" />
    <glyph glyph-name="dvLL_R" horiz-adv-x="939" 
d="M975 740v-77h-1011v77h1011zM868 151.5q-41 -57.5 -110 -79.5l142 -162h-96l-118 149l-122 -149h-96l144 158q-44 12 -79 40.5t-54 70.5q-26 -58 -78.5 -89t-116.5 -31q-67 0 -120.5 29t-83.5 81t-30 119t30.5 119t84 81t119.5 29q65 0 117 -31t78 -90q25 59 78.5 90
t118.5 31q66 0 119 -29t83.5 -81t30.5 -119q0 -79 -41 -136.5zM396 179q40 42 40 109t-40 109t-108 42t-110.5 -41.5t-42.5 -109.5q0 -67 42.5 -109t110.5 -42t108 42zM782.5 178.5q41.5 41.5 41.5 109.5t-42.5 109.5t-110.5 41.5q-66 0 -107 -42t-41 -109t41 -109t107 -42
q70 0 111.5 41.5z" />
    <glyph glyph-name="dvKx_R" horiz-adv-x="748" 
d="M560 663v-179q23 38 63.5 59.5t96.5 21.5q67 0 116.5 -30t76 -82.5t26.5 -120.5h-85q0 73 -39 114.5t-113 41.5q-70 0 -106 -45.5t-36 -127.5v-315h-84v183l-192 -216h-101l138 141h-10q-67 0 -118 28t-79.5 79t-28.5 117q0 67 27.5 120t78 82.5t117.5 29.5q59 0 101 -22
t67 -60v181h-512v77h976v-77h-380zM211.5 218.5q40.5 -40.5 114.5 -40.5q72 0 111 41.5t39 112.5q0 73 -40.5 114t-111.5 41q-73 0 -113 -40.5t-40 -114.5q0 -73 40.5 -113.5zM146.5 101.5q16.5 -16.5 16.5 -39.5q0 -22 -16.5 -38.5t-39.5 -16.5q-22 0 -38.5 16.5
t-16.5 38.5q0 23 16 39.5t39 16.5t39.5 -16.5z" />
    <glyph glyph-name="dvKHx_R" horiz-adv-x="651" 
d="M764.5 493.5q59.5 -54.5 59.5 -149.5q0 -96 -59.5 -150.5t-156.5 -54.5q-33 0 -67 8l-208 -234h-101v5l122 115q-10 -1 -29 -1q-114 0 -178.5 59.5t-64.5 173.5v142h33q71 1 100.5 11.5t40.5 46t11 119.5v79h-305v77h861v-77h-471v-80q0 -95 -16 -146t-55 -72.5
t-113 -23.5v-79q0 -82 40 -119.5t123 -37.5q113 0 146 69q-41 26 -63.5 69t-22.5 101q0 95 60 149.5t157 54.5t156.5 -54.5zM705.5 248.5q36.5 35.5 36.5 95.5t-36.5 95t-98.5 35q-60 0 -96.5 -35t-36.5 -95t36.5 -95.5t96.5 -35.5q62 0 98.5 35.5zM56 24.5q17 17.5 41 17.5
t41.5 -17.5t17.5 -41.5t-17.5 -41.5t-41.5 -17.5t-41 17.5t-17 41.5t17 41.5z" />
    <glyph glyph-name="dvGx_R" horiz-adv-x="432" 
d="M555 740v-77h-224v-242q0 -100 -34.5 -149.5t-117.5 -49.5q-81 0 -119 51t-35 145h85q0 -59 13 -89t57 -30q31 0 45.5 15.5t18.5 40t4 65.5v243h-284v77h591zM188 -1q57 61 183 196t184 198v-94l-264 -300h-103zM37 115.5q17 17.5 41 17.5t41.5 -17.5t17.5 -41.5
t-17.5 -41.5t-41.5 -17.5t-41 17.5t-17 41.5t17 41.5z" />
    <glyph glyph-name="dvJx_R" horiz-adv-x="521" 
d="M721 740v-77h-757v77h757zM704 440h-239v-50q0 -125 -41.5 -193.5t-155.5 -68.5q-116 0 -158 69.5t-42 192.5v124h86v-101q0 -75 6 -116.5t30.5 -67t77.5 -25.5q52 0 76 25.5t30 67t6 116.5v101h324v-74zM348 -13q55 62 177.5 199t178.5 201v-90l-254 -310h-102zM87 56.5
q17 17.5 41 17.5t41.5 -17.5t17.5 -41.5t-17.5 -41.5t-41.5 -17.5t-41 17.5t-17 41.5t17 41.5z" />
    <glyph glyph-name="dvPHx_R" horiz-adv-x="728" 
d="M544 663v-206q25 39 67.5 61t102.5 22q64 0 112.5 -28t74.5 -78.5t26 -116.5h-82q0 70 -38.5 108t-108.5 38q-72 0 -113 -47.5t-41 -122.5v-293h-86v310l-243 -316h-101l203 244h-15q-101 0 -153.5 66.5t-52.5 177.5v181h-132v77h975v-77h-395zM214 353.5
q32 -43.5 109 -43.5q62 0 97.5 46.5t37.5 117.5v189h-276v-181q0 -85 32 -128.5zM126 133q-17 -17 -40 -17q-22 0 -38.5 17t-16.5 40t16.5 39.5t38.5 16.5q23 0 40 -16.5t17 -39.5t-17 -40z" />
    <glyph glyph-name="dvK_KA" horiz-adv-x="1773" 
d="M1329 663v-179q23 38 63.5 59.5t96.5 21.5q67 0 117 -30t76.5 -83t26.5 -120q0 -69 -30 -119.5t-84 -77.5t-123 -27q-27 0 -41 2l-1 74q10 -1 29 -1q75 0 119.5 38.5t44.5 110.5q0 73 -39 114.5t-113 41.5q-70 0 -106 -45.5t-36 -127.5v-315h-84v183q-25 -38 -67.5 -59.5
t-100.5 -21.5q-66 0 -116.5 29.5t-78.5 81.5t-28 119q0 73 -39 114.5t-113 41.5q-70 0 -106 -45.5t-36 -127.5v-315h-84v183q-25 -38 -67.5 -59.5t-100.5 -21.5q-66 0 -116.5 29.5t-78.5 81.5t-28 119t27.5 120t78 82.5t117.5 29.5q59 0 101 -22t67 -60v181h-512v77h1852
v-77h-487zM823.5 542q45.5 -23 74.5 -64q29 41 75 63.5t104 22.5q59 0 101 -22t67 -60v181h-685v-179q23 38 63.5 59.5t96.5 21.5q58 0 103.5 -23zM437 219.5q39 41.5 39 112.5q0 73 -40.5 114t-111.5 41q-73 0 -113 -40.5t-40 -114.5q0 -73 40.5 -113.5t114.5 -40.5
q72 0 111 41.5zM1206 219.5q39 41.5 39 112.5q0 73 -40.5 114t-111.5 41q-73 0 -113 -40.5t-40 -114.5q0 -73 40.5 -113.5t114.5 -40.5q72 0 111 41.5z" />
    <glyph glyph-name="dvKx_KxA" horiz-adv-x="1781" 
d="M1329 663v-179q23 38 63.5 59.5t96.5 21.5q67 0 117 -30t76.5 -83t26.5 -120q0 -69 -30 -119.5t-84 -77.5t-123 -27q-27 0 -41 2l-1 74q10 -1 29 -1q75 0 119.5 38.5t44.5 110.5q0 73 -39 114.5t-113 41.5q-70 0 -106 -45.5t-36 -127.5v-315h-84v183q-25 -38 -67.5 -59.5
t-100.5 -21.5q-66 0 -116.5 29.5t-78.5 81.5t-28 119q0 73 -39 114.5t-113 41.5q-70 0 -106 -45.5t-36 -127.5v-315h-84v183q-25 -38 -67.5 -59.5t-100.5 -21.5q-66 0 -116.5 29.5t-78.5 81.5t-28 119t27.5 120t78 82.5t117.5 29.5q59 0 101 -22t67 -60v181h-512v77h1852
v-77h-487zM823.5 542q45.5 -23 74.5 -64q29 41 75 63.5t104 22.5q59 0 101 -22t67 -60v181h-685v-179q23 38 63.5 59.5t96.5 21.5q58 0 103.5 -23zM437 219.5q39 41.5 39 112.5q0 73 -40.5 114t-111.5 41q-73 0 -113 -40.5t-40 -114.5q0 -73 40.5 -113.5t114.5 -40.5
q72 0 111 41.5zM1206 219.5q39 41.5 39 112.5q0 73 -40.5 114t-111.5 41q-73 0 -113 -40.5t-40 -114.5q0 -73 40.5 -113.5t114.5 -40.5q72 0 111 41.5zM389.5 7.5q17.5 -17.5 17.5 -41.5t-17.5 -41.5t-41.5 -17.5t-41 17.5t-17 41.5t17 41.5t41 17.5t41.5 -17.5zM1155.5 7.5
q17.5 -17.5 17.5 -41.5t-17.5 -41.5t-41.5 -17.5t-41 17.5t-17 41.5t17 41.5t41 17.5t41.5 -17.5z" />
    <glyph glyph-name="dvK_KHA" horiz-adv-x="1688" 
d="M1724 663h-131v-663h-84v203q-23 -30 -60 -47t-87 -17q-11 0 -31 2q-22 -69 -84 -106t-148 -37q-113 0 -179 64t-66 176v94q0 73 -39 114.5t-113 41.5q-70 0 -106 -45.5t-36 -127.5v-315h-84v183q-25 -38 -67.5 -59.5t-100.5 -21.5q-66 0 -116.5 29.5t-78.5 81.5t-28 119
t27.5 120t78 82.5t117.5 29.5q59 0 101 -22t67 -60v181h-512v77h1760v-77zM855.5 522.5q54.5 -42.5 73.5 -114.5q49 3 71.5 16.5t30.5 49t8 110.5v79h-479v-179q23 38 63.5 59.5t96.5 21.5q81 0 135.5 -42.5zM1199.5 99.5q39.5 24.5 53.5 69.5q-43 27 -66.5 72t-23.5 103
q0 59 25.5 105.5t70.5 72.5t103 26q102 0 147 -60v175h-385v-80q0 -95 -16 -146t-55 -72.5t-113 -23.5v-105q0 -81 39 -121t120 -40q61 0 100.5 24.5zM437 219.5q39 41.5 39 112.5q0 73 -40.5 114t-111.5 41q-73 0 -113 -40.5t-40 -114.5q0 -73 40.5 -113.5t114.5 -40.5
q72 0 111 41.5zM1473.5 248.5q35.5 35.5 35.5 95.5t-35 95t-95 35t-96.5 -35t-36.5 -95t36.5 -95.5t96.5 -35.5q59 0 94.5 35.5z" />
    <glyph glyph-name="dvK_CA" horiz-adv-x="1403" 
d="M1439 663h-131v-663h-86v188q-24 -40 -68 -64.5t-111 -24.5q-62 0 -113.5 26t-81.5 73t-30 107q0 54 21.5 95t59.5 66h-139q-87 0 -142.5 -24.5t-57.5 -104.5v-337h-84v183q-25 -38 -67.5 -59.5t-100.5 -21.5q-66 0 -116.5 29.5t-78.5 81.5t-28 119t27.5 120t78 82.5
t117.5 29.5q59 0 101 -22t67 -60v181h-512v77h1475v-77zM1222 663h-289h-373v-194q29 44 83.5 56.5t146.5 12.5h299v-72h-28q-72 0 -115.5 -42t-43.5 -111q0 -65 43 -101.5t113 -36.5q47 0 84.5 23.5t58.5 63.5t21 88v313zM437 219.5q39 41.5 39 112.5q0 73 -40.5 114
t-111.5 41q-73 0 -113 -40.5t-40 -114.5q0 -73 40.5 -113.5t114.5 -40.5q72 0 111 41.5z" />
    <glyph glyph-name="dvK_JA" horiz-adv-x="1594" 
d="M1630 663h-130v-663h-86v440h-182v-74q0 -125 -41.5 -193.5t-155.5 -68.5q-107 0 -151 61.5t-47 168.5q0 78 -30.5 115.5t-102.5 37.5q-70 0 -107 -45.5t-37 -127.5v-314h-84v183q-25 -38 -67.5 -59.5t-100.5 -21.5q-66 0 -116.5 29.5t-78.5 81.5t-28 119t27.5 120
t78 82.5t117.5 29.5q59 0 101 -22t67 -60v181h-512v77h1666v-77zM1414 663h-854v-182q24 39 65.5 61t98.5 22q99 0 148.5 -61t49.5 -168q2 -77 25 -115.5t88 -38.5q52 0 76 25.5t30 66.5t6 116v125h267v149zM437 219.5q39 41.5 39 112.5q0 73 -40.5 114t-111.5 41
q-73 0 -113 -40.5t-40 -114.5q0 -73 40.5 -113.5t114.5 -40.5q72 0 111 41.5z" />
    <glyph glyph-name="dvK_TTA" horiz-adv-x="1440" 
d="M997 438q-60 -46 -60 -139q0 -82 51 -131t135 -49q85 0 133 49t48 134h84q0 -79 -33 -138t-92.5 -90.5t-139.5 -31.5q-78 0 -139.5 32t-96.5 90.5t-35 135.5q0 12 2 36q-1 72 -39 112t-110 40q-71 0 -108 -45.5t-37 -127.5v-315h-84v183q-25 -38 -67.5 -59.5
t-100.5 -21.5q-66 0 -116.5 29.5t-78.5 81.5t-28 119t27.5 120t78 82.5t117.5 29.5q59 0 101 -22t67 -60v181h-512v77h1512v-77h-249v-178h-68q-102 -1 -162 -47zM1002.5 534q61.5 25 138.5 27v102h-581v-181q24 39 65 61t97 22q65 0 111 -27.5t70 -76.5q38 48 99.5 73z
M437 219.5q39 41.5 39 112.5q0 73 -40.5 114t-111.5 41q-73 0 -113 -40.5t-40 -114.5q0 -73 40.5 -113.5t114.5 -40.5q72 0 111 41.5z" />
    <glyph glyph-name="dvK_NNA" horiz-adv-x="1603" 
d="M1639 663h-131v-663h-86v663h-177v-255q0 -240 -201 -240q-176 0 -199 183q-6 66 -40 101t-102 35q-70 0 -106.5 -45.5t-36.5 -127.5v-314h-84v183q-25 -38 -67.5 -59.5t-100.5 -21.5q-66 0 -116.5 29.5t-78.5 81.5t-28 119t27.5 120t78 82.5t117.5 29.5q59 0 101 -22
t67 -60v181h-512v77h1675v-77zM842 520v143h-282v-179q24 38 63 59t93 21q77 0 126 -44zM1160 663h-233v-257q0 -80 25 -120.5t92 -40.5t91.5 40.5t24.5 120.5v257zM437 219.5q39 41.5 39 112.5q0 73 -40.5 114t-111.5 41q-73 0 -113 -40.5t-40 -114.5q0 -73 40.5 -113.5
t114.5 -40.5q72 0 111 41.5z" />
    <glyph glyph-name="dvK_TA" horiz-adv-x="1104" 
d="M622 663v-262q27 38 71.5 60t104.5 22q68 0 120.5 -30t81.5 -84t29 -125q0 -70 -31 -124t-87 -83t-129 -27q-17 0 -26 1v75l19 -1q75 0 121.5 42.5t46.5 116.5q0 76 -44 119t-119 43q-73 0 -115.5 -42t-42.5 -116v-248h-85v421h-144q-91 0 -145 -42.5t-54 -130.5
t45 -132.5t146 -44.5v-73h-13q-132 0 -198.5 66t-66.5 182q0 59 25.5 107t68.5 70h-174v74h510v166h-573v77h1176v-77h-518z" />
    <glyph glyph-name="dvKx_TA" horiz-adv-x="1410" 
d="M1446 663h-130v-663h-86v421h-144q-92 0 -145.5 -41.5t-53.5 -131.5q0 -88 45 -132.5t146 -44.5v-73h-13q-132 0 -198.5 66.5t-66.5 183.5q0 92 43 153q-14 42 -50 64.5t-91 22.5q-70 0 -106 -45.5t-36 -127.5v-315h-84v183q-25 -38 -67.5 -59.5t-100.5 -21.5
q-66 0 -116.5 29.5t-78.5 81.5t-28 119t27.5 120t78 82.5t117.5 29.5q59 0 101 -22t67 -60v181h-512v77h1482v-77zM1230 663h-670v-179q23 38 63.5 59.5t96.5 21.5q65 0 113.5 -28.5t74.5 -79.5q69 40 178 40h144v166zM437 219.5q39 41.5 39 112.5q0 73 -40.5 114t-111.5 41
q-73 0 -113 -40.5t-40 -114.5q0 -73 40.5 -113.5t114.5 -40.5q72 0 111 41.5zM393.5 5.5q17.5 -17.5 17.5 -41.5t-17.5 -41.5t-41.5 -17.5t-41 17.5t-17 41.5t17 41.5t41 17.5t41.5 -17.5z" />
    <glyph glyph-name="dvK_T_YA" horiz-adv-x="1906" 
d="M1942 663h-131v-663h-85v217q-27 -51 -79 -81t-124 -30q-117 0 -186.5 65.5t-84.5 182.5q-13 33 -47 50t-97 17q-87 0 -134.5 -43t-47.5 -130q0 -86 39 -131.5t137 -45.5v-73h-13q-130 0 -190 68t-60 182q0 46 11 87q-1 72 -38 112.5t-110 40.5q-70 0 -106 -45.5
t-36 -127.5v-315h-84v183q-25 -38 -67.5 -59.5t-100.5 -21.5q-66 0 -116.5 29.5t-78.5 81.5t-28 119t27.5 120t78 82.5t117.5 29.5q59 0 101 -22t67 -60v181h-512v77h1978v-77zM1278 447q78 3 112 22t42 54t8 109v31h-880v-179q23 38 63.5 59.5t96.5 21.5q72 0 121.5 -34
t72.5 -93q68 59 194 59q111 0 170 -50zM1674 243.5q52 60.5 52 157.5v262h-201v-33q0 -84 -13 -133.5t-53 -77.5t-120 -33q-2 -91 49.5 -147t145.5 -56q88 0 140 60.5zM437 219.5q39 41.5 39 112.5q0 73 -40.5 114t-111.5 41q-73 0 -113 -40.5t-40 -114.5q0 -73 40.5 -113.5
t114.5 -40.5q72 0 111 41.5z" />
    <glyph glyph-name="dvK_T_RA" horiz-adv-x="1397" 
d="M1433 663h-146v-663h-86v254l-243 -255h-114v5l350 347q-12 60 -51.5 95.5t-101.5 35.5q-134 0 -150 -155h-79q0 73 -29.5 116t-94.5 43q-69 0 -98.5 -45t-29.5 -126v-315h-84v183q-25 -38 -67.5 -59.5t-100.5 -21.5q-66 0 -116.5 29.5t-78.5 81.5t-28 119t27.5 120
t78 82.5t117.5 29.5q59 0 101 -22t67 -60v181h-512v77h1469v-77zM1201 663h-641v-173q45 71 141 71q113 0 156 -99q53 97 171 97q62 0 106 -25t67 -68v197zM437 219.5q39 41.5 39 112.5q0 73 -40.5 114t-111.5 41q-73 0 -113 -40.5t-40 -114.5q0 -73 40.5 -113.5
t114.5 -40.5q72 0 111 41.5z" />
    <glyph glyph-name="dvK_T_VA" horiz-adv-x="1798" 
d="M1834 663h-131v-663h-84v182q-27 -41 -73.5 -64.5t-109.5 -23.5q-67 0 -119.5 30.5t-82.5 84.5t-30 122q0 50 15 90h-95q-92 0 -145.5 -41.5t-53.5 -131.5q0 -88 45 -132.5t146 -44.5v-73h-13q-132 0 -198.5 66.5t-66.5 183.5q0 51 12 88q-2 72 -39 112t-109 40
q-70 0 -106 -45.5t-36 -127.5v-315h-84v183q-25 -38 -67.5 -59.5t-100.5 -21.5q-66 0 -116.5 29.5t-78.5 81.5t-28 119t27.5 120t78 82.5t117.5 29.5q59 0 101 -22t67 -60v181h-512v77h1870v-77zM1340 550q44 19 96 19q63 0 109.5 -23.5t73.5 -64.5v182h-1059v-179
q23 38 63.5 59.5t96.5 21.5q72 0 122 -34.5t72 -94.5q76 61 210 61h141q31 34 75 53zM1574 213.5q45 43.5 45 117.5v1q0 74 -45 117.5t-120 43.5t-120 -43.5t-45 -118.5q0 -74 45 -117.5t120 -43.5t120 43.5zM437 219.5q39 41.5 39 112.5q0 73 -40.5 114t-111.5 41
q-73 0 -113 -40.5t-40 -114.5q0 -73 40.5 -113.5t114.5 -40.5q72 0 111 41.5z" />
    <glyph glyph-name="dvK_THA" horiz-adv-x="1518" 
d="M1548 740v-77h-130v-663h-86v196q-23 -41 -75 -71t-130 -30q-87 0 -149.5 37t-94.5 102.5t-32 150.5q-8 50 -38 76.5t-87 26.5q-70 0 -106 -45.5t-36 -127.5v-315h-85v182q-53 -80 -167 -80q-66 0 -116.5 29.5t-78.5 81.5t-28 119t27.5 120t78 82.5t117.5 29.5
q58 0 100 -21.5t67 -59.5v180h-511v77h983q31 10 69 10q54 0 98 -21.5t69.5 -62.5t25.5 -97q0 -108 -78 -150t-213 -39q-5 -94 45 -151.5t150 -57.5q55 0 99.5 24.5t70 69.5t25.5 103v372h216zM855 534.5q45 -30.5 66 -83.5q79 -1 126.5 7t74 35t26.5 79q0 48 -30 74.5
t-82 26.5q-33 0 -58 -10h-394v-179q23 38 63.5 59.5t96.5 21.5q66 0 111 -30.5zM460 219.5q39 41.5 39 112.5q0 73 -40 114t-111 41q-73 0 -113 -40.5t-40 -114.5q0 -73 40.5 -113.5t113.5 -40.5q72 0 111 41.5z" />
    <glyph glyph-name="dvK_DA" horiz-adv-x="1381" 
d="M990.5 448q-57.5 -35 -57.5 -127q0 -75 43.5 -113t120.5 -38q58 0 94.5 29.5t36.5 94.5h78v-294h-85v146q-18 -24 -54.5 -38t-81.5 -14q-69 0 -123.5 27.5t-85 79.5t-30.5 122q0 15 1 22q-3 68 -39 105.5t-105 37.5q-71 0 -107 -45.5t-36 -127.5v-315h-84v183
q-25 -38 -67.5 -59.5t-100.5 -21.5q-66 0 -116.5 29.5t-78.5 81.5t-28 119t27.5 120t78.5 82.5t117 29.5q58 0 100.5 -22t67.5 -60v181h-512v77h1453v-77h-149v-180h-113q-107 0 -164.5 -35zM1143 561h40v102h-623v-179q23 38 63 59.5t96 21.5q61 0 104.5 -25.5t67.5 -70.5
q72 92 252 92zM437 219.5q39 41.5 39 112.5q0 73 -40.5 114t-111.5 41q-73 0 -113 -40.5t-40 -114.5q0 -73 40.5 -113.5t114.5 -40.5q72 0 111 41.5z" />
    <glyph glyph-name="dvK_NA" horiz-adv-x="1574" 
d="M1610 663h-130v-663h-86v413h-207q30 -18 46.5 -52.5t16.5 -77.5q0 -53 -24 -94.5t-67.5 -65t-101.5 -23.5t-105 23.5t-74 67.5t-27 103q0 20 3 39q0 73 -38 114t-111 41q-71 0 -108 -45.5t-37 -127.5v-315h-84v183q-25 -38 -67.5 -59.5t-100.5 -21.5q-66 0 -116.5 29.5
t-78.5 81.5t-28 119t27.5 120t78 82.5t117.5 29.5q59 0 101 -22t67 -60v181h-512v77h1646v-77zM1394 663h-834v-184q24 40 64.5 63t96.5 23q73 0 121 -33.5t71 -93.5q58 49 166 49h315v176zM437 219.5q39 41.5 39 112.5q0 73 -40.5 114t-111.5 41q-73 0 -113 -40.5
t-40 -114.5q0 -73 40.5 -113.5t114.5 -40.5q72 0 111 41.5zM1138 207q33 31 33 87q0 53 -31.5 85t-86.5 32q-51 0 -85.5 -31t-34.5 -86q0 -58 35.5 -88t88.5 -30q48 0 81 31z" />
    <glyph glyph-name="dvK_PA" horiz-adv-x="1397" 
d="M1433 663h-130v-663h-86v284q-50 -84 -169 -84q-88 0 -141.5 51.5t-67.5 138.5q-14 48 -47 72.5t-90 24.5q-70 0 -106 -45.5t-36 -127.5v-314h-84v183q-25 -38 -67.5 -59.5t-100.5 -21.5q-66 0 -116.5 29.5t-78.5 81.5t-28 119t27.5 120t78 82.5t117.5 29.5q59 0 101 -22
t67 -60v181h-512v77h1469v-77zM834 520v143h-274v-178q24 37 62.5 58t91.5 21q71 0 120 -44zM1176 323q41 46 41 117v223h-297v-211q0 -175 149 -175q66 0 107 46zM437 219.5q39 41.5 39 112.5q0 73 -40.5 114t-111.5 41q-73 0 -113 -40.5t-40 -114.5q0 -73 40.5 -113.5
t114.5 -40.5q72 0 111 41.5z" />
    <glyph glyph-name="dvK_P_RA" horiz-adv-x="1397" 
d="M1433 663h-130v-663h-86v281l-250 -287h-102l192 210h-9q-88 0 -141.5 50t-67.5 136q-14 48 -47 72.5t-90 24.5q-70 0 -106 -45.5t-36 -127.5v-314h-84v183q-25 -38 -67.5 -59.5t-100.5 -21.5q-66 0 -116.5 29.5t-78.5 81.5t-28 119t27.5 120t78 82.5t117.5 29.5
q59 0 101 -22t67 -60v181h-512v77h1469v-77zM834 520v143h-274v-178q24 37 62.5 58t91.5 21q71 0 120 -44zM1069 277q66 0 107 46t41 117v223h-297v-211q0 -175 149 -175zM437 219.5q39 41.5 39 112.5q0 73 -40.5 114t-111.5 41q-73 0 -113 -40.5t-40 -114.5
q0 -73 40.5 -113.5t114.5 -40.5q72 0 111 41.5z" />
    <glyph glyph-name="dvK_PHA" horiz-adv-x="1720" 
d="M1274 663v-206q25 39 67.5 61t102.5 22q64 0 113 -28t75.5 -78.5t26.5 -115.5t-29 -114.5t-82 -76t-123 -26.5q-18 0 -28 1l-1 74q8 -1 23 -1q71 0 113 37.5t42 104.5q0 70 -38 108t-108 38q-72 0 -113 -47.5t-41 -122.5v-293h-86v312q-22 -36 -61.5 -57.5t-94.5 -21.5
q-83 0 -133.5 47.5t-65.5 128.5q-33 78 -131 78q-70 0 -106 -46t-36 -128v-313h-84v183q-25 -38 -67.5 -59.5t-100.5 -21.5q-66 0 -116.5 29.5t-78.5 81.5t-28 119t27.5 120t78 82.5t117.5 29.5q59 0 101 -22t67 -60v181h-512v77h1792v-77h-482zM826 526v137h-266v-179
q24 37 62.5 58t91.5 21q65 0 112 -37zM1152 359q36 49 36 122v182h-276v-181q0 -85 32 -128.5t109 -43.5q63 0 99 49zM437 219.5q39 41.5 39 112.5q0 73 -40.5 114t-111.5 41q-73 0 -113 -40.5t-40 -114.5q0 -73 40.5 -113.5t114.5 -40.5q72 0 111 41.5z" />
    <glyph glyph-name="dvKx_PHA" horiz-adv-x="1721" 
d="M1275 663v-206q25 39 67.5 61t102.5 22q64 0 113 -28t75.5 -78.5t26.5 -115.5t-29 -114.5t-82 -76t-123 -26.5q-18 0 -28 1l-1 74q8 -1 23 -1q71 0 113 37.5t42 104.5q0 70 -38 108t-108 38q-72 0 -113 -47.5t-41 -122.5v-293h-86v312q-22 -36 -61.5 -57.5t-94.5 -21.5
q-83 0 -133.5 47.5t-65.5 128.5q-33 78 -131 78q-70 0 -106 -46t-36 -128v-313h-84v183q-25 -38 -67.5 -59.5t-100.5 -21.5q-66 0 -116.5 29.5t-78.5 81.5t-28 119t27.5 120t78 82.5t117.5 29.5q59 0 101 -22t67 -60v181h-508v77h1788v-77h-482zM827 526v137h-266v-179
q24 37 62.5 58t91.5 21q65 0 112 -37zM1153 359q36 49 36 122v182h-276v-181q0 -85 32 -128.5t109 -43.5q63 0 99 49zM438 219.5q39 41.5 39 112.5q0 73 -40.5 114t-111.5 41q-73 0 -113 -40.5t-40 -114.5q0 -73 40.5 -113.5t114.5 -40.5q72 0 111 41.5zM381.5 10.5
q17.5 -17.5 17.5 -41.5t-17.5 -41.5t-41.5 -17.5t-41 17.5t-17 41.5t17 41.5t41 17.5t41.5 -17.5z" />
    <glyph glyph-name="dvKx_PHxA" horiz-adv-x="1721" 
d="M1275 663v-206q25 39 67.5 61t102.5 22q64 0 113 -28t75.5 -78.5t26.5 -115.5t-29 -114.5t-82 -76t-123 -26.5q-18 0 -28 1l-1 74q8 -1 23 -1q71 0 113 37.5t42 104.5q0 70 -38 108t-108 38q-72 0 -113 -47.5t-41 -122.5v-293h-86v312q-22 -36 -61.5 -57.5t-94.5 -21.5
q-83 0 -133.5 47.5t-65.5 128.5q-33 78 -131 78q-70 0 -106 -46t-36 -128v-313h-28q1 -4 1 -12q0 -24 -17.5 -41.5t-41.5 -17.5t-41 17.5t-17 41.5t17 41.5t41 17.5h2v136q-25 -38 -67.5 -59.5t-100.5 -21.5q-66 0 -116.5 29.5t-78.5 81.5t-28 119t27.5 120t78 82.5
t117.5 29.5q59 0 101 -22t67 -60v181h-508v77h1788v-77h-482zM827 526v137h-266v-179q24 37 62.5 58t91.5 21q65 0 112 -37zM1153 359q36 49 36 122v182h-276v-181q0 -85 32 -128.5t109 -43.5q63 0 99 49zM438 219.5q39 41.5 39 112.5q0 73 -40.5 114t-111.5 41
q-73 0 -113 -40.5t-40 -114.5q0 -73 40.5 -113.5t114.5 -40.5q72 0 111 41.5zM909.5 79.5q17.5 -17.5 17.5 -41.5t-17.5 -41.5t-41.5 -17.5t-41 17.5t-17 41.5t17 41.5t41 17.5t41.5 -17.5z" />
    <glyph glyph-name="dvKx_BA" horiz-adv-x="1470" 
d="M1506 663h-131v-663h-84v177q-28 -43 -75.5 -67t-110.5 -24q-71 0 -128.5 31t-90 87t-32.5 127v1v0q0 73 -39 114.5t-113 41.5q-70 0 -106 -45.5t-36 -127.5v-315h-84v183q-25 -38 -67.5 -59.5t-100.5 -21.5q-66 0 -116.5 29.5t-78.5 81.5t-28 119t27.5 120t78 82.5
t117.5 29.5q59 0 101 -22t67 -60v181h-512v77h1542v-77zM823 541q45 -24 72 -68q34 49 88.5 76.5t121.5 27.5q62 0 110 -25t76 -68v179h-731v-181q23 39 62.5 61t95.5 22q60 0 105 -24zM1293 331q0 50 -22 89.5t-62 61.5t-90 22q-72 0 -119 -36l276 -215q17 36 17 78z
M437 219.5q39 41.5 39 112.5q0 73 -40.5 114t-111.5 41q-73 0 -113 -40.5t-40 -114.5q0 -73 40.5 -113.5t114.5 -40.5q72 0 111 41.5zM986.5 204.5q50.5 -46.5 132.5 -46.5q71 0 121 45l-281 220q-23 -40 -23 -92q0 -80 50.5 -126.5zM384.5 10.5q17.5 -17.5 17.5 -41.5
t-17.5 -41.5t-41.5 -17.5t-41 17.5t-17 41.5t17 41.5t41 17.5t41.5 -17.5z" />
    <glyph glyph-name="dvK_MA" horiz-adv-x="1523" 
d="M1559 663h-131v-663h-86v380h-182v-59q0 -220 -181 -220q-52 0 -95 22.5t-68 63.5t-25 92q0 83 50 125q-16 40 -51.5 62t-87.5 22q-70 0 -106 -45.5t-36 -127.5v-315h-84v183q-25 -38 -67.5 -59.5t-100.5 -21.5q-66 0 -116.5 29.5t-78.5 81.5t-28 119t27.5 120t78 82.5
t117.5 29.5q59 0 101 -22t67 -60v181h-512v77h1595v-77zM841.5 532.5q50.5 -32.5 75.5 -90.5q45 12 107 12h53v209h-517v-179q23 38 63.5 59.5t96.5 21.5q71 0 121.5 -32.5zM1342 663h-182v-209h182v209zM437 219.5q39 41.5 39 112.5q0 73 -40.5 114t-111.5 41
q-73 0 -113 -40.5t-40 -114.5q0 -73 40.5 -113.5t114.5 -40.5q72 0 111 41.5zM1077 380h-58q-70 0 -107.5 -22.5t-37.5 -80.5q0 -44 29 -72t74 -28q57 0 78.5 35.5t21.5 107.5v60z" />
    <glyph glyph-name="dvKx_MA" horiz-adv-x="1503" 
d="M1539 663h-131v-663h-85v380h-183v-59q0 -220 -181 -220q-52 0 -95 22.5t-68 63.5t-25 92q0 93 65 137q-36 72 -134 72q-70 0 -106 -45.5t-36 -127.5v-315h-84v183q-25 -38 -67.5 -59.5t-100.5 -21.5q-66 0 -116.5 29.5t-78.5 81.5t-28 119t27.5 120t78 82.5t117.5 29.5
q59 0 101 -22t67 -60v181h-512v77h1575v-77zM840 533.5q50 -31.5 75 -87.5q42 8 89 8h53v209h-497v-179q23 38 63.5 59.5t96.5 21.5q70 0 120 -31.5zM1323 663h-183v-209h183v209zM437 219.5q39 41.5 39 112.5q0 73 -40.5 114t-111.5 41q-73 0 -113 -40.5t-40 -114.5
q0 -73 40.5 -113.5t114.5 -40.5q72 0 111 41.5zM1057 380h-58q-70 0 -107.5 -22.5t-37.5 -80.5q0 -44 29 -72t74 -28q57 0 78.5 35.5t21.5 107.5v60zM390.5 6.5q17.5 -17.5 17.5 -41.5t-17.5 -41.5t-41.5 -17.5t-41 17.5t-17 41.5t17 41.5t41 17.5t41.5 -17.5z" />
    <glyph glyph-name="dvK_YA" horiz-adv-x="1507" 
d="M1541 663h-130v-663h-86v215q-27 -50 -79 -79.5t-124 -29.5q-125 0 -195.5 75t-78.5 206q-11 47 -49 74t-96 27q-71 0 -107 -46t-36 -128v-314h-84v183q-25 -38 -67.5 -59.5t-100.5 -21.5q-66 0 -116.5 29.5t-78.5 81.5t-28 119t27.5 120t78 82.5t117.5 29.5
q59 0 101 -22t67 -60v181h-512v77h1577v-77zM999 476q27 20 33.5 53.5t6.5 102.5v31h-479v-180q23 38 63.5 59.5t96.5 21.5q66 0 116.5 -30.5t75.5 -83.5q60 6 87 26zM1273.5 243.5q51.5 60.5 51.5 157.5v262h-200v-33q0 -84 -13 -133.5t-53.5 -77.5t-120.5 -33
q-1 -92 50.5 -147.5t145.5 -55.5q88 0 139.5 60.5zM437 219.5q39 41.5 39 112.5q0 73 -40.5 114t-111.5 41q-73 0 -113 -40.5t-40 -114.5q0 -73 40.5 -113.5t114.5 -40.5q72 0 111 41.5z" />
    <glyph glyph-name="dvK_LA" horiz-adv-x="1671" 
d="M1441 663v-155q80 -14 120 -76t40 -161q0 -76 -29 -133.5t-83.5 -88.5t-128.5 -31q-21 0 -32 1v78q7 -1 21 -1q82 0 124 47t42 129q0 162 -122 162q-137 0 -128 -208h-82q9 208 -128 208q-123 0 -123 -162q0 -82 42 -129t124 -47q14 0 21 1v-78q-11 -1 -32 -1
q-74 0 -128.5 31t-83.5 88.5t-29 133.5q0 36 4 61q0 74 -37.5 115t-110.5 41q-70 0 -106 -45.5t-36 -127.5v-315h-85v182q-25 -38 -67 -59t-100 -21q-66 0 -116.5 29.5t-78.5 81.5t-28 119t27.5 120t78 82.5t117.5 29.5q58 0 100 -21.5t67 -59.5v180h-511v77h1743v-77h-266z
M1357 663h-797v-179q23 38 62.5 59.5t95.5 21.5q67 0 113.5 -29.5t70.5 -81.5q52 58 148 58q65 0 110.5 -31.5t63.5 -89.5q14 48 48.5 77.5t84.5 36.5v158zM436 219.5q39 41.5 39 112.5q0 73 -40 114t-111 41q-73 0 -113 -40.5t-40 -114.5q0 -73 40.5 -113.5t113.5 -40.5
q72 0 111 41.5z" />
    <glyph glyph-name="dvK_VA" horiz-adv-x="1448" 
d="M1484 663h-131v-663h-84v182q-27 -41 -73.5 -64.5t-109.5 -23.5q-67 0 -119.5 30.5t-82.5 84.5t-30 122v1v0q0 73 -39 114.5t-113 41.5q-70 0 -106 -45.5t-36 -127.5v-315h-84v183q-25 -38 -67.5 -59.5t-100.5 -21.5q-66 0 -116.5 29.5t-78.5 81.5t-28 119t27.5 120
t78 82.5t117.5 29.5q59 0 101 -22t67 -60v181h-512v77h1520v-77zM824 540q44 -25 69 -71q30 47 80.5 73.5t112.5 26.5q63 0 109.5 -23.5t73.5 -64.5v182h-709v-181q23 39 62.5 61t95.5 22q62 0 106 -25zM1224 213.5q45 43.5 45 117.5v1q0 74 -45 117.5t-120 43.5t-120 -43.5
t-45 -118.5q0 -74 45 -117.5t120 -43.5t120 43.5zM437 219.5q39 41.5 39 112.5q0 73 -40.5 114t-111.5 41q-73 0 -113 -40.5t-40 -114.5q0 -73 40.5 -113.5t114.5 -40.5q72 0 111 41.5z" />
    </font>
</defs>
</svg>
