<svg width="1018" height="840" viewBox="0 0 1018 840" fill="none" xmlns="http://www.w3.org/2000/svg">
<g opacity="0.4">
<g style="mix-blend-mode:screen" opacity="0.7">
<path d="M979.169 517.292L978.959 517.631C960.747 512.744 939.238 514.317 916.792 522.196C896.043 529.671 876.805 540.813 859.993 555.089C842.643 569.738 827.886 586.572 813.572 602.826C801.297 616.767 788.608 631.197 774.355 644.232C693.761 718.006 555.991 744.468 460.701 704.484C456.256 702.614 451.763 700.577 447.427 698.597C430.421 690.827 412.799 682.869 392.383 682.744C373.673 682.627 354.336 689.229 336.497 701.837C320.501 713.214 307.18 727.943 297.463 744.998C287.779 762.242 281.633 780.571 275.684 798.292C270.644 813.318 265.436 828.862 258.084 843.699C246.38 867.35 228.396 890.177 206.066 909.747C183.163 929.657 157.076 945.577 128.896 956.84C100.201 968.229 69.8468 974.882 39.0188 976.539C8.35561 978.142 -21.8444 974.54 -48.3646 966.11L-48.1546 965.771C-21.7203 974.162 8.41735 977.753 39.0221 976.154C69.7758 974.514 100.059 967.893 128.691 956.548C156.805 945.292 182.83 929.396 205.681 909.522C227.953 889.999 245.903 867.207 257.553 843.577C264.873 828.79 270.098 813.242 275.131 798.226C281.083 780.479 287.242 762.13 296.944 744.856C306.694 727.723 320.071 712.927 336.138 701.504C354.078 688.821 373.518 682.186 392.349 682.309C412.949 682.492 430.627 690.471 447.694 698.279C451.999 700.24 456.512 702.29 460.958 704.159C556.079 744.081 693.603 717.66 774.058 644.02C788.279 630.994 800.996 616.539 813.23 602.642C827.551 586.379 842.37 569.555 859.709 554.857C876.571 540.542 895.864 529.365 916.67 521.858C939.239 513.959 960.879 512.33 979.169 517.292Z" fill="url(#paint0_linear_15_6)"/>
<path d="M980.395 519.68L980.165 520.186C963.121 516.754 942.263 519.35 919.859 527.696C899.288 535.592 879.993 546.476 862.597 559.999C860.461 561.644 858.263 563.388 856.061 565.184C841.658 576.967 829.014 589.631 816.777 601.885C803.9 614.791 790.588 628.132 775.563 639.984C752.704 658.026 724.281 672.126 699.489 683.547C668.044 698.026 642.085 707.634 617.822 713.767C581.022 723.052 543.949 725.848 510.616 721.824C496.682 720.247 482.932 717.33 469.558 713.114C462.64 710.914 455.723 708.177 448.438 705.322C441.862 702.727 435.121 700.085 428.258 697.795C418.913 694.501 409.169 692.474 399.286 691.766C381.167 690.717 363.208 695.205 345.909 705.112C329.751 714.409 315.873 727.197 305.289 742.544C295.395 757.118 288.604 772.744 282.05 787.854C276.265 801.164 270.287 814.919 262.174 828.112C249.66 848.322 231.384 867.877 209.205 884.573C184.598 902.887 157.262 917.214 128.2 927.029C98.4491 936.986 67.4442 942.703 36.0987 944.012C4.72774 945.288 -26.5088 942.134 -54.1104 934.759L-53.8077 934.27C-26.2808 941.654 4.84891 944.824 36.1762 943.508C67.4612 942.207 98.4062 936.498 128.096 926.551C157.078 916.765 184.341 902.481 208.884 884.223C231.002 867.558 249.203 848.081 261.673 827.94C269.808 814.802 275.744 801.048 281.504 787.778C288.107 772.657 294.87 756.986 304.794 742.362C315.449 726.935 329.408 714.076 345.655 704.72C362.852 694.889 381.453 690.232 399.508 691.296C409.428 692.014 419.21 694.047 428.595 697.341C435.451 699.641 442.228 702.291 448.774 704.868C456.053 707.733 462.926 710.429 469.868 712.657C483.183 716.831 496.868 719.717 510.734 721.276C543.963 725.291 580.952 722.498 617.644 713.229C641.859 707.108 667.77 697.511 699.176 683.05C723.923 671.656 752.291 657.577 775.088 639.593C790.085 627.765 803.384 614.444 816.229 601.587C828.469 589.308 841.142 576.62 855.551 564.827C857.753 563.031 859.957 561.277 862.099 559.622C879.573 546.054 898.952 535.138 919.612 527.226C942.216 518.824 963.217 516.22 980.395 519.68Z" fill="url(#paint1_linear_15_6)"/>
<path d="M981.595 522.066L981.371 522.741C946.069 518.285 898.156 541.596 865.115 564.87C862.926 566.399 860.676 568.028 858.407 569.687C844.475 579.884 832.313 590.5 820.552 600.758C806.232 613.254 792.702 625.053 776.686 635.698C759.631 647.038 738.795 656.396 716.698 666.341C710.623 669.065 704.343 671.897 698.084 674.784C692.954 677.127 687.917 679.474 682.975 681.823C660.6 692.285 639.446 702.178 618.542 709.327C584.246 721.033 549.495 726.854 518.058 726.142C504.711 726.04 491.41 724.552 478.371 721.703C468.453 719.468 457.884 715.698 447.652 712.053C443.651 710.624 439.502 709.146 435.428 707.769C424.007 703.926 414.99 701.751 406.266 700.752C388.316 698.8 370.174 701.817 353.822 709.473C338.223 716.636 324.353 727.078 313.158 740.088C303.048 752.114 295.652 765.129 288.454 777.757C281.93 789.229 275.186 801.102 266.29 812.527C252.757 829.926 233.538 846.634 210.759 860.847C186.346 876.092 157.575 888.637 127.539 897.184C67.4516 914.103 -0.927859 916.421 -59.9643 903.382L-59.6511 902.721C-0.769087 915.719 67.3942 913.46 127.351 896.529C157.301 888.054 185.992 875.527 210.311 860.321C233.012 846.17 252.138 829.543 265.622 812.224C274.467 800.837 281.203 788.999 287.69 777.587C294.884 764.943 302.311 751.878 312.474 739.789C323.758 726.672 337.738 716.142 353.461 708.918C369.986 701.2 388.311 698.16 406.444 700.131C415.242 701.121 424.295 703.304 435.792 707.18C439.876 708.563 444.025 710.042 448.042 711.467C458.219 715.09 468.787 718.861 478.653 721.091C491.634 723.929 504.876 725.408 518.163 725.504C549.47 726.203 584.102 720.419 618.255 708.722C639.104 701.593 660.22 691.718 682.579 681.26C687.548 678.941 692.583 676.581 697.682 674.231C703.946 671.334 710.236 668.508 716.318 665.774C738.357 655.877 759.168 646.517 776.161 635.207C792.19 624.542 805.623 612.767 819.968 600.341C831.741 590.064 843.94 579.456 857.88 569.223C860.155 567.554 862.416 565.931 864.61 564.392C897.863 540.932 945.999 517.551 981.595 522.066Z" fill="url(#paint2_linear_15_6)"/>
<path d="M982.755 524.495L982.572 525.347C943.103 523.721 884.625 558.969 867.648 569.806C865.303 571.289 863.005 572.773 860.751 574.258C847.743 582.763 836.427 591.254 825.408 599.446C809.86 611.071 795.136 622.102 777.805 631.505C765.346 638.254 750.707 644.066 735.085 650.153C722.612 655.029 709.718 660.073 696.686 666.121C682.659 672.616 669.66 679.458 657.087 686.08C643.954 693.004 631.546 699.536 619.297 704.965C587.676 718.948 555.258 727.799 525.541 730.527C514.372 731.56 502.193 732.396 487.213 730.38C473.986 728.607 459.476 723.625 445.45 718.818L442.604 717.842C433.033 714.362 423.189 711.682 413.174 709.832C395.93 706.895 378.225 708.297 361.658 713.911C346.619 718.998 332.777 727.103 320.981 737.729C310.506 747.334 302.78 757.495 294.573 768.298C287.331 777.765 279.885 787.562 270.356 797.091C255.691 811.636 235.593 825.508 212.238 837.24C186.924 849.995 157.385 860.437 126.79 867.437C65.7629 881.304 -4.3974 883.043 -65.8241 872.126L-65.4905 871.298C-4.20253 882.06 65.8424 880.373 126.678 866.525C157.206 859.567 186.612 849.139 211.82 836.443C235.063 824.781 255.057 810.967 269.653 796.531C279.165 787.075 286.593 777.308 293.78 767.862C301.987 757.06 309.732 746.868 320.282 737.185C332.209 726.444 346.205 718.251 361.41 713.109C378.157 707.427 396.054 705.994 413.492 708.939C423.563 710.805 433.464 713.496 443.093 716.986L445.939 717.962C459.918 722.753 474.393 727.727 487.495 729.478C502.361 731.479 514.439 730.65 525.568 729.592C555.142 726.872 587.419 718.071 618.915 704.134C631.109 698.727 643.51 692.205 656.621 685.294C669.21 678.669 682.216 671.817 696.271 665.298C709.346 659.249 722.261 654.191 734.746 649.295C750.285 643.211 764.971 637.456 777.317 630.734C794.596 621.326 809.25 610.362 824.735 598.726C835.741 590.512 847.112 582 860.14 573.507C862.429 572.039 864.729 570.552 867.043 569.045C884.17 558.232 942.943 522.821 982.755 524.495Z" fill="url(#paint3_linear_15_6)"/>
<path d="M983.931 526.852L983.851 527.851C960.076 529.207 921.839 544.958 870.208 574.676L863.114 578.756C851.893 585.222 841.944 591.482 832.321 597.53C814.81 608.56 798.267 618.963 778.931 627.235C769.179 631.395 757.945 634.94 746.035 638.73C730.377 643.691 712.648 649.301 695.324 657.356C676.203 666.217 659.92 676.311 644.186 686.054C635.822 691.226 627.922 696.118 620.081 700.468C591.067 716.658 560.987 728.532 533.078 734.78C522.895 737.073 511.342 739.662 496.093 738.928C481.683 738.285 465.335 733.173 449.792 727.786C440.077 724.208 430.161 721.201 420.094 718.781C403.45 714.95 386.174 714.765 369.452 718.24C354.949 721.366 341.147 727.141 328.739 735.273C317.797 742.602 309.336 750.584 300.373 759.041C292.211 767.046 283.556 774.532 274.46 781.457C258.647 793.111 237.637 804.198 213.778 813.423C185.407 824.253 156.053 832.31 126.128 837.481C64.5078 848.317 -7.54805 849.463 -71.574 840.648L-71.2199 839.653C-7.347 848.469 64.5459 847.319 126.014 836.527C155.837 831.366 185.09 823.336 213.368 812.548C237.126 803.329 257.989 792.345 273.701 780.766C282.765 773.877 291.388 766.426 299.52 758.458C308.534 749.963 317.036 741.938 328.112 734.568C340.683 726.333 354.665 720.487 369.356 717.325C386.279 713.803 403.764 713.985 420.61 717.859C430.812 720.104 440.797 723.569 450.456 726.913C465.913 732.261 482.171 737.318 496.39 737.98C511.43 738.695 522.87 736.133 532.966 733.869C560.754 727.615 590.662 715.842 619.554 699.714C627.333 695.353 635.221 690.481 643.568 685.313C659.341 675.552 675.65 665.461 694.856 656.529C712.284 648.441 730.058 642.803 745.764 637.831C757.629 634.069 768.837 630.521 778.525 626.376C797.745 618.156 814.243 607.782 831.703 596.789C841.333 590.731 851.297 584.467 862.547 577.977L869.641 573.897C921.437 544.047 959.902 528.216 983.931 526.852Z" fill="url(#paint4_linear_15_6)"/>
<path d="M985.041 529.25L985.147 530.392C959.265 534.818 916.015 557.195 881.263 575.186L872.75 579.575C870.297 580.817 867.865 582.071 865.442 583.331C857.7 587.231 850.577 590.935 843.695 594.539C821.694 605.978 802.696 615.867 779.977 622.983C772.15 625.437 763.367 627.52 754.021 629.71C735.527 634.059 714.555 639 693.916 648.619C671.171 659.21 652.727 672.795 636.525 684.72C631.098 688.715 625.976 692.485 620.908 696.012C594.593 714.219 566.826 729.153 540.669 739.08L540.036 739.323C530.086 743.112 519.788 747.017 504.998 747.547C492.669 748 476.969 744.806 456.989 737.803L450.91 735.654C442.688 732.729 434.93 729.968 427.022 727.763C409.535 722.952 392.79 721.223 377.244 722.595C363.206 723.853 349.46 727.348 336.527 732.947C324.753 738.077 315.207 744.089 305.131 750.422C297.038 755.513 288.661 760.773 278.48 766.006C261.413 774.759 239.571 782.956 215.266 789.78C185.798 797.938 155.773 803.926 125.43 807.696C63.671 815.479 -10.2735 816.132 -77.3504 809.347L-77.0021 808.183C-10.015 814.912 63.7619 814.307 125.397 806.544C155.652 802.786 185.591 796.813 214.972 788.673C239.157 781.885 260.896 773.721 277.891 765.062C288.006 759.871 296.334 754.622 304.408 749.561C314.541 743.181 324.114 737.171 336.011 731.952C349.128 726.285 363.066 722.751 377.297 721.483C393.036 720.091 409.974 721.844 427.641 726.697C435.62 728.877 443.401 731.667 451.618 734.643L457.688 736.787C477.483 743.731 492.997 746.892 505.124 746.452C519.618 745.932 529.774 742.077 539.586 738.355L540.22 738.112C566.232 728.219 593.864 713.367 620.068 695.23C625.124 691.722 630.239 687.962 635.65 683.971C651.947 671.981 670.442 658.359 693.332 647.691C714.157 637.995 735.215 633.025 753.807 628.652C763.094 626.468 771.855 624.399 779.627 621.966C802.139 614.915 821.096 605.028 843.031 593.604C849.924 590.006 857.053 586.292 864.802 582.382C867.184 581.18 869.604 579.946 872.062 578.68L880.575 574.291C915.486 556.177 958.879 533.724 985.041 529.25Z" fill="url(#paint5_linear_15_6)"/>
<path d="M986.489 532.906C969.749 538.011 944.196 550.728 917.145 564.173C903.022 571.202 888.403 578.476 875.256 584.508C872.691 585.68 870.199 586.791 867.782 587.843L867.573 587.935C833.141 602.937 810.389 612.847 781.056 618.766C774.824 620.027 768.028 621.063 760.816 622.146C739.873 625.324 716.127 628.906 692.569 639.919C666.889 651.839 648.18 668.393 631.637 682.963C628.212 685.976 624.977 688.816 621.755 691.569C598.93 711.073 574.337 728.407 548.295 743.346L547.128 744.004C538.096 749.12 528.766 754.425 513.931 756.142C497.59 758.016 477.884 752.645 464.205 747.791C459.845 746.251 455.545 744.637 451.403 743.08C445.376 740.825 439.69 738.684 433.925 736.784C415.983 730.836 399.967 727.64 384.984 726.988C371.274 726.403 357.546 727.597 344.143 730.542C330.457 733.522 319.007 737.707 306.797 742.07C299.256 744.798 291.471 747.609 282.41 750.431C260.833 756.969 238.878 762.187 216.666 766.055C187.783 771.314 156.832 775.278 124.664 777.841C63.0855 782.659 -10.7198 782.707 -83.1883 777.967L-82.8519 776.644C-10.5026 781.421 63.2728 781.354 124.71 776.518C155.489 774.135 186.129 770.211 216.515 764.761C238.632 760.926 260.494 755.747 281.98 749.254C291.011 746.414 298.78 743.606 306.317 740.862C318.557 736.449 330.113 732.274 343.884 729.222C357.469 726.255 371.381 725.054 385.274 725.65C400.427 726.296 416.597 729.533 434.681 735.541C440.476 737.46 446.172 739.606 452.209 741.868C456.351 743.425 460.631 745.026 464.991 746.567C478.485 751.362 497.943 756.689 513.928 754.787C528.342 753.127 537.492 747.933 546.333 742.904L547.509 742.253C573.437 727.363 597.922 710.092 620.647 690.662C623.862 687.919 627.082 685.083 630.507 682.07C647.141 667.419 665.985 650.824 691.888 638.655C715.716 627.52 739.647 623.928 760.703 620.723C767.872 619.642 774.659 618.6 780.836 617.36C809.955 611.475 832.62 601.593 866.937 586.644L867.156 586.558C869.592 585.491 872.068 584.383 874.582 583.235C887.706 577.216 902.303 569.957 916.42 562.938C943.575 549.392 969.167 536.699 986.075 531.546L986.489 532.906Z" fill="url(#paint6_linear_15_6)"/>
<path d="M987.875 535.393C979.53 539.265 968.24 545.15 955.169 551.975C931.755 564.18 902.6 579.373 877.759 589.425C875.135 590.477 872.551 591.486 870.087 592.389C833.467 605.954 809.6 611.959 782.073 614.538C777.386 614.976 772.415 615.293 767.152 615.636C745.025 617.115 717.554 618.846 691.192 631.2C663.043 644.366 644.627 663.833 628.381 681.001C626.406 683.077 624.468 685.092 622.59 687.076C601.746 708.704 579.486 728.922 555.959 747.595L554.805 748.523C546.593 755.099 538.026 761.87 522.892 764.781C504.712 768.29 482.839 761.937 471.42 757.847C464.644 755.418 458.114 752.769 451.829 750.216C448.125 748.709 444.477 747.223 440.849 745.818C422.186 738.582 406.451 733.863 392.725 731.381C379.191 728.987 365.457 727.91 351.715 728.165C332.913 728.419 317.672 730.546 298.349 733.293C294.506 733.839 290.503 734.396 286.267 734.975C264.696 737.875 241.756 740.356 218.08 742.353C187.209 745.028 155.527 746.94 123.912 748.009C66.6169 749.876 -3.03021 749.449 -88.9762 746.617L-88.6616 745.129C-2.75541 747.936 66.8309 748.394 124.074 746.522C155.647 745.454 187.296 743.55 218.125 740.876C241.769 738.887 264.676 736.414 286.175 733.497L298.257 731.814C317.642 729.079 333.011 726.947 351.899 726.664C365.772 726.405 379.638 727.494 393.301 729.915C407.151 732.419 423.005 737.171 441.769 744.443C445.408 745.854 449.066 747.346 452.77 748.853C459.064 751.37 465.547 754.004 472.304 756.463C483.53 760.488 505.001 766.731 522.693 763.32C537.264 760.515 545.579 753.906 553.612 747.508L554.776 746.586C578.229 727.964 600.423 707.808 621.211 686.25C623.099 684.272 625.022 682.243 626.982 680.163C643.367 662.86 661.928 643.247 690.445 629.909C717.208 617.376 744.944 615.574 767.225 614.135C772.478 613.786 777.433 613.473 782.094 613.033C809.408 610.487 833.103 604.514 869.527 591.021C871.958 590.125 874.52 589.131 877.128 588.082C901.87 578.079 930.954 562.911 954.329 550.723C967.433 543.891 978.758 538.014 987.128 534.103L987.875 535.393Z" fill="url(#paint7_linear_15_6)"/>
<path d="M989.269 537.844C967.276 552.323 919.559 580.489 880.252 594.336C877.563 595.293 874.962 596.194 872.392 596.935C834.843 608.545 810.353 610.631 783.076 610.288C780.024 610.247 776.843 610.169 773.542 610.084C749.265 609.487 719.057 608.751 689.81 622.465C659.395 636.752 641.004 660.169 626.223 679.003L623.422 682.568C605.835 704.799 586.808 726.814 563.592 751.783L562.703 752.751C555.551 760.467 547.448 769.208 531.848 773.363C517.933 777.07 498.531 775.062 478.619 767.839C469.222 764.449 460.557 760.547 452.164 756.785L447.744 754.808C429.081 746.481 413.897 740.046 400.424 735.706C386.953 731.438 373.205 728.099 359.277 725.713C337.51 721.798 318.776 720.093 290.127 719.425C271.04 718.937 248.048 718.804 221.425 718.631L200.392 718.566C177.083 718.5 150.662 718.424 123.156 718.16C96.6911 717.865 69.4779 717.396 40.6653 716.902C-4.29678 716.125 -50.81 715.311 -94.7617 715.242L-94.4913 713.601C-50.4934 713.685 -3.94553 714.465 40.9682 715.254C69.7746 715.758 96.9577 716.208 123.449 716.506C150.898 716.749 177.354 716.86 200.663 716.926L221.69 717.043C248.326 717.196 271.322 717.345 290.441 717.825C319.259 718.488 338.058 720.178 359.94 724.108C373.959 726.519 387.797 729.882 401.359 734.174C414.908 738.547 430.154 744.993 448.843 753.322L453.283 755.312C461.612 759.089 470.266 762.943 479.59 766.315C499.09 773.38 517.987 775.379 531.408 771.779C546.29 767.801 553.836 759.694 561.109 751.847L562.005 750.869C585.246 725.971 604.22 704.019 621.764 681.859L624.565 678.294C639.489 659.272 658.095 635.575 688.96 621.096C718.803 607.089 749.33 607.844 773.821 608.408C777.106 608.496 780.277 608.568 783.343 608.631C810.389 608.969 834.631 606.882 871.894 595.399C874.388 594.625 877.036 593.78 879.658 592.823C918.73 579.065 966.256 551.029 988.133 536.602L989.269 537.844Z" fill="url(#paint8_linear_15_6)"/>
<path d="M990.682 540.264C972.09 556.918 924.242 586.701 882.739 599.257C880.013 600.094 877.29 600.837 874.675 601.495C836.488 610.97 810.001 609.061 784.06 606.025L780.431 605.6C755.286 602.616 720.836 598.522 688.443 613.752C656.05 628.982 638.714 655.687 624.873 677.105L624.255 678.102C607.624 703.781 591.286 727.227 576.883 747.924L570.659 756.863C564.239 766.094 556.968 776.566 540.819 782.009C526.55 786.822 505.999 785.289 485.831 777.921C475.17 773.855 464.76 769.16 454.655 763.861C447.295 760.146 440.57 756.631 434.058 753.22C424.834 748.392 416.128 743.843 408.145 740.087C393.072 733.003 378.819 727.628 366.868 723.305C343.273 714.467 318.871 707.954 294.009 703.861C274.557 700.552 250.635 697.622 220.891 694.91C193.975 692.513 161.762 690.356 122.426 688.315C34.6205 683.627 -38.3353 682.215 -100.508 683.891L-100.295 682.077C-38.0506 680.418 34.9266 681.885 122.825 686.533C162.194 688.567 194.432 690.726 221.391 693.122C251.217 695.857 275.173 698.822 294.706 702.112C319.698 706.208 344.231 712.732 367.956 721.592C379.954 725.929 394.263 731.326 409.411 738.442C417.424 742.217 426.151 746.778 435.394 751.618C441.903 755.014 448.638 758.535 455.961 762.242C465.997 767.502 476.335 772.165 486.92 776.208C506.583 783.387 526.503 784.916 540.211 780.294C555.533 775.139 562.263 765.451 568.77 756.079L574.994 747.141C589.404 726.476 605.731 703.051 622.33 677.379L622.947 676.382C636.955 654.695 654.358 627.769 687.544 612.174C720.729 596.579 755.545 600.749 781.035 603.822L784.668 604.263C810.4 607.279 836.571 609.187 874.37 599.802C876.941 599.172 879.616 598.441 882.294 597.615C923.352 585.129 970.697 555.669 989.19 539.175L990.682 540.264Z" fill="url(#paint9_linear_15_6)"/>
<path d="M992.069 542.682C974.905 563.271 926.785 593.603 885.192 604.212C882.396 604.937 879.611 605.559 876.956 606.012C838.365 613.444 811.261 607.494 785.035 601.731C761.821 596.63 722.952 588.13 687.078 605.013C652.58 621.258 636.7 651.473 625.104 673.522C617.115 688.654 609.322 703.135 601.789 717.128C593.618 732.286 585.903 746.595 578.831 760.156L578.541 760.625C572.898 771.456 566.496 783.734 549.75 790.519C534.975 796.551 513.741 795.52 492.987 787.872C482.103 783.694 471.573 778.646 461.499 772.777C449.156 765.811 438.249 758.754 428.62 752.53C424.153 749.626 419.923 746.896 415.769 744.311C401.126 735.175 387.228 727.577 374.4 720.724C349.949 707.682 327.575 697.168 297.795 688.252C276.856 681.952 251.435 676.203 222.179 671.143C192.924 666.083 159.182 661.917 121.572 658.447C64.9849 653.176 -20.5039 647.867 -106.4 652.532L-106.231 650.566C-20.1213 645.979 65.5528 651.278 122.215 656.54C159.893 660.011 193.814 664.289 223.019 669.275C252.223 674.262 277.91 680.093 298.946 686.438C328.9 695.408 351.395 705.97 375.946 719.074C388.82 725.941 402.758 733.563 417.441 742.724C421.581 745.287 425.799 748.037 430.292 750.943C439.895 757.165 450.772 764.204 463.065 771.139C473.034 776.955 483.458 781.951 494.236 786.078C514.377 793.512 534.839 794.521 548.969 788.794C564.751 782.406 570.946 770.551 576.403 760.088L576.693 759.619C583.776 746.064 591.492 731.729 599.651 716.591C607.194 702.604 614.981 688.133 622.93 673.045C634.691 650.685 650.792 620.068 686.116 603.424C722.932 586.089 762.377 594.753 785.948 599.922C811.895 605.624 838.736 611.507 876.726 604.2C879.349 603.685 882.07 603.079 884.765 602.361C924.638 592.19 973.272 561.942 990.142 541.738L992.069 542.682Z" fill="url(#paint10_linear_15_6)"/>
<path d="M993.463 545.022C979.199 567.792 930.932 600.034 887.681 609.107C884.813 609.704 881.965 610.204 879.206 610.58C842.474 615.657 817.013 607.454 790.011 598.753L786.003 597.472C757.502 588.339 720.346 579.947 685.689 596.314C652.227 612.111 637.288 642.122 625.91 669.011L621.195 680.126C608.538 709.95 596.585 738.125 586.412 764.34C581.579 776.803 576.102 790.952 558.742 799.109C540.751 807.593 516.711 804.051 500.214 797.908C489.091 793.643 478.436 788.244 468.418 781.795C453.771 772.643 441.494 762.874 430.559 754.213C428.17 752.32 425.842 750.464 423.544 748.669C408.372 736.777 394.073 726.64 382.077 718.288C359.78 702.77 334.621 686.503 301.756 672.695C279.437 663.319 253.155 654.815 223.63 647.449C189.751 639.287 155.445 633.009 120.87 628.645C64.7353 621.24 -21.2207 613.944 -112.077 621.182L-111.985 619.072C-20.8628 611.806 65.3384 619.129 121.604 626.547C156.283 630.916 190.691 637.216 224.668 645.415C254.318 652.803 280.728 661.345 303.163 670.779C336.228 684.641 361.523 700.98 383.914 716.569C395.924 724.943 410.263 735.105 425.475 747.022C427.772 748.817 430.111 750.679 432.499 752.572C443.328 761.181 455.622 770.946 470.16 780.03C480.041 786.4 490.554 791.73 501.532 795.936C517.478 801.877 540.598 805.345 557.701 797.292C574.006 789.613 579.294 775.968 583.956 763.937C594.138 737.687 606.107 709.508 618.76 679.668L623.436 668.528C634.997 641.186 650.19 610.698 684.581 594.47C720.261 577.632 758.12 586.183 787.162 595.443L791.165 596.735C817.85 605.323 843.06 613.439 879.057 608.459C881.741 608.092 884.515 607.601 887.308 607.012C929.805 598.108 977.17 566.522 991.138 544.231L993.463 545.022Z" fill="url(#paint11_linear_15_6)"/>
<path d="M994.823 547.396C981.758 575.338 931.859 607.094 890.102 614C887.185 614.499 884.264 614.871 881.423 615.113C845.656 618.207 820.956 607.66 794.806 596.492L786.938 593.152C746.135 576.029 712.553 574.212 684.294 587.557C651.006 603.295 636.953 633.814 626.704 664.452C616.174 695.924 604.037 732.887 594.021 768.499C590.347 781.653 585.78 798.034 567.743 807.663C555.582 814.154 533.362 817.633 507.424 807.906C496.052 803.553 485.266 797.801 475.314 790.784C459.559 779.967 446.792 767.756 435.459 756.93L431.278 752.961C419.116 741.401 406.283 729.922 389.733 715.797C367.651 697.101 340.385 675.499 305.654 657.127C282.081 644.628 254.952 633.392 225.002 623.748C190.673 612.951 155.617 604.62 120.102 598.817C39.3241 585.164 -42.9493 582.039 -117.829 589.841L-117.807 587.577C-42.6018 579.784 39.9476 582.887 121 596.586C156.659 602.401 191.858 610.756 226.326 621.588C256.418 631.292 283.699 642.594 307.389 655.151C342.315 673.63 369.694 695.316 391.874 714.1C408.453 728.244 421.291 739.739 433.513 751.336L437.693 755.305C448.969 766.068 461.679 778.215 477.284 788.94C487.071 795.848 497.676 801.515 508.858 805.813C524.458 811.664 548.918 815.176 566.453 805.802C583.37 796.777 587.775 780.971 591.311 768.284C601.399 732.647 613.527 695.651 624.056 664.138C634.476 632.956 648.825 601.848 683.178 585.638C712.415 571.849 746.829 573.616 788.5 591.097L796.368 594.437C822.178 605.464 846.58 615.867 881.559 612.865C884.315 612.625 887.146 612.267 889.966 611.791C930.783 605.02 979.566 574.064 992.299 546.813L994.823 547.396Z" fill="url(#paint12_linear_15_6)"/>
<path d="M996.166 549.773C985.654 580.524 936.269 613.523 892.607 618.96C889.611 619.34 886.623 619.574 883.726 619.685C848.348 620.991 822.975 607.475 798.391 594.447C794.929 592.594 791.452 590.744 787.989 588.959C760.508 574.703 719.942 561.454 682.979 578.96C648.285 595.387 635.511 629.167 627.591 660.033C616.487 703.197 607.988 740.08 601.608 772.783C598.966 786.478 595.321 805.225 576.734 816.321C557.654 827.678 531.367 824.332 514.65 818.011C503.013 813.5 492.089 807.331 482.217 799.695C466.065 787.624 453.306 773.238 442.047 760.554L439.046 757.177C426.241 742.777 412.623 728.397 397.428 713.22C366.152 682.138 339.066 659.999 309.601 641.437C283.238 625.023 255.391 611.122 226.428 599.915C191.663 586.562 155.823 576.198 119.296 568.938C37.8043 552.248 -46.1588 548.643 -123.628 558.443L-123.693 556.029C-45.8345 546.18 38.5229 549.795 120.356 566.558C157.035 573.864 193.023 584.287 227.93 597.713C257.067 608.982 285.078 622.971 311.59 639.495C341.205 658.149 368.414 680.378 399.822 711.583C415.044 726.805 428.692 741.203 441.54 755.644L444.542 759.021C456.278 772.25 468.411 785.93 484.385 797.864C494.063 805.29 504.756 811.288 516.138 815.675C532.142 821.721 557.203 824.997 575.162 814.313C592.618 803.952 596.066 785.856 598.63 772.622C605.015 739.867 613.522 702.948 624.635 659.748C632.716 628.265 645.806 593.796 681.718 576.785C720.024 558.648 761.622 572.191 789.771 586.75C793.273 588.56 796.761 590.416 800.242 592.282C824.444 605.169 849.465 618.495 883.955 617.219C886.766 617.137 889.669 616.906 892.512 616.527C934.347 611.367 983.285 578.712 993.302 549.407L996.166 549.773Z" fill="url(#paint13_linear_15_6)"/>
<path d="M997.499 552.144C989.544 585.251 939.743 620.104 894.99 623.913C891.922 624.166 888.878 624.269 885.898 624.245C850.597 623.888 825.485 607.856 801.205 592.353C797.176 589.79 793.023 587.136 788.901 584.611C766.46 570.84 722.667 550.679 681.532 570.198C645.596 587.249 634.472 622.866 628.329 655.453C619.965 699.72 613.678 739.449 609.093 776.92C607.376 791.037 604.831 812.287 585.648 824.836C573.391 832.84 549.317 838.469 521.777 827.985C509.892 823.397 498.834 816.905 489.036 808.762C472.702 795.515 460.649 779.744 448.985 764.504L446.684 761.534C433.502 744.333 419.481 727.261 404.968 710.782C373.918 675.589 344.818 648.615 313.402 625.892C286.522 606.58 257.818 589.944 227.699 576.221C192.57 560.347 155.984 547.921 118.453 539.118C36.0619 519.402 -49.6645 515.257 -129.425 527.129L-129.586 524.559C-49.2552 512.612 36.9539 516.78 119.76 536.629C157.485 545.479 194.262 557.971 229.572 573.931C259.862 587.715 288.731 604.43 315.765 623.836C347.341 646.658 376.562 673.749 407.737 709.074C422.247 725.579 436.302 742.686 449.528 759.928L451.75 762.891C463.339 778.029 475.314 793.682 491.435 806.783C501.003 814.746 511.809 821.092 523.425 825.569C549.685 835.578 572.416 830.36 583.889 822.863C600.456 812.02 603.777 794.978 605.952 776.977C610.536 739.464 616.838 699.688 625.201 655.379C627.793 641.432 631.97 623.318 640.665 606.801C650.134 588.79 663.083 576.079 680.258 567.932C723.027 547.645 768.025 568.29 791.047 582.393C795.177 584.95 799.377 587.55 803.385 590.17C827.312 605.441 852.055 621.244 886.381 621.591C889.228 621.629 892.168 621.517 895.11 621.269C938.461 617.627 986.707 583.95 994.38 551.965L997.499 552.144Z" fill="url(#paint14_linear_15_6)"/>
<path d="M998.816 554.519C993.201 590.579 943.936 626.661 897.456 628.78C894.309 628.915 891.186 628.899 888.155 628.734C852.745 626.75 827.743 608.178 803.68 590.229C799.189 586.896 794.55 583.444 789.951 580.196C734.291 540.82 691.875 555.833 680.177 561.354C642.828 579.105 633.286 618.474 629.143 650.796C623.412 695.713 619.195 739.498 616.679 780.983C615.513 800.34 612.857 820.32 594.645 833.262C575.831 846.619 548.114 845.203 528.986 837.872C516.853 833.173 505.669 826.318 495.974 817.639C479.761 803.46 468.066 785.952 456.744 769.046L454.526 765.741C441.381 746.051 427.325 726.695 412.762 708.224C382.04 669.316 350.857 637.257 317.487 610.247C290.063 588.092 260.501 568.724 229.237 552.43C193.754 534.086 156.406 519.603 117.833 509.23C34.3844 486.54 -53.0346 481.83 -135.039 495.722L-135.293 493.012C-52.7565 479.063 35.2445 483.747 119.228 506.643C158.022 517.07 195.584 531.635 231.268 550.086C262.689 566.443 292.399 585.894 319.959 608.148C353.533 635.298 384.83 667.483 415.662 706.528C430.272 725.055 444.361 744.447 457.538 764.197L459.756 767.503C470.99 784.284 482.614 801.639 498.57 815.631C508.021 824.103 518.927 830.796 530.762 835.384C548.917 842.347 575.098 843.792 592.632 831.298C609.661 819.197 612.178 799.931 613.311 781.229C615.835 739.709 620.043 695.849 625.799 650.892C630.025 617.835 639.874 577.524 678.786 559.031C697.031 550.359 717.561 548.539 739.738 553.687C761.915 558.835 780.643 569.754 792.325 577.967C796.954 581.234 801.612 584.698 806.114 588.037C829.887 605.696 854.478 623.973 888.851 625.894C891.818 626.043 894.79 626.041 897.756 625.888C942.611 623.853 990.114 589.123 995.518 554.408L998.816 554.519Z" fill="url(#paint15_linear_15_6)"/>
<path d="M1000.13 556.904C998.417 577.028 984.726 597.379 962.634 612.777C940.542 628.175 914.188 635.634 890.388 633.263C854.736 629.708 829.845 608.638 805.776 588.27C800.923 584.161 795.899 579.905 790.914 575.921C746.674 540.524 703.994 540.718 678.808 552.71C639.855 571.247 632.296 614.991 629.96 646.334C626.557 692.527 624.615 739.28 624.236 785.248C624.164 794.436 623.844 805.071 621.044 815.232C617.925 826.577 612.22 835.299 603.618 841.882C584.363 856.622 555.876 855.557 536.198 847.955C499.987 833.979 481.751 803.078 464.105 773.204L462.261 770.075C397.62 660.802 321.826 581.842 230.559 528.698C119.743 464.154 -15.641 440.716 -140.835 464.34L-141.181 461.49C-15.0084 437.644 121.36 461.209 232.935 526.154C324.608 579.534 400.711 658.796 465.576 768.443L467.42 771.572C484.746 801.137 502.775 831.662 538.037 845.298C556.645 852.487 583.457 853.604 601.36 839.891C618.86 826.493 620.49 805.74 620.673 785.609C621.051 739.599 622.945 692.789 626.401 646.532C631.356 579.578 657.847 559.507 677.344 550.216C717.509 531.105 763.691 549.86 793.571 573.702C798.58 577.715 803.63 581.973 808.487 586.098C832.204 606.165 856.719 626.906 891.264 630.355C914.041 632.618 939.294 625.443 960.55 610.659C981.807 595.875 994.939 576.337 996.587 557.072L1000.13 556.904Z" fill="url(#paint16_linear_15_6)"/>
</g>
</g>
<defs>
<linearGradient id="paint0_linear_15_6" x1="495.316" y1="847.994" x2="440.091" y2="664.52" gradientUnits="userSpaceOnUse">
<stop stop-color="#6B99EF"/>
<stop offset="1" stop-color="#FFFBFF"/>
</linearGradient>
<linearGradient id="paint1_linear_15_6" x1="488.581" y1="819.1" x2="443.735" y2="670.107" gradientUnits="userSpaceOnUse">
<stop stop-color="#6B99EF"/>
<stop offset="1" stop-color="#FFFBFF"/>
</linearGradient>
<linearGradient id="paint2_linear_15_6" x1="482.068" y1="790.885" x2="447.172" y2="674.948" gradientUnits="userSpaceOnUse">
<stop stop-color="#6B99EF"/>
<stop offset="1" stop-color="#FFFBFF"/>
</linearGradient>
<linearGradient id="paint3_linear_15_6" x1="475.837" y1="763.651" x2="450.539" y2="679.602" gradientUnits="userSpaceOnUse">
<stop stop-color="#6B99EF"/>
<stop offset="1" stop-color="#FFFBFF"/>
</linearGradient>
<linearGradient id="paint4_linear_15_6" x1="474.7" y1="753.245" x2="453.365" y2="682.363" gradientUnits="userSpaceOnUse">
<stop stop-color="#6B99EF"/>
<stop offset="1" stop-color="#FFFBFF"/>
</linearGradient>
<linearGradient id="paint5_linear_15_6" x1="478.359" y1="758.742" x2="446.03" y2="651.335" gradientUnits="userSpaceOnUse">
<stop stop-color="#6B99EF"/>
<stop offset="1" stop-color="#FFFBFF"/>
</linearGradient>
<linearGradient id="paint6_linear_15_6" x1="482.828" y1="766.908" x2="438.701" y2="620.306" gradientUnits="userSpaceOnUse">
<stop stop-color="#6B99EF"/>
<stop offset="1" stop-color="#FFFBFF"/>
</linearGradient>
<linearGradient id="paint7_linear_15_6" x1="487.685" y1="775.888" x2="431.503" y2="589.237" gradientUnits="userSpaceOnUse">
<stop stop-color="#6B99EF"/>
<stop offset="1" stop-color="#FFFBFF"/>
</linearGradient>
<linearGradient id="paint8_linear_15_6" x1="492.709" y1="785.32" x2="424.332" y2="558.149" gradientUnits="userSpaceOnUse">
<stop stop-color="#6B99EF"/>
<stop offset="1" stop-color="#FFFBFF"/>
</linearGradient>
<linearGradient id="paint9_linear_15_6" x1="497.822" y1="795.043" x2="417.164" y2="527.071" gradientUnits="userSpaceOnUse">
<stop stop-color="#6B99EF"/>
<stop offset="1" stop-color="#FFFBFF"/>
</linearGradient>
<linearGradient id="paint10_linear_15_6" x1="502.986" y1="804.934" x2="409.996" y2="495.993" gradientUnits="userSpaceOnUse">
<stop stop-color="#6B99EF"/>
<stop offset="1" stop-color="#FFFBFF"/>
</linearGradient>
<linearGradient id="paint11_linear_15_6" x1="508.188" y1="814.949" x2="402.826" y2="464.904" gradientUnits="userSpaceOnUse">
<stop stop-color="#6B99EF"/>
<stop offset="1" stop-color="#FFFBFF"/>
</linearGradient>
<linearGradient id="paint12_linear_15_6" x1="513.403" y1="825.008" x2="395.659" y2="433.826" gradientUnits="userSpaceOnUse">
<stop stop-color="#6B99EF"/>
<stop offset="1" stop-color="#FFFBFF"/>
</linearGradient>
<linearGradient id="paint13_linear_15_6" x1="518.662" y1="835.263" x2="388.478" y2="402.752" gradientUnits="userSpaceOnUse">
<stop stop-color="#6B99EF"/>
<stop offset="1" stop-color="#FFFBFF"/>
</linearGradient>
<linearGradient id="paint14_linear_15_6" x1="523.879" y1="845.432" x2="381.279" y2="371.671" gradientUnits="userSpaceOnUse">
<stop stop-color="#6B99EF"/>
<stop offset="1" stop-color="#FFFBFF"/>
</linearGradient>
<linearGradient id="paint15_linear_15_6" x1="529.176" y1="855.809" x2="374.099" y2="340.597" gradientUnits="userSpaceOnUse">
<stop stop-color="#6B99EF"/>
<stop offset="1" stop-color="#FFFBFF"/>
</linearGradient>
<linearGradient id="paint16_linear_15_6" x1="534.461" y1="866.203" x2="366.904" y2="309.528" gradientUnits="userSpaceOnUse">
<stop stop-color="#6B99EF"/>
<stop offset="1" stop-color="#FFFBFF"/>
</linearGradient>
</defs>
</svg>
