<svg width="150" height="43" viewBox="0 0 150 43" fill="none" xmlns="http://www.w3.org/2000/svg">
<g clip-path="url(#clip0_62_212)">
<path d="M19.1197 35.0903H8.69629V35.8094H19.1197V35.0903Z" fill="#13245D"/>
<path d="M8.69629 33.9067V32.7907H19.0359L19.0792 33.9067H8.69629Z" fill="#13245D"/>
<path d="M8.69629 31.5899V30.0569H18.9651L18.9969 31.5899H8.69629Z" fill="#13245D"/>
<path d="M8.69629 28.8532V26.6298H18.8596L18.9087 28.8532H8.69629Z" fill="#13245D"/>
<path d="M8.69629 25.4635V22.0249H38.296L38.5113 25.4635H20.6009L18.559 22.0263L18.8076 25.4635H8.69629Z" fill="#13245D"/>
<path d="M8.69629 20.837V16.5816H26.3726L28.9911 20.837L28.7454 16.5816H38.5113V20.837H8.69629Z" fill="#13245D"/>
<path d="M8.69629 15.3879V7.08563L20.6515 7.12015L25.6024 15.3879H8.69629Z" fill="#13245D"/>
<path d="M38.5134 7.08563H28.7461V15.3879H38.5134V7.08563Z" fill="#13245D"/>
<path d="M38.5131 26.6298V28.8532H22.886L21.4033 26.6298H38.5131Z" fill="#13245D"/>
<path d="M38.5127 30.0569V31.5899H24.6702L23.6572 30.0569H38.5127Z" fill="#13245D"/>
<path d="M38.5126 32.7907V33.9067H26.2033L25.4678 32.7907H38.5126Z" fill="#13245D"/>
<path d="M38.5129 35.0903V35.8094H27.4739L26.9941 35.0903H38.5129Z" fill="#13245D"/>
<path d="M51.4973 35.0903H41.2979V35.8094H51.4973V35.0903Z" fill="#13245D"/>
<path d="M51.4973 32.7907H41.2979V33.9053H51.4973V32.7907Z" fill="#13245D"/>
<path d="M51.4973 30.0569H41.2979V31.5899H51.4973V30.0569Z" fill="#13245D"/>
<path d="M51.4973 26.6298H41.2979V28.8503H51.4973V26.6298Z" fill="#13245D"/>
<path d="M51.4973 22.0249H41.2979V25.4635H51.4973V22.0249Z" fill="#13245D"/>
<path d="M51.4973 16.5816H41.2979V20.837H51.4973V16.5816Z" fill="#13245D"/>
<path d="M51.4973 7.08563H41.2979V15.3879H51.4973V7.08563Z" fill="#13245D"/>
<path d="M69.0316 6.59528H74.4449V15.388H54.7354C57.1761 10.2265 62.6674 6.59528 69.0316 6.59528Z" fill="#13245D"/>
<path d="M65.694 16.5816C65.0685 17.1045 64.5632 17.755 64.2123 18.4892C63.8615 19.2235 63.6734 20.0241 63.6608 20.837H53.3848C53.4559 19.3843 53.7437 17.9501 54.2388 16.5816H65.694Z" fill="#13245D"/>
<path d="M63.7512 22.0249C63.9909 23.3749 64.7086 24.5948 65.7744 25.4635H53.9911C53.6541 24.346 53.4599 23.1907 53.4131 22.0249H63.7512Z" fill="#13245D"/>
<path d="M74.4446 26.6298V28.8532H55.514C55.0757 28.1465 54.7014 27.4024 54.3955 26.6298H74.4446Z" fill="#13245D"/>
<path d="M74.4453 30.0569V31.5899H57.6823C57.1992 31.1109 56.7506 30.5986 56.3398 30.0569H74.4453Z" fill="#13245D"/>
<path d="M74.4455 32.7893V33.9053H60.6391C60.0831 33.5618 59.5457 33.1893 59.0293 32.7893H74.4455Z" fill="#13245D"/>
<path d="M74.4456 35.0903V35.7087H65.2115C65.2115 35.7087 64.9037 35.8137 63.0713 35.0903H74.4456Z" fill="#13245D"/>
<path d="M79.7871 7.18488H81.6209L84.9461 12.9431V7.18488H86.5761V15.4426H84.8261L81.4172 9.58367V15.4426H79.7871V7.18488Z" fill="#13245D"/>
<path d="M90.4237 11.7279C90.6443 11.7074 90.8613 11.6591 91.0696 11.5841C91.1692 11.5557 91.257 11.4962 91.32 11.4144C91.3829 11.3325 91.4178 11.2327 91.4194 11.1296C91.4296 11.0269 91.4098 10.9234 91.3624 10.8316C91.315 10.7397 91.2419 10.6635 91.152 10.6119C90.9048 10.5021 90.6347 10.4528 90.3644 10.4681C89.9791 10.4681 89.705 10.564 89.5422 10.7557C89.4166 10.9189 89.3373 11.1126 89.3124 11.3166H87.7488C87.7636 10.8414 87.9234 10.3819 88.2069 9.99927C88.6366 9.46141 89.3746 9.19296 90.4208 9.19392C91.0483 9.18233 91.6697 9.31833 92.2344 9.59084C92.7633 9.8569 93.0263 10.3559 93.0263 11.0922V13.8908C93.0263 14.085 93.0263 14.3223 93.0393 14.597C93.0334 14.7467 93.0667 14.8954 93.1361 15.0284C93.1978 15.1097 93.2801 15.1732 93.3746 15.2125V15.4483H91.6188C91.5728 15.3361 91.5384 15.2195 91.5162 15.1003C91.4988 14.9924 91.4829 14.8688 91.4714 14.7307C91.2441 14.9711 90.9827 15.177 90.6954 15.3419C90.3315 15.5431 89.9208 15.6453 89.5046 15.6382C88.9966 15.6571 88.4995 15.4886 88.1087 15.165C87.7406 14.8486 87.5566 14.4014 87.5566 13.8233C87.5566 13.074 87.8457 12.5289 88.4439 12.1939C88.7691 12.0098 89.2445 11.8789 89.8746 11.8012L90.4237 11.7279ZM91.4136 12.4729C91.3148 12.535 91.2097 12.5866 91.1 12.6267C90.959 12.676 90.814 12.7126 90.6665 12.736L90.298 12.8036C90.0398 12.8366 89.7885 12.9104 89.5538 13.0222C89.4317 13.0869 89.3309 13.1852 89.2632 13.3052C89.1956 13.4253 89.164 13.5622 89.1722 13.6996C89.1616 13.8095 89.1772 13.9204 89.2179 14.0231C89.2586 14.1259 89.3232 14.2175 89.4063 14.2906C89.5683 14.4148 89.7685 14.4793 89.9728 14.4733C90.3219 14.4752 90.6631 14.3697 90.9497 14.1713C91.2484 13.968 91.4035 13.6003 91.415 13.0682L91.4136 12.4729Z" fill="#13245D"/>
<path d="M93.6895 10.5285V9.39241H94.5565V7.68823H96.1562V9.39241H97.1678V10.5285H96.1562V13.7557C96.1562 14.0059 96.1866 14.1627 96.253 14.2231C96.3195 14.2835 96.5146 14.3166 96.8426 14.3166C96.8918 14.3166 96.9438 14.3166 97.0001 14.3166C97.0565 14.3166 97.1085 14.3166 97.1605 14.3079V15.5016L96.3874 15.5318C95.6235 15.5577 95.1008 15.4273 94.8195 15.1406C94.6374 14.9565 94.5478 14.6747 94.5478 14.2936V10.5285H93.6895Z" fill="#13245D"/>
<path d="M99.9497 8.60716H98.3066V7.13452H99.9497V8.60716ZM98.3066 9.33629H99.9497V15.4426H98.3066V9.33629Z" fill="#13245D"/>
<path d="M106.365 14.6962C105.842 15.3299 105.049 15.6473 103.985 15.6482C102.922 15.6492 102.128 15.3319 101.604 14.6962C101.076 14.0462 100.799 13.2305 100.821 12.3952C100.803 11.5645 101.08 10.7543 101.604 10.1071C102.126 9.46095 102.92 9.13833 103.985 9.13928C105.051 9.14024 105.844 9.46286 106.365 10.1071C106.888 10.7547 107.166 11.5647 107.149 12.3952C107.17 13.2304 106.892 14.0459 106.365 14.6962ZM105.065 13.8132C105.316 13.4805 105.442 13.0083 105.443 12.3966C105.444 11.785 105.318 11.3142 105.065 10.9844C104.929 10.8282 104.761 10.703 104.573 10.6171C104.384 10.5312 104.179 10.4868 103.972 10.4868C103.764 10.4868 103.559 10.5312 103.371 10.6171C103.182 10.703 103.014 10.8282 102.878 10.9844C102.624 11.3152 102.496 11.7859 102.495 12.3966C102.494 13.0074 102.626 13.4796 102.89 13.8132C103.026 13.9694 103.193 14.0946 103.382 14.1805C103.571 14.2664 103.776 14.3108 103.983 14.3108C104.191 14.3108 104.396 14.2664 104.584 14.1805C104.773 14.0946 104.941 13.9694 105.076 13.8132" fill="#13245D"/>
<path d="M113.185 9.68577C113.59 10.0165 113.793 10.5645 113.793 11.3296V15.4426H112.139V11.7279C112.152 11.4752 112.108 11.2227 112.011 10.9887C111.852 10.6752 111.552 10.5184 111.107 10.5184C110.561 10.5184 110.188 10.7476 109.985 11.2059C109.871 11.5025 109.817 11.8188 109.826 12.1363V15.444H108.202V9.34781H109.772V10.238C109.928 9.98044 110.127 9.75095 110.36 9.55922C110.728 9.30203 111.171 9.17266 111.621 9.19106C112.185 9.16682 112.739 9.3421 113.185 9.68577Z" fill="#13245D"/>
<path d="M117.63 11.7279C117.85 11.7071 118.067 11.6588 118.276 11.5841C118.375 11.5556 118.463 11.4961 118.525 11.4142C118.588 11.3324 118.623 11.2326 118.624 11.1296C118.635 11.027 118.615 10.9235 118.568 10.8317C118.521 10.7398 118.448 10.6635 118.358 10.6119C118.111 10.5021 117.841 10.4528 117.571 10.4681C117.185 10.4681 116.911 10.564 116.748 10.7557C116.623 10.9189 116.543 11.1126 116.518 11.3166H114.961C114.974 10.8414 115.134 10.3817 115.417 9.99927C115.851 9.46141 116.585 9.19392 117.631 9.19392C118.259 9.18184 118.88 9.31786 119.445 9.59084C119.974 9.85689 120.24 10.3559 120.24 11.0922V13.8908C120.24 14.085 120.24 14.3223 120.25 14.597C120.245 14.7466 120.278 14.8951 120.347 15.0284C120.409 15.109 120.491 15.1724 120.585 15.2125V15.4483H118.825C118.778 15.3363 118.744 15.2196 118.722 15.1003C118.703 14.9924 118.688 14.8688 118.676 14.7307C118.449 14.9714 118.188 15.1774 117.9 15.3419C117.537 15.543 117.127 15.6452 116.712 15.6382C116.203 15.6574 115.705 15.4889 115.313 15.165C114.946 14.8486 114.763 14.4014 114.763 13.8232C114.763 13.074 115.052 12.5289 115.649 12.1938C115.974 12.0098 116.449 11.8789 117.079 11.8012L117.63 11.7279ZM118.618 12.4728C118.52 12.5353 118.414 12.5869 118.305 12.6267C118.164 12.6761 118.019 12.7127 117.871 12.736L117.503 12.8036C117.246 12.837 116.996 12.9108 116.763 13.0222C116.641 13.0869 116.54 13.1852 116.472 13.3052C116.405 13.4253 116.373 13.5622 116.381 13.6996C116.371 13.8097 116.387 13.9207 116.429 14.0234C116.47 14.1261 116.535 14.2177 116.618 14.2906C116.781 14.415 116.981 14.4795 117.186 14.4733C117.536 14.4748 117.877 14.3693 118.164 14.1713C118.462 13.968 118.616 13.6003 118.627 13.0682L118.618 12.4728Z" fill="#13245D"/>
<path d="M123.19 7.18488H121.57V15.4426H123.19V7.18488Z" fill="#13245D"/>
<path d="M81.4132 16.8707H79.6748V25.127H81.4132V16.8707Z" fill="#13245D"/>
<path d="M87.7952 19.3716C88.2012 19.7024 88.4035 20.2488 88.4035 21.0154V25.127H86.7446V21.4152C86.7577 21.1617 86.7133 20.9085 86.6145 20.6745C86.4556 20.361 86.155 20.2043 85.7128 20.2043C85.1665 20.2043 84.7937 20.4344 84.59 20.8931C84.4746 21.189 84.4206 21.505 84.431 21.8222V25.1298H82.8125V19.0336H84.3804V19.9238C84.538 19.6668 84.7372 19.4374 84.97 19.245C85.3381 18.9881 85.7809 18.8587 86.2301 18.8769C86.8689 18.8769 87.3905 19.0418 87.7952 19.3716Z" fill="#13245D"/>
<path d="M92.3543 16.7959C92.4381 16.7959 92.5508 16.8102 92.6953 16.8203V18.1146C92.6043 18.1031 92.4526 18.0945 92.2387 18.0887C92.1586 18.0774 92.077 18.0844 92.0001 18.1093C91.9232 18.1343 91.853 18.1764 91.7951 18.2325C91.717 18.3242 91.674 18.4403 91.6737 18.5604V19.0739H92.7358V20.2013H91.6737V25.1241H90.0667V20.2042H89.1621V19.0767H90.0479V18.687C90.0479 18.0331 90.1597 17.5825 90.3832 17.3352C90.6173 16.9699 91.1852 16.7872 92.0826 16.7872C92.1838 16.7872 92.2777 16.7872 92.3601 16.7959" fill="#13245D"/>
<path d="M98.715 24.3806C98.1919 25.0182 97.3981 25.3365 96.3335 25.3355C95.269 25.3345 94.4756 25.0162 93.9535 24.3806C93.4448 23.7234 93.1689 22.9171 93.1689 22.0875C93.1689 21.2579 93.4448 20.4516 93.9535 19.7944C94.4766 19.1492 95.2699 18.8265 96.3335 18.8265C97.3971 18.8265 98.1909 19.1492 98.715 19.7944C99.223 20.4519 99.4984 21.2581 99.4984 22.0875C99.4984 22.9169 99.223 23.7231 98.715 24.3806ZM97.4145 23.4976C97.6678 23.1668 97.7945 22.6956 97.7945 22.0839C97.7945 21.4722 97.6678 21.001 97.4145 20.6702C97.2788 20.5141 97.1109 20.3888 96.9223 20.3029C96.7337 20.2171 96.5287 20.1726 96.3212 20.1726C96.1138 20.1726 95.9088 20.2171 95.7202 20.3029C95.5315 20.3888 95.3637 20.5141 95.228 20.6702C94.9727 21.001 94.8451 21.4722 94.8451 22.0839C94.8451 22.6956 94.9727 23.1668 95.228 23.4976C95.3637 23.6537 95.5315 23.779 95.7202 23.8649C95.9088 23.9507 96.1138 23.9952 96.3212 23.9952C96.5287 23.9952 96.7337 23.9507 96.9223 23.8649C97.1109 23.779 97.2788 23.6537 97.4145 23.4976Z" fill="#13245D"/>
<path d="M103.981 18.8783L104.126 18.8884V20.5235C104.023 20.512 103.932 20.5034 103.852 20.5005H103.66C103.007 20.5005 102.571 20.7105 102.347 21.1275C102.221 21.3648 102.16 21.7258 102.16 22.2162V25.1327H100.524V19.0207H102.071V20.0878C102.243 19.777 102.462 19.495 102.722 19.2522C103.059 18.9902 103.479 18.857 103.906 18.8769H103.981" fill="#13245D"/>
<path d="M112.681 19.0451C112.964 19.1635 113.213 19.3521 113.403 19.593C113.584 19.8218 113.704 20.0916 113.754 20.3783C113.799 20.6762 113.818 20.9774 113.811 21.2785L113.801 25.127H112.139V21.244C112.147 21.046 112.108 20.8489 112.025 20.6688C111.88 20.3811 111.616 20.2445 111.228 20.2445C110.782 20.2445 110.474 20.4257 110.303 20.7924C110.21 21.014 110.165 21.2527 110.172 21.4928V25.127H108.543V21.4928C108.559 21.2242 108.52 20.9553 108.429 20.7018C108.293 20.4142 108.027 20.2603 107.629 20.2603C107.166 20.2603 106.856 20.4075 106.698 20.7018C106.598 20.9389 106.553 21.1957 106.568 21.4525V25.127H104.925V19.0336H106.503V19.9238C106.653 19.6671 106.845 19.4376 107.072 19.245C107.425 19.0209 107.832 18.8977 108.25 18.8888C108.668 18.8799 109.081 18.9858 109.442 19.1947C109.68 19.3904 109.863 19.6434 109.975 19.9296C110.16 19.5981 110.434 19.3243 110.766 19.1386C111.112 18.9687 111.493 18.883 111.879 18.8884C112.155 18.889 112.43 18.9422 112.686 19.0451" fill="#13245D"/>
<path d="M117.63 21.4151C117.85 21.3945 118.067 21.3461 118.276 21.2713C118.375 21.2429 118.463 21.1833 118.525 21.1015C118.588 21.0196 118.623 20.9198 118.624 20.8169C118.635 20.7142 118.615 20.6108 118.568 20.5189C118.521 20.4271 118.448 20.3507 118.358 20.2991C118.11 20.1907 117.841 20.1415 117.571 20.1553C117.183 20.1553 116.909 20.2474 116.748 20.4343C116.622 20.5972 116.543 20.791 116.518 20.9952H114.961C114.974 20.5204 115.133 20.0611 115.417 19.6793C115.851 19.14 116.585 18.8725 117.631 18.8725C118.259 18.8609 118.88 18.9974 119.445 19.2709C119.974 19.5355 120.24 20.0374 120.24 20.7723V23.5737C120.24 23.7679 120.24 24.0052 120.25 24.2784C120.244 24.4281 120.278 24.5766 120.347 24.7099C120.409 24.7909 120.491 24.8548 120.585 24.8954V25.1284H118.825C118.778 25.017 118.743 24.9007 118.722 24.7818C118.703 24.6739 118.688 24.5502 118.676 24.4122C118.449 24.6528 118.188 24.8583 117.9 25.0219C117.537 25.2236 117.128 25.3263 116.712 25.3196C116.203 25.3393 115.705 25.1713 115.313 24.8479C114.946 24.5301 114.763 24.0843 114.763 23.5047C114.763 22.754 115.052 22.2104 115.649 21.8739C115.974 21.6912 116.449 21.5618 117.079 21.4827L117.63 21.4151ZM118.618 22.1586C118.519 22.2209 118.414 22.273 118.305 22.314C118.163 22.3613 118.018 22.3978 117.871 22.4232L117.503 22.4894C117.244 22.5227 116.993 22.597 116.758 22.7094C116.636 22.7742 116.535 22.8724 116.468 22.9925C116.4 23.1125 116.369 23.2494 116.377 23.3868C116.366 23.4963 116.382 23.6068 116.423 23.7092C116.463 23.8116 116.527 23.9032 116.61 23.9764C116.772 24.1007 116.973 24.1653 117.177 24.1591C117.527 24.1607 117.869 24.0547 118.156 23.8556C118.453 23.6543 118.608 23.2876 118.618 22.7526V22.1586Z" fill="#13245D"/>
<path d="M120.901 20.2158V19.0768H121.768V17.374H123.367V19.0768H124.371V20.2158H123.367V23.4415C123.367 23.6917 123.398 23.847 123.462 23.9089C123.526 23.9707 123.724 24.0024 124.053 24.0024H124.209C124.264 24.0024 124.319 24.0024 124.371 23.9937V25.1874L123.605 25.2147C122.838 25.242 122.318 25.1097 122.037 24.8235C121.855 24.6409 121.764 24.3576 121.764 23.9765V20.2158H120.901Z" fill="#13245D"/>
<path d="M127.167 18.2944H125.519V16.8261H127.167V18.2944ZM125.526 19.0135H127.167V25.1198H125.519L125.526 19.0135Z" fill="#13245D"/>
<path d="M132.116 21.2124C132.089 20.9908 132.009 20.779 131.882 20.5954C131.7 20.348 131.418 20.2258 131.034 20.2258C130.487 20.2258 130.114 20.4928 129.912 21.0268C129.794 21.3906 129.74 21.7722 129.753 22.1543C129.74 22.5214 129.794 22.8878 129.912 23.2358C129.983 23.4662 130.129 23.6663 130.327 23.8043C130.525 23.9422 130.765 24.0099 131.006 23.9966C131.385 23.9966 131.655 23.8945 131.814 23.6946C131.984 23.4662 132.084 23.1942 132.103 22.9108H133.758C133.714 23.4111 133.528 23.8888 133.223 24.2885C132.716 24.986 131.961 25.3355 130.966 25.3355C129.97 25.3355 129.232 25.0478 128.766 24.4611C128.301 23.8743 128.06 23.1236 128.06 22.196C128.06 21.1476 128.321 20.3265 128.838 19.7512C129.356 19.176 130.075 18.8768 130.989 18.8768C131.766 18.8768 132.403 19.0484 132.898 19.3917C133.393 19.7349 133.685 20.3418 133.775 21.2124H132.116Z" fill="#13245D"/>
<path d="M136.022 23.1783C136.031 23.3984 136.109 23.61 136.246 23.7837C136.446 23.9966 136.819 24.103 137.364 24.103C137.626 24.1125 137.886 24.0634 138.126 23.9592C138.204 23.9246 138.272 23.8692 138.322 23.799C138.371 23.7288 138.4 23.6464 138.406 23.5608C138.412 23.4753 138.394 23.3898 138.354 23.3137C138.314 23.2377 138.254 23.1739 138.181 23.1294C138.03 23.0335 137.466 22.8729 136.487 22.6476C135.783 22.475 135.286 22.2607 134.998 22.0048C134.709 21.7488 134.565 21.3835 134.565 20.9046C134.564 20.6281 134.624 20.3547 134.74 20.1037C134.857 19.8528 135.027 19.6303 135.24 19.4521C135.688 19.0465 136.322 18.8438 137.139 18.8438C137.912 18.8438 138.545 18.9962 139.03 19.2996C139.516 19.6031 139.799 20.1309 139.87 20.8816H138.251C138.24 20.7061 138.179 20.5375 138.075 20.3955C137.897 20.1783 137.592 20.0705 137.163 20.0705C136.811 20.0705 136.56 20.1246 136.41 20.233C136.344 20.2729 136.288 20.3286 136.249 20.3951C136.21 20.4617 136.188 20.5369 136.185 20.6141C136.18 20.6963 136.201 20.778 136.243 20.8487C136.286 20.9195 136.348 20.9759 136.423 21.011C136.583 21.0973 137.147 21.2449 138.114 21.4539C138.759 21.6035 139.24 21.8298 139.559 22.1327C139.715 22.2806 139.838 22.4594 139.92 22.6576C140.002 22.8558 140.042 23.0689 140.036 23.2832C140.043 23.5662 139.985 23.8469 139.866 24.1039C139.747 24.3609 139.57 24.5874 139.35 24.766C138.893 25.1495 138.186 25.3412 137.228 25.3412C136.254 25.3412 135.535 25.1384 135.069 24.7329C134.844 24.5429 134.665 24.3051 134.544 24.0371C134.424 23.7691 134.365 23.4776 134.373 23.184L136.022 23.1783Z" fill="#13245D"/>
<path d="M80.6154 27.7716C81.2897 27.0928 82.1476 26.753 83.1891 26.752C84.584 26.752 85.6033 27.2079 86.2469 28.1197C86.5817 28.5685 86.7821 29.1025 86.8249 29.6599H85.072C84.9927 29.3342 84.8449 29.0288 84.6385 28.764C84.3263 28.4059 83.8639 28.2247 83.2512 28.2247C82.9609 28.2164 82.6734 28.2817 82.4155 28.4145C82.1576 28.5474 81.938 28.7433 81.7772 28.984C81.4179 29.4902 81.2377 30.2093 81.2367 31.1412C81.2358 32.0731 81.4275 32.7663 81.8119 33.2207C81.982 33.4401 82.2012 33.617 82.4521 33.7374C82.7029 33.8577 82.9785 33.9181 83.257 33.9139C83.8581 33.9139 84.3148 33.714 84.6298 33.3199C84.8379 33.0331 84.9854 32.7073 85.0633 32.3621H86.7974C86.6782 33.203 86.2727 33.9777 85.6486 34.5567C85.032 35.1214 84.242 35.4038 83.2787 35.4038C82.0879 35.4038 81.1515 35.0227 80.4694 34.2605C79.7873 33.4983 79.4463 32.4484 79.4463 31.111C79.4463 29.6729 79.8341 28.5621 80.6096 27.7788" fill="#13245D"/>
<path d="M92.007 29.1839C92.442 29.3784 92.8127 29.6916 93.0763 30.0871C93.3356 30.4654 93.5042 30.8978 93.5691 31.3512C93.6191 31.7533 93.6369 32.1587 93.6226 32.5635H89.1124C89.1385 33.1752 89.3543 33.6067 89.7598 33.8578C90.03 34.0162 90.3395 34.0954 90.6529 34.0865C90.9762 34.1019 91.2945 34.0031 91.5517 33.8075C91.6903 33.6908 91.8038 33.5475 91.8856 33.3861H93.5387C93.4954 33.7486 93.2945 34.1167 92.939 34.4906C92.3841 35.0822 91.6067 35.378 90.6067 35.378C89.8132 35.3883 89.041 35.1228 88.4231 34.6272C87.795 34.1249 87.4805 33.3099 87.4795 32.1824C87.4795 31.1278 87.7632 30.3167 88.3307 29.7491C88.8981 29.1815 89.6365 28.8992 90.546 28.9021C91.0469 28.8953 91.5436 28.9933 92.0041 29.1897M89.5821 30.5689C89.3387 30.8288 89.1866 31.1604 89.1486 31.5137H91.939C91.9366 31.3322 91.8969 31.1531 91.8223 30.9874C91.7478 30.8217 91.6399 30.6729 91.5055 30.5502C91.2371 30.3258 90.8949 30.208 90.5445 30.2194C90.3681 30.2084 90.1913 30.2338 90.0252 30.2939C89.8591 30.3541 89.7073 30.4477 89.5792 30.5689" fill="#13245D"/>
<path d="M99.3196 29.4097C99.7256 29.7419 99.928 30.2884 99.928 31.0549V35.1665H98.2661V31.4518C98.2786 31.199 98.2347 30.9466 98.1375 30.7126C97.9785 30.3982 97.6775 30.2409 97.2343 30.2409C96.69 30.2409 96.3157 30.471 96.1115 30.9312C95.9966 31.2277 95.943 31.5441 95.954 31.8617V35.1694H94.3369V29.0703H95.9048V29.9619C96.0624 29.7053 96.2616 29.4764 96.4944 29.2846C96.8625 29.0263 97.306 28.8963 97.756 28.915C98.3195 28.8912 98.8733 29.0665 99.3196 29.4097Z" fill="#13245D"/>
<path d="M100.679 30.2539V29.1163H101.546V27.4136H103.148V29.1163H104.16V30.2539H103.148V33.4796C103.148 33.7298 103.18 33.8866 103.245 33.947C103.31 34.0074 103.505 34.0405 103.836 34.0405H103.994L104.154 34.0304V35.224L103.387 35.2514C102.621 35.2773 102.098 35.1464 101.819 34.8588C101.638 34.6776 101.546 34.3942 101.546 34.0146V30.2539H100.679Z" fill="#13245D"/>
<path d="M108.514 28.9179H108.659V30.5545C108.556 30.543 108.465 30.5358 108.386 30.5315C108.306 30.5272 108.241 30.5315 108.193 30.5315C107.542 30.5315 107.104 30.7429 106.88 31.1599C106.756 31.3939 106.693 31.7563 106.693 32.2472V35.1651H105.058V29.0603H106.601V30.1245C106.774 29.8138 106.995 29.5323 107.256 29.2904C107.592 29.029 108.011 28.8959 108.438 28.915H108.513" fill="#13245D"/>
<path d="M113.523 29.1839C113.958 29.3784 114.329 29.6916 114.592 30.0871C114.853 30.4649 115.022 30.8976 115.087 31.3512C115.135 31.7534 115.152 32.1587 115.139 32.5635H110.63C110.655 33.1752 110.87 33.6067 111.276 33.8578C111.546 34.0162 111.856 34.0954 112.169 34.0865C112.422 34.1071 112.674 34.0513 112.894 33.9263C113.114 33.8013 113.291 33.613 113.402 33.3861H115.053C115.012 33.7486 114.811 34.1167 114.455 34.4906C113.9 35.0822 113.123 35.378 112.124 35.378C111.332 35.3879 110.561 35.1225 109.944 34.6272C109.314 34.1249 108.998 33.3099 108.997 32.1824C108.997 31.1278 109.282 30.3167 109.851 29.7491C110.419 29.1839 111.159 28.9021 112.065 28.9021C112.566 28.8953 113.063 28.9933 113.523 29.1897M111.1 30.5689C110.857 30.8295 110.705 31.1607 110.666 31.5137H113.455C113.453 31.3322 113.413 31.153 113.339 30.9873C113.264 30.8216 113.156 30.6728 113.022 30.5502C112.753 30.3258 112.411 30.208 112.061 30.2194C111.884 30.2086 111.707 30.234 111.541 30.2941C111.374 30.3542 111.222 30.4478 111.094 30.5689" fill="#13245D"/>
</g>
<defs>
<clipPath id="clip0_62_212">
<rect width="150" height="43" fill="white"/>
</clipPath>
</defs>
</svg>
