<svg width="150" height="43" viewBox="0 0 150 43" fill="none" xmlns="http://www.w3.org/2000/svg">
<g clip-path="url(#clip0_55_2)">
<path d="M19.1199 35.0903H8.69653V35.8094H19.1199V35.0903Z" fill="white"/>
<path d="M8.69653 33.9067V32.7907H19.0361L19.0795 33.9067H8.69653Z" fill="white"/>
<path d="M8.69653 31.5899V30.0569H18.9653L18.9971 31.5899H8.69653Z" fill="white"/>
<path d="M8.69653 28.8532V26.6298H18.8598L18.909 28.8532H8.69653Z" fill="white"/>
<path d="M8.69653 25.4635V22.0249H38.2962L38.5116 25.4635H20.6012L18.5592 22.0263L18.8078 25.4635H8.69653Z" fill="white"/>
<path d="M8.69653 20.837V16.5816H26.3728L28.9913 20.837L28.7457 16.5816H38.5116V20.837H8.69653Z" fill="white"/>
<path d="M8.69653 15.3879V7.08563L20.6517 7.12015L25.6026 15.3879H8.69653Z" fill="white"/>
<path d="M38.5129 7.08563H28.7456V15.3879H38.5129V7.08563Z" fill="white"/>
<path d="M38.5129 26.6298V28.8532H22.8857L21.4031 26.6298H38.5129Z" fill="white"/>
<path d="M38.513 30.0569V31.5899H24.6705L23.6575 30.0569H38.513Z" fill="white"/>
<path d="M38.5131 32.7907V33.9067H26.2038L25.4683 32.7907H38.5131Z" fill="white"/>
<path d="M38.5129 35.0903V35.8094H27.4739L26.9941 35.0903H38.5129Z" fill="white"/>
<path d="M51.497 35.0903H41.2976V35.8094H51.497V35.0903Z" fill="white"/>
<path d="M51.497 32.7907H41.2976V33.9053H51.497V32.7907Z" fill="white"/>
<path d="M51.497 30.0569H41.2976V31.5899H51.497V30.0569Z" fill="white"/>
<path d="M51.497 26.6298H41.2976V28.8503H51.497V26.6298Z" fill="white"/>
<path d="M51.497 22.0249H41.2976V25.4635H51.497V22.0249Z" fill="white"/>
<path d="M51.497 16.5816H41.2976V20.837H51.497V16.5816Z" fill="white"/>
<path d="M51.497 7.08563H41.2976V15.3879H51.497V7.08563Z" fill="white"/>
<path d="M69.0318 6.59528H74.4451V15.388H54.7356C57.1763 10.2265 62.6677 6.59528 69.0318 6.59528Z" fill="white"/>
<path d="M65.6935 16.5816C65.068 17.1045 64.5627 17.755 64.2119 18.4892C63.8611 19.2235 63.6729 20.0241 63.6603 20.837H53.3843C53.4554 19.3843 53.7432 17.9501 54.2383 16.5816H65.6935Z" fill="white"/>
<path d="M63.7515 22.0249C63.9911 23.3749 64.7089 24.5948 65.7746 25.4635H53.9914C53.6544 24.346 53.4602 23.1907 53.4133 22.0249H63.7515Z" fill="white"/>
<path d="M74.4451 26.6298V28.8532H55.5145C55.0762 28.1465 54.7019 27.4024 54.396 26.6298H74.4451Z" fill="white"/>
<path d="M74.4451 30.0569V31.5899H57.6821C57.199 31.1109 56.7504 30.5986 56.3396 30.0569H74.4451Z" fill="white"/>
<path d="M74.445 32.7893V33.9053H60.6386C60.0826 33.5618 59.5453 33.1893 59.0288 32.7893H74.445Z" fill="white"/>
<path d="M74.4451 35.0903V35.7087H65.211C65.211 35.7087 64.9032 35.8137 63.0708 35.0903H74.4451Z" fill="white"/>
<path d="M79.7876 7.18488H81.6214L84.9466 12.9431V7.18488H86.5766V15.4426H84.8266L81.4177 9.58367V15.4426H79.7876V7.18488Z" fill="white"/>
<path d="M90.4234 11.7279C90.644 11.7074 90.8611 11.6591 91.0694 11.5841C91.169 11.5557 91.2567 11.4962 91.3197 11.4144C91.3827 11.3325 91.4175 11.2327 91.4191 11.1296C91.4293 11.0269 91.4096 10.9234 91.3621 10.8316C91.3147 10.7397 91.2417 10.6635 91.1518 10.6119C90.9046 10.5021 90.6345 10.4528 90.3642 10.4681C89.9788 10.4681 89.7048 10.564 89.5419 10.7557C89.4164 10.9189 89.337 11.1126 89.3122 11.3166H87.7486C87.7633 10.8414 87.9231 10.3819 88.2067 9.99927C88.6364 9.46141 89.3743 9.19296 90.4206 9.19392C91.0481 9.18233 91.6694 9.31833 92.2341 9.59084C92.763 9.8569 93.026 10.3559 93.026 11.0922V13.8908C93.026 14.085 93.0261 14.3223 93.0391 14.597C93.0331 14.7467 93.0665 14.8954 93.1359 15.0284C93.1976 15.1097 93.2799 15.1732 93.3743 15.2125V15.4483H91.6185C91.5726 15.3361 91.5382 15.2195 91.5159 15.1003C91.4986 14.9924 91.4827 14.8688 91.4711 14.7307C91.2439 14.9711 90.9824 15.177 90.6951 15.3419C90.3313 15.5431 89.9206 15.6453 89.5044 15.6382C88.9964 15.6571 88.4992 15.4886 88.1084 15.165C87.7404 14.8486 87.5564 14.4014 87.5564 13.8233C87.5564 13.074 87.8454 12.5289 88.4437 12.1939C88.7688 12.0098 89.2443 11.8789 89.8743 11.8012L90.4234 11.7279ZM91.4133 12.4729C91.3145 12.535 91.2094 12.5866 91.0997 12.6267C90.9588 12.676 90.8137 12.7126 90.6662 12.736L90.2977 12.8036C90.0395 12.8366 89.7883 12.9104 89.5535 13.0222C89.4314 13.0869 89.3306 13.1852 89.263 13.3052C89.1954 13.4253 89.1638 13.5622 89.172 13.6996C89.1613 13.8095 89.177 13.9204 89.2177 14.0231C89.2584 14.1259 89.3229 14.2175 89.4061 14.2906C89.5681 14.4148 89.7682 14.4793 89.9726 14.4733C90.3217 14.4752 90.6629 14.3697 90.9495 14.1713C91.2481 13.968 91.4032 13.6003 91.4148 13.0682L91.4133 12.4729Z" fill="white"/>
<path d="M93.6892 10.5285V9.39241H94.5563V7.68823H96.156V9.39241H97.1675V10.5285H96.156V13.7557C96.156 14.0059 96.1863 14.1627 96.2528 14.2231C96.3193 14.2835 96.5144 14.3166 96.8424 14.3166C96.8915 14.3166 96.9435 14.3166 96.9999 14.3166C97.0563 14.3166 97.1083 14.3166 97.1603 14.3079V15.5016L96.3872 15.5318C95.6232 15.5577 95.1006 15.4273 94.8193 15.1406C94.6372 14.9565 94.5476 14.6747 94.5476 14.2936V10.5285H93.6892Z" fill="white"/>
<path d="M99.9495 8.60716H98.3064V7.13452H99.9495V8.60716ZM98.3064 9.33629H99.9495V15.4426H98.3064V9.33629Z" fill="white"/>
<path d="M106.366 14.6962C105.842 15.3299 105.049 15.6473 103.986 15.6482C102.922 15.6492 102.128 15.3319 101.604 14.6962C101.076 14.0462 100.799 13.2305 100.821 12.3952C100.803 11.5645 101.08 10.7543 101.604 10.1071C102.126 9.46095 102.92 9.13833 103.986 9.13928C105.051 9.14024 105.844 9.46286 106.366 10.1071C106.889 10.7547 107.166 11.5647 107.149 12.3952C107.17 13.2304 106.893 14.0459 106.366 14.6962ZM105.065 13.8132C105.316 13.4805 105.443 13.0083 105.444 12.3966C105.445 11.785 105.318 11.3142 105.065 10.9844C104.929 10.8282 104.762 10.703 104.573 10.6171C104.384 10.5312 104.179 10.4868 103.972 10.4868C103.764 10.4868 103.559 10.5312 103.371 10.6171C103.182 10.703 103.014 10.8282 102.879 10.9844C102.624 11.3152 102.497 11.7859 102.496 12.3966C102.495 13.0074 102.626 13.4796 102.89 13.8132C103.026 13.9694 103.194 14.0946 103.382 14.1805C103.571 14.2664 103.776 14.3108 103.983 14.3108C104.191 14.3108 104.396 14.2664 104.584 14.1805C104.773 14.0946 104.941 13.9694 105.077 13.8132" fill="white"/>
<path d="M113.185 9.68577C113.591 10.0165 113.793 10.5645 113.793 11.3296V15.4426H112.139V11.7279C112.152 11.4752 112.108 11.2227 112.012 10.9887C111.853 10.6752 111.552 10.5184 111.107 10.5184C110.562 10.5184 110.188 10.7476 109.986 11.2059C109.871 11.5025 109.817 11.8188 109.827 12.1363V15.444H108.202V9.34781H109.772V10.238C109.928 9.98044 110.127 9.75095 110.36 9.55922C110.728 9.30203 111.172 9.17266 111.621 9.19106C112.185 9.16682 112.739 9.3421 113.185 9.68577Z" fill="white"/>
<path d="M117.63 11.7279C117.851 11.7071 118.068 11.6588 118.276 11.5841C118.375 11.5556 118.463 11.4961 118.526 11.4142C118.588 11.3324 118.623 11.2326 118.624 11.1296C118.635 11.027 118.615 10.9235 118.568 10.8317C118.521 10.7398 118.448 10.6635 118.358 10.6119C118.111 10.5021 117.841 10.4528 117.571 10.4681C117.185 10.4681 116.911 10.564 116.748 10.7557C116.623 10.9189 116.544 11.1126 116.519 11.3166H114.961C114.975 10.8414 115.134 10.3817 115.418 9.99927C115.851 9.46141 116.585 9.19392 117.631 9.19392C118.259 9.18184 118.88 9.31786 119.445 9.59084C119.974 9.85689 120.24 10.3559 120.24 11.0922V13.8908C120.24 14.085 120.24 14.3223 120.25 14.597C120.245 14.7466 120.278 14.8951 120.347 15.0284C120.409 15.109 120.491 15.1724 120.585 15.2125V15.4483H118.825C118.778 15.3363 118.744 15.2196 118.722 15.1003C118.704 14.9924 118.688 14.8688 118.676 14.7307C118.449 14.9714 118.188 15.1774 117.9 15.3419C117.537 15.543 117.128 15.6452 116.712 15.6382C116.203 15.6574 115.705 15.4889 115.314 15.165C114.946 14.8486 114.763 14.4014 114.763 13.8232C114.763 13.074 115.052 12.5289 115.649 12.1938C115.974 12.0098 116.449 11.8789 117.079 11.8012L117.63 11.7279ZM118.618 12.4728C118.52 12.5353 118.415 12.5869 118.305 12.6267C118.164 12.6761 118.019 12.7127 117.871 12.736L117.503 12.8036C117.246 12.837 116.996 12.9108 116.763 13.0222C116.641 13.0869 116.54 13.1852 116.472 13.3052C116.405 13.4253 116.373 13.5622 116.381 13.6996C116.371 13.8097 116.388 13.9207 116.429 14.0234C116.47 14.1261 116.535 14.2177 116.618 14.2906C116.781 14.415 116.982 14.4795 117.186 14.4733C117.536 14.4748 117.877 14.3693 118.165 14.1713C118.462 13.968 118.617 13.6003 118.627 13.0682L118.618 12.4728Z" fill="white"/>
<path d="M123.191 7.18488H121.571V15.4426H123.191V7.18488Z" fill="white"/>
<path d="M81.4132 16.8707H79.6748V25.127H81.4132V16.8707Z" fill="white"/>
<path d="M87.7947 19.3716C88.2007 19.7024 88.4031 20.2488 88.4031 21.0154V25.127H86.7441V21.4152C86.7572 21.1617 86.7128 20.9085 86.614 20.6745C86.4551 20.361 86.1545 20.2043 85.7123 20.2043C85.1661 20.2043 84.7932 20.4344 84.5895 20.8931C84.4741 21.189 84.4201 21.505 84.4305 21.8222V25.1298H82.812V19.0336H84.3799V19.9238C84.5375 19.6668 84.7368 19.4374 84.9695 19.245C85.3376 18.9881 85.7804 18.8587 86.2296 18.8769C86.8684 18.8769 87.39 19.0418 87.7947 19.3716Z" fill="white"/>
<path d="M92.3541 16.7959C92.4379 16.7959 92.5506 16.8102 92.6951 16.8203V18.1146C92.6041 18.1031 92.4523 18.0945 92.2385 18.0887C92.1584 18.0774 92.0768 18.0844 91.9998 18.1093C91.9229 18.1343 91.8528 18.1764 91.7948 18.2325C91.7167 18.3242 91.6737 18.4403 91.6734 18.5604V19.0739H92.7356V20.2013H91.6734V25.1241H90.0665V20.2042H89.1619V19.0767H90.0477V18.687C90.0477 18.0331 90.1595 17.5825 90.383 17.3352C90.6171 16.9699 91.185 16.7872 92.0824 16.7872C92.1835 16.7872 92.2775 16.7872 92.3598 16.7959" fill="white"/>
<path d="M98.7153 24.3806C98.1922 25.0182 97.3983 25.3365 96.3338 25.3355C95.2692 25.3345 94.4759 25.0162 93.9537 24.3806C93.445 23.7234 93.1692 22.9171 93.1692 22.0875C93.1692 21.2579 93.445 20.4516 93.9537 19.7944C94.4768 19.1492 95.2702 18.8265 96.3338 18.8265C97.3974 18.8265 98.1912 19.1492 98.7153 19.7944C99.2233 20.4519 99.4987 21.2581 99.4987 22.0875C99.4987 22.9169 99.2233 23.7231 98.7153 24.3806ZM97.4147 23.4976C97.6681 23.1668 97.7948 22.6956 97.7948 22.0839C97.7948 21.4722 97.6681 21.001 97.4147 20.6702C97.279 20.5141 97.1112 20.3888 96.9226 20.3029C96.7339 20.2171 96.5289 20.1726 96.3215 20.1726C96.1141 20.1726 95.9091 20.2171 95.7204 20.3029C95.5318 20.3888 95.3639 20.5141 95.2283 20.6702C94.973 21.001 94.8453 21.4722 94.8453 22.0839C94.8453 22.6956 94.973 23.1668 95.2283 23.4976C95.3639 23.6537 95.5318 23.779 95.7204 23.8649C95.9091 23.9507 96.1141 23.9952 96.3215 23.9952C96.5289 23.9952 96.7339 23.9507 96.9226 23.8649C97.1112 23.779 97.279 23.6537 97.4147 23.4976Z" fill="white"/>
<path d="M103.981 18.8783L104.126 18.8884V20.5235C104.023 20.512 103.932 20.5034 103.853 20.5005H103.66C103.007 20.5005 102.571 20.7105 102.347 21.1275C102.221 21.3648 102.16 21.7258 102.16 22.2162V25.1327H100.525V19.0207H102.071V20.0878C102.243 19.777 102.463 19.495 102.723 19.2522C103.059 18.9902 103.479 18.857 103.906 18.8769H103.981" fill="white"/>
<path d="M112.681 19.0451C112.964 19.1635 113.213 19.3521 113.403 19.593C113.584 19.8218 113.704 20.0916 113.754 20.3783C113.799 20.6762 113.818 20.9774 113.811 21.2785L113.801 25.127H112.139V21.244C112.147 21.046 112.108 20.8489 112.025 20.6688C111.88 20.3811 111.616 20.2445 111.228 20.2445C110.782 20.2445 110.474 20.4257 110.303 20.7924C110.21 21.014 110.165 21.2527 110.172 21.4928V25.127H108.543V21.4928C108.559 21.2242 108.52 20.9553 108.429 20.7018C108.293 20.4142 108.027 20.2603 107.629 20.2603C107.166 20.2603 106.856 20.4075 106.698 20.7018C106.598 20.9389 106.553 21.1957 106.568 21.4525V25.127H104.925V19.0336H106.503V19.9238C106.653 19.6671 106.845 19.4376 107.072 19.245C107.425 19.0209 107.832 18.8977 108.25 18.8888C108.668 18.8799 109.081 18.9858 109.442 19.1947C109.68 19.3904 109.863 19.6434 109.975 19.9296C110.16 19.5981 110.434 19.3243 110.766 19.1386C111.112 18.9687 111.493 18.883 111.879 18.8884C112.155 18.889 112.43 18.9422 112.686 19.0451" fill="white"/>
<path d="M117.63 21.4151C117.851 21.3945 118.068 21.3461 118.276 21.2713C118.375 21.2429 118.463 21.1833 118.526 21.1015C118.588 21.0196 118.623 20.9198 118.624 20.8169C118.635 20.7142 118.615 20.6108 118.568 20.5189C118.521 20.4271 118.448 20.3507 118.358 20.2991C118.111 20.1907 117.841 20.1415 117.571 20.1553C117.183 20.1553 116.909 20.2474 116.748 20.4343C116.622 20.5972 116.543 20.791 116.519 20.9952H114.961C114.974 20.5204 115.134 20.0611 115.418 19.6793C115.851 19.14 116.585 18.8725 117.631 18.8725C118.259 18.8609 118.881 18.9974 119.445 19.2709C119.974 19.5355 120.24 20.0374 120.24 20.7723V23.5737C120.24 23.7679 120.24 24.0052 120.25 24.2784C120.245 24.4281 120.278 24.5766 120.347 24.7099C120.409 24.7909 120.491 24.8548 120.585 24.8954V25.1284H118.825C118.778 25.017 118.744 24.9007 118.722 24.7818C118.704 24.6739 118.688 24.5502 118.676 24.4122C118.45 24.6528 118.188 24.8583 117.9 25.0219C117.538 25.2236 117.128 25.3263 116.712 25.3196C116.204 25.3393 115.705 25.1713 115.314 24.8479C114.946 24.5301 114.763 24.0843 114.763 23.5047C114.763 22.754 115.052 22.2104 115.649 21.8739C115.974 21.6912 116.449 21.5618 117.079 21.4827L117.63 21.4151ZM118.618 22.1586C118.52 22.2209 118.414 22.273 118.305 22.314C118.163 22.3613 118.018 22.3978 117.871 22.4232L117.503 22.4894C117.245 22.5227 116.993 22.597 116.759 22.7094C116.637 22.7742 116.536 22.8724 116.468 22.9925C116.4 23.1125 116.369 23.2494 116.377 23.3868C116.367 23.4963 116.382 23.6068 116.423 23.7092C116.463 23.8116 116.527 23.9032 116.61 23.9764C116.772 24.1007 116.973 24.1653 117.178 24.1591C117.527 24.1607 117.869 24.0547 118.156 23.8556C118.454 23.6543 118.608 23.2876 118.618 22.7526V22.1586Z" fill="white"/>
<path d="M120.902 20.2158V19.0768H121.769V17.374H123.367V19.0768H124.372V20.2158H123.367V23.4415C123.367 23.6917 123.399 23.847 123.463 23.9089C123.526 23.9707 123.724 24.0024 124.054 24.0024H124.21C124.265 24.0024 124.319 24.0024 124.372 23.9937V25.1874L123.606 25.2147C122.838 25.242 122.318 25.1097 122.038 24.8235C121.856 24.6409 121.765 24.3576 121.765 23.9765V20.2158H120.902Z" fill="white"/>
<path d="M127.168 18.2944H125.519V16.8261H127.168V18.2944ZM125.526 19.0135H127.168V25.1198H125.519L125.526 19.0135Z" fill="white"/>
<path d="M132.116 21.2124C132.089 20.9908 132.009 20.779 131.882 20.5954C131.7 20.348 131.418 20.2258 131.033 20.2258C130.487 20.2258 130.113 20.4928 129.912 21.0268C129.793 21.3906 129.74 21.7722 129.753 22.1543C129.74 22.5214 129.794 22.8878 129.912 23.2358C129.982 23.4662 130.129 23.6663 130.327 23.8043C130.525 23.9422 130.764 24.0099 131.006 23.9966C131.384 23.9966 131.655 23.8945 131.814 23.6946C131.983 23.4662 132.084 23.1942 132.103 22.9108H133.757C133.714 23.4111 133.528 23.8888 133.223 24.2885C132.715 24.986 131.961 25.3355 130.965 25.3355C129.97 25.3355 129.231 25.0478 128.766 24.4611C128.301 23.8743 128.059 23.1236 128.059 22.196C128.059 21.1476 128.321 20.3265 128.838 19.7512C129.356 19.176 130.075 18.8768 130.989 18.8768C131.766 18.8768 132.402 19.0484 132.897 19.3917C133.393 19.7349 133.685 20.3418 133.775 21.2124H132.116Z" fill="white"/>
<path d="M136.022 23.1783C136.031 23.3984 136.109 23.61 136.246 23.7837C136.446 23.9966 136.819 24.103 137.364 24.103C137.626 24.1125 137.886 24.0634 138.126 23.9592C138.204 23.9246 138.272 23.8692 138.322 23.799C138.371 23.7288 138.4 23.6464 138.406 23.5608C138.412 23.4753 138.394 23.3898 138.354 23.3137C138.314 23.2377 138.254 23.1739 138.181 23.1294C138.03 23.0335 137.466 22.8729 136.487 22.6476C135.783 22.475 135.286 22.2607 134.998 22.0048C134.709 21.7488 134.565 21.3835 134.565 20.9046C134.564 20.6281 134.624 20.3547 134.74 20.1037C134.857 19.8528 135.027 19.6303 135.24 19.4521C135.688 19.0465 136.322 18.8438 137.139 18.8438C137.912 18.8438 138.545 18.9962 139.03 19.2996C139.516 19.6031 139.799 20.1309 139.87 20.8816H138.251C138.24 20.7061 138.179 20.5375 138.075 20.3955C137.897 20.1783 137.592 20.0705 137.163 20.0705C136.811 20.0705 136.56 20.1246 136.41 20.233C136.344 20.2729 136.288 20.3286 136.249 20.3951C136.21 20.4617 136.188 20.5369 136.185 20.6141C136.18 20.6963 136.201 20.778 136.243 20.8487C136.286 20.9195 136.348 20.9759 136.423 21.011C136.583 21.0973 137.147 21.2449 138.114 21.4539C138.759 21.6035 139.24 21.8298 139.559 22.1327C139.715 22.2806 139.838 22.4594 139.92 22.6576C140.002 22.8558 140.042 23.0689 140.036 23.2832C140.043 23.5662 139.985 23.8469 139.866 24.1039C139.747 24.3609 139.57 24.5874 139.35 24.766C138.893 25.1495 138.186 25.3412 137.228 25.3412C136.254 25.3412 135.535 25.1384 135.069 24.7329C134.844 24.5429 134.665 24.3051 134.544 24.0371C134.424 23.7691 134.365 23.4776 134.373 23.184L136.022 23.1783Z" fill="white"/>
<path d="M80.6156 27.7716C81.29 27.0928 82.1479 26.753 83.1893 26.752C84.5843 26.752 85.6036 27.2079 86.2471 28.1197C86.582 28.5685 86.7823 29.1025 86.8251 29.6599H85.0723C84.9929 29.3342 84.8452 29.0288 84.6387 28.764C84.3266 28.4059 83.8642 28.2247 83.2514 28.2247C82.9612 28.2164 82.6736 28.2817 82.4157 28.4145C82.1579 28.5474 81.9382 28.7433 81.7775 28.984C81.4181 29.4902 81.238 30.2093 81.237 31.1412C81.236 32.0731 81.4277 32.7663 81.8121 33.2207C81.9823 33.4401 82.2015 33.617 82.4523 33.7374C82.7032 33.8577 82.9788 33.9181 83.2572 33.9139C83.8584 33.9139 84.315 33.714 84.6301 33.3199C84.8381 33.0331 84.9856 32.7073 85.0636 32.3621H86.7977C86.6785 33.203 86.2729 33.9777 85.6488 34.5567C85.0323 35.1214 84.2423 35.4038 83.2789 35.4038C82.0881 35.4038 81.1517 35.0227 80.4696 34.2605C79.7876 33.4983 79.4465 32.4484 79.4465 31.111C79.4465 29.6729 79.8343 28.5621 80.6098 27.7788" fill="white"/>
<path d="M92.0072 29.1839C92.4422 29.3784 92.813 29.6916 93.0766 30.0871C93.3359 30.4654 93.5045 30.8978 93.5693 31.3512C93.6193 31.7533 93.6372 32.1587 93.6228 32.5635H89.1127C89.1387 33.1752 89.3545 33.6067 89.7601 33.8578C90.0302 34.0162 90.3398 34.0954 90.6532 34.0865C90.9764 34.1019 91.2948 34.0031 91.552 33.8075C91.6905 33.6908 91.8041 33.5475 91.8858 33.3861H93.539C93.4956 33.7486 93.2948 34.1167 92.9393 34.4906C92.3844 35.0822 91.6069 35.378 90.6069 35.378C89.8135 35.3883 89.0412 35.1228 88.4234 34.6272C87.7953 34.1249 87.4807 33.3099 87.4797 32.1824C87.4797 31.1278 87.7635 30.3167 88.3309 29.7491C88.8983 29.1815 89.6368 28.8992 90.5462 28.9021C91.0471 28.8953 91.5439 28.9933 92.0043 29.1897M89.5823 30.5689C89.3389 30.8288 89.1868 31.1604 89.1488 31.5137H91.9393C91.9368 31.3322 91.8971 31.1531 91.8226 30.9874C91.748 30.8217 91.6402 30.6729 91.5057 30.5502C91.2373 30.3258 90.8951 30.208 90.5448 30.2194C90.3684 30.2084 90.1916 30.2338 90.0255 30.2939C89.8594 30.3541 89.7075 30.4477 89.5795 30.5689" fill="white"/>
<path d="M99.3193 29.4097C99.7254 29.7419 99.9277 30.2884 99.9277 31.0549V35.1665H98.2659V31.4518C98.2784 31.199 98.2344 30.9466 98.1372 30.7126C97.9783 30.3982 97.6772 30.2409 97.2341 30.2409C96.6898 30.2409 96.3155 30.471 96.1112 30.9312C95.9963 31.2277 95.9428 31.5441 95.9537 31.8617V35.1694H94.3367V29.0703H95.9046V29.9619C96.0622 29.7053 96.2614 29.4764 96.4942 29.2846C96.8622 29.0263 97.3058 28.8963 97.7557 28.915C98.3192 28.8912 98.8731 29.0665 99.3193 29.4097Z" fill="white"/>
<path d="M100.679 30.2539V29.1163H101.546V27.4136H103.149V29.1163H104.16V30.2539H103.149V33.4796C103.149 33.7298 103.181 33.8866 103.246 33.947C103.311 34.0074 103.506 34.0405 103.837 34.0405H103.994L104.155 34.0304V35.224L103.387 35.2514C102.621 35.2773 102.099 35.1464 101.819 34.8588C101.639 34.6776 101.546 34.3942 101.546 34.0146V30.2539H100.679Z" fill="white"/>
<path d="M108.515 28.9179H108.659V30.5545C108.556 30.543 108.465 30.5358 108.386 30.5315C108.306 30.5272 108.241 30.5315 108.194 30.5315C107.542 30.5315 107.104 30.7429 106.88 31.1599C106.756 31.3939 106.694 31.7563 106.694 32.2472V35.1651H105.058V29.0603H106.601V30.1245C106.774 29.8138 106.995 29.5323 107.256 29.2904C107.592 29.029 108.012 28.8959 108.438 28.915H108.513" fill="white"/>
<path d="M113.523 29.1839C113.958 29.3784 114.329 29.6916 114.592 30.0871C114.853 30.4649 115.022 30.8976 115.087 31.3512C115.135 31.7534 115.152 32.1587 115.139 32.5635H110.63C110.655 33.1752 110.87 33.6067 111.276 33.8578C111.546 34.0162 111.856 34.0954 112.169 34.0865C112.422 34.1071 112.674 34.0513 112.894 33.9263C113.114 33.8013 113.291 33.613 113.402 33.3861H115.053C115.012 33.7486 114.811 34.1167 114.455 34.4906C113.9 35.0822 113.123 35.378 112.124 35.378C111.332 35.3879 110.561 35.1225 109.944 34.6272C109.314 34.1249 108.998 33.3099 108.997 32.1824C108.997 31.1278 109.282 30.3167 109.851 29.7491C110.419 29.1839 111.159 28.9021 112.065 28.9021C112.566 28.8953 113.063 28.9933 113.523 29.1897M111.1 30.5689C110.857 30.8295 110.705 31.1607 110.666 31.5137H113.455C113.453 31.3322 113.413 31.153 113.339 30.9873C113.264 30.8216 113.156 30.6728 113.022 30.5502C112.753 30.3258 112.411 30.208 112.061 30.2194C111.884 30.2086 111.707 30.234 111.541 30.2941C111.374 30.3542 111.222 30.4478 111.094 30.5689" fill="white"/>
</g>
<defs>
<clipPath id="clip0_55_2">
<rect width="150" height="43" fill="white"/>
</clipPath>
</defs>
</svg>
