<svg width="26" height="26" viewBox="0 0 26 26" fill="none" xmlns="http://www.w3.org/2000/svg">
<g clip-path="url(#clip0_15_40)">
<path d="M17.875 1.625C17.013 1.625 16.1864 1.96741 15.5769 2.5769C14.9674 3.1864 14.625 4.01305 14.625 4.875V11.375C15.487 11.375 16.3136 11.7174 16.9231 12.3269C17.5326 12.9364 17.875 13.763 17.875 14.625V22.75C17.875 23.612 17.5326 24.4386 16.9231 25.0481C16.3136 25.6576 15.487 26 14.625 26H4.875C4.01305 26 3.1864 25.6576 2.5769 25.0481C1.96741 24.4386 1.625 23.612 1.625 22.75V14.625C1.625 13.763 1.96741 12.9364 2.5769 12.3269C3.1864 11.7174 4.01305 11.375 4.875 11.375H13V4.875C13 3.58207 13.5136 2.34209 14.4279 1.42785C15.3421 0.513615 16.5821 0 17.875 0C19.1679 0 20.4079 0.513615 21.3221 1.42785C22.2364 2.34209 22.75 3.58207 22.75 4.875V11.375C22.75 11.5905 22.6644 11.7972 22.512 11.9495C22.3597 12.1019 22.153 12.1875 21.9375 12.1875C21.722 12.1875 21.5153 12.1019 21.363 11.9495C21.2106 11.7972 21.125 11.5905 21.125 11.375V4.875C21.125 4.01305 20.7826 3.1864 20.1731 2.5769C19.5636 1.96741 18.737 1.625 17.875 1.625ZM4.875 13C4.44402 13 4.0307 13.1712 3.72595 13.476C3.4212 13.7807 3.25 14.194 3.25 14.625V22.75C3.25 23.181 3.4212 23.5943 3.72595 23.899C4.0307 24.2038 4.44402 24.375 4.875 24.375H14.625C15.056 24.375 15.4693 24.2038 15.774 23.899C16.0788 23.5943 16.25 23.181 16.25 22.75V14.625C16.25 14.194 16.0788 13.7807 15.774 13.476C15.4693 13.1712 15.056 13 14.625 13H4.875Z" fill="#797979"/>
</g>
<defs>
<clipPath id="clip0_15_40">
<rect width="26" height="26" fill="white"/>
</clipPath>
</defs>
</svg>
